<?xml version="1.0" encoding="UTF-8" standalone="no"?>
<svg
   width="16"
   height="16"
   version="1.1"
   id="svg12"
   sodipodi:docname="audio-volume-low-symbolic.svg"
   inkscape:version="1.1 (c68e22c387, 2021-05-23)"
   xmlns:inkscape="http://www.inkscape.org/namespaces/inkscape"
   xmlns:sodipodi="http://sodipodi.sourceforge.net/DTD/sodipodi-0.dtd"
   xmlns="http://www.w3.org/2000/svg"
   xmlns:svg="http://www.w3.org/2000/svg">
  <defs
     id="defs16" />
  <sodipodi:namedview
     id="namedview14"
     pagecolor="#505050"
     bordercolor="#eeeeee"
     borderopacity="1"
     inkscape:pageshadow="0"
     inkscape:pageopacity="0"
     inkscape:pagecheckerboard="0"
     showgrid="false"
     inkscape:zoom="16.788723"
     inkscape:cx="-6.6413629"
     inkscape:cy="1.3699672"
     inkscape:window-width="1920"
     inkscape:window-height="1048"
     inkscape:window-x="0"
     inkscape:window-y="32"
     inkscape:window-maximized="1"
     inkscape:current-layer="svg12" />
  <g
     fill="#474747"
     id="g10"
     transform="translate(-22.044824,-21.749641)">
    <path
       d="M 0,5 H 2.484 L 5.454,2 H 6 V 14 H 5.525 L 2.485,11 H 0 Z"
       style="marker:none"
       color="#bebebe"
       overflow="visible"
       id="path2" />
    <path
       d="M 15,8 C 15,5.186 14,2.828 12.414,1 H 11 V 2.48 C 12.265,4 13,5.7 13,8 c 0,2.3 -0.78,4 -2,5.52 V 15 h 1.381 C 13.847,13.36 15,10.814 15,8 Z"
       style="marker:none"
       color="#000000"
       overflow="visible"
       opacity="0.35"
       id="path4" />
    <path
       d="M 12,8 C 12,5.834 11.261,3.98 10,3 H 9 v 2 c 0.607,0.789 1,1.76 1,3 0,1.241 -0.393,2.22 -1,3 v 2 h 1 c 1.223,-0.995 2,-2.873 2,-5 z"
       style="marker:none"
       color="#000000"
       overflow="visible"
       opacity="0.35"
       id="path6" />
    <path
       d="M 9,8 C 9,6.743 8.688,5.784 8,5 H 7 v 6 H 8 C 8.672,10.163 9,9.258 9,8 Z"
       style="line-height:normal;-inkscape-font-specification:Sans;text-indent:0;text-align:start;text-decoration-line:none;text-transform:none;marker:none"
       color="#000000"
       font-weight="400"
       font-family="Sans"
       overflow="visible"
       id="path8" />
  </g>
  <path
     id="rect1641"
     style="fill:#000000;stroke:none;stroke-width:2.28631;stroke-linecap:round;stroke-linejoin:round;stroke-miterlimit:4;stroke-dasharray:none"
     d="m 6.30045,1.0000002 -4.20095,4.5 H 1.14252 C 0.50923,5.5000002 0,6.0112002 0,6.6445298 v 2.71289 C 0,9.9907398 0.50923,10.5 1.14252,10.5 H 2.0995 L 6.30045,15 H 7.30039 V 1.0000002 Z" />
  <path
     id="path4926"
     style="color:#000000;fill:#000000;stroke-width:0.999969;stroke-linecap:round;stroke-linejoin:round;-inkscape-stroke:none;opacity:0.4"
     d="M 9.30114,14.993672 C 13.01583,14.834214 16,11.752325 16,7.9995308 16,4.2467386 13.01583,1.1668034 9.30114,1.0073434 v 2.0039063 c 2.6312,0.154642 4.69896,2.3162855 4.69896,4.9882811 0,2.6720022 -2.06775,4.8356022 -4.69896,4.9902342 z" />
  <path
     id="path4528"
     style="fill:#000000;stroke:none;stroke-width:2.37643;stroke-linecap:round;stroke-linejoin:round;stroke-miterlimit:4;stroke-dasharray:none;opacity:0.4"
     d="M 9.30114,10.970234 A 2.9998388,3 0 0 0 12.03342,8.0014838 2.9998388,3 0 0 0 9.30114,5.0132028 Z" />
</svg>
