<?xml version="1.0" encoding="UTF-8" standalone="no"?>
<svg
   width="16"
   height="16"
   version="1.1"
   id="svg12"
   sodipodi:docname="audio-volume-muted-symbolic.svg"
   inkscape:version="1.1 (c68e22c387, 2021-05-23)"
   xmlns:inkscape="http://www.inkscape.org/namespaces/inkscape"
   xmlns:sodipodi="http://sodipodi.sourceforge.net/DTD/sodipodi-0.dtd"
   xmlns="http://www.w3.org/2000/svg"
   xmlns:svg="http://www.w3.org/2000/svg">
  <defs
     id="defs16" />
  <sodipodi:namedview
     id="namedview14"
     pagecolor="#505050"
     bordercolor="#eeeeee"
     borderopacity="1"
     inkscape:pageshadow="0"
     inkscape:pageopacity="0"
     inkscape:pagecheckerboard="0"
     showgrid="false"
     inkscape:zoom="16.788723"
     inkscape:cx="12.002104"
     inkscape:cy="2.3825517"
     inkscape:window-width="1920"
     inkscape:window-height="1048"
     inkscape:window-x="0"
     inkscape:window-y="32"
     inkscape:window-maximized="1"
     inkscape:current-layer="svg12" />
  <path
     id="rect1641"
     style="fill:#000000;stroke:none;stroke-width:2.28631;stroke-linecap:round;stroke-linejoin:round;stroke-miterlimit:4;stroke-dasharray:none;opacity:0.35"
     d="M 6.30045,1 2.0995,5.5 H 1.14252 C 0.50923,5.5 0,6.0112 0,6.6445294 v 2.71289 C 0,9.9907394 0.50923,10.5 1.14252,10.5 H 2.0995 L 6.30045,15 H 7.30039 V 1 Z" />
  <path
     id="path4926"
     style="color:#000000;opacity:0.35;fill:#000000;stroke-width:0.999969;stroke-linecap:round;stroke-linejoin:round;-inkscape-stroke:none"
     d="M 9.30114,14.993672 C 13.01583,14.834214 16,11.752325 16,7.9995304 16,4.246739 13.01583,1.166803 9.30114,1.007343 V 3.01125 c 2.6312,0.154642 4.69896,2.316285 4.69896,4.9882804 0,2.6720026 -2.06775,4.8356026 -4.69896,4.9902346 z" />
  <path
     id="path4528"
     style="fill:#000000;stroke:none;stroke-width:2.37643;stroke-linecap:round;stroke-linejoin:round;stroke-miterlimit:4;stroke-dasharray:none;opacity:0.35"
     d="M 9.30114,10.970234 A 2.9998388,3 0 0 0 12.03342,8.0014834 2.9998388,3 0 0 0 9.30114,5.013203 Z" />
</svg>
