<?xml version="1.0" encoding="UTF-8" standalone="no"?>
<!-- Created with Inkscape (http://www.inkscape.org/) -->

<svg
   width="48"
   height="48"
   viewBox="0 0 12.7 12.7"
   version="1.1"
   id="svg39233"
   sodipodi:docname="atom.svg"
   inkscape:export-filename="/home/bokehlicia/.local/share/icons/Testeo/48x48/apps/google-chrome.png"
   inkscape:export-xdpi="96"
   inkscape:export-ydpi="96"
   inkscape:version="1.1 (c68e22c387, 2021-05-23)"
   xmlns:inkscape="http://www.inkscape.org/namespaces/inkscape"
   xmlns:sodipodi="http://sodipodi.sourceforge.net/DTD/sodipodi-0.dtd"
   xmlns:xlink="http://www.w3.org/1999/xlink"
   xmlns="http://www.w3.org/2000/svg"
   xmlns:svg="http://www.w3.org/2000/svg">
  <sodipodi:namedview
     id="namedview39235"
     pagecolor="#505050"
     bordercolor="#eeeeee"
     borderopacity="1"
     inkscape:pageshadow="0"
     inkscape:pageopacity="0"
     inkscape:pagecheckerboard="0"
     inkscape:document-units="mm"
     showgrid="false"
     units="px"
     inkscape:zoom="5.3664983"
     inkscape:cx="-15.745836"
     inkscape:cy="49.846284"
     inkscape:window-width="1920"
     inkscape:window-height="1051"
     inkscape:window-x="0"
     inkscape:window-y="29"
     inkscape:window-maximized="1"
     inkscape:current-layer="layer1" />
  <defs
     id="defs39230">
    <filter
       style="color-interpolation-filters:sRGB"
       inkscape:label="Blur"
       id="filter33679"
       x="-0.0022677166"
       y="-0.070299215"
       width="1.0045354"
       height="1.1405984">
      <feGaussianBlur
         stdDeviation="0.01 0.31"
         result="blur"
         id="feGaussianBlur33677" />
    </filter>
    <linearGradient
       inkscape:collect="always"
       xlink:href="#linearGradient2864"
       id="linearGradient1398"
       gradientUnits="userSpaceOnUse"
       gradientTransform="translate(-103.08141,-56.744821)"
       x1="6.4202108"
       y1="0.96924353"
       x2="6.4202108"
       y2="11.540484" />
    <linearGradient
       inkscape:collect="always"
       id="linearGradient2864">
      <stop
         style="stop-color:#000000;stop-opacity:1"
         offset="0"
         id="stop2860" />
      <stop
         style="stop-color:#fefefe;stop-opacity:0"
         offset="1"
         id="stop2862" />
    </linearGradient>
    <filter
       style="color-interpolation-filters:sRGB"
       inkscape:label="Blur"
       id="filter11717"
       x="-0.0047992913"
       y="-0.075274248"
       width="1.0095986"
       height="1.1505485">
      <feGaussianBlur
         stdDeviation="0.01 0.21"
         result="blur"
         id="feGaussianBlur11715" />
    </filter>
    <filter
       style="color-interpolation-filters:sRGB"
       inkscape:label="Blur"
       id="filter11615"
       x="-0.0031274877"
       y="-0.17903248"
       width="1.006255"
       height="1.358065">
      <feGaussianBlur
         stdDeviation="0.01 0.21"
         result="blur"
         id="feGaussianBlur11613" />
    </filter>
    <filter
       style="color-interpolation-filters:sRGB"
       inkscape:label="Blur"
       id="filter11657"
       x="-0.0053028704"
       y="-0.071843978"
       width="1.0106057"
       height="1.143688">
      <feGaussianBlur
         stdDeviation="0.01 0.21"
         result="blur"
         id="feGaussianBlur11655" />
    </filter>
    <filter
       style="color-interpolation-filters:sRGB"
       inkscape:label="Blur"
       id="filter11777"
       x="-0.022677163"
       y="-0.47622042"
       width="1.0453543"
       height="1.9524408">
      <feGaussianBlur
         stdDeviation="0.01 0.21"
         result="blur"
         id="feGaussianBlur11775" />
    </filter>
    <linearGradient
       inkscape:collect="always"
       xlink:href="#linearGradient2084"
       id="linearGradient1400"
       gradientUnits="userSpaceOnUse"
       gradientTransform="translate(90.381411,44.04482)"
       x1="6.4202108"
       y1="0.96924353"
       x2="6.4202108"
       y2="11.540484" />
    <linearGradient
       inkscape:collect="always"
       id="linearGradient2084">
      <stop
         style="stop-color:#ffffff;stop-opacity:1"
         offset="0"
         id="stop2080" />
      <stop
         style="stop-color:#000000;stop-opacity:0"
         offset="1"
         id="stop2082" />
    </linearGradient>
  </defs>
  <g
     inkscape:label="Calque 1"
     inkscape:groupmode="layer"
     id="layer1">
    <g
       id="path1657" />
    <g
       id="path1659" />
    <g
       id="g12673"
       transform="translate(-90.381407,-44.888321)">
      <rect
         style="opacity:0.2;mix-blend-mode:overlay;fill:#000000;fill-opacity:1;stroke:none;stroke-width:0.55007;stroke-linecap:square;filter:url(#filter33679)"
         id="rect1386"
         width="10.583333"
         height="10.583333"
         x="-31.628342"
         y="-3.2242157"
         ry="2.2002783"
         rx="2.2002783"
         transform="rotate(180,35.197366,26.495719)" />
      <rect
         style="fill:#00b894;fill-opacity:1;stroke:none;stroke-width:0.55007;stroke-linecap:square"
         id="rect1388"
         width="10.583333"
         height="10.583333"
         x="91.439743"
         y="45.103153"
         ry="2.2002783"
         rx="2.2002783" />
      <rect
         style="opacity:0.2;mix-blend-mode:overlay;fill:url(#linearGradient1398);fill-opacity:1;stroke:none;stroke-width:0.55007;stroke-linecap:square"
         id="rect1390"
         width="10.583333"
         height="10.583333"
         x="-102.02308"
         y="-55.686485"
         ry="2.2002783"
         rx="2.2002783"
         transform="scale(-1)" />
      <path
         style="color:#000000;opacity:0.2;fill:#000000;stroke-linecap:round;-inkscape-stroke:none;filter:url(#filter11717)"
         d="m 98.117187,47.629817 c -0.460111,0.01747 -0.934741,0.300873 -1.435546,0.736328 -0.500806,0.435456 -1.01847,1.038429 -1.484375,1.75586 -0.552188,0.850293 -0.927593,1.700468 -1.091797,2.414062 -0.0821,0.356798 -0.113089,0.680779 -0.07422,0.964844 0.03887,0.284065 0.157315,0.545752 0.390625,0.697266 0.221353,0.143749 0.494895,0.153677 0.755859,0.08594 0.260965,-0.06774 0.528369,-0.209341 0.804688,-0.40625 a 0.26458335,0.26458335 0 0 0 0.06055,-0.36914 0.26458335,0.26458335 0 0 0 -0.369141,-0.06055 c -0.240586,0.171445 -0.460088,0.280398 -0.628906,0.324218 -0.168818,0.04382 -0.268204,0.02514 -0.333985,-0.01758 -0.06914,-0.0449 -0.130314,-0.13663 -0.15625,-0.326172 -0.02594,-0.189541 -0.006,-0.458891 0.06641,-0.773437 0.144759,-0.629091 0.49768,-1.437554 1.021484,-2.244141 0.44196,-0.680559 0.932806,-1.249848 1.386719,-1.644531 0.453913,-0.394682 0.880829,-0.598747 1.109375,-0.607422 0.08452,-0.0032 0.136601,0.01304 0.179687,0.04102 0.06474,0.04205 0.121265,0.122629 0.150391,0.291015 0.02913,0.168387 0.02058,0.409669 -0.03516,0.69336 a 0.26458335,0.26458335 0 0 0 0.208984,0.310547 0.26458335,0.26458335 0 0 0 0.310547,-0.208985 c 0.06422,-0.326849 0.08242,-0.622804 0.03711,-0.884765 -0.04531,-0.261962 -0.164019,-0.504396 -0.382812,-0.646485 -0.145954,-0.09478 -0.319699,-0.131472 -0.490235,-0.125 z"
         id="path11695" />
      <path
         style="color:#000000;opacity:0.9;fill:#ffffff;stroke-linecap:round;-inkscape-stroke:none"
         d="m 98.117187,47.365234 c -0.460111,0.01747 -0.934741,0.300873 -1.435546,0.736328 -0.500806,0.435456 -1.01847,1.038429 -1.484375,1.75586 -0.552188,0.850293 -0.927593,1.700468 -1.091797,2.414062 -0.0821,0.356798 -0.113089,0.680779 -0.07422,0.964844 0.03887,0.284065 0.157315,0.545752 0.390625,0.697266 0.221353,0.143749 0.494895,0.153677 0.755859,0.08594 0.260965,-0.06774 0.528369,-0.209341 0.804688,-0.40625 a 0.26458335,0.26458335 0 0 0 0.06055,-0.36914 0.26458335,0.26458335 0 0 0 -0.369141,-0.06055 c -0.240586,0.171445 -0.460088,0.280398 -0.628906,0.324218 -0.168818,0.04382 -0.268204,0.02514 -0.333985,-0.01758 -0.06914,-0.0449 -0.130314,-0.13663 -0.15625,-0.326172 -0.02594,-0.189541 -0.006,-0.458891 0.06641,-0.773437 0.144759,-0.629091 0.49768,-1.437554 1.021484,-2.244141 0.44196,-0.680559 0.932806,-1.249848 1.386719,-1.644531 0.453913,-0.394682 0.880829,-0.598747 1.109375,-0.607422 0.08452,-0.0032 0.136601,0.01304 0.179687,0.04102 0.06474,0.04205 0.121265,0.122629 0.150391,0.291015 0.02913,0.168387 0.02058,0.409669 -0.03516,0.69336 a 0.26458335,0.26458335 0 0 0 0.208984,0.310547 0.26458335,0.26458335 0 0 0 0.310547,-0.208985 c 0.06422,-0.326849 0.08242,-0.622804 0.03711,-0.884765 -0.04531,-0.261962 -0.164019,-0.504396 -0.382812,-0.646485 -0.145954,-0.09478 -0.319699,-0.131472 -0.490235,-0.125 z"
         id="path2" />
      <path
         style="color:#000000;opacity:0.2;fill:#000000;stroke-linecap:round;-inkscape-stroke:none;filter:url(#filter11615)"
         d="m 96.039062,49.395442 c -0.883815,0.003 -1.673185,0.122656 -2.269531,0.337891 -0.298173,0.107618 -0.548838,0.239192 -0.742187,0.40625 -0.19335,0.167058 -0.334458,0.384883 -0.347657,0.636719 -0.01257,0.239898 0.09322,0.461989 0.253907,0.642578 0.160691,0.180589 0.378061,0.333464 0.640625,0.46875 a 0.26458335,0.26458335 0 0 0 0.355468,-0.113281 0.26458335,0.26458335 0 0 0 -0.113281,-0.357422 c -0.222877,-0.114838 -0.390092,-0.239262 -0.488281,-0.34961 -0.09819,-0.110347 -0.124811,-0.192743 -0.121094,-0.263672 0.0039,-0.07453 0.04431,-0.158514 0.166016,-0.263671 0.121707,-0.105157 0.319512,-0.21596 0.576172,-0.308594 0.513319,-0.185269 1.255901,-0.303822 2.091797,-0.306641 0.172364,-5.62e-4 0.34875,0.0041 0.529296,0.01367 0.960418,0.05033 1.822168,0.239507 2.416016,0.492188 0.296924,0.12634 0.526018,0.269946 0.664063,0.402343 0.138044,0.132398 0.176186,0.235993 0.171875,0.31836 -0.0037,0.07117 -0.03883,0.150187 -0.148438,0.25 -0.109605,0.09981 -0.288987,0.205924 -0.523437,0.296875 a 0.26458335,0.26458335 0 0 0 -0.152344,0.341797 0.26458335,0.26458335 0 0 0 0.34375,0.152343 c 0.276252,-0.107166 0.508333,-0.237229 0.687503,-0.40039 0.17916,-0.163161 0.30966,-0.373011 0.32226,-0.613282 0.0145,-0.277764 -0.12904,-0.528126 -0.33593,-0.726562 -0.206904,-0.198436 -0.485437,-0.364491 -0.822271,-0.507813 -0.673666,-0.286643 -1.583227,-0.482095 -2.595703,-0.535156 -0.189371,-0.01003 -0.375158,-0.01427 -0.558594,-0.01367 z"
         id="path10973" />
      <path
         style="color:#000000;opacity:0.9;fill:#ffffff;stroke-linecap:round;-inkscape-stroke:none"
         d="m 96.039062,49.130859 c -0.883815,0.003 -1.673185,0.122656 -2.269531,0.337891 -0.298173,0.107618 -0.548838,0.239192 -0.742187,0.40625 -0.19335,0.167058 -0.334458,0.384883 -0.347657,0.636719 -0.01257,0.239898 0.09322,0.461989 0.253907,0.642578 0.160691,0.180589 0.378061,0.333464 0.640625,0.46875 a 0.26458335,0.26458335 0 0 0 0.355468,-0.113281 0.26458335,0.26458335 0 0 0 -0.113281,-0.357422 c -0.222877,-0.114838 -0.390092,-0.239262 -0.488281,-0.34961 -0.09819,-0.110347 -0.124811,-0.192743 -0.121094,-0.263672 0.0039,-0.07453 0.04431,-0.158514 0.166016,-0.263671 0.121707,-0.105157 0.319512,-0.21596 0.576172,-0.308594 0.513319,-0.185269 1.255901,-0.303822 2.091797,-0.306641 0.172364,-5.62e-4 0.34875,0.0041 0.529296,0.01367 0.960418,0.05033 1.822168,0.239507 2.416016,0.492188 0.296924,0.12634 0.526018,0.269946 0.664063,0.402343 0.138044,0.132398 0.176186,0.235993 0.171875,0.31836 -0.0037,0.07117 -0.03883,0.150187 -0.148438,0.25 -0.109605,0.09981 -0.288987,0.205924 -0.523437,0.296875 a 0.26458335,0.26458335 0 0 0 -0.152344,0.341797 0.26458335,0.26458335 0 0 0 0.34375,0.152343 c 0.276252,-0.107166 0.508333,-0.237229 0.687503,-0.40039 0.17916,-0.163161 0.30966,-0.373011 0.32226,-0.613282 0.0145,-0.277764 -0.12904,-0.528126 -0.33593,-0.726562 -0.206904,-0.198436 -0.485437,-0.364491 -0.822271,-0.507813 -0.673666,-0.286643 -1.583227,-0.482095 -2.595703,-0.535156 -0.189371,-0.01003 -0.375158,-0.01427 -0.558594,-0.01367 z"
         id="path4" />
      <path
         style="color:#000000;opacity:0.2;fill:#000000;stroke-linecap:round;-inkscape-stroke:none;filter:url(#filter11657)"
         d="m 95.066406,47.471614 c -0.100866,0.0076 -0.201955,0.03466 -0.294922,0.08203 -0.247936,0.12633 -0.394405,0.37571 -0.46289,0.654297 -0.06849,0.278588 -0.07151,0.60311 -0.02734,0.966797 0.08834,0.727376 0.373657,1.612183 0.833984,2.515625 0.460304,0.903397 1.008737,1.655328 1.544922,2.154297 0.268093,0.249485 0.531344,0.436579 0.796875,0.544922 0.265531,0.108343 0.552888,0.138027 0.800781,0.01172 0.238441,-0.121492 0.384168,-0.35853 0.455079,-0.623047 0.07091,-0.264517 0.08008,-0.571998 0.04492,-0.916016 -0.07031,-0.688036 -0.323613,-1.524944 -0.740234,-2.390625 a 0.26458335,0.26458335 0 0 0 -0.353516,-0.125 0.26458335,0.26458335 0 0 0 -0.125,0.353516 c 0.39479,0.820318 0.629968,1.615596 0.691407,2.216797 0.03072,0.3006 0.01698,0.551994 -0.0293,0.724609 -0.04627,0.172615 -0.113026,0.251154 -0.183594,0.287109 -0.07343,0.03741 -0.182135,0.04302 -0.359375,-0.0293 -0.17724,-0.07232 -0.402321,-0.221461 -0.638672,-0.441407 -0.472701,-0.439892 -0.996993,-1.150934 -1.433594,-2.007812 -0.436578,-0.856832 -0.701415,-1.698549 -0.779296,-2.339844 -0.03894,-0.320647 -0.03011,-0.589349 0.01563,-0.775391 0.04574,-0.186041 0.116069,-0.273156 0.189453,-0.310546 0.02701,-0.01376 0.05557,-0.02032 0.09375,-0.02344 0.143539,-0.01076 0.429278,0.09751 0.751953,0.365234 a 0.26458335,0.26458335 0 0 0 0.373047,-0.03516 0.26458335,0.26458335 0 0 0 -0.03516,-0.373047 C 95.819155,47.645843 95.44945,47.442887 95.066406,47.471614 Z"
         id="path11635" />
      <path
         style="color:#000000;opacity:0.9;fill:#ffffff;stroke-linecap:round;-inkscape-stroke:none"
         d="m 95.066406,47.207031 c -0.100866,0.0076 -0.201955,0.03466 -0.294922,0.08203 -0.247936,0.12633 -0.394405,0.37571 -0.46289,0.654297 -0.06849,0.278588 -0.07151,0.60311 -0.02734,0.966797 0.08834,0.727376 0.373657,1.612183 0.833984,2.515625 0.460304,0.903397 1.008737,1.655328 1.544922,2.154297 0.268093,0.249485 0.531344,0.436579 0.796875,0.544922 0.265531,0.108343 0.552888,0.138027 0.800781,0.01172 0.238441,-0.121492 0.384168,-0.35853 0.455079,-0.623047 0.07091,-0.264517 0.08008,-0.571998 0.04492,-0.916016 -0.07031,-0.688036 -0.323613,-1.524944 -0.740234,-2.390625 a 0.26458335,0.26458335 0 0 0 -0.353516,-0.125 0.26458335,0.26458335 0 0 0 -0.125,0.353516 c 0.39479,0.820318 0.629968,1.615596 0.691407,2.216797 0.03072,0.3006 0.01698,0.551994 -0.0293,0.724609 -0.04627,0.172615 -0.113026,0.251154 -0.183594,0.287109 -0.07343,0.03741 -0.182135,0.04302 -0.359375,-0.0293 -0.17724,-0.07232 -0.402321,-0.221461 -0.638672,-0.441407 -0.472701,-0.439892 -0.996993,-1.150934 -1.433594,-2.007812 -0.436578,-0.856832 -0.701415,-1.698549 -0.779296,-2.339844 -0.03894,-0.320647 -0.03011,-0.589349 0.01563,-0.775391 0.04574,-0.186041 0.116069,-0.273156 0.189453,-0.310546 0.02701,-0.01376 0.05557,-0.02032 0.09375,-0.02344 0.143539,-0.01076 0.429278,0.09751 0.751953,0.365234 a 0.26458335,0.26458335 0 0 0 0.373047,-0.03516 0.26458335,0.26458335 0 0 0 -0.03516,-0.373047 C 95.819155,47.38126 95.44945,47.178304 95.066406,47.207031 Z"
         id="path6" />
      <path
         style="color:#000000;opacity:0.2;fill:#000000;stroke-width:0.0705552;-inkscape-stroke:none;filter:url(#filter11777)"
         d="m 97.044075,50.954379 a 0.52916671,0.52916671 0 0 1 -1.058333,0 0.52916671,0.52916671 0 1 1 1.058333,0 z"
         id="path11755" />
      <path
         style="color:#000000;opacity:0.9;fill:#ffffff;stroke-width:0.0705552;-inkscape-stroke:none"
         d="m 97.044075,50.689796 a 0.52916671,0.52916671 0 0 1 -1.058333,0 0.52916671,0.52916671 0 1 1 1.058333,0 z"
         id="path8" />
      <rect
         style="opacity:0.2;mix-blend-mode:overlay;fill:url(#linearGradient1400);fill-opacity:1;stroke:none;stroke-width:0.55007;stroke-linecap:square"
         id="rect1392"
         width="10.583333"
         height="10.583333"
         x="91.439743"
         y="45.103153"
         ry="2.2002783"
         rx="2.2002783" />
      <path
         id="path1394"
         style="color:#000000;opacity:0.2;mix-blend-mode:soft-light;fill:#ffffff;stroke-width:1;stroke-linecap:square;-inkscape-stroke:none"
         d="m 93.639617,45.103138 c -0.0381,0 -0.0761,0.0012 -0.11369,0.0031 -0.0376,0.0019 -0.0751,0.0045 -0.11213,0.0083 -0.0371,0.0037 -0.0736,0.0084 -0.11007,0.01395 -0.0365,0.0056 -0.0726,0.01182 -0.10852,0.01912 -0.0359,0.0073 -0.0718,0.01579 -0.10697,0.02481 -0.0352,0.009 -0.0699,0.01877 -0.10439,0.02946 -0.0345,0.01068 -0.0686,0.02232 -0.10232,0.03462 -0.0337,0.0123 -0.0673,0.02539 -0.10025,0.03927 -0.0329,0.01388 -0.0651,0.02851 -0.0971,0.04393 -0.0321,0.01541 -0.0639,0.03116 -0.0951,0.04806 -0.0312,0.0169 -0.0617,0.03489 -0.092,0.05323 -0.0302,0.01834 -0.0602,0.03711 -0.0894,0.05684 -0.0293,0.01973 -0.0581,0.04041 -0.0863,0.06149 -0.0282,0.02108 -0.0555,0.04273 -0.0827,0.06511 -0.0272,0.02238 -0.0541,0.0456 -0.0801,0.06925 -0.026,0.02364 -0.0516,0.04749 -0.0765,0.07235 -0.0248,0.02486 -0.0487,0.05046 -0.0724,0.07648 -0.0237,0.02602 -0.0469,0.05243 -0.0692,0.07958 -0.0224,0.02715 -0.044,0.05498 -0.0651,0.0832 -0.0211,0.02822 -0.0418,0.05705 -0.0615,0.0863 -0.0197,0.02925 -0.0385,0.05916 -0.0568,0.0894 -0.0183,0.03024 -0.0358,0.0608 -0.0527,0.09198 -0.0169,0.03118 -0.0332,0.06301 -0.0486,0.09508 -0.0154,0.03208 -0.03,0.06423 -0.0439,0.09715 -0.0139,0.03293 -0.027,0.06652 -0.0393,0.100252 -0.0123,0.03373 -0.0239,0.06783 -0.0346,0.10232 -0.0107,0.03449 -0.0204,0.06918 -0.0295,0.104386 -0.009,0.0352 -0.0175,0.0711 -0.0248,0.10697 -0.007,0.03587 -0.0136,0.07203 -0.0191,0.108521 -0.006,0.0365 -0.0102,0.073 -0.0139,0.110071 -0.004,0.03707 -0.006,0.07453 -0.008,0.112138 -0.002,0.03761 -0.003,0.0756 -0.003,0.113688 v 6.182567 c 0,0.03809 10e-4,0.07608 0.003,0.113688 0.002,0.03761 0.004,0.07507 0.008,0.112137 0.004,0.03707 0.008,0.07357 0.0139,0.110071 0.006,0.0365 0.0118,0.07265 0.0191,0.108521 0.007,0.03587 0.0158,0.07177 0.0248,0.10697 0.009,0.0352 0.0188,0.0699 0.0295,0.104386 0.0107,0.03449 0.0223,0.06859 0.0346,0.10232 0.0123,0.03373 0.0254,0.06733 0.0393,0.100252 0.0139,0.03293 0.0285,0.06508 0.0439,0.09715 0.0154,0.03208 0.0317,0.0639 0.0486,0.09509 0.0169,0.03118 0.0344,0.06174 0.0527,0.09198 0.0183,0.03024 0.0371,0.06015 0.0568,0.0894 0.0197,0.02925 0.0404,0.05808 0.0615,0.0863 0.0211,0.02822 0.0427,0.05605 0.0651,0.0832 0.0224,0.02715 0.0456,0.05356 0.0692,0.07958 0.0237,0.02602 0.0475,0.05162 0.0724,0.07648 0.0249,0.02485 0.0505,0.0487 0.0765,0.07235 0.026,0.02364 0.0529,0.04686 0.0801,0.06925 0.0271,0.02238 0.0545,0.04403 0.0827,0.06511 0.0282,0.02108 0.0571,0.04176 0.0863,0.06149 0.0293,0.01973 0.0592,0.03851 0.0894,0.05684 0.0302,0.01834 0.0608,0.03633 0.092,0.05323 0.0312,0.0169 0.063,0.03265 0.0951,0.04806 0.0321,0.01541 0.0642,0.03004 0.0971,0.04392 0.0329,0.01388 0.0665,0.02697 0.10025,0.03927 0.0337,0.01231 0.0678,0.02394 0.10232,0.03462 0.0345,0.01068 0.0692,0.02044 0.10439,0.02946 0.0352,0.009 0.0711,0.0175 0.10697,0.0248 0.0359,0.0073 0.072,0.01358 0.10852,0.01912 0.0365,0.0055 0.073,0.01021 0.11007,0.01395 0.0371,0.0037 0.0745,0.0064 0.11213,0.0083 0.0376,0.0019 0.0756,0.0031 0.11369,0.0031 h 6.18257 c 0.0381,0 0.0761,-0.0012 0.11369,-0.0031 0.0376,-0.0019 0.0751,-0.0045 0.112143,-0.0083 0.0371,-0.0037 0.0736,-0.0084 0.11007,-0.01395 0.0365,-0.0055 0.0727,-0.01182 0.10852,-0.01912 0.0359,-0.0073 0.0718,-0.01579 0.10697,-0.0248 0.0352,-0.009 0.0699,-0.01877 0.10439,-0.02946 0.0345,-0.01068 0.0686,-0.02232 0.10232,-0.03462 0.0337,-0.01231 0.0673,-0.02539 0.10025,-0.03927 0.0329,-0.01388 0.0651,-0.02851 0.0971,-0.04392 0.0321,-0.01541 0.0639,-0.03116 0.0951,-0.04806 0.0312,-0.0169 0.0617,-0.03489 0.092,-0.05323 0.0302,-0.01834 0.0601,-0.03711 0.0894,-0.05684 0.0293,-0.01973 0.0581,-0.04041 0.0863,-0.06149 0.0282,-0.02108 0.056,-0.04273 0.0832,-0.06511 0.0272,-0.02238 0.0536,-0.0456 0.0796,-0.06925 0.026,-0.02364 0.0516,-0.04749 0.0765,-0.07235 0.0248,-0.02486 0.0492,-0.05046 0.0729,-0.07648 0.0237,-0.02602 0.0464,-0.05243 0.0687,-0.07958 0.0224,-0.02715 0.044,-0.05498 0.0651,-0.0832 0.0211,-0.02822 0.0418,-0.05705 0.0615,-0.0863 0.0197,-0.02926 0.0385,-0.05916 0.0568,-0.0894 0.0183,-0.03024 0.0363,-0.0608 0.0532,-0.09198 0.0169,-0.03118 0.0327,-0.06301 0.0481,-0.09509 0.0154,-0.03208 0.0306,-0.06423 0.0444,-0.09715 0.0139,-0.03293 0.027,-0.06652 0.0393,-0.100252 0.0123,-0.03373 0.0234,-0.06783 0.0341,-0.10232 0.0107,-0.03449 0.021,-0.06918 0.03,-0.104386 0.009,-0.0352 0.017,-0.0711 0.0243,-0.10697 0.007,-0.03587 0.0136,-0.07203 0.0191,-0.108521 0.006,-0.0365 0.0102,-0.073 0.0139,-0.110071 0.004,-0.03707 0.007,-0.07453 0.009,-0.112137 0.002,-0.03761 0.003,-0.0756 0.003,-0.113688 v -6.182569 c 0,-0.03809 -7.9e-4,-0.07608 -0.003,-0.113688 -0.002,-0.03761 -0.005,-0.07507 -0.009,-0.112138 -0.004,-0.03707 -0.008,-0.07357 -0.0139,-0.110071 -0.006,-0.0365 -0.0118,-0.07265 -0.0191,-0.108521 -0.007,-0.03587 -0.0153,-0.07177 -0.0243,-0.10697 -0.009,-0.0352 -0.0193,-0.0699 -0.03,-0.104386 -0.0107,-0.03449 -0.0218,-0.06859 -0.0341,-0.10232 -0.0123,-0.03373 -0.0254,-0.06733 -0.0393,-0.100252 -0.0139,-0.03293 -0.029,-0.06508 -0.0444,-0.09715 -0.0154,-0.03208 -0.0312,-0.0639 -0.0481,-0.09509 -0.0169,-0.03118 -0.0349,-0.06174 -0.0532,-0.09198 -0.0183,-0.03024 -0.0371,-0.06015 -0.0568,-0.0894 -0.0197,-0.02926 -0.0404,-0.05808 -0.0615,-0.0863 -0.0211,-0.02822 -0.0427,-0.05605 -0.0651,-0.0832 -0.0224,-0.02715 -0.0451,-0.05356 -0.0687,-0.07958 -0.0237,-0.02602 -0.048,-0.05162 -0.0729,-0.07648 -0.0249,-0.02486 -0.0505,-0.0487 -0.0765,-0.07235 -0.026,-0.02364 -0.0524,-0.04686 -0.0796,-0.06925 -0.0272,-0.02238 -0.055,-0.04403 -0.0832,-0.06511 -0.0282,-0.02108 -0.057,-0.04176 -0.0863,-0.06149 -0.0293,-0.01973 -0.0592,-0.03851 -0.0894,-0.05684 -0.0302,-0.01834 -0.0608,-0.03633 -0.092,-0.05323 -0.0312,-0.0169 -0.063,-0.03265 -0.0951,-0.04806 -0.0321,-0.01541 -0.0642,-0.03004 -0.0971,-0.04392 -0.0329,-0.01388 -0.0665,-0.02697 -0.10025,-0.03927 -0.0337,-0.0123 -0.0678,-0.02394 -0.10232,-0.03462 -0.0345,-0.01068 -0.0692,-0.02044 -0.10439,-0.02946 -0.0352,-0.009 -0.0711,-0.0175 -0.10697,-0.02481 -0.0359,-0.0073 -0.072,-0.01357 -0.10852,-0.01912 -0.0365,-0.0056 -0.073,-0.01021 -0.11007,-0.01395 -0.0371,-0.0037 -0.0745,-0.0064 -0.112143,-0.0083 -0.0376,-0.0019 -0.0756,-0.0031 -0.11369,-0.0031 z m 5.3e-4,0.264067 h 6.18154 c 1.076953,0 1.935803,0.858848 1.935803,1.935799 v 6.183602 c 0,1.07695 -0.85885,1.935283 -1.935803,1.935283 h -6.18154 c -1.07695,0 -1.93528,-0.858333 -1.93528,-1.935283 v -6.183602 c 0,-1.076951 0.85833,-1.935799 1.93528,-1.935799 z" />
    </g>
  </g>
</svg>
