<?xml version="1.0" encoding="UTF-8" standalone="no"?>
<!-- Created with Inkscape (http://www.inkscape.org/) -->

<svg
   width="48"
   height="48"
   viewBox="0 0 12.7 12.7"
   version="1.1"
   id="svg39233"
   inkscape:version="1.1 (c68e22c387, 2021-05-23)"
   sodipodi:docname="spotify-client.svg"
   xmlns:inkscape="http://www.inkscape.org/namespaces/inkscape"
   xmlns:sodipodi="http://sodipodi.sourceforge.net/DTD/sodipodi-0.dtd"
   xmlns:xlink="http://www.w3.org/1999/xlink"
   xmlns="http://www.w3.org/2000/svg"
   xmlns:svg="http://www.w3.org/2000/svg">
  <sodipodi:namedview
     id="namedview39235"
     pagecolor="#505050"
     bordercolor="#eeeeee"
     borderopacity="1"
     inkscape:pageshadow="0"
     inkscape:pageopacity="0"
     inkscape:pagecheckerboard="0"
     inkscape:document-units="mm"
     showgrid="false"
     units="px"
     inkscape:zoom="5.3664983"
     inkscape:cx="-35.684349"
     inkscape:cy="6.3356025"
     inkscape:window-width="1920"
     inkscape:window-height="1048"
     inkscape:window-x="0"
     inkscape:window-y="32"
     inkscape:window-maximized="1"
     inkscape:current-layer="layer1" />
  <defs
     id="defs39230">
    <filter
       style="color-interpolation-filters:sRGB"
       inkscape:label="Blur"
       id="filter33679"
       x="-0.0022677166"
       y="-0.070299215"
       width="1.0045354"
       height="1.1405984">
      <feGaussianBlur
         stdDeviation="0.01 0.31"
         result="blur"
         id="feGaussianBlur33677" />
    </filter>
    <filter
       style="color-interpolation-filters:sRGB"
       inkscape:label="Blur"
       id="filter16690"
       x="-0.0043870046"
       y="-0.092127095"
       width="1.008774"
       height="1.1842542">
      <feGaussianBlur
         stdDeviation="0.01 0.21"
         result="blur"
         id="feGaussianBlur16688" />
    </filter>
    <filter
       style="color-interpolation-filters:sRGB"
       inkscape:label="Blur"
       id="filter16844"
       x="-0.0061783424"
       y="-0.067961776"
       width="1.0123567"
       height="1.1359236">
      <feGaussianBlur
         stdDeviation="0.01 0.11"
         result="blur"
         id="feGaussianBlur16842" />
    </filter>
    <filter
       style="color-interpolation-filters:sRGB"
       inkscape:label="Blur"
       id="filter33679-3"
       x="-0.0022677166"
       y="-0.070299215"
       width="1.0045354"
       height="1.1405984">
      <feGaussianBlur
         stdDeviation="0.01 0.31"
         result="blur"
         id="feGaussianBlur33677-6" />
    </filter>
    <filter
       style="color-interpolation-filters:sRGB"
       inkscape:label="Blur"
       id="filter33679-6"
       x="-0.0022677166"
       y="-0.070299215"
       width="1.0045354"
       height="1.1405984">
      <feGaussianBlur
         stdDeviation="0.01 0.31"
         result="blur"
         id="feGaussianBlur33677-2" />
    </filter>
    <filter
       style="color-interpolation-filters:sRGB"
       inkscape:label="Blur"
       id="filter18570"
       x="-0.0032063599"
       y="-0.14666029"
       width="1.0064127"
       height="1.2933206">
      <feGaussianBlur
         stdDeviation="0.01 0.11"
         result="blur"
         id="feGaussianBlur18568" />
    </filter>
    <filter
       style="color-interpolation-filters:sRGB"
       inkscape:label="Blur"
       id="filter18871"
       x="-0.0044186149"
       y="-0.15384328"
       width="1.0088372"
       height="1.3076866">
      <feGaussianBlur
         stdDeviation="0.01 0.11"
         result="blur"
         id="feGaussianBlur18869" />
    </filter>
    <filter
       style="color-interpolation-filters:sRGB"
       inkscape:label="Blur"
       id="filter18831"
       x="-0.0038146806"
       y="-0.15719745"
       width="1.0076294"
       height="1.3143949">
      <feGaussianBlur
         stdDeviation="0.01 0.11"
         result="blur"
         id="feGaussianBlur18829" />
    </filter>
    <filter
       style="color-interpolation-filters:sRGB"
       inkscape:label="Blur"
       id="filter33679-36"
       x="-0.0022677166"
       y="-0.070299215"
       width="1.0045354"
       height="1.1405984">
      <feGaussianBlur
         stdDeviation="0.01 0.31"
         result="blur"
         id="feGaussianBlur33677-7" />
    </filter>
    <filter
       style="color-interpolation-filters:sRGB"
       inkscape:label="Blur"
       id="filter39052"
       x="-0.00081334028"
       y="-0.1304559"
       width="1.0016267"
       height="1.2609118">
      <feGaussianBlur
         stdDeviation="0.01 0.21"
         result="blur"
         id="feGaussianBlur39050" />
    </filter>
    <filter
       style="color-interpolation-filters:sRGB"
       inkscape:label="Blur"
       id="filter39056"
       x="-0.00089600725"
       y="-0.15346756"
       width="1.001792"
       height="1.3069351">
      <feGaussianBlur
         stdDeviation="0.01 0.21"
         result="blur"
         id="feGaussianBlur39054" />
    </filter>
    <filter
       style="color-interpolation-filters:sRGB"
       inkscape:label="Blur"
       id="filter39060"
       x="-0.00104073"
       y="-0.19200163"
       width="1.0020815"
       height="1.3840033">
      <feGaussianBlur
         stdDeviation="0.01 0.21"
         result="blur"
         id="feGaussianBlur39058" />
    </filter>
    <linearGradient
       inkscape:collect="always"
       xlink:href="#linearGradient2864"
       id="linearGradient39603"
       gradientUnits="userSpaceOnUse"
       gradientTransform="translate(-88.481336,-12.078719)"
       x1="6.4202108"
       y1="0.96924353"
       x2="6.4202108"
       y2="11.540484" />
    <linearGradient
       inkscape:collect="always"
       id="linearGradient2864">
      <stop
         style="stop-color:#000000;stop-opacity:1"
         offset="0"
         id="stop2860" />
      <stop
         style="stop-color:#fefefe;stop-opacity:0"
         offset="1"
         id="stop2862" />
    </linearGradient>
    <linearGradient
       inkscape:collect="always"
       xlink:href="#linearGradient2084"
       id="linearGradient39601"
       gradientUnits="userSpaceOnUse"
       gradientTransform="translate(75.781329,-0.62128)"
       x1="6.4202108"
       y1="0.96924353"
       x2="6.4202108"
       y2="11.540484" />
    <linearGradient
       inkscape:collect="always"
       id="linearGradient2084">
      <stop
         style="stop-color:#ffffff;stop-opacity:1"
         offset="0"
         id="stop2080" />
      <stop
         style="stop-color:#000000;stop-opacity:0"
         offset="1"
         id="stop2082" />
    </linearGradient>
  </defs>
  <g
     inkscape:label="Calque 1"
     inkscape:groupmode="layer"
     id="layer1">
    <g
       id="g611"
       transform="translate(-75.781325,-0.22221968)">
      <rect
         style="opacity:0.2;mix-blend-mode:overlay;fill:#000000;fill-opacity:1;stroke:none;stroke-width:0.55007;stroke-linecap:square;filter:url(#filter33679-36)"
         id="rect34961"
         width="10.583333"
         height="10.583333"
         x="-31.628342"
         y="-3.2242157"
         ry="2.2002783"
         rx="2.2002783"
         transform="rotate(180,27.897325,4.1626684)" />
      <rect
         style="fill:#00b894;fill-opacity:1;stroke:none;stroke-width:0.55007;stroke-linecap:square"
         id="rect34963"
         width="10.583333"
         height="10.583333"
         x="76.839661"
         y="0.43705264"
         ry="2.2002783"
         rx="2.2002783" />
      <path
         id="path34969"
         style="color:#000000;opacity:0.2;mix-blend-mode:soft-light;fill:#ffffff;stroke-width:1;stroke-linecap:square;-inkscape-stroke:none"
         d="m 79.040032,0.437053 c -0.03809,0 -0.07608,0.0012 -0.113689,0.0031 -0.0376,0.0019 -0.07506,0.0045 -0.112139,0.0083 -0.03707,0.0037 -0.07358,0.0084 -0.110069,0.01395 -0.0365,0.0055 -0.07265,0.01182 -0.108521,0.01912 -0.03587,0.0073 -0.07177,0.01579 -0.106969,0.0248 -0.03521,0.009 -0.0699,0.01877 -0.104388,0.02946 -0.03449,0.01068 -0.06859,0.02232 -0.10232,0.03462 -0.03373,0.0123 -0.06732,0.02539 -0.100251,0.03927 -0.03293,0.01388 -0.06507,0.02851 -0.09715,0.04392 -0.03208,0.01541 -0.0639,0.03116 -0.09508,0.04806 -0.03118,0.0169 -0.06174,0.03489 -0.09198,0.05323 -0.03024,0.01834 -0.06015,0.03711 -0.0894,0.05684 -0.02926,0.01973 -0.05808,0.04041 -0.0863,0.0615 -0.02822,0.02108 -0.05554,0.04273 -0.08268,0.06511 -0.02715,0.02238 -0.05407,0.0456 -0.0801,0.06925 -0.02604,0.02364 -0.05162,0.04749 -0.07648,0.07235 -0.02484,0.02486 -0.0487,0.05046 -0.07235,0.07648 -0.02365,0.02602 -0.04686,0.05243 -0.06925,0.07958 -0.02238,0.02715 -0.04403,0.05498 -0.06511,0.0832 -0.02109,0.02822 -0.04176,0.05705 -0.0615,0.0863 -0.01974,0.02925 -0.03851,0.05916 -0.05684,0.0894 -0.01834,0.03024 -0.03581,0.0608 -0.05271,0.09198 -0.01691,0.03118 -0.03317,0.06301 -0.04858,0.09508 -0.0154,0.03208 -0.03004,0.06423 -0.04392,0.09715 -0.01389,0.03293 -0.02697,0.06652 -0.03927,0.100252 -0.0123,0.03373 -0.02394,0.06783 -0.03462,0.10232 -0.01069,0.03449 -0.02043,0.06918 -0.02946,0.104386 -0.009,0.0352 -0.01749,0.0711 -0.02479,0.10697 -0.0073,0.03587 -0.01357,0.07203 -0.01913,0.108521 -0.0056,0.0365 -0.01021,0.073 -0.01394,0.110071 -0.0037,0.03707 -0.0064,0.07453 -0.0083,0.112138 -0.0019,0.03761 -0.0031,0.0756 -0.0031,0.113688 v 6.1825661 c 0,0.038092 0.0013,0.076083 0.0031,0.113688 0.0019,0.037606 0.0045,0.075065 0.0083,0.1121378 0.0038,0.037073 0.0084,0.073575 0.01394,0.1100709 0.0056,0.036496 0.01183,0.072648 0.01913,0.1085204 0.0073,0.035873 0.01579,0.071766 0.02479,0.10697 0.009,0.035204 0.01876,0.069896 0.02946,0.1043863 0.01069,0.034491 0.0223,0.068588 0.03462,0.1023195 0.0123,0.033732 0.0254,0.067325 0.03927,0.1002522 0.01389,0.032927 0.02851,0.065075 0.04392,0.097152 0.0154,0.032077 0.03168,0.063903 0.04858,0.095085 0.01691,0.031181 0.03437,0.061743 0.05271,0.091984 0.01833,0.030241 0.03711,0.060146 0.05684,0.0894 0.01974,0.02925 0.04041,0.05808 0.0615,0.0863 0.02109,0.02822 0.04273,0.05605 0.06511,0.0832 0.02238,0.02715 0.0456,0.05356 0.06925,0.07958 0.02365,0.02602 0.04749,0.05162 0.07235,0.07648 0.02487,0.02485 0.05046,0.0487 0.07648,0.07235 0.02603,0.02364 0.05295,0.04686 0.0801,0.06925 0.02715,0.02238 0.05446,0.04403 0.08268,0.06511 0.02822,0.02108 0.05705,0.04176 0.0863,0.06149 0.02925,0.01973 0.05916,0.03851 0.0894,0.05684 0.03024,0.01834 0.0608,0.03633 0.09198,0.05323 0.03118,0.0169 0.06301,0.03265 0.09508,0.04806 0.03208,0.01541 0.06422,0.03004 0.09715,0.04392 0.03293,0.01388 0.06652,0.02697 0.100251,0.03927 0.03373,0.01231 0.06783,0.02394 0.10232,0.03462 0.03449,0.01068 0.06918,0.02044 0.104388,0.02946 0.0352,0.009 0.0711,0.0175 0.106969,0.0248 0.03587,0.0073 0.07203,0.01358 0.108521,0.01912 0.03649,0.0055 0.073,0.01021 0.110069,0.01395 0.03707,0.0037 0.07453,0.0064 0.112139,0.0083 0.0376,0.0019 0.0756,0.0031 0.113689,0.0031 h 6.182569 c 0.03809,0 0.07608,-0.0012 0.113686,-0.0031 0.03761,-0.0019 0.07507,-0.0045 0.112138,-0.0083 0.03707,-0.0037 0.07358,-0.0084 0.110072,-0.01395 0.03649,-0.0055 0.07265,-0.01182 0.108519,-0.01912 0.03588,-0.0073 0.07177,-0.01579 0.106971,-0.0248 0.03521,-0.009 0.0699,-0.01877 0.104386,-0.02946 0.03449,-0.01068 0.06859,-0.02232 0.10232,-0.03462 0.03373,-0.01231 0.06733,-0.02539 0.100253,-0.03927 0.03293,-0.01388 0.06507,-0.02851 0.09715,-0.04392 0.03208,-0.01541 0.0639,-0.03116 0.09508,-0.04806 0.03118,-0.0169 0.06174,-0.03489 0.09198,-0.05323 0.03024,-0.01834 0.06015,-0.03711 0.0894,-0.05684 0.02926,-0.01973 0.05808,-0.04041 0.0863,-0.06149 0.02822,-0.02108 0.05605,-0.04273 0.0832,-0.06511 0.02715,-0.02238 0.05356,-0.0456 0.07958,-0.06925 0.02603,-0.02364 0.05163,-0.04749 0.07648,-0.07235 0.02484,-0.02486 0.04922,-0.05046 0.07286,-0.07648 0.02365,-0.02602 0.04635,-0.05243 0.06873,-0.07958 0.02238,-0.02715 0.04403,-0.05498 0.06511,-0.0832 0.02109,-0.02822 0.04176,-0.05705 0.0615,-0.0863 0.01974,-0.02925 0.03851,-0.059159 0.05684,-0.0894 0.01833,-0.030241 0.03633,-0.060803 0.05323,-0.091984 0.01691,-0.031182 0.03265,-0.063008 0.04806,-0.095085 0.01543,-0.032077 0.03056,-0.064225 0.04444,-0.097152 0.01389,-0.032927 0.02697,-0.066521 0.03928,-0.1002522 0.0123,-0.033731 0.02341,-0.067829 0.03411,-0.1023195 0.01069,-0.034491 0.02096,-0.069182 0.02997,-0.1043863 0.009,-0.035204 0.01699,-0.071098 0.02429,-0.10697 0.0073,-0.035873 0.01357,-0.072025 0.01913,-0.1085204 0.0056,-0.036496 0.01021,-0.072997 0.01394,-0.1100709 0.0038,-0.037073 0.0069,-0.074532 0.0088,-0.1121378 0.0019,-0.037605 0.0026,-0.075596 0.0026,-0.113688 V 2.637436 c 0,-0.03809 -7.94e-4,-0.07608 -0.0026,-0.113688 -0.0019,-0.03761 -0.0051,-0.07506 -0.0088,-0.112138 -0.0037,-0.03707 -0.0084,-0.07358 -0.01394,-0.110071 -0.0056,-0.0365 -0.01183,-0.07265 -0.01913,-0.108521 -0.0073,-0.03587 -0.01527,-0.07177 -0.02429,-0.10697 -0.009,-0.0352 -0.01929,-0.0699 -0.02997,-0.104386 -0.01069,-0.03449 -0.0218,-0.06859 -0.03411,-0.10232 -0.0123,-0.03373 -0.0254,-0.06733 -0.03928,-0.100252 -0.01389,-0.03293 -0.02903,-0.06508 -0.04444,-0.09715 -0.0154,-0.03208 -0.03116,-0.0639 -0.04806,-0.09509 -0.01691,-0.03118 -0.03489,-0.06174 -0.05323,-0.09198 -0.01834,-0.03024 -0.03711,-0.06015 -0.05684,-0.0894 -0.01974,-0.02926 -0.04042,-0.05808 -0.0615,-0.0863 -0.02109,-0.02822 -0.04273,-0.05605 -0.06511,-0.0832 -0.02238,-0.02715 -0.04509,-0.05356 -0.06873,-0.07958 -0.02365,-0.02602 -0.04801,-0.05163 -0.07286,-0.07648 -0.02487,-0.02486 -0.05046,-0.0487 -0.07648,-0.07235 -0.02604,-0.02364 -0.05244,-0.04686 -0.07958,-0.06925 -0.02715,-0.02238 -0.05497,-0.04403 -0.0832,-0.06511 -0.02822,-0.02108 -0.05704,-0.04176 -0.0863,-0.0615 -0.02925,-0.01973 -0.05916,-0.03851 -0.0894,-0.05684 -0.03024,-0.01834 -0.0608,-0.03633 -0.09198,-0.05323 -0.03118,-0.0169 -0.06301,-0.03265 -0.09508,-0.04806 -0.03208,-0.01541 -0.06423,-0.03004 -0.09715,-0.04393 -0.03293,-0.01388 -0.06652,-0.02697 -0.100253,-0.03927 -0.03373,-0.0123 -0.06783,-0.02394 -0.10232,-0.03462 -0.03449,-0.01068 -0.06918,-0.02044 -0.104386,-0.02946 -0.0352,-0.009 -0.0711,-0.0175 -0.106971,-0.02481 -0.03587,-0.0073 -0.07202,-0.01357 -0.108519,-0.01912 -0.0365,-0.0055 -0.073,-0.01021 -0.110072,-0.01395 -0.03707,-0.0037 -0.07453,-0.0064 -0.112138,-0.0083 -0.0376,-0.0019 -0.07559,-0.0031 -0.113686,-0.0031 z m 5.29e-4,0.264067 h 6.181534 c 1.076952,0 1.9358,0.858848 1.9358,1.935799 v 6.1836018 c 0,1.0769502 -0.858848,1.9352822 -1.9358,1.9352822 h -6.181534 c -1.07695,0 -1.935282,-0.858332 -1.935282,-1.9352822 V 2.636919 c 0,-1.076951 0.858332,-1.935799 1.935282,-1.935799 z" />
      <path
         id="path38796"
         style="color:#000000;opacity:0.2;fill:#000000;stroke-width:3.77953;stroke-linecap:round;stroke-linejoin:round;-inkscape-stroke:none;filter:url(#filter39052)"
         d="m 295.75195,-54 a 1.5,1.5 0 0 0 0.041,1.119141 1.5,1.5 0 0 0 1.98437,0.761718 c 8.10613,-3.63877 17.16855,-3.644474 25.27539,-0.0078 a 1.5,1.5 0 0 0 1.98633,-0.753906 1.5,1.5 0 0 0 0.0469,-1.113282 1.5,1.5 0 0 1 -0.008,0.01953 1.5,1.5 0 0 1 -0.0391,0.09375 1.5,1.5 0 0 1 -0.14648,0.255859 1.5,1.5 0 0 1 -0.19336,0.222656 1.5,1.5 0 0 1 -0.23242,0.179688 1.5,1.5 0 0 1 -0.26368,0.130859 1.5,1.5 0 0 1 -0.28515,0.07617 1.5,1.5 0 0 1 -0.29297,0.01953 1.5,1.5 0 0 1 -0.29297,-0.03711 1.5,1.5 0 0 1 -0.2793,-0.09375 c -0.12667,-0.05682 -0.25177,-0.112924 -0.3789,-0.167969 -0.12713,-0.05504 -0.25524,-0.108843 -0.38281,-0.162109 -0.12758,-0.05327 -0.25481,-0.106715 -0.38282,-0.158203 -0.128,-0.05149 -0.25634,-0.102634 -0.38476,-0.152344 -0.12842,-0.04971 -0.2579,-0.09855 -0.38672,-0.146484 -0.12882,-0.04793 -0.25751,-0.09447 -0.38672,-0.140626 -0.12921,-0.04615 -0.25909,-0.09039 -0.38867,-0.134765 -0.12958,-0.04438 -0.25874,-0.08826 -0.38867,-0.130859 -0.12994,-0.0426 -0.26035,-0.08418 -0.39063,-0.125 -0.13028,-0.04082 -0.26002,-0.08205 -0.39062,-0.121094 -0.13061,-0.03904 -0.26166,-0.07602 -0.39258,-0.113282 -0.13092,-0.03726 -0.26136,-0.07389 -0.39258,-0.109374 -0.13122,-0.03549 -0.26303,-0.06981 -0.39453,-0.103516 -0.1315,-0.03371 -0.26276,-0.06768 -0.39453,-0.09961 -0.13178,-0.03193 -0.26446,-0.06164 -0.39649,-0.0918 -0.13203,-0.03016 -0.26421,-0.05951 -0.39648,-0.08789 -0.13227,-0.02838 -0.26399,-0.05543 -0.39649,-0.08203 -0.13249,-0.0266 -0.26573,-0.0533 -0.39843,-0.07813 -0.13271,-0.02482 -0.26554,-0.04922 -0.39844,-0.07227 -0.1329,-0.02305 -0.26535,-0.04514 -0.39844,-0.06641 -0.13308,-0.02127 -0.26714,-0.04106 -0.40039,-0.06055 -0.13325,-0.01949 -0.26698,-0.03893 -0.40039,-0.05664 -0.13341,-0.01771 -0.26685,-0.03289 -0.40039,-0.04883 -0.13354,-0.01594 -0.26672,-0.03271 -0.40039,-0.04687 -0.13367,-0.01416 -0.26661,-0.02668 -0.40039,-0.03906 -0.13378,-0.01239 -0.26847,-0.02455 -0.40235,-0.03516 -0.13387,-0.01061 -0.26839,-0.02047 -0.40234,-0.0293 -0.13395,-0.0088 -0.26637,-0.01638 -0.40039,-0.02344 -0.13402,-0.0071 -0.26827,-0.0123 -0.40234,-0.01758 -0.13407,-0.0053 -0.26824,-0.01017 -0.40235,-0.01367 -0.1341,-0.0035 -0.26821,-0.0061 -0.40234,-0.0078 -0.13413,-0.0017 -0.26821,-0.002 -0.40234,-0.002 -0.13414,5e-5 -0.26822,1.26e-4 -0.40235,0.002 -0.13412,0.0018 -0.26824,0.0042 -0.40234,0.0078 -0.13411,0.0036 -0.26828,0.0083 -0.40235,0.01367 -0.13406,0.0054 -0.26832,0.01238 -0.40234,0.01953 -0.13402,0.0072 -0.26839,0.01451 -0.40234,0.02344 -0.13395,0.0089 -0.26848,0.01859 -0.40235,0.0293 -0.13387,0.01071 -0.26661,0.02267 -0.40039,0.03516 -0.13377,0.01248 -0.26868,0.02676 -0.40234,0.04102 -0.13367,0.01426 -0.26685,0.02889 -0.40039,0.04492 -0.13354,0.01604 -0.26699,0.03297 -0.40039,0.05078 -0.1334,0.01781 -0.26714,0.03706 -0.40039,0.05664 -0.13325,0.01959 -0.26536,0.03919 -0.39844,0.06055 -0.13308,0.02136 -0.26554,0.04327 -0.39844,0.06641 -0.1329,0.02314 -0.26573,0.04735 -0.39844,0.07227 -0.1327,0.02491 -0.26594,0.05144 -0.39843,0.07813 -0.13249,0.02669 -0.26422,0.05357 -0.39649,0.08203 -0.13226,0.02846 -0.26446,0.05765 -0.39648,0.08789 -0.13202,0.03024 -0.26472,0.06174 -0.39649,0.09375 -0.13176,0.03201 -0.26303,0.06582 -0.39453,0.09961 -0.13149,0.03379 -0.26332,0.06795 -0.39453,0.103516 -0.13121,0.03556 -0.26166,0.07204 -0.39258,0.109375 -0.13091,0.03734 -0.26198,0.07417 -0.39258,0.113281 -0.13059,0.03911 -0.26035,0.08021 -0.39062,0.121094 -0.13027,0.04089 -0.2607,0.08234 -0.39062,0.125 -0.12993,0.04266 -0.26106,0.08642 -0.39063,0.130859 -0.12957,0.04444 -0.25752,0.09051 -0.38672,0.136719 -0.1292,0.04621 -0.25791,0.09264 -0.38672,0.140625 -0.12881,0.04798 -0.25831,0.09672 -0.38672,0.146484 -0.12841,0.04976 -0.25677,0.100811 -0.38476,0.152344 -0.128,0.05153 -0.25525,0.102943 -0.38281,0.15625 -0.12757,0.05331 -0.2557,0.108981 -0.38282,0.164063 -0.12711,0.05508 -0.2542,0.111113 -0.38086,0.167968 a 1.5,1.5 0 0 1 -0.27929,0.09375 1.5,1.5 0 0 1 -0.29297,0.03711 1.5,1.5 0 0 1 -0.29297,-0.02148 1.5,1.5 0 0 1 -0.28516,-0.07813 1.5,1.5 0 0 1 -0.26367,-0.130859 1.5,1.5 0 0 1 -0.23242,-0.181641 1.5,1.5 0 0 1 -0.19336,-0.222656 1.5,1.5 0 0 1 -0.14453,-0.257812 A 1.5,1.5 0 0 1 295.75195,-54 Z"
         transform="matrix(0.26458333,0,0,0.26458333,1.4606121e-4,18.900882)" />
      <path
         id="path38798"
         style="color:#000000;opacity:0.2;fill:#000000;stroke-width:3.77953;stroke-linecap:round;stroke-linejoin:round;-inkscape-stroke:none;filter:url(#filter39056)"
         d="m 297.11133,-48.572266 a 1.5,1.5 0 0 0 0.0176,1.058594 1.5,1.5 0 0 0 1.94921,0.841797 c 7.33204,-2.904302 15.34376,-2.904302 22.67579,0 a 1.5,1.5 0 0 0 1.94921,-0.841797 1.5,1.5 0 0 0 0.0195,-1.054687 1.5,1.5 0 0 1 -0.0195,0.05469 1.5,1.5 0 0 1 -0.11718,0.234375 1.5,1.5 0 0 1 -0.15625,0.208985 1.5,1.5 0 0 1 -0.18946,0.179687 1.5,1.5 0 0 1 -0.21875,0.144531 1.5,1.5 0 0 1 -0.24023,0.103516 1.5,1.5 0 0 1 -0.25586,0.06055 1.5,1.5 0 0 1 -0.25977,0.01563 1.5,1.5 0 0 1 -0.25976,-0.03125 1.5,1.5 0 0 1 -0.25195,-0.07422 c -0.11457,-0.04538 -0.22886,-0.0908 -0.34375,-0.134766 -0.11489,-0.04396 -0.2305,-0.08636 -0.34571,-0.128906 -0.1152,-0.04254 -0.23019,-0.08387 -0.3457,-0.125 -0.11551,-0.04113 -0.23185,-0.08334 -0.34766,-0.123047 -0.11581,-0.03971 -0.23156,-0.07695 -0.34765,-0.115234 -0.1161,-0.03829 -0.23129,-0.07641 -0.34766,-0.113281 -0.11637,-0.03687 -0.23297,-0.07392 -0.34961,-0.109375 -0.11663,-0.03545 -0.23272,-0.06948 -0.34961,-0.103516 -0.11689,-0.03404 -0.23442,-0.06699 -0.35156,-0.09961 -0.11714,-0.03262 -0.23419,-0.0645 -0.35156,-0.0957 -0.11737,-0.0312 -0.23593,-0.06202 -0.35352,-0.0918 -0.11759,-0.02978 -0.23571,-0.05953 -0.35351,-0.08789 -0.11781,-0.02836 -0.23551,-0.05509 -0.35352,-0.08203 -0.11801,-0.02694 -0.23531,-0.05455 -0.35351,-0.08008 -0.11821,-0.02553 -0.23709,-0.05011 -0.35547,-0.07422 -0.11839,-0.02411 -0.23692,-0.04762 -0.35547,-0.07031 -0.11856,-0.02269 -0.23676,-0.04318 -0.35547,-0.06445 -0.11872,-0.02127 -0.2366,-0.04265 -0.35547,-0.0625 -0.11887,-0.01985 -0.23842,-0.0382 -0.35742,-0.05664 -0.11901,-0.01844 -0.23829,-0.03767 -0.35742,-0.05469 -0.11914,-0.01702 -0.23817,-0.03323 -0.35743,-0.04883 -0.11925,-0.0156 -0.23805,-0.03074 -0.35742,-0.04492 -0.11936,-0.01418 -0.23991,-0.0263 -0.35937,-0.03906 -0.11947,-0.01276 -0.23787,-0.02576 -0.35742,-0.03711 -0.11956,-0.01134 -0.23975,-0.02132 -0.35938,-0.03125 -0.11963,-0.0099 -0.23968,-0.01884 -0.35937,-0.02734 -0.1197,-0.0085 -0.23963,-0.01635 -0.35938,-0.02344 -0.11975,-0.0071 -0.23957,-0.01386 -0.35937,-0.01953 -0.11981,-0.0057 -0.23954,-0.01137 -0.35938,-0.01563 -0.11984,-0.0043 -0.23951,-0.0069 -0.35937,-0.0098 -0.11987,-0.0028 -0.2395,-0.0044 -0.35938,-0.0059 -0.11988,-0.0014 -0.23949,-0.002 -0.35937,-0.002 -0.11989,0 -0.2395,5.35e-4 -0.35938,0.002 -0.11988,0.0014 -0.23951,0.003 -0.35937,0.0059 -0.11987,0.0028 -0.23954,0.0055 -0.35938,0.0098 -0.11984,0.0043 -0.23957,0.01 -0.35937,0.01563 -0.11981,0.0057 -0.23963,0.01244 -0.35938,0.01953 -0.11975,0.0071 -0.23968,0.01493 -0.35937,0.02344 -0.1197,0.0085 -0.23975,0.01742 -0.35938,0.02734 -0.11963,0.0099 -0.23982,0.01991 -0.35937,0.03125 -0.11956,0.01134 -0.23796,0.02435 -0.35743,0.03711 -0.11946,0.01276 -0.24001,0.02488 -0.35937,0.03906 -0.11937,0.01418 -0.23817,0.02932 -0.35742,0.04492 -0.11926,0.0156 -0.23829,0.03181 -0.35742,0.04883 -0.11914,0.01702 -0.23842,0.03625 -0.35743,0.05469 -0.119,0.01844 -0.23855,0.03679 -0.35742,0.05664 -0.11886,0.01985 -0.23675,0.04123 -0.35547,0.0625 -0.11871,0.02127 -0.23691,0.04176 -0.35547,0.06445 -0.11855,0.02269 -0.23708,0.04621 -0.35547,0.07031 -0.11838,0.02411 -0.23726,0.04869 -0.35546,0.07422 -0.1182,0.02553 -0.23746,0.05313 -0.35547,0.08008 -0.11801,0.02694 -0.23571,0.05367 -0.35352,0.08203 -0.1178,0.02836 -0.23397,0.05811 -0.35156,0.08789 -0.11759,0.02978 -0.23615,0.0606 -0.35352,0.0918 -0.11737,0.0312 -0.23442,0.06309 -0.35156,0.0957 -0.11713,0.03262 -0.23467,0.06557 -0.35156,0.09961 -0.11689,0.03404 -0.23297,0.06806 -0.34961,0.103516 -0.11664,0.03545 -0.23324,0.0725 -0.34961,0.109375 -0.11637,0.03687 -0.23351,0.07499 -0.34961,0.113281 -0.1161,0.03829 -0.23185,0.07553 -0.34766,0.115234 -0.11581,0.03971 -0.23018,0.08192 -0.3457,0.123047 -0.11551,0.04113 -0.23245,0.08246 -0.34766,0.125 -0.1152,0.04254 -0.22885,0.08494 -0.34374,0.128906 -0.1149,0.04396 -0.22919,0.08939 -0.34376,0.134766 a 1.5,1.5 0 0 1 -0.25195,0.07422 1.5,1.5 0 0 1 -0.25976,0.03125 1.5,1.5 0 0 1 -0.26172,-0.01563 1.5,1.5 0 0 1 -0.25391,-0.06055 1.5,1.5 0 0 1 -0.24023,-0.103516 1.5,1.5 0 0 1 -0.21875,-0.144531 1.5,1.5 0 0 1 -0.18946,-0.179687 1.5,1.5 0 0 1 -0.15625,-0.208985 1.5,1.5 0 0 1 -0.11718,-0.234375 1.5,1.5 0 0 1 -0.0176,-0.05859 z"
         transform="matrix(0.26458333,0,0,0.26458333,1.4606121e-4,18.900882)" />
      <path
         style="color:#000000;opacity:0.9;fill:#2d3436;fill-opacity:1;stroke-linecap:round;stroke-linejoin:round;-inkscape-stroke:none"
         d="m 82.131005,3.330569 c -1.247761,1.49e-4 -2.496341,0.264205 -3.669922,0.791016 a 0.39687499,0.39687499 0 0 0 -0.199218,0.523438 0.39687499,0.39687499 0 0 0 0.52539,0.201171 c 2.144747,-0.962758 4.542565,-0.9642 6.6875,-0.002 A 0.39687499,0.39687499 0 0 0 86.000146,4.645023 0.39687499,0.39687499 0 0 0 85.798974,4.119632 C 84.625286,3.593099 83.378767,3.330421 82.131005,3.330569 Z"
         id="path36308" />
      <path
         id="path38800"
         style="color:#000000;opacity:0.2;fill:#000000;stroke-width:3.77953;stroke-linecap:round;stroke-linejoin:round;-inkscape-stroke:none;filter:url(#filter39060)"
         d="m 298.91992,-43.220703 a 1.5,1.5 0 0 0 -0.0117,0.970703 1.5,1.5 0 0 0 1.88868,0.951172 c 6.24027,-2.059143 12.88844,-2.066058 19.13476,-0.0293 a 1.5,1.5 0 0 0 1.88867,-0.966797 1.5,1.5 0 0 0 -0.0137,-0.96875 1.5,1.5 0 0 1 -0.0879,0.210938 1.5,1.5 0 0 1 -0.14258,0.21875 1.5,1.5 0 0 1 -0.17773,0.191406 1.5,1.5 0 0 1 -0.20899,0.158203 1.5,1.5 0 0 1 -0.23242,0.119141 1.5,1.5 0 0 1 -0.25,0.07813 1.5,1.5 0 0 1 -0.25976,0.03125 1.5,1.5 0 0 1 -0.26172,-0.01367 1.5,1.5 0 0 1 -0.25391,-0.05859 c -0.1952,-0.06365 -0.39193,-0.123937 -0.58789,-0.183594 -0.19596,-0.05966 -0.39123,-0.118164 -0.58789,-0.173828 -0.19667,-0.05566 -0.39447,-0.108485 -0.5918,-0.160156 -0.19732,-0.05167 -0.39386,-0.102714 -0.59179,-0.150391 -0.19794,-0.04768 -0.39721,-0.09304 -0.59571,-0.136718 -0.19849,-0.04368 -0.39669,-0.08531 -0.5957,-0.125 -0.19901,-0.03969 -0.39819,-0.07759 -0.59766,-0.113282 -0.19947,-0.03569 -0.39972,-0.06987 -0.59961,-0.101562 -0.19988,-0.0317 -0.39936,-0.06019 -0.59961,-0.08789 -0.20024,-0.0277 -0.401,-0.05442 -0.60156,-0.07813 -0.20056,-0.0237 -0.40073,-0.04474 -0.60156,-0.06445 -0.20083,-0.01971 -0.40247,-0.03702 -0.60352,-0.05273 -0.20104,-0.01571 -0.4023,-0.0293 -0.60351,-0.04102 -0.20121,-0.01171 -0.40219,-0.02158 -0.60352,-0.0293 -0.20133,-0.0077 -0.40212,-0.01386 -0.60351,-0.01758 -0.2014,-0.0037 -0.40406,-0.0061 -0.60547,-0.0059 -0.20142,2.85e-4 -0.40213,0.0035 -0.60352,0.0078 -0.20138,0.0043 -0.40221,0.01125 -0.60351,0.01953 -0.20131,0.0083 -0.40234,0.01701 -0.60352,0.0293 -0.20117,0.01229 -0.40252,0.02668 -0.60351,0.04297 -0.201,0.01629 -0.40275,0.0344 -0.60352,0.05469 -0.20077,0.02029 -0.40107,0.04407 -0.60156,0.06836 -0.20049,0.02429 -0.4014,0.04983 -0.60157,0.07813 -0.20016,0.0283 -0.39981,0.0595 -0.5996,0.0918 -0.19979,0.0323 -0.3983,0.06526 -0.59766,0.101562 -0.19937,0.0363 -0.39877,0.07493 -0.59766,0.115235 -0.19889,0.04031 -0.39733,0.08264 -0.5957,0.126953 -0.19837,0.04431 -0.39791,0.09035 -0.5957,0.138672 -0.1978,0.04832 -0.39463,0.09806 -0.5918,0.15039 -0.19717,0.05233 -0.39334,0.107729 -0.58984,0.164063 -0.1965,0.05633 -0.39407,0.11544 -0.58985,0.175781 -0.19578,0.06034 -0.39093,0.121199 -0.58593,0.185547 a 1.5,1.5 0 0 1 -0.25391,0.06055 1.5,1.5 0 0 1 -0.25977,0.01367 1.5,1.5 0 0 1 -0.25976,-0.03125 1.5,1.5 0 0 1 -0.24805,-0.07422 1.5,1.5 0 0 1 -0.23437,-0.117188 1.5,1.5 0 0 1 -0.20704,-0.15625 1.5,1.5 0 0 1 -0.17968,-0.189453 1.5,1.5 0 0 1 -0.14258,-0.21875 1.5,1.5 0 0 1 -0.0918,-0.208984 z"
         transform="matrix(0.26458333,0,0,0.26458333,1.4606121e-4,18.900882)" />
      <path
         style="color:#000000;opacity:0.9;fill:#2d3436;fill-opacity:1;stroke-linecap:round;stroke-linejoin:round;-inkscape-stroke:none"
         d="m 82.131005,4.91846 c -1.115037,0 -2.230671,0.210071 -3.292968,0.630859 a 0.39687499,0.39687499 0 0 0 -0.222657,0.515625 0.39687499,0.39687499 0 0 0 0.515625,0.222657 c 1.939933,-0.76843 4.060068,-0.76843 6,0 A 0.39687499,0.39687499 0 0 0 85.64663,6.064944 0.39687499,0.39687499 0 0 0 85.423974,5.549319 C 84.361676,5.128531 83.246043,4.91846 82.131005,4.91846 Z"
         id="path37678" />
      <path
         style="color:#000000;opacity:0.9;fill:#2d3436;fill-opacity:1;stroke-linecap:round;stroke-linejoin:round;-inkscape-stroke:none"
         d="m 82.11538,6.506351 c -0.936487,0.0017 -1.87245,0.150625 -2.777343,0.449218 a 0.39687499,0.39687499 0 0 0 -0.251954,0.501954 0.39687499,0.39687499 0 0 0 0.5,0.251953 c 1.651072,-0.544815 3.409828,-0.546693 5.0625,-0.0078 a 0.39687499,0.39687499 0 0 0 0.5,-0.255859 0.39687499,0.39687499 0 0 0 -0.253906,-0.5 C 83.988865,6.650462 83.051868,6.504685 82.11538,6.506364 Z"
         id="path38474" />
      <rect
         style="opacity:0.2;mix-blend-mode:overlay;fill:url(#linearGradient39603);fill-opacity:1;stroke:none;stroke-width:0.55007;stroke-linecap:square"
         id="rect39597"
         width="10.583333"
         height="10.583333"
         x="-87.422997"
         y="-11.020386"
         ry="2.2002783"
         rx="2.2002783"
         transform="scale(-1)" />
      <rect
         style="opacity:0.2;mix-blend-mode:overlay;fill:url(#linearGradient39601);fill-opacity:1;stroke:none;stroke-width:0.55007;stroke-linecap:square"
         id="rect39599"
         width="10.583333"
         height="10.583333"
         x="76.839661"
         y="0.43705264"
         ry="2.2002783"
         rx="2.2002783" />
    </g>
  </g>
</svg>
