<?xml version="1.0" encoding="UTF-8" standalone="no"?>
<!-- Created with Inkscape (http://www.inkscape.org/) -->

<svg
   width="48"
   height="48"
   viewBox="0 0 12.7 12.7"
   version="1.1"
   id="svg39233"
   inkscape:version="1.1 (c68e22c387, 2021-05-23)"
   sodipodi:docname="google-chrome.svg"
   xmlns:inkscape="http://www.inkscape.org/namespaces/inkscape"
   xmlns:sodipodi="http://sodipodi.sourceforge.net/DTD/sodipodi-0.dtd"
   xmlns:xlink="http://www.w3.org/1999/xlink"
   xmlns="http://www.w3.org/2000/svg"
   xmlns:svg="http://www.w3.org/2000/svg">
  <sodipodi:namedview
     id="namedview39235"
     pagecolor="#505050"
     bordercolor="#eeeeee"
     borderopacity="1"
     inkscape:pageshadow="0"
     inkscape:pageopacity="0"
     inkscape:pagecheckerboard="0"
     inkscape:document-units="mm"
     showgrid="false"
     units="px"
     inkscape:zoom="5.3664983"
     inkscape:cx="0.65219437"
     inkscape:cy="6.2424319"
     inkscape:window-width="1920"
     inkscape:window-height="1048"
     inkscape:window-x="0"
     inkscape:window-y="32"
     inkscape:window-maximized="1"
     inkscape:current-layer="layer1" />
  <defs
     id="defs39230">
    <filter
       style="color-interpolation-filters:sRGB"
       inkscape:label="Blur"
       id="filter33679-3"
       x="-0.0022677166"
       y="-0.070299215"
       width="1.0045354"
       height="1.1405984">
      <feGaussianBlur
         stdDeviation="0.01 0.31"
         result="blur"
         id="feGaussianBlur33677-6" />
    </filter>
    <filter
       style="color-interpolation-filters:sRGB"
       inkscape:label="Blur"
       id="filter16289"
       x="-0.0030908013"
       y="-0.072290929"
       width="1.0061816"
       height="1.1445819">
      <feGaussianBlur
         stdDeviation="0.0066269834"
         result="fbSourceGraphic"
         id="feGaussianBlur16287" />
      <feColorMatrix
         result="fbSourceGraphicAlpha"
         in="fbSourceGraphic"
         values="0 0 0 -1 0 0 0 0 -1 0 0 0 0 -1 0 0 0 0 1 0"
         id="feColorMatrix16820" />
      <feGaussianBlur
         id="feGaussianBlur16822"
         stdDeviation="0.01 0.01"
         result="fbSourceGraphic"
         in="fbSourceGraphic" />
      <feColorMatrix
         result="fbSourceGraphicAlpha"
         in="fbSourceGraphic"
         values="0 0 0 -1 0 0 0 0 -1 0 0 0 0 -1 0 0 0 0 1 0"
         id="feColorMatrix16952" />
      <feGaussianBlur
         id="feGaussianBlur16954"
         stdDeviation="0.01 0.31"
         result="blur"
         in="fbSourceGraphic" />
    </filter>
    <filter
       style="color-interpolation-filters:sRGB"
       inkscape:label="Blur"
       id="filter16844-7"
       x="-0.0061783424"
       y="-0.067961776"
       width="1.0123567"
       height="1.1359236">
      <feGaussianBlur
         stdDeviation="0.01 0.11"
         result="blur"
         id="feGaussianBlur16842-5" />
    </filter>
    <linearGradient
       inkscape:collect="always"
       xlink:href="#linearGradient2084"
       id="linearGradient19603"
       gradientUnits="userSpaceOnUse"
       gradientTransform="translate(31.821266,-0.8486808)"
       x1="6.4202108"
       y1="0.96924353"
       x2="6.4202108"
       y2="11.540484" />
    <linearGradient
       inkscape:collect="always"
       id="linearGradient2084">
      <stop
         style="stop-color:#ffffff;stop-opacity:1"
         offset="0"
         id="stop2080" />
      <stop
         style="stop-color:#000000;stop-opacity:0"
         offset="1"
         id="stop2082" />
    </linearGradient>
    <linearGradient
       inkscape:collect="always"
       xlink:href="#linearGradient2864"
       id="linearGradient19607"
       gradientUnits="userSpaceOnUse"
       gradientTransform="translate(-44.521267,-11.85132)"
       x1="6.4202108"
       y1="0.96924353"
       x2="6.4202108"
       y2="11.540484" />
    <linearGradient
       inkscape:collect="always"
       id="linearGradient2864">
      <stop
         style="stop-color:#000000;stop-opacity:1"
         offset="0"
         id="stop2860" />
      <stop
         style="stop-color:#fefefe;stop-opacity:0"
         offset="1"
         id="stop2862" />
    </linearGradient>
  </defs>
  <g
     inkscape:label="Calque 1"
     inkscape:groupmode="layer"
     id="layer1">
    <g
       id="g20892"
       transform="translate(-31.823869,-0.00738588)">
      <rect
         style="opacity:0.2;mix-blend-mode:overlay;fill:#000000;fill-opacity:1;stroke:none;stroke-width:0.55007;stroke-linecap:square;filter:url(#filter33679-3)"
         id="rect33703"
         width="10.583333"
         height="10.583333"
         x="-31.628342"
         y="-3.2242157"
         ry="2.2002783"
         rx="2.2002783"
         transform="rotate(180,5.9185971,4.0552515)" />
      <path
         id="path14315"
         style="fill:#fdcb6e;fill-opacity:1;stroke:none;stroke-width:0.264583px;stroke-linecap:butt;stroke-linejoin:miter;stroke-opacity:1"
         d="m 35.408171,10.818094 h 5.859592 c 0.03809,0 0.07608,-0.0012 0.113689,-0.0031 0.0376,-0.0019 0.07506,-0.0045 0.112136,-0.0083 0.03707,-0.0037 0.07357,-0.0084 0.110072,-0.01395 0.0365,-0.0055 0.07265,-0.01182 0.108521,-0.01912 0.03587,-0.0073 0.07177,-0.01579 0.106969,-0.0248 0.0352,-0.009 0.0699,-0.01877 0.104386,-0.02946 0.03449,-0.01068 0.06859,-0.02232 0.10232,-0.03462 0.03373,-0.0123 0.06681,-0.02539 0.09974,-0.03927 0.03292,-0.01388 0.06559,-0.02851 0.09767,-0.04392 0.03208,-0.01541 0.0639,-0.03116 0.09508,-0.04806 0.03118,-0.0169 0.06174,-0.03489 0.09199,-0.05323 0.03024,-0.01834 0.06014,-0.03711 0.0894,-0.05684 0.02925,-0.01973 0.05808,-0.04041 0.0863,-0.0615 0.02822,-0.02108 0.05554,-0.04273 0.08268,-0.06511 0.02715,-0.02238 0.05408,-0.0456 0.0801,-0.06925 0.02604,-0.02364 0.05111,-0.04749 0.07596,-0.07235 0.02484,-0.02485 0.04922,-0.05046 0.07286,-0.07648 0.02365,-0.02602 0.04686,-0.05244 0.06924,-0.07958 0.02238,-0.027147 0.04403,-0.054976 0.06511,-0.0832 0.02109,-0.028223 0.04176,-0.057045 0.06149,-0.0863 0.01974,-0.029255 0.03851,-0.059159 0.05684,-0.0894 0.01834,-0.030241 0.03581,-0.060803 0.05271,-0.091984 0.01691,-0.031182 0.03317,-0.063008 0.04858,-0.095085 0.0154,-0.032077 0.03004,-0.064225 0.04392,-0.097152 0.01389,-0.032927 0.02697,-0.066521 0.03927,-0.1002522 0.0123,-0.033732 0.02395,-0.067829 0.03462,-0.1023194 0.01069,-0.034491 0.02043,-0.069182 0.02946,-0.1043863 0.009,-0.035204 0.01749,-0.071098 0.02479,-0.1069703 0.0073,-0.035873 0.01357,-0.072025 0.01913,-0.1085204 0.0056,-0.036496 0.01021,-0.072997 0.01394,-0.1100709 0.0037,-0.037073 0.0064,-0.074532 0.0083,-0.1121378 0.0019,-0.037605 0.0031,-0.075596 0.0031,-0.1136881 V 3.5553385 L 38.15638,3.5234468 Z"
         sodipodi:nodetypes="csssssssssssssssssssssssssssssssssccc" />
      <path
         id="path12364"
         style="fill:#00b894;fill-opacity:1;stroke:none;stroke-width:0.264583px;stroke-linecap:butt;stroke-linejoin:miter;stroke-opacity:1"
         d="M 38.381143,4.2852883 35.085195,0.23476149 c -0.02405,-0.0295463 -0.07608,0.001206 -0.113689,0.003101 -0.03761,0.001894 -0.07506,0.004526 -0.112136,0.008268 -0.03707,0.003743 -0.07409,0.008407 -0.110588,0.0139525 -0.0365,0.005546 -0.07265,0.0118168 -0.108521,0.0191204 -0.03587,0.007304 -0.07125,0.0157887 -0.106453,0.0248047 -0.0352,0.009016 -0.0699,0.0187727 -0.104386,0.0294556 -0.03449,0.0106828 -0.06859,0.0223187 -0.10232,0.0346232 -0.03373,0.0123045 -0.06733,0.0253934 -0.100253,0.0392741 -0.03293,0.0138806 -0.06559,0.0285135 -0.09767,0.043925 -0.03208,0.0154114 -0.06339,0.0311622 -0.09457,0.0480591 -0.03118,0.0168968 -0.06174,0.0348898 -0.09199,0.0532267 -0.03024,0.0183369 -0.06014,0.0371125 -0.0894,0.0568441 -0.02925,0.0197316 -0.05808,0.0404141 -0.0863,0.061495 -0.02822,0.0210809 -0.05605,0.0427276 -0.0832,0.0651123 -0.02715,0.0223848 -0.05356,0.0456032 -0.07958,0.0692464 -0.02604,0.0236432 -0.05163,0.0474907 -0.07648,0.072347 -0.02484,0.0248563 -0.04922,0.0504571 -0.07286,0.0764811 -0.02365,0.0260239 -0.04634,0.0524354 -0.06873,0.0795817 -0.02238,0.027146 -0.04403,0.054976 -0.06511,0.083199 -0.02109,0.028223 -0.04176,0.057045 -0.0615,0.0863 -0.01974,0.029255 -0.03851,0.059159 -0.05684,0.0894 -0.01834,0.030241 -0.03633,0.060803 -0.05323,0.091984 -0.01691,0.031182 -0.03316,0.063008 -0.04858,0.095085 -0.0154,0.032077 -0.03004,0.064225 -0.04392,0.097152 -0.01389,0.032927 -0.02697,0.066521 -0.03928,0.1002523 -0.0123,0.033731 -0.02341,0.067829 -0.03411,0.1023193 -0.01069,0.034491 -0.02096,0.069182 -0.02997,0.1043864 -0.009,0.035204 -0.01699,0.071098 -0.02429,0.1069702 -0.0073,0.035873 -0.01357,0.072025 -0.01913,0.1085205 -0.0056,0.036496 -0.01021,0.072997 -0.01394,0.1100709 -0.0037,0.037073 -0.0069,0.074532 -0.0088,0.1121378 -0.0019,0.037605 -0.0026,0.075596 -0.0026,0.113688 v 6.1825675 c 0,0.038092 7.94e-4,0.076083 0.0026,0.113688 0.0019,0.037605 0.0051,0.075065 0.0088,0.1121378 0.0038,0.037073 0.0084,0.073575 0.01394,0.1100709 0.0056,0.036496 0.01183,0.072648 0.01913,0.1085205 0.0073,0.035873 0.01527,0.071766 0.02429,0.1069702 0.009,0.035204 0.01929,0.069896 0.02997,0.1043864 0.01069,0.034491 0.0218,0.068588 0.03411,0.1023194 0.0123,0.033731 0.0254,0.067326 0.03928,0.1002522 0.01389,0.032927 0.02851,0.065075 0.04392,0.097152 0.01543,0.032077 0.03168,0.063903 0.04858,0.095085 0.01691,0.031181 0.03489,0.061743 0.05323,0.091984 0.01834,0.030241 0.03711,0.060146 0.05684,0.0894 0.01974,0.029255 0.04041,0.058076 0.0615,0.0863 0.02109,0.028223 0.04273,0.056053 0.06511,0.083199 0.02238,0.02715 0.04509,0.05356 0.06873,0.07958 0.02365,0.02603 0.04801,0.05162 0.07286,0.07648 0.02487,0.02486 0.05046,0.0487 0.07648,0.07235 0.02604,0.02364 0.05243,0.04686 0.07958,0.06925 0.02715,0.02238 0.05497,0.04403 0.0832,0.06511 0.02822,0.02108 0.05704,0.04176 0.0863,0.0615 0.02925,0.01973 0.05916,0.03851 0.0894,0.05684 0.03024,0.01834 0.0608,0.03633 0.09199,0.05323 0.03118,0.0169 0.06249,0.03265 0.09457,0.04806 0.03208,0.01541 0.06474,0.03004 0.09767,0.04392 0.03293,0.01388 0.06652,0.02697 0.100253,0.03927 0.03373,0.01231 0.06783,0.02394 0.10232,0.03462 0.03449,0.01068 0.06918,0.02044 0.104386,0.02946 0.0352,0.009 0.07058,0.0175 0.106453,0.0248 0.03587,0.0073 0.07202,0.01358 0.108521,0.01912 0.03649,0.0055 0.07352,0.01021 0.110588,0.01395 0.03707,0.0037 0.07453,0.0064 0.112136,0.0083 0.03761,0.0019 0.0756,0.0031 0.113689,0.0031 h 2.700094 l 2.122682,-4.4652826 z"
         sodipodi:nodetypes="cssssssssssssssssssssssssssssssssssssssssssssssssssssssssssssssssssccc" />
      <path
         id="path14212"
         style="fill:#d63031;fill-opacity:1;stroke:none;stroke-width:0.550069;stroke-linecap:square"
         d="m 33.187637,1.3184163 3.72857,5.629371 1.304766,-3.3924488 h 5.247174 V 2.4351439 c 0,-1.2189541 -0.98143,-2.20038241 -2.200384,-2.20038241 h -6.182568 c -0.810644,0 -1.515843,0.43437399 -1.897558,1.08365481 z"
         sodipodi:nodetypes="ccccsssc" />
      <path
         id="path16644"
         style="color:#000000;opacity:0.2;fill:#000000;stroke-width:3.77953;stroke-linecap:round;-inkscape-stroke:none;filter:url(#filter16289)"
         d="m 133.94531,21.289062 c -0.008,0.165781 -0.0117,0.332336 -0.0117,0.5 0,5.681195 4.65128,10.34375 10.33399,10.34375 5.68271,0 10.3418,-4.661037 10.3418,-10.34375 0,-0.167708 -0.004,-0.33418 -0.0117,-0.5 -5e-4,0.01034 -0.001,0.02092 -0.002,0.03125 -0.004,0.08774 -0.009,0.174551 -0.0156,0.261719 -0.007,0.08717 -0.0146,0.173194 -0.0234,0.259766 -0.009,0.08657 -0.0202,0.173818 -0.0312,0.259765 -0.011,0.08595 -0.022,0.170565 -0.0352,0.25586 -0.0131,0.08529 -0.0277,0.171244 -0.043,0.255859 -0.0153,0.08461 -0.0315,0.168046 -0.0488,0.251953 -0.0173,0.08391 -0.0353,0.168782 -0.0547,0.251954 -0.0194,0.08317 -0.0392,0.165638 -0.0606,0.248046 -0.0214,0.08241 -0.045,0.164477 -0.0684,0.246094 -0.0233,0.08162 -0.047,0.161389 -0.0723,0.242188 -0.0253,0.0808 -0.0509,0.162235 -0.0781,0.242187 -0.0272,0.07995 -0.0568,0.159203 -0.0859,0.238281 -0.0291,0.07908 -0.0588,0.158152 -0.0899,0.236328 -0.031,0.07818 -0.0628,0.155176 -0.0957,0.232422 -0.0328,0.07725 -0.0669,0.15418 -0.10156,0.230469 -0.0347,0.07629 -0.069,0.153212 -0.10547,0.228516 -0.0365,0.0753 -0.0751,0.148365 -0.11328,0.222656 -0.0382,0.07429 -0.0772,0.149406 -0.11719,0.222656 -0.04,0.07325 -0.0814,0.144615 -0.12305,0.216797 -0.0417,0.07218 -0.0836,0.145711 -0.12695,0.216797 -0.0433,0.07109 -0.0878,0.140976 -0.13281,0.210937 -0.045,0.06996 -0.0901,0.138221 -0.13672,0.207032 -0.0466,0.06881 -0.0944,0.137447 -0.14258,0.205078 -0.0482,0.06763 -0.0967,0.134748 -0.14648,0.201172 -0.0498,0.06642 -0.10103,0.132076 -0.15235,0.197265 -0.0513,0.06519 -0.10342,0.129433 -0.15625,0.19336 -0.0528,0.06393 -0.10584,0.12877 -0.16016,0.191406 -0.0543,0.06264 -0.11024,0.124229 -0.16601,0.185547 -0.0558,0.06132 -0.11077,0.121668 -0.16797,0.18164 -0.0572,0.05997 -0.11523,0.119136 -0.17383,0.177735 -0.0586,0.0586 -0.11776,0.11663 -0.17773,0.173828 -0.06,0.0572 -0.12228,0.114153 -0.1836,0.169922 -0.0613,0.05577 -0.12291,0.10975 -0.18554,0.164062 -0.0626,0.05431 -0.12553,0.109282 -0.18946,0.16211 -0.0639,0.05283 -0.12817,0.104934 -0.19336,0.15625 -0.0652,0.05131 -0.13084,0.100615 -0.19726,0.15039 -0.0664,0.04978 -0.13354,0.09828 -0.20117,0.146485 -0.0676,0.04821 -0.13627,0.09597 -0.20508,0.142578 -0.0688,0.04661 -0.13707,0.09368 -0.20703,0.138672 -0.07,0.04499 -0.14181,0.08752 -0.21289,0.130859 -0.0711,0.04334 -0.14266,0.08725 -0.21485,0.128906 -0.0722,0.04166 -0.1455,0.08114 -0.21875,0.121094 -0.0733,0.03995 -0.14641,0.07897 -0.2207,0.117188 -0.0743,0.03822 -0.1493,0.07682 -0.22461,0.113281 -0.0753,0.03646 -0.15027,0.0708 -0.22656,0.105469 -0.0763,0.03467 -0.15322,0.06871 -0.23047,0.101562 -0.0772,0.03285 -0.15425,0.0647 -0.23242,0.0957 -0.0782,0.03101 -0.15725,0.06266 -0.23633,0.0918 -0.0791,0.02913 -0.15833,0.05675 -0.23828,0.08398 -0.0799,0.02723 -0.16139,0.05282 -0.24219,0.07812 -0.0808,0.0253 -0.16252,0.05087 -0.24414,0.07422 -0.0816,0.02335 -0.16368,0.04504 -0.24609,0.06641 -0.0824,0.02136 -0.16488,0.04119 -0.24805,0.06055 -0.0832,0.01935 -0.16609,0.03738 -0.25,0.05469 -0.0839,0.01731 -0.16734,0.03358 -0.25195,0.04883 -0.0846,0.01525 -0.17057,0.02982 -0.25586,0.04297 -0.0853,0.01315 -0.16991,0.02608 -0.25586,0.03711 -0.0859,0.01103 -0.1732,0.02042 -0.25977,0.0293 -0.0866,0.0089 -0.17259,0.01674 -0.25976,0.02344 -0.0872,0.0067 -0.17594,0.01308 -0.26367,0.01758 -0.0877,0.0045 -0.1754,0.0075 -0.26368,0.0098 -0.0883,0.0023 -0.17683,0.0039 -0.26562,0.0039 -0.0888,0 -0.17735,-0.0016 -0.26563,-0.0039 -0.0883,-0.0023 -0.17594,-0.0053 -0.26367,-0.0098 -0.0877,-0.0045 -0.17456,-0.01088 -0.26172,-0.01758 -0.0872,-0.0067 -0.17516,-0.01456 -0.26172,-0.02344 -0.0866,-0.0089 -0.17188,-0.01826 -0.25781,-0.0293 -0.0859,-0.01103 -0.17254,-0.02395 -0.25781,-0.03711 -0.0853,-0.01316 -0.16932,-0.02772 -0.25391,-0.04297 -0.0846,-0.01525 -0.17002,-0.03151 -0.2539,-0.04883 -0.0839,-0.01732 -0.16686,-0.03533 -0.25,-0.05469 -0.0831,-0.01936 -0.16567,-0.03918 -0.24805,-0.06055 -0.0824,-0.02137 -0.16451,-0.04501 -0.24609,-0.06836 -0.0816,-0.02335 -0.16338,-0.04696 -0.24415,-0.07227 -0.0808,-0.02531 -0.16031,-0.05089 -0.24023,-0.07812 -0.0799,-0.02724 -0.15924,-0.0568 -0.23828,-0.08594 -0.079,-0.02914 -0.15819,-0.05883 -0.23633,-0.08984 -0.0781,-0.03101 -0.15522,-0.06284 -0.23242,-0.0957 -0.0772,-0.03286 -0.15423,-0.06689 -0.23047,-0.101562 -0.0762,-0.03468 -0.1513,-0.069 -0.22656,-0.105469 -0.0753,-0.03646 -0.15037,-0.07505 -0.22461,-0.113281 -0.0742,-0.03823 -0.1475,-0.07723 -0.2207,-0.117188 -0.0732,-0.03996 -0.14662,-0.07943 -0.21875,-0.121094 -0.0721,-0.04167 -0.14381,-0.08556 -0.21485,-0.128906 -0.071,-0.04335 -0.14103,-0.08781 -0.21094,-0.132812 -0.0699,-0.045 -0.14022,-0.0901 -0.20898,-0.136719 -0.0688,-0.04662 -0.13555,-0.09436 -0.20312,-0.142578 -0.0676,-0.04822 -0.13481,-0.0967 -0.20118,-0.146485 -0.0664,-0.04978 -0.13213,-0.101021 -0.19726,-0.152343 -0.0651,-0.05132 -0.12949,-0.103416 -0.19336,-0.15625 -0.0639,-0.05283 -0.12883,-0.105838 -0.19141,-0.160157 -0.0626,-0.05432 -0.12428,-0.11024 -0.18555,-0.166015 -0.0613,-0.05578 -0.12172,-0.110765 -0.18164,-0.167969 -0.0599,-0.0572 -0.11919,-0.115223 -0.17773,-0.173828 -0.0585,-0.05861 -0.11669,-0.117756 -0.17383,-0.177735 -0.0571,-0.05998 -0.11226,-0.120317 -0.16797,-0.18164 -0.0557,-0.06132 -0.11176,-0.124859 -0.16601,-0.1875 -0.0543,-0.06264 -0.10739,-0.125522 -0.16016,-0.189453 -0.0528,-0.06393 -0.10499,-0.128167 -0.15625,-0.19336 -0.0513,-0.06519 -0.10067,-0.130838 -0.15039,-0.197265 -0.0497,-0.06643 -0.0983,-0.133539 -0.14648,-0.201172 -0.0482,-0.06763 -0.096,-0.136266 -0.14258,-0.205078 -0.0466,-0.06881 -0.0918,-0.139021 -0.13672,-0.208985 -0.0449,-0.06996 -0.0895,-0.139851 -0.13281,-0.210937 -0.0433,-0.07109 -0.0854,-0.142662 -0.12696,-0.214844 -0.0416,-0.07218 -0.0831,-0.145501 -0.12304,-0.21875 -0.0399,-0.07325 -0.079,-0.146414 -0.11719,-0.220703 -0.0382,-0.07429 -0.0749,-0.149308 -0.11133,-0.224609 -0.0364,-0.0753 -0.0728,-0.150277 -0.10742,-0.226563 -0.0346,-0.07628 -0.0688,-0.153227 -0.10156,-0.230469 -0.0328,-0.07724 -0.0647,-0.154251 -0.0957,-0.232422 -0.031,-0.07817 -0.0608,-0.157256 -0.0898,-0.236328 -0.0291,-0.07907 -0.0568,-0.158336 -0.084,-0.238281 -0.0272,-0.07994 -0.0529,-0.161397 -0.0781,-0.242187 -0.0253,-0.08079 -0.0509,-0.162533 -0.0742,-0.244141 -0.0233,-0.08161 -0.0451,-0.161743 -0.0664,-0.244141 -0.0213,-0.0824 -0.0412,-0.16684 -0.0606,-0.25 -0.0193,-0.08316 -0.0374,-0.166106 -0.0547,-0.25 -0.0173,-0.08389 -0.0336,-0.167352 -0.0488,-0.251953 -0.0152,-0.0846 -0.0298,-0.17058 -0.043,-0.255859 -0.0131,-0.08528 -0.0261,-0.169929 -0.0371,-0.25586 -0.011,-0.08593 -0.0204,-0.173212 -0.0293,-0.259765 -0.009,-0.08655 -0.0168,-0.172617 -0.0234,-0.259766 -0.007,-0.08715 -0.0111,-0.174002 -0.0156,-0.261719 -5.3e-4,-0.01033 -0.001,-0.02091 -0.002,-0.03125 z"
         transform="scale(0.26458333)" />
      <path
         style="color:#000000;opacity:0.9;fill:#f9f9f9;stroke-linecap:round;-inkscape-stroke:none"
         d="m 38.170836,2.766272 c -1.503149,0 -2.734374,1.231226 -2.734375,2.7343749 0,1.5031495 1.230824,2.7363282 2.734375,2.7363282 1.503551,0 2.736328,-1.2327773 2.736328,-2.7363282 0,-1.5035507 -1.233179,-2.734375 -2.736328,-2.7343749 z"
         id="path15558"
         sodipodi:nodetypes="sssss" />
      <path
         style="color:#000000;opacity:0.2;fill:#000000;stroke-width:0.79375;stroke-linecap:round;-inkscape-stroke:none;filter:url(#filter16844-7)"
         d="M 40.113528,5.7659032 A 1.9422683,1.9422683 0 0 1 38.17126,7.7081714 1.9422683,1.9422683 0 0 1 36.228991,5.7659032 1.9422683,1.9422683 0 0 1 38.17126,3.8236349 1.9422683,1.9422683 0 0 1 40.113528,5.7659032 Z"
         id="path16800" />
      <path
         style="color:#000000;fill:#0984e3;stroke-width:0.79375;stroke-linecap:round;-inkscape-stroke:none"
         d="M 40.113528,5.5013198 A 1.9422683,1.9422683 0 0 1 38.17126,7.443588 1.9422683,1.9422683 0 0 1 36.228991,5.5013198 1.9422683,1.9422683 0 0 1 38.17126,3.5590515 1.9422683,1.9422683 0 0 1 40.113528,5.5013198 Z"
         id="path15075" />
      <path
         id="path32893"
         style="color:#000000;opacity:0.2;mix-blend-mode:soft-light;fill:#ffffff;stroke-width:1;stroke-linecap:square;-inkscape-stroke:none"
         d="m 35.079978,0.20965523 c -0.03809,0 -0.07608,0.0012 -0.113689,0.0031 -0.0376,0.0019 -0.07506,0.0045 -0.112139,0.0083 -0.03707,0.0037 -0.07358,0.0084 -0.110069,0.01395 -0.0365,0.0056 -0.07265,0.01182 -0.108521,0.01912 -0.03587,0.0073 -0.07177,0.01579 -0.106969,0.02481 -0.03521,0.009 -0.0699,0.01877 -0.104388,0.02946 -0.03449,0.01068 -0.06859,0.02232 -0.10232,0.03462 -0.03373,0.0123 -0.06732,0.02539 -0.100251,0.03927 -0.03293,0.01388 -0.06507,0.02851 -0.09715,0.04393 -0.03208,0.01541 -0.0639,0.03116 -0.09508,0.04806 -0.03118,0.0169 -0.06174,0.03489 -0.09198,0.05323 -0.03024,0.01834 -0.06015,0.03711 -0.0894,0.05684 -0.02926,0.01973 -0.05808,0.04041 -0.0863,0.06149 -0.02822,0.02108 -0.05554,0.04273 -0.08268,0.06511 -0.02715,0.02238 -0.05407,0.0456 -0.0801,0.06925 -0.02604,0.02364 -0.05162,0.04749 -0.07648,0.07235 -0.02484,0.02486 -0.0487,0.05046 -0.07235,0.07648 -0.02365,0.02602 -0.04686,0.05243 -0.06925,0.07958 -0.02238,0.02715 -0.04403,0.05498 -0.06511,0.0832 -0.02109,0.02822 -0.04176,0.05705 -0.0615,0.0863 -0.01974,0.02925 -0.03851,0.05916 -0.05684,0.0894 -0.01834,0.03024 -0.03581,0.0608 -0.05271,0.09198 -0.01691,0.03118 -0.03317,0.06301 -0.04858,0.09508 -0.0154,0.03208 -0.03004,0.06423 -0.04392,0.09715 -0.01389,0.03293 -0.02697,0.06652 -0.03927,0.100252 -0.0123,0.03373 -0.02394,0.06783 -0.03462,0.10232 -0.01069,0.03449 -0.02043,0.06918 -0.02946,0.104386 -0.009,0.0352 -0.01749,0.0711 -0.02479,0.10697 -0.0073,0.03587 -0.01357,0.07203 -0.01913,0.108521 -0.0056,0.0365 -0.01021,0.073 -0.01394,0.110071 -0.0037,0.03707 -0.0064,0.07453 -0.0083,0.112138 -0.0019,0.03761 -0.0031,0.0756 -0.0031,0.113688 v 6.1825662 c 0,0.038092 0.0013,0.076083 0.0031,0.113688 0.0019,0.037606 0.0045,0.075065 0.0083,0.1121378 0.0038,0.037073 0.0084,0.073575 0.01394,0.1100709 0.0056,0.036496 0.01183,0.072648 0.01913,0.1085205 0.0073,0.035873 0.01579,0.071766 0.02479,0.1069702 0.009,0.035204 0.01876,0.069896 0.02946,0.1043863 0.01069,0.034491 0.0223,0.068588 0.03462,0.1023194 0.0123,0.033732 0.0254,0.067325 0.03927,0.1002523 0.01389,0.032927 0.02851,0.065075 0.04392,0.097152 0.0154,0.032077 0.03168,0.063903 0.04858,0.095085 0.01691,0.031181 0.03437,0.061743 0.05271,0.091984 0.01833,0.030241 0.03711,0.060146 0.05684,0.0894 0.01974,0.029254 0.04041,0.058076 0.0615,0.086299 0.02109,0.028223 0.04273,0.056053 0.06511,0.083199 0.02238,0.02715 0.0456,0.05356 0.06925,0.07958 0.02365,0.02602 0.04749,0.05162 0.07235,0.07648 0.02487,0.02485 0.05046,0.0487 0.07648,0.07235 0.02603,0.02364 0.05295,0.04686 0.0801,0.06925 0.02715,0.02238 0.05446,0.04403 0.08268,0.06511 0.02822,0.02108 0.05705,0.04176 0.0863,0.06149 0.02925,0.01973 0.05916,0.03851 0.0894,0.05684 0.03024,0.01834 0.0608,0.03633 0.09198,0.05323 0.03118,0.0169 0.06301,0.03265 0.09508,0.04806 0.03208,0.01541 0.06422,0.03004 0.09715,0.04392 0.03293,0.01388 0.06652,0.02697 0.100251,0.03927 0.03373,0.01231 0.06783,0.02394 0.10232,0.03462 0.03449,0.01068 0.06918,0.02044 0.104388,0.02946 0.0352,0.009 0.0711,0.0175 0.106969,0.0248 0.03587,0.0073 0.07203,0.01358 0.108521,0.01912 0.03649,0.0055 0.073,0.01021 0.110069,0.01395 0.03707,0.0037 0.07453,0.0064 0.112139,0.0083 0.0376,0.0019 0.0756,0.0031 0.113689,0.0031 h 6.182569 c 0.03809,0 0.07608,-0.0012 0.113686,-0.0031 0.03761,-0.0019 0.07507,-0.0045 0.112138,-0.0083 0.03707,-0.0037 0.07358,-0.0084 0.110072,-0.01395 0.03649,-0.0055 0.07265,-0.01182 0.108519,-0.01912 0.03588,-0.0073 0.07177,-0.01579 0.106971,-0.0248 0.03521,-0.009 0.0699,-0.01877 0.104386,-0.02946 0.03449,-0.01068 0.06859,-0.02232 0.10232,-0.03462 0.03373,-0.01231 0.06733,-0.02539 0.100253,-0.03927 0.03293,-0.01388 0.06507,-0.02851 0.09715,-0.04392 0.03208,-0.01541 0.0639,-0.03116 0.09508,-0.04806 0.03118,-0.0169 0.06174,-0.03489 0.09198,-0.05323 0.03024,-0.01834 0.06015,-0.03711 0.0894,-0.05684 0.02926,-0.01973 0.05808,-0.04041 0.0863,-0.06149 0.02822,-0.02108 0.05605,-0.04273 0.0832,-0.06511 0.02715,-0.02238 0.05356,-0.0456 0.07958,-0.06925 0.02603,-0.02364 0.05163,-0.04749 0.07648,-0.07235 0.02484,-0.02486 0.04922,-0.05046 0.07286,-0.07648 0.02365,-0.02602 0.04635,-0.05243 0.06873,-0.07958 0.02238,-0.027146 0.04403,-0.054976 0.06511,-0.083199 0.02109,-0.028223 0.04176,-0.057045 0.0615,-0.086299 0.01974,-0.029255 0.03851,-0.059159 0.05684,-0.0894 0.01833,-0.030241 0.03633,-0.060803 0.05323,-0.091984 0.01691,-0.031182 0.03265,-0.063008 0.04806,-0.095085 0.01543,-0.032077 0.03056,-0.064225 0.04444,-0.097152 0.01389,-0.032927 0.02697,-0.066521 0.03928,-0.1002523 0.0123,-0.033731 0.02341,-0.067829 0.03411,-0.1023194 0.01069,-0.034491 0.02096,-0.069182 0.02997,-0.1043863 0.009,-0.035204 0.01699,-0.071098 0.02429,-0.1069702 0.0073,-0.035873 0.01357,-0.072025 0.01913,-0.1085205 0.0056,-0.036496 0.01021,-0.072997 0.01394,-0.1100709 0.0038,-0.037073 0.0069,-0.074532 0.0088,-0.1121378 0.0019,-0.037605 0.0026,-0.075596 0.0026,-0.113688 V 2.4100592 c 0,-0.03809 -7.94e-4,-0.07608 -0.0026,-0.113688 -0.0019,-0.03761 -0.0051,-0.07507 -0.0088,-0.112138 -0.0037,-0.03707 -0.0084,-0.07357 -0.01394,-0.110071 -0.0056,-0.0365 -0.01183,-0.07265 -0.01913,-0.108521 -0.0073,-0.03587 -0.01527,-0.07177 -0.02429,-0.10697 -0.009,-0.0352 -0.01929,-0.0699 -0.02997,-0.104386 -0.01069,-0.03449 -0.0218,-0.06859 -0.03411,-0.10232 -0.0123,-0.03373 -0.0254,-0.06733 -0.03928,-0.100252 -0.01389,-0.03293 -0.02903,-0.06508 -0.04444,-0.09715 -0.0154,-0.03208 -0.03116,-0.0639 -0.04806,-0.09509 -0.01691,-0.03118 -0.03489,-0.06174 -0.05323,-0.09198 -0.01834,-0.03024 -0.03711,-0.06015 -0.05684,-0.0894 -0.01974,-0.02926 -0.04042,-0.05808 -0.0615,-0.0863 -0.02109,-0.02822 -0.04273,-0.05605 -0.06511,-0.0832 -0.02238,-0.02715 -0.04509,-0.05356 -0.06873,-0.07958 -0.02365,-0.02602 -0.04801,-0.05162 -0.07286,-0.07648 -0.02487,-0.02486 -0.05046,-0.0487 -0.07648,-0.07235 -0.02604,-0.02364 -0.05244,-0.04686 -0.07958,-0.06925 -0.02715,-0.02238 -0.05497,-0.04403 -0.0832,-0.06511 -0.02822,-0.02108 -0.05704,-0.04176 -0.0863,-0.06149 -0.02925,-0.01973 -0.05916,-0.03851 -0.0894,-0.05684 -0.03024,-0.01834 -0.0608,-0.03633 -0.09198,-0.05323 -0.03118,-0.0169 -0.06301,-0.03265 -0.09508,-0.04806 -0.03208,-0.01541 -0.06423,-0.03004 -0.09715,-0.04392 -0.03293,-0.01388 -0.06652,-0.02697 -0.100253,-0.03927 -0.03373,-0.0123 -0.06783,-0.02394 -0.10232,-0.03462 -0.03449,-0.01068 -0.06918,-0.02044 -0.104386,-0.02946 -0.0352,-0.009 -0.0711,-0.0175 -0.106971,-0.02481 -0.03587,-0.0073 -0.07202,-0.01357 -0.108519,-0.01912 -0.0365,-0.0056 -0.073,-0.01021 -0.110072,-0.01395 -0.03707,-0.0037 -0.07453,-0.0064 -0.112138,-0.0083 -0.0376,-0.0019 -0.07559,-0.0031 -0.113686,-0.0031 z m 5.29e-4,0.264067 h 6.181534 c 1.076952,0 1.9358,0.85884797 1.9358,1.93579897 V 8.593123 c 0,1.0769502 -0.858848,1.935282 -1.9358,1.935282 h -6.181534 c -1.07695,0 -1.935282,-0.8583318 -1.935282,-1.935282 V 2.4095212 c 0,-1.076951 0.858332,-1.93579897 1.935282,-1.93579897 z" />
      <rect
         style="opacity:0.2;mix-blend-mode:overlay;fill:url(#linearGradient19603);fill-opacity:1;stroke:none;stroke-width:0.55007;stroke-linecap:square"
         id="rect19601"
         width="10.583333"
         height="10.583333"
         x="32.879593"
         y="0.20965324"
         ry="2.2002783"
         rx="2.2002783" />
      <rect
         style="opacity:0.2;mix-blend-mode:overlay;fill:url(#linearGradient19607);fill-opacity:1;stroke:none;stroke-width:0.55007;stroke-linecap:square"
         id="rect19605"
         width="10.583333"
         height="10.583333"
         x="-43.462925"
         y="-10.792986"
         ry="2.2002783"
         rx="2.2002783"
         transform="scale(-1)" />
    </g>
  </g>
</svg>
