<?xml version="1.0" encoding="UTF-8" standalone="no"?>
<!-- Created with Inkscape (http://www.inkscape.org/) -->

<svg
   width="48"
   height="48"
   viewBox="0 0 12.7 12.7"
   version="1.1"
   id="svg39233"
   sodipodi:docname="org.gnome.Terminal.svg"
   inkscape:export-filename="/home/bokehlicia/.local/share/icons/Testeo/48x48/apps/google-chrome.png"
   inkscape:export-xdpi="96"
   inkscape:export-ydpi="96"
   inkscape:version="1.1 (c68e22c387, 2021-05-23)"
   xmlns:inkscape="http://www.inkscape.org/namespaces/inkscape"
   xmlns:sodipodi="http://sodipodi.sourceforge.net/DTD/sodipodi-0.dtd"
   xmlns:xlink="http://www.w3.org/1999/xlink"
   xmlns="http://www.w3.org/2000/svg"
   xmlns:svg="http://www.w3.org/2000/svg">
  <sodipodi:namedview
     id="namedview39235"
     pagecolor="#505050"
     bordercolor="#eeeeee"
     borderopacity="1"
     inkscape:pageshadow="0"
     inkscape:pageopacity="0"
     inkscape:pagecheckerboard="0"
     inkscape:document-units="mm"
     showgrid="false"
     units="px"
     inkscape:zoom="5.3664983"
     inkscape:cx="30.280453"
     inkscape:cy="9.7829156"
     inkscape:window-width="1920"
     inkscape:window-height="1048"
     inkscape:window-x="0"
     inkscape:window-y="32"
     inkscape:window-maximized="1"
     inkscape:current-layer="layer1" />
  <defs
     id="defs39230">
    <linearGradient
       inkscape:collect="always"
       xlink:href="#linearGradient2864"
       id="linearGradient17135"
       gradientUnits="userSpaceOnUse"
       gradientTransform="translate(-73.881222,-11.863887)"
       x1="6.4202108"
       y1="0.96924353"
       x2="6.4202108"
       y2="11.540484" />
    <linearGradient
       inkscape:collect="always"
       id="linearGradient2864">
      <stop
         style="stop-color:#000000;stop-opacity:1"
         offset="0"
         id="stop2860" />
      <stop
         style="stop-color:#fefefe;stop-opacity:0"
         offset="1"
         id="stop2862" />
    </linearGradient>
    <filter
       style="color-interpolation-filters:sRGB"
       inkscape:label="Blur"
       id="filter33679-36"
       x="-0.0022677166"
       y="-0.070299215"
       width="1.0045354"
       height="1.1405984">
      <feGaussianBlur
         stdDeviation="0.01 0.31"
         result="blur"
         id="feGaussianBlur33677-7" />
    </filter>
    <linearGradient
       inkscape:collect="always"
       xlink:href="#linearGradient2864"
       id="linearGradient2700"
       gradientUnits="userSpaceOnUse"
       x1="6.4202108"
       y1="0.96924353"
       x2="6.4202108"
       y2="11.540484"
       gradientTransform="translate(-73.881247,-11.863887)" />
    <filter
       style="color-interpolation-filters:sRGB"
       inkscape:label="Blur"
       id="filter17002"
       x="-0.0022285095"
       y="-0.372"
       width="1.004457"
       height="1.744">
      <feGaussianBlur
         stdDeviation="0.01 0.31"
         result="blur"
         id="feGaussianBlur17000" />
    </filter>
    <filter
       style="color-interpolation-filters:sRGB"
       inkscape:label="Blur"
       id="filter16998"
       x="-0.0020366567"
       y="-0.13455867"
       width="1.0040733"
       height="1.2691173">
      <feGaussianBlur
         stdDeviation="0.01 0.31"
         result="blur"
         id="feGaussianBlur16996" />
    </filter>
    <filter
       style="color-interpolation-filters:sRGB"
       inkscape:label="Blur"
       id="filter16994"
       x="-0.0020148668"
       y="-0.14349657"
       width="1.0040297"
       height="1.2869931">
      <feGaussianBlur
         stdDeviation="0.01 0.31"
         result="blur"
         id="feGaussianBlur16992" />
    </filter>
  </defs>
  <g
     inkscape:label="Calque 1"
     inkscape:groupmode="layer"
     id="layer1">
    <g
       id="g22348"
       transform="translate(-61.181239,-0.00738548)">
      <rect
         style="opacity:0.2;mix-blend-mode:overlay;fill:url(#linearGradient17135);fill-opacity:1;stroke:none;stroke-width:0.55007;stroke-linecap:square"
         id="rect17129"
         width="10.583333"
         height="10.583333"
         x="-72.822914"
         y="-10.805552"
         ry="2.2002783"
         rx="2.2002783"
         transform="scale(-1)" />
      <rect
         style="opacity:0.2;mix-blend-mode:overlay;fill:#000000;fill-opacity:1;stroke:none;stroke-width:0.55007;stroke-linecap:square;filter:url(#filter33679-36)"
         id="rect33699"
         width="10.583333"
         height="10.583333"
         x="-31.628342"
         y="-3.2242157"
         ry="2.2002783"
         rx="2.2002783"
         transform="rotate(180,20.597282,4.0552513)" />
      <rect
         style="fill:#2d3436;fill-opacity:1;stroke:none;stroke-width:0.55007;stroke-linecap:square"
         id="rect910"
         width="10.583333"
         height="10.583333"
         x="62.239578"
         y="0.22221939"
         ry="2.2002783"
         rx="2.2002783" />
      <rect
         style="opacity:0.2;mix-blend-mode:overlay;fill:url(#linearGradient2700);fill-opacity:1;stroke:none;stroke-width:0.55007;stroke-linecap:square"
         id="rect2698"
         width="10.583333"
         height="10.583333"
         x="-72.822914"
         y="-10.805552"
         ry="2.2002783"
         rx="2.2002783"
         transform="scale(-1)" />
      <path
         style="color:#000000;opacity:0.9;fill:#ffffff;stroke-linecap:round;stroke-linejoin:round;-inkscape-stroke:none"
         d="m 66.310149,4.7263859 a 0.39687499,0.39687499 0 0 0 -0.396484,0.3964844 0.39687499,0.39687499 0 0 0 0.396484,0.3964843 H 68.36679 A 0.39687499,0.39687499 0 0 0 68.763274,5.1228703 0.39687499,0.39687499 0 0 0 68.36679,4.7263859 Z"
         id="path13933" />
      <path
         id="path1183"
         style="color:#000000;opacity:0.2;fill:#000000;stroke-width:3.77953;stroke-linecap:round;stroke-linejoin:round;-inkscape-stroke:none;filter:url(#filter17002)"
         d="m 249.21094,19.861328 a 1.5,1.5 0 0 0 -0.0879,0.5 1.5,1.5 0 0 0 1.49804,1.5 h 7.77344 a 1.5,1.5 0 0 0 1.49805,-1.5 1.5,1.5 0 0 0 -0.0879,-0.5 1.5,1.5 0 0 1 -0.01,0.03125 1.5,1.5 0 0 1 -0.0742,0.166016 1.5,1.5 0 0 1 -0.0937,0.154297 1.5,1.5 0 0 1 -0.11133,0.142578 1.5,1.5 0 0 1 -0.1289,0.126953 1.5,1.5 0 0 1 -0.14258,0.113281 1.5,1.5 0 0 1 -0.1543,0.0918 1.5,1.5 0 0 1 -0.16406,0.07617 1.5,1.5 0 0 1 -0.17383,0.05273 1.5,1.5 0 0 1 -0.17773,0.0332 1.5,1.5 0 0 1 -0.17969,0.01172 h -7.77344 a 1.5,1.5 0 0 1 -0.17968,-0.01172 1.5,1.5 0 0 1 -0.17969,-0.0332 1.5,1.5 0 0 1 -0.17188,-0.05273 1.5,1.5 0 0 1 -0.16406,-0.07617 1.5,1.5 0 0 1 -0.15625,-0.0918 1.5,1.5 0 0 1 -0.14258,-0.113281 1.5,1.5 0 0 1 -0.12695,-0.126953 1.5,1.5 0 0 1 -0.11133,-0.142578 1.5,1.5 0 0 1 -0.0937,-0.154297 1.5,1.5 0 0 1 -0.0742,-0.166016 1.5,1.5 0 0 1 -0.01,-0.03125 z"
         transform="scale(0.26458333)" />
      <path
         id="path1827"
         style="color:#000000;opacity:0.2;fill:#000000;stroke-width:3.77953;stroke-linecap:round;-inkscape-stroke:none;filter:url(#filter16998)"
         d="m 240.77539,13.871094 a 1.5,1.5 0 0 0 0.0195,1.058594 1.5,1.5 0 0 0 1.94922,0.833984 l 8.78516,-3.529297 a 1.5,1.5 0 0 0 0.85742,-1.892578 1.5,1.5 0 0 1 -0.0215,0.05664 1.5,1.5 0 0 1 -0.0254,0.0625 1.5,1.5 0 0 1 -0.0293,0.06055 1.5,1.5 0 0 1 -0.0332,0.06055 1.5,1.5 0 0 1 -0.0332,0.05664 1.5,1.5 0 0 1 -0.0391,0.05664 1.5,1.5 0 0 1 -0.0391,0.05469 1.5,1.5 0 0 1 -0.041,0.05273 1.5,1.5 0 0 1 -0.0449,0.05078 1.5,1.5 0 0 1 -0.0469,0.04883 1.5,1.5 0 0 1 -0.0488,0.04687 1.5,1.5 0 0 1 -0.0508,0.04492 1.5,1.5 0 0 1 -0.0527,0.04101 1.5,1.5 0 0 1 -0.0547,0.04102 1.5,1.5 0 0 1 -0.0566,0.03711 1.5,1.5 0 0 1 -0.0586,0.0332 1.5,1.5 0 0 1 -0.0586,0.0332 1.5,1.5 0 0 1 -0.0605,0.0293 1.5,1.5 0 0 1 -0.0625,0.02539 l -8.78516,3.529297 a 1.5,1.5 0 0 1 -0.18555,0.06055 1.5,1.5 0 0 1 -0.19336,0.03516 1.5,1.5 0 0 1 -0.19531,0.01172 1.5,1.5 0 0 1 -0.19531,-0.01563 1.5,1.5 0 0 1 -0.19141,-0.04102 1.5,1.5 0 0 1 -0.18554,-0.06445 1.5,1.5 0 0 1 -0.17578,-0.08984 1.5,1.5 0 0 1 -0.16016,-0.111328 1.5,1.5 0 0 1 -0.14649,-0.130859 1.5,1.5 0 0 1 -0.12695,-0.148438 1.5,1.5 0 0 1 -0.10742,-0.164062 1.5,1.5 0 0 1 -0.0859,-0.175781 1.5,1.5 0 0 1 -0.0195,-0.05859 z"
         transform="scale(0.26458333)" />
      <path
         id="path16032"
         style="color:#000000;opacity:0.9;fill:#ffffff;stroke-width:3.77953;stroke-linecap:round;-inkscape-stroke:none"
         d="m 246.73828,9.9199219 -5.11523,2.0605471 a 1.5,1.5 0 0 0 -0.82813,1.949219 1.5,1.5 0 0 0 1.94922,0.833984 l 8.78516,-3.529297 a 1.5,1.5 0 0 0 0.83398,-1.9550781 1.5,1.5 0 0 0 -1.01562,-0.8964844 l 0.1289,0.046875 a 1.5,1.5 0 0 1 0.0625,0.023437 1.5,1.5 0 0 1 0.0625,0.027344 1.5,1.5 0 0 1 0.0586,0.029297 1.5,1.5 0 0 1 0.0586,0.033203 1.5,1.5 0 0 1 0.0586,0.035156 1.5,1.5 0 0 1 0.0547,0.037109 1.5,1.5 0 0 1 0.0547,0.041016 1.5,1.5 0 0 1 0.0508,0.041016 1.5,1.5 0 0 1 0.0508,0.044922 1.5,1.5 0 0 1 0.0469,0.046875 1.5,1.5 0 0 1 0.0469,0.048828 1.5,1.5 0 0 1 0.043,0.050781 1.5,1.5 0 0 1 0.041,0.052734 1.5,1.5 0 0 1 0.0391,0.054688 1.5,1.5 0 0 1 0.0371,0.056641 1.5,1.5 0 0 1 0.0332,0.058594 1.5,1.5 0 0 1 0.0312,0.058594 1.5,1.5 0 0 1 0.0293,0.060547 1.5,1.5 0 0 1 0.0254,0.0625 1.5,1.5 0 0 1 0.0234,0.0625 1.5,1.5 0 0 1 0.0195,0.064453 1.5,1.5 0 0 1 0.0176,0.064453 1.5,1.5 0 0 1 0.0137,0.064453 1.5,1.5 0 0 1 0.0117,0.066406 1.5,1.5 0 0 1 0.01,0.066406 1.5,1.5 0 0 1 0.004,0.066406 1.5,1.5 0 0 1 0.004,0.066406 1.5,1.5 0 0 1 0,0.068359 1.5,1.5 0 0 1 -0.004,0.066406 1.5,1.5 0 0 1 -0.008,0.066408 1.5,1.5 0 0 1 -0.008,0.06641 1.5,1.5 0 0 1 -0.0137,0.06641 1.5,1.5 0 0 1 -0.0137,0.06445 1.5,1.5 0 0 1 -0.0195,0.06445 1.5,1.5 0 0 1 -0.0215,0.06445 1.5,1.5 0 0 1 -0.0762,0.179687 1.5,1.5 0 0 1 -0.10156,0.167969 1.5,1.5 0 0 1 -0.1211,0.152344 1.5,1.5 0 0 1 -0.14062,0.136718 1.5,1.5 0 0 1 -0.15625,0.117187 1.5,1.5 0 0 1 -0.17187,0.09375 1.5,1.5 0 0 1 -0.18165,0.07227 1.5,1.5 0 0 1 -0.18945,0.04883 1.5,1.5 0 0 1 -0.19531,0.02344 1.5,1.5 0 0 1 -0.19531,-0.0039 1.5,1.5 0 0 1 -0.19336,-0.02734 1.5,1.5 0 0 1 -0.1875,-0.05273 z"
         transform="scale(0.26458333)" />
      <path
         id="path1687"
         style="color:#000000;opacity:0.2;fill:#000000;stroke-width:3.77953;stroke-linecap:round;-inkscape-stroke:none;filter:url(#filter16994)"
         d="m 240.64062,7.1503906 a 1.5,1.5 0 0 0 0.90821,1.9179688 L 250.4668,12.25 a 1.5,1.5 0 0 0 1.91015,-0.908203 1.5,1.5 0 0 0 0.002,-1.003906 1.5,1.5 0 0 1 -0.002,0.0039 1.5,1.5 0 0 1 -0.0762,0.179687 1.5,1.5 0 0 1 -0.10156,0.167969 1.5,1.5 0 0 1 -0.1211,0.152344 1.5,1.5 0 0 1 -0.14062,0.136719 1.5,1.5 0 0 1 -0.15625,0.117187 1.5,1.5 0 0 1 -0.17187,0.09375 1.5,1.5 0 0 1 -0.18165,0.07227 1.5,1.5 0 0 1 -0.18945,0.04883 1.5,1.5 0 0 1 -0.19531,0.02344 1.5,1.5 0 0 1 -0.19531,-0.0039 1.5,1.5 0 0 1 -0.19336,-0.02734 1.5,1.5 0 0 1 -0.1875,-0.05273 L 241.5488,8.0683764 a 1.5,1.5 0 0 1 -0.17969,-0.078125 1.5,1.5 0 0 1 -0.16992,-0.1015625 1.5,1.5 0 0 1 -0.1543,-0.1210938 1.5,1.5 0 0 1 -0.13476,-0.1425781 1.5,1.5 0 0 1 -0.11719,-0.15625 1.5,1.5 0 0 1 -0.0957,-0.171875 1.5,1.5 0 0 1 -0.0566,-0.1464844 z"
         transform="scale(0.26458333)" />
      <path
         style="color:#000000;opacity:0.9;fill:#ffffff;stroke-linecap:round;-inkscape-stroke:none"
         d="m 64.177337,1.3865422 a 0.39687499,0.39687499 0 0 0 -0.507813,0.2402343 0.39687499,0.39687499 0 0 0 0.240235,0.5078125 l 2.359375,0.8417969 A 0.39687499,0.39687499 0 0 0 66.774993,2.7361515 0.39687499,0.39687499 0 0 0 66.536712,2.2302922 Z"
         id="path15899" />
      <path
         id="path32897"
         style="color:#000000;opacity:0.2;mix-blend-mode:soft-light;fill:#ffffff;stroke-width:1;stroke-linecap:square;-inkscape-stroke:none"
         d="m 64.439945,0.22220272 c -0.03809,0 -0.07608,0.0012 -0.113689,0.0031 -0.0376,0.0019 -0.07506,0.0045 -0.112139,0.0083 -0.03707,0.0037 -0.07358,0.0084 -0.110069,0.01395 -0.0365,0.0056 -0.07265,0.01182 -0.108521,0.01912 -0.03587,0.0073 -0.07177,0.01579 -0.106969,0.02481 -0.03521,0.009 -0.0699,0.01877 -0.104388,0.02946 -0.03449,0.01068 -0.06859,0.02232 -0.10232,0.03462 -0.03373,0.0123 -0.06732,0.02539 -0.100251,0.03927 -0.03293,0.01388 -0.06507,0.02851 -0.09715,0.04393 -0.03208,0.01541 -0.0639,0.03116 -0.09508,0.04806 -0.03118,0.0169 -0.06174,0.03489 -0.09198,0.05323 -0.03024,0.01834 -0.06015,0.03711 -0.0894,0.05684 -0.02926,0.01973 -0.05808,0.04041 -0.0863,0.06149 -0.02822,0.02108 -0.05554,0.04273 -0.08268,0.06511 -0.02715,0.02238 -0.05407,0.0456 -0.0801,0.06925 -0.02604,0.02364 -0.05162,0.04749 -0.07648,0.07235 -0.02484,0.02486 -0.0487,0.05046 -0.07235,0.07648 -0.02365,0.02602 -0.04686,0.05243 -0.06925,0.07958 -0.02238,0.02715 -0.04403,0.05498 -0.06511,0.0832 -0.02109,0.02822 -0.04176,0.05705 -0.0615,0.0863 -0.01974,0.02925 -0.03851,0.05916 -0.05684,0.0894 -0.01834,0.03024 -0.03581,0.0608 -0.05271,0.09198 -0.01691,0.03118 -0.03317,0.06301 -0.04858,0.09508 -0.0154,0.03208 -0.03004,0.06423 -0.04392,0.09715 -0.01389,0.03293 -0.02697,0.06652 -0.03927,0.100252 -0.0123,0.03373 -0.02394,0.06783 -0.03462,0.10232 -0.01069,0.03449 -0.02043,0.06918 -0.02946,0.104386 -0.009,0.0352 -0.01749,0.0711 -0.02479,0.10697 -0.0073,0.03587 -0.01357,0.07203 -0.01913,0.108521 -0.0056,0.0365 -0.01021,0.073 -0.01394,0.110071 -0.0037,0.03707 -0.0064,0.07453 -0.0083,0.112138 -0.0019,0.03761 -0.0031,0.0756 -0.0031,0.113688 v 6.1825662 c 0,0.038092 0.0013,0.076083 0.0031,0.113688 0.0019,0.037606 0.0045,0.075065 0.0083,0.1121378 0.0038,0.037073 0.0084,0.073575 0.01394,0.1100709 0.0056,0.036496 0.01183,0.072648 0.01913,0.1085205 0.0073,0.035873 0.01579,0.071766 0.02479,0.1069702 0.009,0.035204 0.01876,0.069896 0.02946,0.1043863 0.01069,0.034491 0.0223,0.068588 0.03462,0.1023194 0.0123,0.033732 0.0254,0.067325 0.03927,0.1002523 0.01389,0.032927 0.02851,0.065075 0.04392,0.097152 0.0154,0.032077 0.03168,0.063903 0.04858,0.095085 0.01691,0.031181 0.03437,0.061743 0.05271,0.091984 0.01833,0.030241 0.03711,0.060146 0.05684,0.0894 0.01974,0.029254 0.04041,0.058076 0.0615,0.086299 0.02109,0.028223 0.04273,0.056053 0.06511,0.083199 0.02238,0.02715 0.0456,0.05356 0.06925,0.07958 0.02365,0.02602 0.04749,0.05162 0.07235,0.07648 0.02487,0.02485 0.05046,0.0487 0.07648,0.07235 0.02603,0.02364 0.05295,0.04686 0.0801,0.06925 0.02715,0.02238 0.05446,0.04403 0.08268,0.06511 0.02822,0.02108 0.05705,0.04176 0.0863,0.06149 0.02925,0.01973 0.05916,0.03851 0.0894,0.05684 0.03024,0.01834 0.0608,0.03633 0.09198,0.05323 0.03118,0.0169 0.06301,0.03265 0.09508,0.04806 0.03208,0.01541 0.06422,0.03004 0.09715,0.04392 0.03293,0.01388 0.06652,0.02697 0.100251,0.03927 0.03373,0.01231 0.06783,0.02394 0.10232,0.03462 0.03449,0.01068 0.06918,0.02044 0.104388,0.02946 0.0352,0.009 0.0711,0.0175 0.106969,0.0248 0.03587,0.0073 0.07203,0.01358 0.108521,0.01912 0.03649,0.0055 0.073,0.01021 0.110069,0.01395 0.03707,0.0037 0.07453,0.0064 0.112139,0.0083 0.0376,0.0019 0.0756,0.0031 0.113689,0.0031 h 6.182569 c 0.03809,0 0.07608,-0.0012 0.113686,-0.0031 0.03761,-0.0019 0.07507,-0.0045 0.112138,-0.0083 0.03707,-0.0037 0.07358,-0.0084 0.110072,-0.01395 0.03649,-0.0055 0.07265,-0.01182 0.108519,-0.01912 0.03588,-0.0073 0.07177,-0.01579 0.106971,-0.0248 0.03521,-0.009 0.0699,-0.01877 0.104386,-0.02946 0.03449,-0.01068 0.06859,-0.02232 0.10232,-0.03462 0.03373,-0.01231 0.06733,-0.02539 0.100253,-0.03927 0.03293,-0.01388 0.06507,-0.02851 0.09715,-0.04392 0.03208,-0.01541 0.0639,-0.03116 0.09508,-0.04806 0.03118,-0.0169 0.06174,-0.03489 0.09198,-0.05323 0.03024,-0.01834 0.06015,-0.03711 0.0894,-0.05684 0.02926,-0.01973 0.05808,-0.04041 0.0863,-0.06149 0.02822,-0.02108 0.05605,-0.04273 0.0832,-0.06511 0.02715,-0.02238 0.05356,-0.0456 0.07958,-0.06925 0.02603,-0.02364 0.05163,-0.04749 0.07648,-0.07235 0.02484,-0.02486 0.04922,-0.05046 0.07286,-0.07648 0.02365,-0.02602 0.04635,-0.05243 0.06873,-0.07958 0.02238,-0.027146 0.04403,-0.054976 0.06511,-0.083199 0.02109,-0.028223 0.04176,-0.057045 0.0615,-0.086299 0.01974,-0.029255 0.03851,-0.059159 0.05684,-0.0894 0.01833,-0.030241 0.03633,-0.060803 0.05323,-0.091984 0.01691,-0.031182 0.03265,-0.063008 0.04806,-0.095085 0.01543,-0.032077 0.03056,-0.064225 0.04444,-0.097152 0.01389,-0.032927 0.02697,-0.066521 0.03928,-0.1002523 0.0123,-0.033731 0.02341,-0.067829 0.03411,-0.1023194 0.01069,-0.034491 0.02096,-0.069182 0.02997,-0.1043863 0.009,-0.035204 0.01699,-0.071098 0.02429,-0.1069702 0.0073,-0.035873 0.01357,-0.072025 0.01913,-0.1085205 0.0056,-0.036496 0.01021,-0.072997 0.01394,-0.1100709 0.0038,-0.037073 0.0069,-0.074532 0.0088,-0.1121378 0.0019,-0.037605 0.0026,-0.075596 0.0026,-0.113688 V 2.4226067 c 0,-0.03809 -7.94e-4,-0.07608 -0.0026,-0.113688 -0.0019,-0.03761 -0.0051,-0.07507 -0.0088,-0.112138 -0.0037,-0.03707 -0.0084,-0.07357 -0.01394,-0.110071 -0.0056,-0.0365 -0.01183,-0.07265 -0.01913,-0.108521 -0.0073,-0.03587 -0.01527,-0.07177 -0.02429,-0.10697 -0.009,-0.0352 -0.01929,-0.0699 -0.02997,-0.104386 -0.01069,-0.03449 -0.0218,-0.06859 -0.03411,-0.10232 -0.0123,-0.03373 -0.0254,-0.06733 -0.03928,-0.100252 -0.01389,-0.03293 -0.02903,-0.06508 -0.04444,-0.09715 -0.0154,-0.03208 -0.03116,-0.0639 -0.04806,-0.09509 -0.01691,-0.03118 -0.03489,-0.06174 -0.05323,-0.09198 -0.01834,-0.03024 -0.03711,-0.06015 -0.05684,-0.0894 -0.01974,-0.02926 -0.04042,-0.05808 -0.0615,-0.0863 -0.02109,-0.02822 -0.04273,-0.05605 -0.06511,-0.0832 -0.02238,-0.02715 -0.04509,-0.05356 -0.06873,-0.07958 -0.02365,-0.02602 -0.04801,-0.05162 -0.07286,-0.07648 -0.02487,-0.02486 -0.05046,-0.0487 -0.07648,-0.07235 -0.02604,-0.02364 -0.05244,-0.04686 -0.07958,-0.06925 -0.02715,-0.02238 -0.05497,-0.04403 -0.0832,-0.06511 -0.02822,-0.02108 -0.05704,-0.04176 -0.0863,-0.06149 -0.02925,-0.01973 -0.05916,-0.03851 -0.0894,-0.05684 -0.03024,-0.01834 -0.0608,-0.03633 -0.09198,-0.05323 -0.03118,-0.0169 -0.06301,-0.03265 -0.09508,-0.04806 -0.03208,-0.01541 -0.06423,-0.03004 -0.09715,-0.04392 -0.03293,-0.01388 -0.06652,-0.02697 -0.100253,-0.03927 -0.03373,-0.0123 -0.06783,-0.02394 -0.10232,-0.03462 -0.03449,-0.01068 -0.06918,-0.02044 -0.104386,-0.02946 -0.0352,-0.009 -0.0711,-0.0175 -0.106971,-0.02481 -0.03587,-0.0073 -0.07202,-0.01357 -0.108519,-0.01912 -0.0365,-0.0056 -0.073,-0.01021 -0.110072,-0.01395 -0.03707,-0.0037 -0.07453,-0.0064 -0.112138,-0.0083 -0.0376,-0.0019 -0.07559,-0.0031 -0.113686,-0.0031 z m 5.29e-4,0.264067 h 6.181534 c 1.076952,0 1.9358,0.85884798 1.9358,1.93579898 v 6.1836018 c 0,1.0769502 -0.858848,1.9352825 -1.9358,1.9352825 h -6.181534 c -1.07695,0 -1.935282,-0.8583323 -1.935282,-1.9352825 V 2.4220687 c 0,-1.076951 0.858332,-1.93579898 1.935282,-1.93579898 z" />
    </g>
  </g>
</svg>
