<?xml version="1.0" encoding="UTF-8" standalone="no"?>
<!-- Created with Inkscape (http://www.inkscape.org/) -->

<svg
   width="48"
   height="48"
   viewBox="0 0 12.7 12.7"
   version="1.1"
   id="svg39233"
   sodipodi:docname="org.gnome.settings.svg"
   inkscape:export-filename="/home/bokehlicia/.local/share/icons/Testeo/48x48/apps/google-chrome.png"
   inkscape:export-xdpi="96"
   inkscape:export-ydpi="96"
   inkscape:version="1.1 (c68e22c387, 2021-05-23)"
   xmlns:inkscape="http://www.inkscape.org/namespaces/inkscape"
   xmlns:sodipodi="http://sodipodi.sourceforge.net/DTD/sodipodi-0.dtd"
   xmlns:xlink="http://www.w3.org/1999/xlink"
   xmlns="http://www.w3.org/2000/svg"
   xmlns:svg="http://www.w3.org/2000/svg">
  <sodipodi:namedview
     id="namedview39235"
     pagecolor="#505050"
     bordercolor="#eeeeee"
     borderopacity="1"
     inkscape:pageshadow="0"
     inkscape:pageopacity="0"
     inkscape:pagecheckerboard="0"
     inkscape:document-units="mm"
     showgrid="false"
     units="px"
     inkscape:zoom="5.3664983"
     inkscape:cx="30.280453"
     inkscape:cy="9.7829156"
     inkscape:window-width="1920"
     inkscape:window-height="1048"
     inkscape:window-x="0"
     inkscape:window-y="32"
     inkscape:window-maximized="1"
     inkscape:current-layer="layer1" />
  <defs
     id="defs39230">
    <filter
       style="color-interpolation-filters:sRGB"
       inkscape:label="Blur"
       id="filter33679"
       x="-0.0022677166"
       y="-0.070299215"
       width="1.0045354"
       height="1.1405984">
      <feGaussianBlur
         stdDeviation="0.01 0.31"
         result="blur"
         id="feGaussianBlur33677" />
    </filter>
    <filter
       style="color-interpolation-filters:sRGB"
       inkscape:label="Blur"
       id="filter16690"
       x="-0.0043870046"
       y="-0.092127095"
       width="1.008774"
       height="1.1842542">
      <feGaussianBlur
         stdDeviation="0.01 0.21"
         result="blur"
         id="feGaussianBlur16688" />
    </filter>
    <filter
       style="color-interpolation-filters:sRGB"
       inkscape:label="Blur"
       id="filter16844"
       x="-0.0061783424"
       y="-0.067961776"
       width="1.0123567"
       height="1.1359236">
      <feGaussianBlur
         stdDeviation="0.01 0.11"
         result="blur"
         id="feGaussianBlur16842" />
    </filter>
    <filter
       style="color-interpolation-filters:sRGB"
       inkscape:label="Blur"
       id="filter33679-3"
       x="-0.0022677166"
       y="-0.070299215"
       width="1.0045354"
       height="1.1405984">
      <feGaussianBlur
         stdDeviation="0.01 0.31"
         result="blur"
         id="feGaussianBlur33677-6" />
    </filter>
    <filter
       style="color-interpolation-filters:sRGB"
       inkscape:label="Blur"
       id="filter33679-6"
       x="-0.0022677166"
       y="-0.070299215"
       width="1.0045354"
       height="1.1405984">
      <feGaussianBlur
         stdDeviation="0.01 0.31"
         result="blur"
         id="feGaussianBlur33677-2" />
    </filter>
    <filter
       style="color-interpolation-filters:sRGB"
       inkscape:label="Blur"
       id="filter1425"
       x="-0.0084222079"
       y="-0.33292613"
       width="1.0168444"
       height="1.6658523">
      <feGaussianBlur
         stdDeviation="0.01 0.11"
         result="blur"
         id="feGaussianBlur1423" />
    </filter>
    <filter
       style="color-interpolation-filters:sRGB"
       inkscape:label="Blur"
       id="filter1849"
       x="-0.0076967568"
       y="-0.15266715"
       width="1.0153935"
       height="1.3053343">
      <feGaussianBlur
         stdDeviation="0.01 0.11"
         result="blur"
         id="feGaussianBlur1847" />
    </filter>
    <filter
       style="color-interpolation-filters:sRGB"
       inkscape:label="Blur"
       id="filter1709"
       x="-0.0076149638"
       y="-0.16138474"
       width="1.0152299"
       height="1.3227695">
      <feGaussianBlur
         stdDeviation="0.01 0.11"
         result="blur"
         id="feGaussianBlur1707" />
    </filter>
    <filter
       style="color-interpolation-filters:sRGB"
       inkscape:label="Blur"
       id="filter33679-9"
       x="-0.0022677166"
       y="-0.070299215"
       width="1.0045354"
       height="1.1405984">
      <feGaussianBlur
         stdDeviation="0.01 0.31"
         result="blur"
         id="feGaussianBlur33677-1" />
    </filter>
    <filter
       style="color-interpolation-filters:sRGB"
       inkscape:label="Blur"
       id="filter34883"
       x="-0.0058636034"
       y="-0.04056494"
       width="1.0117272"
       height="1.0811299">
      <feGaussianBlur
         stdDeviation="0.01 0.11"
         result="blur"
         id="feGaussianBlur34881" />
    </filter>
    <filter
       style="color-interpolation-filters:sRGB"
       inkscape:label="Blur"
       id="filter34923"
       x="-0.0032464944"
       y="-0.3321081"
       width="1.006493"
       height="1.6642162">
      <feGaussianBlur
         stdDeviation="0.01 0.11"
         result="blur"
         id="feGaussianBlur34921" />
    </filter>
    <filter
       style="color-interpolation-filters:sRGB"
       inkscape:label="Blur"
       id="filter34691"
       x="-0.005862907"
       y="-0.040563719"
       width="1.0117258"
       height="1.0811274">
      <feGaussianBlur
         stdDeviation="0.01 0.11"
         result="blur"
         id="feGaussianBlur34689" />
    </filter>
    <filter
       style="color-interpolation-filters:sRGB"
       inkscape:label="Blur"
       id="filter33679-36"
       x="-0.0022677166"
       y="-0.070299215"
       width="1.0045354"
       height="1.1405984">
      <feGaussianBlur
         stdDeviation="0.01 0.31"
         result="blur"
         id="feGaussianBlur33677-7" />
    </filter>
    <filter
       style="color-interpolation-filters:sRGB"
       inkscape:label="Blur"
       id="filter2011"
       x="-0.0036724425"
       y="-0.12469372"
       width="1.0073449"
       height="1.2493874">
      <feGaussianBlur
         stdDeviation="0.01 0.11"
         result="blur"
         id="feGaussianBlur2009" />
    </filter>
    <filter
       style="color-interpolation-filters:sRGB"
       inkscape:label="Blur"
       id="filter2071"
       x="-0.01511811"
       y="-0.16629921"
       width="1.0302362"
       height="1.3325984">
      <feGaussianBlur
         stdDeviation="0.01 0.11"
         result="blur"
         id="feGaussianBlur2069" />
    </filter>
    <filter
       style="color-interpolation-filters:sRGB"
       inkscape:label="Blur"
       id="filter18833"
       x="-0.0036724424"
       y="-0.12469372"
       width="1.0073448"
       height="1.2493874">
      <feGaussianBlur
         stdDeviation="0.01 0.11"
         result="blur"
         id="feGaussianBlur18831" />
    </filter>
    <filter
       style="color-interpolation-filters:sRGB"
       inkscape:label="Blur"
       id="filter18837"
       x="-0.01511811"
       y="-0.16629921"
       width="1.0302362"
       height="1.3325984">
      <feGaussianBlur
         stdDeviation="0.01 0.11"
         result="blur"
         id="feGaussianBlur18835" />
    </filter>
    <filter
       style="color-interpolation-filters:sRGB"
       inkscape:label="Blur"
       id="filter33679-2"
       x="-0.0022677166"
       y="-0.070299215"
       width="1.0045354"
       height="1.1405984">
      <feGaussianBlur
         stdDeviation="0.01 0.31"
         result="blur"
         id="feGaussianBlur33677-9" />
    </filter>
    <linearGradient
       inkscape:collect="always"
       xlink:href="#linearGradient2864"
       id="linearGradient26631"
       gradientUnits="userSpaceOnUse"
       gradientTransform="translate(-169.15665,-12.129232)"
       x1="6.4202108"
       y1="0.96924353"
       x2="6.4202108"
       y2="11.540484" />
    <linearGradient
       inkscape:collect="always"
       id="linearGradient2864">
      <stop
         style="stop-color:#000000;stop-opacity:1"
         offset="0"
         id="stop2860" />
      <stop
         style="stop-color:#fefefe;stop-opacity:0"
         offset="1"
         id="stop2862" />
    </linearGradient>
    <linearGradient
       inkscape:collect="always"
       xlink:href="#linearGradient2084"
       id="linearGradient26629"
       gradientUnits="userSpaceOnUse"
       gradientTransform="translate(156.45664,-0.57076834)"
       x1="6.4202108"
       y1="0.96924353"
       x2="6.4202108"
       y2="11.540484" />
    <linearGradient
       inkscape:collect="always"
       id="linearGradient2084">
      <stop
         style="stop-color:#ffffff;stop-opacity:1"
         offset="0"
         id="stop2080" />
      <stop
         style="stop-color:#000000;stop-opacity:0"
         offset="1"
         id="stop2082" />
    </linearGradient>
    <filter
       style="color-interpolation-filters:sRGB"
       inkscape:label="Blur"
       id="filter26547"
       x="-0.0036284026"
       y="-0.076195856"
       width="1.0072568"
       height="1.1523917">
      <feGaussianBlur
         stdDeviation="0.01 0.21"
         result="blur"
         id="feGaussianBlur26545" />
    </filter>
  </defs>
  <g
     inkscape:label="Calque 1"
     inkscape:groupmode="layer"
     id="layer1">
    <g
       id="g40204"
       transform="translate(-156.45664,-0.27273328)">
      <rect
         style="opacity:0.2;mix-blend-mode:overlay;fill:#000000;fill-opacity:1;stroke:none;stroke-width:0.55007;stroke-linecap:square;filter:url(#filter33679-2)"
         id="rect26599"
         width="10.583333"
         height="10.583333"
         x="-31.628342"
         y="-3.2242157"
         ry="2.2002783"
         rx="2.2002783"
         transform="rotate(180,68.23498,4.1879252)" />
      <rect
         style="opacity:1;fill:#ffffff;fill-opacity:1;stroke:none;stroke-width:0.55007;stroke-linecap:square"
         id="rect26601"
         width="10.583333"
         height="10.583333"
         x="157.51497"
         y="0.48756647"
         ry="2.2002783"
         rx="2.2002783" />
      <rect
         style="opacity:0.2;mix-blend-mode:overlay;fill:url(#linearGradient26631);fill-opacity:1;stroke:none;stroke-width:0.55007;stroke-linecap:square"
         id="rect26603"
         width="10.583333"
         height="10.583333"
         x="-168.0983"
         y="-11.0709"
         ry="2.2002783"
         rx="2.2002783"
         transform="scale(-1)" />
      <rect
         style="opacity:0.2;mix-blend-mode:overlay;fill:url(#linearGradient26629);fill-opacity:1;stroke:none;stroke-width:0.55007;stroke-linecap:square"
         id="rect26605"
         width="10.583333"
         height="10.583333"
         x="157.51497"
         y="0.48756647"
         ry="2.2002783"
         rx="2.2002783" />
      <path
         id="path26607"
         style="color:#000000;opacity:0.2;mix-blend-mode:soft-light;fill:#ffffff;stroke-width:1;stroke-linecap:square;-inkscape-stroke:none"
         d="m 159.71485,0.48756847 c -0.0381,0 -0.0761,0.0012 -0.11369,0.0031 -0.0376,0.0019 -0.0751,0.0045 -0.11213,0.0083 -0.0371,0.0037 -0.0736,0.0084 -0.11007,0.01395 -0.0365,0.0056 -0.0726,0.01182 -0.10852,0.01912 -0.0359,0.0073 -0.0718,0.01579 -0.10697,0.02481 -0.0352,0.009 -0.0699,0.01877 -0.10439,0.02946 -0.0345,0.01068 -0.0686,0.02232 -0.10232,0.03462 -0.0337,0.0123 -0.0673,0.02539 -0.10025,0.03927 -0.0329,0.01388 -0.0651,0.02851 -0.0971,0.04393 -0.0321,0.01541 -0.0639,0.03116 -0.0951,0.04806 -0.0312,0.0169 -0.0617,0.03489 -0.092,0.05323 -0.0302,0.01834 -0.0602,0.03711 -0.0894,0.05684 -0.0293,0.01973 -0.0581,0.04041 -0.0863,0.06149 -0.0282,0.02108 -0.0555,0.04273 -0.0827,0.06511 -0.0272,0.02238 -0.0541,0.0456 -0.0801,0.06925 -0.026,0.02364 -0.0516,0.04749 -0.0765,0.07235 -0.0248,0.02486 -0.0487,0.05046 -0.0724,0.07648 -0.0237,0.02602 -0.0469,0.05243 -0.0692,0.07958 -0.0224,0.02715 -0.044,0.05498 -0.0651,0.0832 -0.0211,0.02822 -0.0418,0.05705 -0.0615,0.0863 -0.0197,0.02925 -0.0385,0.05916 -0.0568,0.0894 -0.0183,0.03024 -0.0358,0.0608 -0.0527,0.09198 -0.0169,0.03118 -0.0332,0.06301 -0.0486,0.09508 -0.0154,0.03208 -0.03,0.06423 -0.0439,0.09715 -0.0139,0.03293 -0.027,0.06652 -0.0393,0.100252 -0.0123,0.03373 -0.0239,0.06783 -0.0346,0.10232 -0.0107,0.03449 -0.0204,0.06918 -0.0295,0.104386 -0.009,0.0352 -0.0175,0.0711 -0.0248,0.10697 -0.007,0.03587 -0.0136,0.07203 -0.0191,0.108521 -0.006,0.0365 -0.0102,0.073 -0.0139,0.110071 -0.004,0.03707 -0.006,0.07453 -0.008,0.112138 -0.002,0.03761 -0.003,0.0756 -0.003,0.113688 v 6.1825666 c 0,0.03809 0.001,0.07608 0.003,0.113688 0.002,0.03761 0.004,0.07507 0.008,0.112137 0.004,0.03707 0.008,0.07357 0.0139,0.110071 0.006,0.0365 0.0118,0.07265 0.0191,0.108521 0.007,0.03587 0.0158,0.07177 0.0248,0.10697 0.009,0.0352 0.0188,0.0699 0.0295,0.104386 0.0107,0.03449 0.0223,0.06859 0.0346,0.10232 0.0123,0.03373 0.0254,0.06733 0.0393,0.100252 0.0139,0.03293 0.0285,0.06508 0.0439,0.09715 0.0154,0.03208 0.0317,0.0639 0.0486,0.09509 0.0169,0.03118 0.0344,0.06174 0.0527,0.09198 0.0183,0.03024 0.0371,0.06015 0.0568,0.0894 0.0197,0.02925 0.0404,0.05808 0.0615,0.0863 0.0211,0.02822 0.0427,0.05605 0.0651,0.0832 0.0224,0.02715 0.0456,0.05356 0.0692,0.07958 0.0237,0.02602 0.0475,0.05162 0.0724,0.07648 0.0249,0.02485 0.0505,0.0487 0.0765,0.07235 0.026,0.02364 0.0529,0.04686 0.0801,0.06925 0.0271,0.02238 0.0545,0.04403 0.0827,0.06511 0.0282,0.02108 0.0571,0.04176 0.0863,0.06149 0.0293,0.01973 0.0592,0.03851 0.0894,0.05684 0.0302,0.01834 0.0608,0.03633 0.092,0.05323 0.0312,0.0169 0.063,0.03265 0.0951,0.04806 0.0321,0.01541 0.0642,0.03004 0.0971,0.04392 0.0329,0.01388 0.0665,0.02697 0.10025,0.03927 0.0337,0.01231 0.0678,0.02394 0.10232,0.03462 0.0345,0.01068 0.0692,0.02044 0.10439,0.02946 0.0352,0.009 0.0711,0.0175 0.10697,0.0248 0.0359,0.0073 0.072,0.01358 0.10852,0.01912 0.0365,0.0055 0.073,0.01021 0.11007,0.01395 0.0371,0.0037 0.0745,0.0064 0.11213,0.0083 0.0376,0.0019 0.0756,0.0031 0.11369,0.0031 h 6.18257 c 0.0381,0 0.0761,-0.0012 0.11369,-0.0031 0.0376,-0.0019 0.0751,-0.0045 0.11214,-0.0083 0.0371,-0.0037 0.0736,-0.0084 0.11007,-0.01395 0.0365,-0.0055 0.0727,-0.01182 0.10852,-0.01912 0.0359,-0.0073 0.0718,-0.01579 0.10697,-0.0248 0.0352,-0.009 0.0699,-0.01877 0.10439,-0.02946 0.0345,-0.01068 0.0686,-0.02232 0.10232,-0.03462 0.0337,-0.01231 0.0673,-0.02539 0.10025,-0.03927 0.0329,-0.01388 0.0651,-0.02851 0.0971,-0.04392 0.0321,-0.01541 0.0639,-0.03116 0.0951,-0.04806 0.0312,-0.0169 0.0617,-0.03489 0.092,-0.05323 0.0302,-0.01834 0.0601,-0.03711 0.0894,-0.05684 0.0293,-0.01973 0.0581,-0.04041 0.0863,-0.06149 0.0282,-0.02108 0.056,-0.04273 0.0832,-0.06511 0.0272,-0.02238 0.0536,-0.0456 0.0796,-0.06925 0.026,-0.02364 0.0516,-0.04749 0.0765,-0.07235 0.0248,-0.02486 0.0492,-0.05046 0.0729,-0.07648 0.0237,-0.02602 0.0464,-0.05243 0.0687,-0.07958 0.0224,-0.02715 0.044,-0.05498 0.0651,-0.0832 0.0211,-0.02822 0.0418,-0.05705 0.0615,-0.0863 0.0197,-0.02926 0.0385,-0.05916 0.0568,-0.0894 0.0183,-0.03024 0.0363,-0.0608 0.0532,-0.09198 0.0169,-0.03118 0.0327,-0.06301 0.0481,-0.09509 0.0154,-0.03208 0.0306,-0.06423 0.0444,-0.09715 0.0139,-0.03293 0.027,-0.06652 0.0393,-0.100252 0.0123,-0.03373 0.0234,-0.06783 0.0341,-0.10232 0.0107,-0.03449 0.021,-0.06918 0.03,-0.104386 0.009,-0.0352 0.017,-0.0711 0.0243,-0.10697 0.007,-0.03587 0.0136,-0.07203 0.0191,-0.108521 0.006,-0.0365 0.0102,-0.073 0.0139,-0.110071 0.004,-0.03707 0.007,-0.07453 0.009,-0.112137 0.002,-0.03761 0.003,-0.0756 0.003,-0.113688 V 2.6879725 c 0,-0.03809 -7.9e-4,-0.07608 -0.003,-0.113688 -0.002,-0.03761 -0.005,-0.07507 -0.009,-0.112138 -0.004,-0.03707 -0.008,-0.07357 -0.0139,-0.110071 -0.006,-0.0365 -0.0118,-0.07265 -0.0191,-0.108521 -0.007,-0.03587 -0.0153,-0.07177 -0.0243,-0.10697 -0.009,-0.0352 -0.0193,-0.0699 -0.03,-0.104386 -0.0107,-0.03449 -0.0218,-0.06859 -0.0341,-0.10232 -0.0123,-0.03373 -0.0254,-0.06733 -0.0393,-0.100252 -0.0139,-0.03293 -0.029,-0.06508 -0.0444,-0.09715 -0.0154,-0.03208 -0.0312,-0.0639 -0.0481,-0.09509 -0.0169,-0.03118 -0.0349,-0.06174 -0.0532,-0.09198 -0.0183,-0.03024 -0.0371,-0.06015 -0.0568,-0.0894 -0.0197,-0.02926 -0.0404,-0.05808 -0.0615,-0.0863 -0.0211,-0.02822 -0.0427,-0.05605 -0.0651,-0.0832 -0.0224,-0.02715 -0.0451,-0.05356 -0.0687,-0.07958 -0.0237,-0.02602 -0.048,-0.05162 -0.0729,-0.07648 -0.0249,-0.02486 -0.0505,-0.0487 -0.0765,-0.07235 -0.026,-0.02364 -0.0524,-0.04686 -0.0796,-0.06925 -0.0272,-0.02238 -0.055,-0.04403 -0.0832,-0.06511 -0.0282,-0.02108 -0.057,-0.04176 -0.0863,-0.06149 -0.0293,-0.01973 -0.0592,-0.03851 -0.0894,-0.05684 -0.0302,-0.01834 -0.0608,-0.03633 -0.092,-0.05323 -0.0312,-0.0169 -0.063,-0.03265 -0.0951,-0.04806 -0.0321,-0.01541 -0.0642,-0.03004 -0.0971,-0.04392 -0.0329,-0.01388 -0.0665,-0.02697 -0.10025,-0.03927 -0.0337,-0.0123 -0.0678,-0.02394 -0.10232,-0.03462 -0.0345,-0.01068 -0.0692,-0.02044 -0.10439,-0.02946 -0.0352,-0.009 -0.0711,-0.0175 -0.10697,-0.02481 -0.0359,-0.0073 -0.072,-0.01357 -0.10852,-0.01912 -0.0365,-0.0056 -0.073,-0.01021 -0.11007,-0.01395 -0.0371,-0.0037 -0.0745,-0.0064 -0.11214,-0.0083 -0.0376,-0.0019 -0.0756,-0.0031 -0.11369,-0.0031 z m 5.3e-4,0.264067 h 6.18154 c 1.07695,0 1.9358,0.85884803 1.9358,1.93579903 v 6.1836016 c 0,1.07695 -0.85885,1.9352829 -1.9358,1.9352829 h -6.18154 c -1.07695,0 -1.93528,-0.8583329 -1.93528,-1.9352829 V 2.6874345 c 0,-1.076951 0.85833,-1.93579903 1.93528,-1.93579903 z" />
      <g
         id="g39514"
         transform="translate(1.7852106)">
        <path
           d="m 160.82722,2.7449708 c -0.22516,0.013822 -0.28884,0.035026 -0.36727,0.1179891 -0.0867,0.092181 -0.084,0.080198 -0.0895,0.5217419 -0.005,0.3843916 -0.005,0.3871561 -0.0267,0.4286389 -0.0544,0.1041637 -0.11813,0.1308945 -0.33498,0.1438017 -0.14949,0.00831 -0.1375,0.016587 -0.42357,-0.2636372 -0.28975,-0.2829941 -0.29991,-0.2903688 -0.42356,-0.2903688 -0.1292,0 -0.13381,0.00366 -0.46694,0.3383022 -0.30638,0.3078826 -0.30269,0.3032734 -0.32207,0.4138894 -0.007,0.041477 0.009,0.1290532 0.0342,0.1788313 0.0111,0.02122 0.12366,0.1419578 0.2713,0.2903696 0.27593,0.2774617 0.29899,0.308801 0.29899,0.4019047 0,0.036869 -0.007,0.057151 -0.0323,0.099552 -0.0425,0.070983 -0.11721,0.1631611 -0.16703,0.2074084 -0.0766,0.067289 -0.0637,0.065445 -0.44572,0.065445 -0.39588,0 -0.40326,9.167e-4 -0.49463,0.083885 -0.096,0.088495 -0.1135,0.1548625 -0.1218,0.4747267 -0.006,0.2175477 0.007,0.4314035 0.0295,0.508838 0.0314,0.1032406 0.11629,0.1852819 0.22424,0.2157005 0.0544,0.014753 0.1006,0.016588 0.41249,0.016588 0.32853,0 0.35344,0.00182 0.39036,0.018447 0.0618,0.027654 0.0932,0.053465 0.11258,0.093104 0.036,0.069131 0.0591,0.309725 0.0369,0.3853148 -0.007,0.02396 -0.0738,0.096787 -0.25654,0.2811477 -0.22701,0.2286052 -0.25008,0.2544203 -0.26946,0.3051182 -0.0267,0.070053 -0.0286,0.1567072 -0.006,0.2258406 0.0157,0.047015 0.0397,0.072825 0.30821,0.3429113 0.20394,0.2055613 0.30453,0.2986651 0.33314,0.3134144 0.0342,0.016588 0.0582,0.020274 0.12549,0.02122 0.1412,0 0.13658,0.00274 0.43834,-0.2958996 0.28884,-0.285757 0.30545,-0.2977419 0.40234,-0.2986617 0.047,0 0.0637,0.00464 0.10981,0.033183 0.0674,0.039634 0.1209,0.082962 0.18549,0.1493325 0.0803,0.082962 0.0776,0.064523 0.0776,0.4461529 0,0.3705628 0.002,0.3899216 0.0563,0.4719653 0.0351,0.052544 0.0978,0.1013959 0.15595,0.1198315 0.14581,0.048857 0.6718,0.054386 0.84714,0.00921 0.0683,-0.017501 0.14488,-0.070061 0.18363,-0.1262844 0.0562,-0.082962 0.0582,-0.1004784 0.0582,-0.4922448 0,-0.3263181 8.3e-4,-0.3567376 0.0176,-0.3991401 0.0231,-0.059915 0.0582,-0.1060085 0.095,-0.1253671 0.0664,-0.034105 0.33682,-0.055308 0.40142,-0.030426 0.0139,0.00548 0.13842,0.1207578 0.27499,0.2562616 0.28607,0.2839156 0.28423,0.2820717 0.42449,0.2820717 0.12643,0 0.1292,-0.00274 0.46232,-0.338303 0.3073,-0.3088042 0.30269,-0.3032742 0.32206,-0.4148102 0.007,-0.042407 -0.0166,-0.1474878 -0.0434,-0.1908109 -0.0111,-0.018447 -0.13472,-0.1493359 -0.27499,-0.2912937 -0.27684,-0.2802271 -0.28607,-0.2922077 -0.28607,-0.3917655 0,-0.06268 0.0664,-0.1668465 0.17718,-0.2783857 0.0849,-0.085726 0.06,-0.081118 0.43648,-0.081118 0.37559,0 0.40788,-0.00366 0.49278,-0.06268 0.0591,-0.040564 0.10612,-0.1050886 0.1255,-0.1714557 0.0407,-0.1447232 0.0434,-0.642498 0.003,-0.8213284 -0.0203,-0.090336 -0.0932,-0.1788304 -0.18179,-0.2193891 -0.0416,-0.019361 -0.0581,-0.020274 -0.42634,-0.024881 -0.36451,-0.00464 -0.38481,-0.00547 -0.42541,-0.02396 -0.0637,-0.029514 -0.10705,-0.071904 -0.12274,-0.1216785 -0.0305,-0.09679 -0.0443,-0.292211 -0.024,-0.3613469 0.007,-0.023046 0.072,-0.094946 0.25285,-0.2756178 0.14303,-0.1447257 0.251,-0.2608742 0.26208,-0.2829982 0.0462,-0.090333 0.0443,-0.2000296 -0.005,-0.2903647 -0.0147,-0.027654 -0.12272,-0.1428802 -0.30545,-0.3235552 -0.3202,-0.3180195 -0.31744,-0.3161781 -0.44939,-0.3161781 -0.12735,0 -0.14303,0.011067 -0.43833,0.3032734 -0.16703,0.1659249 -0.26762,0.2599486 -0.29531,0.2737772 -0.0286,0.013822 -0.0591,0.020274 -0.0969,0.021203 -0.0479,9.166e-4 -0.0627,-0.00366 -0.10888,-0.03134 -0.0757,-0.045171 -0.19748,-0.1530202 -0.2344,-0.2064844 l -0.0305,-0.044252 V 3.3800867 c 0,-0.3143334 -8.3e-4,-0.3438322 -0.0184,-0.399141 -0.0139,-0.045171 -0.0305,-0.073747 -0.0637,-0.1096929 -0.0858,-0.093103 -0.13934,-0.1106177 -0.40234,-0.127211 -0.16241,-0.010137 -0.18456,-0.010137 -0.35989,9.167e-4 z m 0.36174,2.1892798 c 0.42357,0.062688 0.77884,0.3687215 0.90988,0.7835375 0.0323,0.1032381 0.0462,0.2027958 0.0462,0.3355317 -8.4e-4,0.3991428 -0.20764,0.7558837 -0.5583,0.9651302 -0.083,0.048857 -0.22886,0.1069291 -0.32113,0.1272085 -0.10612,0.023047 -0.31745,0.027654 -0.42819,0.010153 -0.40788,-0.067288 -0.74101,-0.3493597 -0.88127,-0.7466616 -0.0416,-0.1161452 -0.0572,-0.2203098 -0.0572,-0.3650331 0,-0.2461215 0.0553,-0.4258734 0.19286,-0.632357 0.10336,-0.1539426 0.24732,-0.2793064 0.41895,-0.3668777 0.21501,-0.1106178 0.43833,-0.1465671 0.67826,-0.1106178 z"
           id="path39512"
           style="opacity:0.2;fill:#000000;stroke:none;stroke-width:0.000922301;filter:url(#filter26547)" />
      </g>
      <path
         d="m 162.61243,2.4803902 c -0.22516,0.01382 -0.28884,0.03503 -0.36727,0.117989 -0.0867,0.09218 -0.084,0.0802 -0.0895,0.521742 -0.005,0.384392 -0.005,0.387156 -0.0267,0.428639 -0.0544,0.104164 -0.11813,0.130894 -0.33498,0.143802 -0.14949,0.0083 -0.1375,0.01659 -0.42357,-0.263638 -0.28975,-0.282994 -0.29991,-0.290368 -0.42356,-0.290368 -0.1292,0 -0.13381,0.0037 -0.46694,0.338302 -0.30638,0.307882 -0.30269,0.303273 -0.32207,0.413889 -0.007,0.04148 0.009,0.129053 0.0342,0.178832 0.0111,0.02122 0.12366,0.141957 0.2713,0.290369 0.27593,0.277462 0.29899,0.308801 0.29899,0.401905 0,0.03687 -0.007,0.05715 -0.0323,0.09955 -0.0425,0.07098 -0.11721,0.163161 -0.16703,0.207408 -0.0766,0.06729 -0.0637,0.06545 -0.44572,0.06545 -0.39588,0 -0.40326,9.17e-4 -0.49463,0.08389 -0.096,0.08849 -0.1135,0.154863 -0.1218,0.474727 -0.006,0.217548 0.007,0.431403 0.0295,0.508838 0.0314,0.103241 0.11629,0.185282 0.22424,0.2157 0.0544,0.01475 0.1006,0.01659 0.41249,0.01659 0.32853,0 0.35344,0.0018 0.39036,0.01845 0.0618,0.02765 0.0932,0.05347 0.11258,0.0931 0.036,0.06913 0.0591,0.309725 0.0369,0.385315 -0.007,0.02396 -0.0738,0.09679 -0.25654,0.281148 -0.22701,0.228605 -0.25008,0.25442 -0.26946,0.305118 -0.0267,0.07005 -0.0286,0.156707 -0.006,0.225841 0.0157,0.04701 0.0397,0.07282 0.30821,0.342911 0.20394,0.205561 0.30453,0.298665 0.33314,0.313414 0.0342,0.01659 0.0582,0.02027 0.12549,0.02122 0.1412,0 0.13658,0.0027 0.43834,-0.295899 0.28884,-0.285757 0.30545,-0.297742 0.40234,-0.298662 0.047,0 0.0637,0.0046 0.10981,0.03318 0.0674,0.03963 0.1209,0.08296 0.18549,0.149333 0.0803,0.08296 0.0776,0.06452 0.0776,0.446153 0,0.370562 0.002,0.389921 0.0563,0.471965 0.0351,0.05254 0.0978,0.101396 0.15595,0.119831 0.14581,0.04886 0.6718,0.05439 0.84714,0.0092 0.0683,-0.0175 0.14488,-0.07006 0.18363,-0.126284 0.0562,-0.08296 0.0582,-0.100478 0.0582,-0.492245 0,-0.326318 8.3e-4,-0.356737 0.0176,-0.39914 0.0231,-0.05992 0.0582,-0.106008 0.095,-0.125367 0.0664,-0.03411 0.33682,-0.05531 0.40142,-0.03043 0.0139,0.0055 0.13842,0.120758 0.27499,0.256262 0.28607,0.283915 0.28423,0.282071 0.42449,0.282071 0.12643,0 0.1292,-0.0027 0.46232,-0.338303 0.3073,-0.308804 0.30269,-0.303274 0.32206,-0.41481 0.007,-0.04241 -0.0166,-0.147488 -0.0434,-0.190811 -0.0111,-0.01845 -0.13472,-0.149336 -0.27499,-0.291294 -0.27684,-0.280227 -0.28607,-0.292207 -0.28607,-0.391765 0,-0.06268 0.0664,-0.166847 0.17718,-0.278386 0.0849,-0.08573 0.06,-0.08112 0.43648,-0.08112 0.37559,0 0.40788,-0.0037 0.49278,-0.06268 0.0591,-0.04056 0.10612,-0.105088 0.1255,-0.171455 0.0407,-0.144724 0.0434,-0.642498 0.003,-0.821329 -0.0203,-0.09034 -0.0932,-0.17883 -0.18179,-0.219389 -0.0416,-0.01936 -0.0581,-0.02027 -0.42634,-0.02488 -0.36451,-0.0046 -0.38481,-0.0055 -0.42541,-0.02396 -0.0637,-0.02951 -0.10705,-0.0719 -0.12274,-0.121678 -0.0305,-0.09679 -0.0443,-0.292211 -0.024,-0.361347 0.007,-0.02305 0.072,-0.09495 0.25285,-0.275618 0.14303,-0.144726 0.251,-0.260874 0.26208,-0.282998 0.0462,-0.09033 0.0443,-0.20003 -0.005,-0.290365 -0.0147,-0.02765 -0.12272,-0.14288 -0.30545,-0.323555 -0.3202,-0.31802 -0.31744,-0.316178 -0.44939,-0.316178 -0.12735,0 -0.14303,0.01107 -0.43833,0.303273 -0.16703,0.165925 -0.26762,0.259949 -0.29531,0.273777 -0.0286,0.01382 -0.0591,0.02027 -0.0969,0.0212 -0.0479,9.17e-4 -0.0627,-0.0037 -0.10888,-0.03134 -0.0757,-0.04517 -0.19748,-0.15302 -0.2344,-0.206484 l -0.0305,-0.04425 v -0.33925 c 0,-0.314333 -8.3e-4,-0.343832 -0.0184,-0.399141 -0.0139,-0.04517 -0.0305,-0.07375 -0.0637,-0.109693 -0.0858,-0.0931 -0.13934,-0.110618 -0.40234,-0.127211 -0.16241,-0.01014 -0.18456,-0.01014 -0.35989,9.17e-4 z m 0.36174,2.18928 c 0.42357,0.06269 0.77884,0.368721 0.90988,0.783537 0.0323,0.103238 0.0462,0.202796 0.0462,0.335532 -8.4e-4,0.399143 -0.20764,0.755884 -0.5583,0.96513 -0.083,0.04886 -0.22886,0.106929 -0.32113,0.127209 -0.10612,0.02305 -0.31745,0.02765 -0.42819,0.01015 -0.40788,-0.06729 -0.74101,-0.34936 -0.88127,-0.746662 -0.0416,-0.116145 -0.0572,-0.22031 -0.0572,-0.365033 0,-0.246121 0.0553,-0.425873 0.19286,-0.632357 0.10336,-0.153943 0.24732,-0.279306 0.41895,-0.366878 0.21501,-0.110617 0.43833,-0.146567 0.67826,-0.110617 z"
         id="path26646"
         style="fill:#636e72;fill-opacity:1;stroke:none;stroke-width:0.000922301;stroke-opacity:1" />
    </g>
  </g>
</svg>
