<?xml version="1.0" encoding="UTF-8" standalone="no"?>
<!-- Created with Inkscape (http://www.inkscape.org/) -->

<svg
   width="48"
   height="48"
   viewBox="0 0 12.7 12.7"
   version="1.1"
   id="svg39233"
   sodipodi:docname="org.gnome.Cheese.svg"
   inkscape:export-filename="/home/bokehlicia/.local/share/icons/Testeo/48x48/apps/google-chrome.png"
   inkscape:export-xdpi="96"
   inkscape:export-ydpi="96"
   inkscape:version="1.1 (c68e22c387, 2021-05-23)"
   xmlns:inkscape="http://www.inkscape.org/namespaces/inkscape"
   xmlns:sodipodi="http://sodipodi.sourceforge.net/DTD/sodipodi-0.dtd"
   xmlns:xlink="http://www.w3.org/1999/xlink"
   xmlns="http://www.w3.org/2000/svg"
   xmlns:svg="http://www.w3.org/2000/svg">
  <sodipodi:namedview
     id="namedview39235"
     pagecolor="#505050"
     bordercolor="#eeeeee"
     borderopacity="1"
     inkscape:pageshadow="0"
     inkscape:pageopacity="0"
     inkscape:pagecheckerboard="0"
     inkscape:document-units="mm"
     showgrid="false"
     units="px"
     inkscape:zoom="5.3664983"
     inkscape:cx="-17.422907"
     inkscape:cy="47.423848"
     inkscape:window-width="1920"
     inkscape:window-height="1048"
     inkscape:window-x="0"
     inkscape:window-y="32"
     inkscape:window-maximized="1"
     inkscape:current-layer="layer1" />
  <defs
     id="defs39230">
    <filter
       style="color-interpolation-filters:sRGB"
       inkscape:label="Blur"
       id="filter33679-367"
       x="-0.0022677166"
       y="-0.070299215"
       width="1.0045354"
       height="1.1405984">
      <feGaussianBlur
         stdDeviation="0.01 0.31"
         result="blur"
         id="feGaussianBlur33677-53" />
    </filter>
    <linearGradient
       inkscape:collect="always"
       xlink:href="#linearGradient2864"
       id="linearGradient47813"
       gradientUnits="userSpaceOnUse"
       gradientTransform="translate(-44.523868,-56.508865)"
       x1="6.4202108"
       y1="0.96924353"
       x2="6.4202108"
       y2="11.540484" />
    <linearGradient
       inkscape:collect="always"
       id="linearGradient2864">
      <stop
         style="stop-color:#000000;stop-opacity:1"
         offset="0"
         id="stop2860" />
      <stop
         style="stop-color:#fefefe;stop-opacity:0"
         offset="1"
         id="stop2862" />
    </linearGradient>
    <linearGradient
       inkscape:collect="always"
       xlink:href="#linearGradient2084"
       id="linearGradient47811"
       gradientUnits="userSpaceOnUse"
       gradientTransform="translate(31.823868,43.808865)"
       x1="6.4202108"
       y1="0.96924353"
       x2="6.4202108"
       y2="11.540484" />
    <linearGradient
       inkscape:collect="always"
       id="linearGradient2084">
      <stop
         style="stop-color:#ffffff;stop-opacity:1"
         offset="0"
         id="stop2080" />
      <stop
         style="stop-color:#000000;stop-opacity:0"
         offset="1"
         id="stop2082" />
    </linearGradient>
    <filter
       style="color-interpolation-filters:sRGB"
       inkscape:label="Blur"
       id="filter49670"
       x="-0.00118222"
       y="-0.20175252"
       width="1.0023644"
       height="1.403505">
      <feGaussianBlur
         stdDeviation="0.01 0.21"
         result="blur"
         id="feGaussianBlur49668" />
    </filter>
    <filter
       style="color-interpolation-filters:sRGB"
       inkscape:label="Blur"
       id="filter49666"
       x="-0.003086528"
       y="-0.12848953"
       width="1.0061731"
       height="1.2569791">
      <feGaussianBlur
         stdDeviation="0.01 0.21"
         result="blur"
         id="feGaussianBlur49664" />
    </filter>
  </defs>
  <g
     inkscape:label="Calque 1"
     inkscape:groupmode="layer"
     id="layer1">
    <g
       id="path1657" />
    <g
       id="path1659" />
    <g
       id="g50186"
       transform="translate(-31.823869,-44.652367)">
      <rect
         style="opacity:0.2;mix-blend-mode:overlay;fill:#000000;fill-opacity:1;stroke:none;stroke-width:0.55007;stroke-linecap:square;filter:url(#filter33679-367)"
         id="rect47801"
         width="10.583333"
         height="10.583333"
         x="-31.628342"
         y="-3.2242157"
         ry="2.2002783"
         rx="2.2002783"
         transform="rotate(180,5.918597,26.377742)" />
      <rect
         style="fill:#6c5ce7;fill-opacity:1;stroke:none;stroke-width:0.55007;stroke-linecap:square"
         id="rect47803"
         width="10.583333"
         height="10.583333"
         x="32.882202"
         y="44.867199"
         ry="2.2002783"
         rx="2.2002783" />
      <rect
         style="opacity:0.2;mix-blend-mode:overlay;fill:url(#linearGradient47813);fill-opacity:1;stroke:none;stroke-width:0.55007;stroke-linecap:square"
         id="rect47805"
         width="10.583333"
         height="10.583333"
         x="-43.465538"
         y="-55.450531"
         ry="2.2002783"
         rx="2.2002783"
         transform="scale(-1)" />
      <rect
         style="opacity:0.2;mix-blend-mode:overlay;fill:url(#linearGradient47811);fill-opacity:1;stroke:none;stroke-width:0.55007;stroke-linecap:square"
         id="rect47807"
         width="10.583333"
         height="10.583333"
         x="32.882202"
         y="44.867199"
         ry="2.2002783"
         rx="2.2002783" />
      <path
         id="path47809"
         style="color:#000000;opacity:0.2;mix-blend-mode:soft-light;fill:#ffffff;stroke-width:1;stroke-linecap:square;-inkscape-stroke:none"
         d="m 35.08208,44.867183 c -0.0381,0 -0.0761,0.0012 -0.11369,0.0031 -0.0376,0.0019 -0.0751,0.0045 -0.11213,0.0083 -0.0371,0.0037 -0.0736,0.0084 -0.11007,0.01395 -0.0365,0.0056 -0.0726,0.01182 -0.10852,0.01912 -0.0359,0.0073 -0.0718,0.01579 -0.10697,0.02481 -0.0352,0.009 -0.0699,0.01877 -0.10439,0.02946 -0.0345,0.01068 -0.0686,0.02232 -0.10232,0.03462 -0.0337,0.0123 -0.0673,0.02539 -0.10025,0.03927 -0.0329,0.01388 -0.0651,0.02851 -0.0971,0.04393 -0.0321,0.01541 -0.0639,0.03116 -0.0951,0.04806 -0.0312,0.0169 -0.0617,0.03489 -0.092,0.05323 -0.0302,0.01834 -0.0602,0.03711 -0.0894,0.05684 -0.0293,0.01973 -0.0581,0.04041 -0.0863,0.06149 -0.0282,0.02108 -0.0555,0.04273 -0.0827,0.06511 -0.0272,0.02238 -0.0541,0.0456 -0.0801,0.06925 -0.026,0.02364 -0.0516,0.04749 -0.0765,0.07235 -0.0248,0.02486 -0.0487,0.05046 -0.0724,0.07648 -0.0237,0.02602 -0.0469,0.05243 -0.0692,0.07958 -0.0224,0.02715 -0.044,0.05498 -0.0651,0.0832 -0.0211,0.02822 -0.0418,0.05705 -0.0615,0.0863 -0.0197,0.02925 -0.0385,0.05916 -0.0568,0.0894 -0.0183,0.03024 -0.0358,0.0608 -0.0527,0.09198 -0.0169,0.03118 -0.0332,0.06301 -0.0486,0.09508 -0.0154,0.03208 -0.03,0.06423 -0.0439,0.09715 -0.0139,0.03293 -0.027,0.06652 -0.0393,0.100252 -0.0123,0.03373 -0.0239,0.06783 -0.0346,0.10232 -0.0107,0.03449 -0.0204,0.06918 -0.0295,0.104386 -0.009,0.0352 -0.0175,0.0711 -0.0248,0.10697 -0.007,0.03587 -0.0136,0.07203 -0.0191,0.108521 -0.006,0.0365 -0.0102,0.073 -0.0139,0.110071 -0.004,0.03707 -0.006,0.07453 -0.008,0.112138 -0.002,0.03761 -0.003,0.0756 -0.003,0.113688 v 6.182567 c 0,0.03809 10e-4,0.07608 0.003,0.113688 0.002,0.03761 0.004,0.07507 0.008,0.112137 0.004,0.03707 0.008,0.07357 0.0139,0.110071 0.006,0.0365 0.0118,0.07265 0.0191,0.108521 0.007,0.03587 0.0158,0.07177 0.0248,0.10697 0.009,0.0352 0.0188,0.0699 0.0295,0.104386 0.0107,0.03449 0.0223,0.06859 0.0346,0.10232 0.0123,0.03373 0.0254,0.06733 0.0393,0.100252 0.0139,0.03293 0.0285,0.06508 0.0439,0.09715 0.0154,0.03208 0.0317,0.0639 0.0486,0.09509 0.0169,0.03118 0.0344,0.06174 0.0527,0.09198 0.0183,0.03024 0.0371,0.06015 0.0568,0.0894 0.0197,0.02925 0.0404,0.05808 0.0615,0.0863 0.0211,0.02822 0.0427,0.05605 0.0651,0.0832 0.0224,0.02715 0.0456,0.05356 0.0692,0.07958 0.0237,0.02602 0.0475,0.05162 0.0724,0.07648 0.0249,0.02485 0.0505,0.0487 0.0765,0.07235 0.026,0.02364 0.0529,0.04686 0.0801,0.06925 0.0271,0.02238 0.0545,0.04403 0.0827,0.06511 0.0282,0.02108 0.0571,0.04176 0.0863,0.06149 0.0293,0.01973 0.0592,0.03851 0.0894,0.05684 0.0302,0.01834 0.0608,0.03633 0.092,0.05323 0.0312,0.0169 0.063,0.03265 0.0951,0.04806 0.0321,0.01541 0.0642,0.03004 0.0971,0.04392 0.0329,0.01388 0.0665,0.02697 0.10025,0.03927 0.0337,0.01231 0.0678,0.02394 0.10232,0.03462 0.0345,0.01068 0.0692,0.02044 0.10439,0.02946 0.0352,0.009 0.0711,0.0175 0.10697,0.0248 0.0359,0.0073 0.072,0.01358 0.10852,0.01912 0.0365,0.0055 0.073,0.01021 0.11007,0.01395 0.0371,0.0037 0.0745,0.0064 0.11213,0.0083 0.0376,0.0019 0.0756,0.0031 0.11369,0.0031 h 6.18257 c 0.0381,0 0.0761,-0.0012 0.11369,-0.0031 0.0376,-0.0019 0.0751,-0.0045 0.11214,-0.0083 0.0371,-0.0037 0.0736,-0.0084 0.11007,-0.01395 0.0365,-0.0055 0.0727,-0.01182 0.10852,-0.01912 0.0359,-0.0073 0.0718,-0.01579 0.10697,-0.0248 0.0352,-0.009 0.0699,-0.01877 0.10439,-0.02946 0.0345,-0.01068 0.0686,-0.02232 0.10232,-0.03462 0.0337,-0.01231 0.0673,-0.02539 0.10025,-0.03927 0.0329,-0.01388 0.0651,-0.02851 0.0971,-0.04392 0.0321,-0.01541 0.0639,-0.03116 0.0951,-0.04806 0.0312,-0.0169 0.0617,-0.03489 0.092,-0.05323 0.0302,-0.01834 0.0601,-0.03711 0.0894,-0.05684 0.0293,-0.01973 0.0581,-0.04041 0.0863,-0.06149 0.0282,-0.02108 0.056,-0.04273 0.0832,-0.06511 0.0272,-0.02238 0.0536,-0.0456 0.0796,-0.06925 0.026,-0.02364 0.0516,-0.04749 0.0765,-0.07235 0.0248,-0.02486 0.0492,-0.05046 0.0729,-0.07648 0.0237,-0.02602 0.0464,-0.05243 0.0687,-0.07958 0.0224,-0.02715 0.044,-0.05498 0.0651,-0.0832 0.0211,-0.02822 0.0418,-0.05705 0.0615,-0.0863 0.0197,-0.02926 0.0385,-0.05916 0.0568,-0.0894 0.0183,-0.03024 0.0363,-0.0608 0.0532,-0.09198 0.0169,-0.03118 0.0327,-0.06301 0.0481,-0.09509 0.0154,-0.03208 0.0306,-0.06423 0.0444,-0.09715 0.0139,-0.03293 0.027,-0.06652 0.0393,-0.100252 0.0123,-0.03373 0.0234,-0.06783 0.0341,-0.10232 0.0107,-0.03449 0.021,-0.06918 0.03,-0.104386 0.009,-0.0352 0.017,-0.0711 0.0243,-0.10697 0.007,-0.03587 0.0136,-0.07203 0.0191,-0.108521 0.006,-0.0365 0.0102,-0.073 0.0139,-0.110071 0.004,-0.03707 0.007,-0.07453 0.009,-0.112137 0.002,-0.03761 0.003,-0.0756 0.003,-0.113688 v -6.182569 c 0,-0.03809 -7.9e-4,-0.07608 -0.003,-0.113688 -0.002,-0.03761 -0.005,-0.07507 -0.009,-0.112138 -0.004,-0.03707 -0.008,-0.07357 -0.0139,-0.110071 -0.006,-0.0365 -0.0118,-0.07265 -0.0191,-0.108521 -0.007,-0.03587 -0.0153,-0.07177 -0.0243,-0.10697 -0.009,-0.0352 -0.0193,-0.0699 -0.03,-0.104386 -0.0107,-0.03449 -0.0218,-0.06859 -0.0341,-0.10232 -0.0123,-0.03373 -0.0254,-0.06733 -0.0393,-0.100252 -0.0139,-0.03293 -0.029,-0.06508 -0.0444,-0.09715 -0.0154,-0.03208 -0.0312,-0.0639 -0.0481,-0.09509 -0.0169,-0.03118 -0.0349,-0.06174 -0.0532,-0.09198 -0.0183,-0.03024 -0.0371,-0.06015 -0.0568,-0.0894 -0.0197,-0.02926 -0.0404,-0.05808 -0.0615,-0.0863 -0.0211,-0.02822 -0.0427,-0.05605 -0.0651,-0.0832 -0.0224,-0.02715 -0.0451,-0.05356 -0.0687,-0.07958 -0.0237,-0.02602 -0.048,-0.05162 -0.0729,-0.07648 -0.0249,-0.02486 -0.0505,-0.0487 -0.0765,-0.07235 -0.026,-0.02364 -0.0524,-0.04686 -0.0796,-0.06925 -0.0272,-0.02238 -0.055,-0.04403 -0.0832,-0.06511 -0.0282,-0.02108 -0.057,-0.04176 -0.0863,-0.06149 -0.0293,-0.01973 -0.0592,-0.03851 -0.0894,-0.05684 -0.0302,-0.01834 -0.0608,-0.03633 -0.092,-0.05323 -0.0312,-0.0169 -0.063,-0.03265 -0.0951,-0.04806 -0.0321,-0.01541 -0.0642,-0.03004 -0.0971,-0.04392 -0.0329,-0.01388 -0.0665,-0.02697 -0.10025,-0.03927 -0.0337,-0.0123 -0.0678,-0.02394 -0.10232,-0.03462 -0.0345,-0.01068 -0.0692,-0.02044 -0.10439,-0.02946 -0.0352,-0.009 -0.0711,-0.0175 -0.10697,-0.02481 -0.0359,-0.0073 -0.072,-0.01357 -0.10852,-0.01912 -0.0365,-0.0056 -0.073,-0.01021 -0.11007,-0.01395 -0.0371,-0.0037 -0.0745,-0.0064 -0.11214,-0.0083 -0.0376,-0.0019 -0.0756,-0.0031 -0.11369,-0.0031 z m 5.3e-4,0.264067 h 6.18154 c 1.07695,0 1.9358,0.858848 1.9358,1.935799 v 6.183602 c 0,1.07695 -0.85885,1.935283 -1.9358,1.935283 h -6.18154 c -1.07695,0 -1.93528,-0.858333 -1.93528,-1.935283 v -6.183602 c 0,-1.076951 0.85833,-1.935799 1.93528,-1.935799 z" />
      <path
         id="path49624"
         style="color:#000000;opacity:0.2;fill:#000000;stroke-width:3.77953;stroke-linecap:round;stroke-linejoin:round;-inkscape-stroke:none;filter:url(#filter49670)"
         d="m 150.54102,195.25 c -1.2e-4,0.10377 -0.0111,0.20494 -0.0312,0.30273 -0.0202,0.0978 -0.0497,0.19145 -0.0879,0.28125 -0.0382,0.0898 -0.0845,0.17606 -0.13868,0.25586 -0.0542,0.0798 -0.11544,0.15292 -0.18359,0.22071 -0.0682,0.0678 -0.14257,0.12983 -0.22266,0.18359 -0.0801,0.0538 -0.16585,0.10095 -0.25586,0.13867 -0.09,0.0377 -0.1853,0.0663 -0.2832,0.0859 -0.0979,0.0197 -0.19897,0.0297 -0.30273,0.0293 h -17.29493 c -0.1034,-1.2e-4 -0.20519,-0.0112 -0.30273,-0.0312 -0.0975,-0.02 -0.19158,-0.048 -0.28125,-0.0859 -0.0897,-0.0379 -0.17413,-0.0848 -0.25391,-0.13867 -0.0798,-0.0538 -0.15478,-0.11585 -0.22265,-0.1836 -0.0679,-0.0677 -0.12769,-0.14104 -0.18164,-0.2207 -0.054,-0.0797 -0.10066,-0.16628 -0.13867,-0.25586 -0.038,-0.0896 -0.0678,-0.18181 -0.0879,-0.2793 -0.0201,-0.0975 -0.0311,-0.19933 -0.0312,-0.30273 v 1 c 9e-4,0.82724 0.67276,1.49715 1.5,1.49805 h 17.29493 c 0.83012,0.003 1.50496,-0.66792 1.50586,-1.49805 z"
         transform="scale(0.26458333)" />
      <path
         id="path50095"
         style="color:#000000;opacity:0.2;fill:#000000;stroke-width:3.77953;stroke-linecap:round;stroke-linejoin:round;-inkscape-stroke:none;filter:url(#filter49666)"
         d="m 150.54102,192.75977 6.04101,2.80859 c 0.8119,0.37485 1.73795,-0.22099 1.73438,-1.11524 v -1 c 1.1e-4,0.0279 -2.8e-4,0.0547 -0.002,0.082 -0.002,0.0273 -0.004,0.0553 -0.008,0.082 -0.003,0.0267 -0.009,0.0521 -0.0137,0.0781 -0.005,0.026 -0.0109,0.0528 -0.0176,0.0781 -0.007,0.0253 -0.0133,0.0497 -0.0215,0.0742 -0.008,0.0245 -0.0177,0.0486 -0.0273,0.0723 -0.01,0.0237 -0.0202,0.0474 -0.0312,0.0703 -0.011,0.0229 -0.0228,0.0444 -0.0352,0.0664 -0.0124,0.022 -0.0254,0.0434 -0.0391,0.0645 -0.0137,0.021 -0.0262,0.0424 -0.041,0.0625 -0.0149,0.0201 -0.0309,0.0395 -0.0469,0.0586 -0.016,0.019 -0.0337,0.0367 -0.0508,0.0547 -0.0171,0.018 -0.0346,0.0358 -0.0527,0.0527 -0.0181,0.0169 -0.0356,0.0331 -0.0547,0.0488 -0.0191,0.0158 -0.0386,0.0323 -0.0586,0.0469 -0.02,0.0146 -0.0398,0.0276 -0.0605,0.041 -0.0208,0.0134 -0.0429,0.0269 -0.0645,0.0391 -0.0215,0.0121 -0.0442,0.0224 -0.0664,0.0332 -0.0223,0.0108 -0.0435,0.0218 -0.0664,0.0312 -0.0229,0.009 -0.0469,0.0173 -0.0703,0.0254 -0.0235,0.008 -0.0463,0.0168 -0.0703,0.0234 -0.024,0.007 -0.0479,0.0124 -0.0723,0.0176 -0.0244,0.005 -0.0494,0.01 -0.0742,0.0137 -0.0248,0.004 -0.0511,0.006 -0.0762,0.008 -0.0251,0.002 -0.0488,0.003 -0.0742,0.004 -0.0254,5.5e-4 -0.0526,0.001 -0.0781,0 -0.0256,-10e-4 -0.0505,-0.003 -0.0762,-0.006 -0.0257,-0.003 -0.0504,-0.007 -0.0762,-0.0117 -0.0258,-0.004 -0.0524,-0.009 -0.0781,-0.0156 -0.0257,-0.006 -0.0524,-0.0135 -0.0781,-0.0215 -0.0257,-0.008 -0.0506,-0.0155 -0.0762,-0.0254 -0.0256,-0.01 -0.0508,-0.0215 -0.0762,-0.0332 l -6.04101,-2.80859 z"
         transform="scale(0.26458333)" />
      <path
         id="rect47849"
         style="color:#000000;opacity:0.9;fill:#ffffff;stroke-width:3.77953;stroke-linecap:round;stroke-linejoin:round;-inkscape-stroke:none"
         d="m 131.74023,182.40625 c -0.83012,9e-4 -1.50318,0.67574 -1.5,1.50586 V 195.25 c 9e-4,0.82724 0.67276,1.49715 1.5,1.49805 h 17.29493 c 0.83012,0.003 1.50496,-0.66792 1.50586,-1.49805 v -3.49023 l 6.04101,2.80859 c 0.8119,0.37485 1.73795,-0.22099 1.73438,-1.11524 v -7.51562 c -0.002,-0.89105 -0.92539,-1.48092 -1.73438,-1.10742 l -6.04101,2.80273 v -3.7207 c 0.003,-0.83301 -0.67285,-1.50907 -1.50586,-1.50586 z"
         transform="scale(0.26458333)" />
    </g>
  </g>
</svg>
