<?xml version="1.0" encoding="UTF-8" standalone="no"?>
<!-- Created with Inkscape (http://www.inkscape.org/) -->

<svg
   width="48"
   height="48"
   viewBox="0 0 12.7 12.7"
   version="1.1"
   id="svg39233"
   sodipodi:docname="org.gnome.Software.svg"
   inkscape:export-filename="/home/bokehlicia/.local/share/icons/Testeo/48x48/apps/google-chrome.png"
   inkscape:export-xdpi="96"
   inkscape:export-ydpi="96"
   inkscape:version="1.1 (c68e22c387, 2021-05-23)"
   xmlns:inkscape="http://www.inkscape.org/namespaces/inkscape"
   xmlns:sodipodi="http://sodipodi.sourceforge.net/DTD/sodipodi-0.dtd"
   xmlns:xlink="http://www.w3.org/1999/xlink"
   xmlns="http://www.w3.org/2000/svg"
   xmlns:svg="http://www.w3.org/2000/svg">
  <sodipodi:namedview
     id="namedview39235"
     pagecolor="#505050"
     bordercolor="#eeeeee"
     borderopacity="1"
     inkscape:pageshadow="0"
     inkscape:pageopacity="0"
     inkscape:pagecheckerboard="0"
     inkscape:document-units="mm"
     showgrid="false"
     units="px"
     inkscape:zoom="5.3664983"
     inkscape:cx="30.280453"
     inkscape:cy="9.7829156"
     inkscape:window-width="1920"
     inkscape:window-height="1048"
     inkscape:window-x="0"
     inkscape:window-y="32"
     inkscape:window-maximized="1"
     inkscape:current-layer="layer1" />
  <defs
     id="defs39230">
    <filter
       style="color-interpolation-filters:sRGB"
       inkscape:label="Blur"
       id="filter33679-36"
       x="-0.0022677166"
       y="-0.070299215"
       width="1.0045354"
       height="1.1405984">
      <feGaussianBlur
         stdDeviation="0.01 0.31"
         result="blur"
         id="feGaussianBlur33677-7" />
    </filter>
    <filter
       style="color-interpolation-filters:sRGB"
       inkscape:label="Blur"
       id="filter34883-5"
       x="-0.0015609536"
       y="-0.031535891"
       width="1.0031219"
       height="1.0630718">
      <feGaussianBlur
         stdDeviation="5.953488e-05"
         result="fbSourceGraphic"
         id="feGaussianBlur34881-3" />
      <feColorMatrix
         result="fbSourceGraphicAlpha"
         in="fbSourceGraphic"
         values="0 0 0 -1 0 0 0 0 -1 0 0 0 0 -1 0 0 0 0 1 0"
         id="feColorMatrix16700" />
      <feGaussianBlur
         id="feGaussianBlur16702"
         stdDeviation="0.01 0.31"
         result="blur"
         in="fbSourceGraphic" />
    </filter>
    <filter
       style="color-interpolation-filters:sRGB"
       inkscape:label="Blur"
       id="filter34923-5"
       x="-0.00086405346"
       y="-0.37170847"
       width="1.0017281"
       height="1.7434169">
      <feGaussianBlur
         stdDeviation="5.953488e-05"
         result="fbSourceGraphic"
         id="feGaussianBlur34921-6" />
      <feColorMatrix
         result="fbSourceGraphicAlpha"
         in="fbSourceGraphic"
         values="0 0 0 -1 0 0 0 0 -1 0 0 0 0 -1 0 0 0 0 1 0"
         id="feColorMatrix16696" />
      <feGaussianBlur
         id="feGaussianBlur16698"
         stdDeviation="0.01 0.31"
         result="blur"
         in="fbSourceGraphic" />
    </filter>
    <filter
       style="color-interpolation-filters:sRGB"
       inkscape:label="Blur"
       id="filter34691-2"
       x="-0.0015609655"
       y="-0.031538502"
       width="1.0031219"
       height="1.063077">
      <feGaussianBlur
         stdDeviation="5.953488e-05"
         result="fbSourceGraphic"
         id="feGaussianBlur34689-9" />
      <feColorMatrix
         result="fbSourceGraphicAlpha"
         in="fbSourceGraphic"
         values="0 0 0 -1 0 0 0 0 -1 0 0 0 0 -1 0 0 0 0 1 0"
         id="feColorMatrix16692" />
      <feGaussianBlur
         id="feGaussianBlur16694"
         stdDeviation="0.01 0.31"
         result="blur"
         in="fbSourceGraphic" />
    </filter>
    <linearGradient
       inkscape:collect="always"
       xlink:href="#linearGradient2864"
       id="linearGradient33835"
       gradientUnits="userSpaceOnUse"
       gradientTransform="translate(-103.0814,-11.863887)"
       x1="6.4202108"
       y1="0.96924353"
       x2="6.4202108"
       y2="11.540484" />
    <linearGradient
       inkscape:collect="always"
       id="linearGradient2864">
      <stop
         style="stop-color:#000000;stop-opacity:1"
         offset="0"
         id="stop2860" />
      <stop
         style="stop-color:#fefefe;stop-opacity:0"
         offset="1"
         id="stop2862" />
    </linearGradient>
    <linearGradient
       inkscape:collect="always"
       xlink:href="#linearGradient2084"
       id="linearGradient33833"
       gradientUnits="userSpaceOnUse"
       gradientTransform="translate(90.381411,-0.83611391)"
       x1="6.4202108"
       y1="0.96924353"
       x2="6.4202108"
       y2="11.540484" />
    <linearGradient
       inkscape:collect="always"
       id="linearGradient2084">
      <stop
         style="stop-color:#ffffff;stop-opacity:1"
         offset="0"
         id="stop2080" />
      <stop
         style="stop-color:#000000;stop-opacity:0"
         offset="1"
         id="stop2082" />
    </linearGradient>
  </defs>
  <g
     inkscape:label="Calque 1"
     inkscape:groupmode="layer"
     id="layer1">
    <g
       id="g22208"
       transform="translate(-90.381407,-0.00738588)">
      <rect
         style="opacity:0.2;mix-blend-mode:overlay;fill:#000000;fill-opacity:1;stroke:none;stroke-width:0.55007;stroke-linecap:square;filter:url(#filter33679-36)"
         id="rect33922"
         width="10.583333"
         height="10.583333"
         x="-31.628342"
         y="-3.2242157"
         ry="2.2002783"
         rx="2.2002783"
         transform="rotate(180,35.197366,4.0552515)" />
      <rect
         style="fill:#0984e3;fill-opacity:1;stroke:none;stroke-width:0.55007;stroke-linecap:square"
         id="rect33827"
         width="10.583333"
         height="10.583333"
         x="91.439735"
         y="0.22221929"
         ry="2.2002783"
         rx="2.2002783" />
      <path
         id="path34026"
         style="color:#000000;opacity:0.2;mix-blend-mode:soft-light;fill:#ffffff;stroke-width:1;stroke-linecap:square;-inkscape-stroke:none"
         d="m 93.640113,0.2222032 c -0.03809,0 -0.07608,0.0012 -0.113689,0.0031 -0.0376,0.0019 -0.07506,0.0045 -0.112139,0.0083 -0.03707,0.0037 -0.07358,0.0084 -0.110069,0.01395 -0.0365,0.0056 -0.07265,0.01182 -0.108521,0.01912 -0.03587,0.0073 -0.07177,0.01579 -0.106969,0.02481 -0.03521,0.009 -0.0699,0.01877 -0.104388,0.02946 -0.03449,0.01068 -0.06859,0.02232 -0.10232,0.03462 -0.03373,0.0123 -0.06732,0.02539 -0.100251,0.03927 -0.03293,0.01388 -0.06507,0.02851 -0.09715,0.04393 -0.03208,0.01541 -0.0639,0.03116 -0.09508,0.04806 -0.03118,0.0169 -0.06174,0.03489 -0.09198,0.05323 -0.03024,0.01834 -0.06015,0.03711 -0.0894,0.05684 -0.02926,0.01973 -0.05808,0.04041 -0.0863,0.06149 -0.02822,0.02108 -0.05554,0.04273 -0.08268,0.06511 -0.02715,0.02238 -0.05407,0.0456 -0.0801,0.06925 -0.02604,0.02364 -0.05162,0.04749 -0.07648,0.07235 -0.02484,0.02486 -0.0487,0.05046 -0.07235,0.07648 -0.02365,0.02602 -0.04686,0.05243 -0.06925,0.07958 -0.02238,0.02715 -0.04403,0.05498 -0.06511,0.0832 -0.02109,0.02822 -0.04176,0.05705 -0.0615,0.0863 -0.01974,0.02925 -0.03851,0.05916 -0.05684,0.0894 -0.01834,0.03024 -0.03581,0.0608 -0.05271,0.09198 -0.01691,0.03118 -0.03317,0.06301 -0.04858,0.09508 -0.0154,0.03208 -0.03004,0.06423 -0.04392,0.09715 -0.01389,0.03293 -0.02697,0.06652 -0.03927,0.100252 -0.0123,0.03373 -0.02394,0.06783 -0.03462,0.10232 -0.01069,0.03449 -0.02043,0.06918 -0.02946,0.104386 -0.009,0.0352 -0.01749,0.0711 -0.02479,0.10697 -0.0073,0.03587 -0.01357,0.07203 -0.01913,0.108521 -0.0056,0.0365 -0.01021,0.073 -0.01394,0.110071 -0.0037,0.03707 -0.0064,0.07453 -0.0083,0.112138 -0.0019,0.03761 -0.0031,0.0756 -0.0031,0.113688 v 6.1825662 c 0,0.038092 0.0013,0.076083 0.0031,0.113688 0.0019,0.037606 0.0045,0.075065 0.0083,0.1121378 0.0038,0.037073 0.0084,0.073575 0.01394,0.1100709 0.0056,0.036496 0.01183,0.072648 0.01913,0.1085205 0.0073,0.035873 0.01579,0.071766 0.02479,0.1069702 0.009,0.035204 0.01876,0.069896 0.02946,0.1043863 0.01069,0.034491 0.0223,0.068588 0.03462,0.1023194 0.0123,0.033732 0.0254,0.067325 0.03927,0.1002523 0.01389,0.032927 0.02851,0.065075 0.04392,0.097152 0.0154,0.032077 0.03168,0.063903 0.04858,0.095085 0.01691,0.031181 0.03437,0.061743 0.05271,0.091984 0.01833,0.030241 0.03711,0.060146 0.05684,0.0894 0.01974,0.029254 0.04041,0.058076 0.0615,0.086299 0.02109,0.028223 0.04273,0.056053 0.06511,0.083199 0.02238,0.02715 0.0456,0.05356 0.06925,0.07958 0.02365,0.02602 0.04749,0.05162 0.07235,0.07648 0.02487,0.02485 0.05046,0.0487 0.07648,0.07235 0.02603,0.02364 0.05295,0.04686 0.0801,0.06925 0.02715,0.02238 0.05446,0.04403 0.08268,0.06511 0.02822,0.02108 0.05705,0.04176 0.0863,0.06149 0.02925,0.01973 0.05916,0.03851 0.0894,0.05684 0.03024,0.01834 0.0608,0.03633 0.09198,0.05323 0.03118,0.0169 0.06301,0.03265 0.09508,0.04806 0.03208,0.01541 0.06422,0.03004 0.09715,0.04392 0.03293,0.01388 0.06652,0.02697 0.100251,0.03927 0.03373,0.01231 0.06783,0.02394 0.10232,0.03462 0.03449,0.01068 0.06918,0.02044 0.104388,0.02946 0.0352,0.009 0.0711,0.0175 0.106969,0.0248 0.03587,0.0073 0.07203,0.01358 0.108521,0.01912 0.03649,0.0055 0.073,0.01021 0.110069,0.01395 0.03707,0.0037 0.07453,0.0064 0.112139,0.0083 0.0376,0.0019 0.0756,0.0031 0.113689,0.0031 h 6.182565 c 0.0381,0 0.0761,-0.0012 0.11369,-0.0031 0.0376,-0.0019 0.0751,-0.0045 0.112142,-0.0083 0.0371,-0.0037 0.0736,-0.0084 0.11007,-0.01395 0.0365,-0.0055 0.0727,-0.01182 0.10852,-0.01912 0.0359,-0.0073 0.0718,-0.01579 0.10697,-0.0248 0.0352,-0.009 0.0699,-0.01877 0.10439,-0.02946 0.0345,-0.01068 0.0686,-0.02232 0.10232,-0.03462 0.0337,-0.01231 0.0673,-0.02539 0.10025,-0.03927 0.0329,-0.01388 0.0651,-0.02851 0.0971,-0.04392 0.0321,-0.01541 0.0639,-0.03116 0.0951,-0.04806 0.0312,-0.0169 0.0617,-0.03489 0.092,-0.05323 0.0302,-0.01834 0.0601,-0.03711 0.0894,-0.05684 0.0293,-0.01973 0.0581,-0.04041 0.0863,-0.06149 0.0282,-0.02108 0.056,-0.04273 0.0832,-0.06511 0.0272,-0.02238 0.0536,-0.0456 0.0796,-0.06925 0.026,-0.02364 0.0516,-0.04749 0.0765,-0.07235 0.0248,-0.02486 0.0492,-0.05046 0.0729,-0.07648 0.0237,-0.02602 0.0464,-0.05243 0.0687,-0.07958 0.0224,-0.027146 0.044,-0.054976 0.0651,-0.083199 0.0211,-0.028223 0.0418,-0.057045 0.0615,-0.086299 0.0197,-0.029255 0.0385,-0.059159 0.0568,-0.0894 0.0183,-0.030241 0.0363,-0.060803 0.0532,-0.091984 0.0169,-0.031182 0.0327,-0.063008 0.0481,-0.095085 0.0154,-0.032077 0.0306,-0.064225 0.0444,-0.097152 0.0139,-0.032927 0.027,-0.066521 0.0393,-0.1002523 0.0123,-0.033731 0.0234,-0.067829 0.0341,-0.1023194 0.0107,-0.034491 0.021,-0.069182 0.03,-0.1043863 0.009,-0.035204 0.017,-0.071098 0.0243,-0.1069702 0.007,-0.035873 0.0136,-0.072025 0.0191,-0.1085205 0.006,-0.036496 0.0102,-0.072997 0.0139,-0.1100709 0.004,-0.037073 0.007,-0.074532 0.009,-0.1121378 0.002,-0.037605 0.003,-0.075596 0.003,-0.113688 V 2.4226072 c 0,-0.03809 -7.9e-4,-0.07608 -0.003,-0.113688 -0.002,-0.03761 -0.005,-0.07507 -0.009,-0.112138 -0.004,-0.03707 -0.008,-0.07357 -0.0139,-0.110071 -0.006,-0.0365 -0.0118,-0.07265 -0.0191,-0.108521 -0.007,-0.03587 -0.0153,-0.07177 -0.0243,-0.10697 -0.009,-0.0352 -0.0193,-0.0699 -0.03,-0.104386 -0.0107,-0.03449 -0.0218,-0.06859 -0.0341,-0.10232 -0.0123,-0.03373 -0.0254,-0.06733 -0.0393,-0.100252 -0.0139,-0.03293 -0.029,-0.06508 -0.0444,-0.09715 -0.0154,-0.03208 -0.0312,-0.0639 -0.0481,-0.09509 -0.0169,-0.03118 -0.0349,-0.06174 -0.0532,-0.09198 -0.0183,-0.03024 -0.0371,-0.06015 -0.0568,-0.0894 -0.0197,-0.02926 -0.0404,-0.05808 -0.0615,-0.0863 -0.0211,-0.02822 -0.0427,-0.05605 -0.0651,-0.0832 -0.0224,-0.02715 -0.0451,-0.05356 -0.0687,-0.07958 -0.0237,-0.02602 -0.048,-0.05162 -0.0729,-0.07648 -0.0249,-0.02486 -0.0505,-0.0487 -0.0765,-0.07235 -0.026,-0.02364 -0.0524,-0.04686 -0.0796,-0.06925 -0.0272,-0.02238 -0.055,-0.04403 -0.0832,-0.06511 -0.0282,-0.02108 -0.057,-0.04176 -0.0863,-0.06149 -0.0293,-0.01973 -0.0592,-0.03851 -0.0894,-0.05684 -0.0302,-0.01834 -0.0608,-0.03633 -0.092,-0.05323 -0.0312,-0.0169 -0.063,-0.03265 -0.0951,-0.04806 -0.0321,-0.01541 -0.0642,-0.03004 -0.0971,-0.04392 -0.0329,-0.01388 -0.0665,-0.02697 -0.10025,-0.03927 -0.0337,-0.0123 -0.0678,-0.02394 -0.10232,-0.03462 -0.0345,-0.01068 -0.0692,-0.02044 -0.10439,-0.02946 -0.0352,-0.009 -0.0711,-0.0175 -0.10697,-0.02481 -0.0359,-0.0073 -0.072,-0.01357 -0.10852,-0.01912 -0.0365,-0.0056 -0.073,-0.01021 -0.11007,-0.01395 -0.0371,-0.0037 -0.0745,-0.0064 -0.112142,-0.0083 -0.0376,-0.0019 -0.0756,-0.0031 -0.11369,-0.0031 z m 5.29e-4,0.264067 h 6.181536 c 1.076952,0 1.935802,0.858848 1.935802,1.935799 V 8.605671 c 0,1.0769502 -0.85885,1.935282 -1.935802,1.935282 h -6.181536 c -1.07695,0 -1.935282,-0.8583318 -1.935282,-1.935282 V 2.4220692 c 0,-1.076951 0.858332,-1.935799 1.935282,-1.935799 z" />
      <path
         id="path34528"
         style="color:#000000;opacity:0.2;fill:#000000;stroke-width:3.77953;stroke-linecap:round;-inkscape-stroke:none;filter:url(#filter34883-5)"
         d="m 354.50391,32.132812 a 1.5,1.5 0 0 0 0.66211,1.804688 1.5,1.5 0 0 0 2.04492,-0.544922 l 12.47461,-21.607422 a 1.5,1.5 0 0 0 0.11133,-1.24414 1.5,1.5 0 0 1 -0.0254,0.06836 1.5,1.5 0 0 1 -0.041,0.08984 1.5,1.5 0 0 1 -0.0449,0.08594 l -12.47657,21.607422 a 1.5,1.5 0 0 1 -0.16992,0.236328 1.5,1.5 0 0 1 -0.21484,0.201172 1.5,1.5 0 0 1 -0.25,0.154297 1.5,1.5 0 0 1 -0.27344,0.103516 1.5,1.5 0 0 1 -0.29101,0.04687 1.5,1.5 0 0 1 -0.29297,-0.0098 1.5,1.5 0 0 1 -0.28516,-0.06641 1.5,1.5 0 0 1 -0.26758,-0.121094 1.5,1.5 0 0 1 -0.23828,-0.169922 1.5,1.5 0 0 1 -0.20117,-0.214844 1.5,1.5 0 0 1 -0.1543,-0.248046 1.5,1.5 0 0 1 -0.0664,-0.171876 z"
         transform="scale(0.26458333)" />
      <path
         id="path34061"
         style="color:#000000;opacity:0.9;fill:#ffffff;stroke-width:3.77953;stroke-linecap:round;-inkscape-stroke:none"
         d="m 361.08398,25.681641 h -3.46484 l -3.00781,5.210937 a 1.5,1.5 0 0 0 0.55273,2.044922 1.5,1.5 0 0 0 2.04492,-0.544922 z"
         transform="scale(0.26458333)" />
      <path
         id="path10651"
         style="color:#000000;opacity:0.9;fill:#ffffff;stroke-width:3.77953;stroke-linecap:round;-inkscape-stroke:none"
         d="m 363.86719,14.861328 -4.51367,7.816406 h 3.46484 l 2.78125,-4.816406 z"
         transform="scale(0.26458333)" />
      <path
         id="path10477"
         style="color:#000000;opacity:0.9;fill:#ffffff;stroke-width:3.77953;stroke-linecap:round;-inkscape-stroke:none"
         d="m 368.28906,8.5410156 a 1.5,1.5 0 0 0 -1.20312,0.7460938 l -1.48633,2.5761716 1.73242,3 2.35352,-4.078125 a 1.5,1.5 0 0 0 -0.54688,-2.0449216 1.5,1.5 0 0 0 -0.84961,-0.1992188 z"
         transform="scale(0.26458333)" />
      <path
         id="path34532"
         style="color:#000000;opacity:0.2;fill:#000000;stroke-width:3.77953;stroke-linecap:round;-inkscape-stroke:none;filter:url(#filter34923-5)"
         d="m 351.7207,24.679688 a 1.5,1.5 0 0 0 -0.0918,0.496093 1.5,1.5 0 0 0 1.49804,1.50586 h 24.94336 a 1.5,1.5 0 0 0 1.5,-1.50586 1.5,1.5 0 0 0 -0.0898,-0.488281 1.5,1.5 0 0 1 -0.0234,0.06445 1.5,1.5 0 0 1 -0.041,0.08984 1.5,1.5 0 0 1 -0.0449,0.08594 1.5,1.5 0 0 1 -0.0527,0.08398 1.5,1.5 0 0 1 -0.0566,0.08008 1.5,1.5 0 0 1 -0.0625,0.07617 1.5,1.5 0 0 1 -0.0664,0.07227 1.5,1.5 0 0 1 -0.0723,0.06641 1.5,1.5 0 0 1 -0.0762,0.0625 1.5,1.5 0 0 1 -0.0781,0.05859 1.5,1.5 0 0 1 -0.084,0.05078 1.5,1.5 0 0 1 -0.0879,0.04687 1.5,1.5 0 0 1 -0.0879,0.04102 1.5,1.5 0 0 1 -0.0918,0.03516 1.5,1.5 0 0 1 -0.0957,0.0293 1.5,1.5 0 0 1 -0.0957,0.02148 1.5,1.5 0 0 1 -0.0957,0.01563 1.5,1.5 0 0 1 -0.0977,0.0098 1.5,1.5 0 0 1 -0.0996,0.0039 h -24.94336 a 1.5,1.5 0 0 1 -0.29297,-0.0293 1.5,1.5 0 0 1 -0.28125,-0.08594 1.5,1.5 0 0 1 -0.25976,-0.138672 1.5,1.5 0 0 1 -0.22656,-0.1875 1.5,1.5 0 0 1 -0.1875,-0.228515 1.5,1.5 0 0 1 -0.13672,-0.259766 1.5,1.5 0 0 1 -0.0215,-0.07227 z"
         transform="scale(0.26458333)" />
      <path
         id="path34512"
         style="color:#000000;opacity:0.9;fill:#ffffff;stroke-width:3.77953;stroke-linecap:round;-inkscape-stroke:none"
         d="m 373.57812,25.681641 h 4.49219 a 1.5,1.5 0 0 0 1.5,-1.50586 1.5,1.5 0 0 0 -1.5,-1.498047 h -6.22656 z"
         transform="scale(0.26458333)" />
      <path
         id="path10566"
         style="color:#000000;opacity:0.9;fill:#ffffff;stroke-width:3.77953;stroke-linecap:round;-inkscape-stroke:none"
         d="m 368.37891,22.677734 h -15.25196 a 1.5,1.5 0 0 0 -1.49804,1.498047 1.5,1.5 0 0 0 1.49804,1.50586 h 16.98633 z"
         transform="scale(0.26458333)" />
      <path
         id="path34530"
         style="color:#000000;opacity:0.2;fill:#000000;stroke-width:3.77953;stroke-linecap:round;-inkscape-stroke:none;filter:url(#filter34691-2)"
         d="m 361.4043,10.542969 a 1.5,1.5 0 0 0 0.10937,1.242187 l 12.47461,21.607422 a 1.5,1.5 0 0 0 2.04492,0.544922 1.5,1.5 0 0 0 0.66602,-1.798828 1.5,1.5 0 0 1 -0.0293,0.07617 1.5,1.5 0 0 1 -0.041,0.08984 1.5,1.5 0 0 1 -0.0469,0.08594 1.5,1.5 0 0 1 -0.0508,0.08398 1.5,1.5 0 0 1 -0.0586,0.07813 1.5,1.5 0 0 1 -0.0625,0.07617 1.5,1.5 0 0 1 -0.0664,0.07227 1.5,1.5 0 0 1 -0.0723,0.06641 1.5,1.5 0 0 1 -0.0742,0.0625 1.5,1.5 0 0 1 -0.0801,0.05664 1.5,1.5 0 0 1 -0.084,0.05078 1.5,1.5 0 0 1 -0.26758,0.121094 1.5,1.5 0 0 1 -0.28515,0.06641 1.5,1.5 0 0 1 -0.29297,0.0098 1.5,1.5 0 0 1 -0.28906,-0.04687 1.5,1.5 0 0 1 -0.27539,-0.103516 1.5,1.5 0 0 1 -0.24805,-0.154297 1.5,1.5 0 0 1 -0.21484,-0.201172 1.5,1.5 0 0 1 -0.17188,-0.236328 L 361.51367,10.785156 a 1.5,1.5 0 0 1 -0.10937,-0.242187 z"
         transform="scale(0.26458333)" />
      <path
         style="color:#000000;opacity:0.9;fill:#ffffff;stroke-linecap:round;-inkscape-stroke:none"
         d="M 96.097656,2.2734375 A 0.39687499,0.39687499 0 0 0 95.794922,2.3125 0.39687499,0.39687499 0 0 0 95.650391,2.8535156 l 3.300781,5.7167969 a 0.39687499,0.39687499 0 0 0 0.541015,0.1445313 0.39687499,0.39687499 0 0 0 0.146485,-0.5410157 L 96.337891,2.4570313 A 0.39687499,0.39687499 0 0 0 96.097656,2.2734375 Z"
         id="path34430" />
      <rect
         style="opacity:0.2;mix-blend-mode:overlay;fill:url(#linearGradient33835);fill-opacity:1;stroke:none;stroke-width:0.55007;stroke-linecap:square"
         id="rect33829"
         width="10.583333"
         height="10.583333"
         x="-102.02307"
         y="-10.805552"
         ry="2.2002783"
         rx="2.2002783"
         transform="scale(-1)" />
      <rect
         style="opacity:0.2;mix-blend-mode:overlay;fill:url(#linearGradient33833);fill-opacity:1;stroke:none;stroke-width:0.55007;stroke-linecap:square"
         id="rect33831"
         width="10.583333"
         height="10.583333"
         x="91.439735"
         y="0.22221929"
         ry="2.2002783"
         rx="2.2002783" />
    </g>
  </g>
</svg>
