<?xml version="1.0" encoding="UTF-8" standalone="no"?>
<!-- Created with Inkscape (http://www.inkscape.org/) -->

<svg
   width="48"
   height="48"
   viewBox="0 0 12.7 12.7"
   version="1.1"
   id="svg39233"
   sodipodi:docname="org.gnome.clocks.svg"
   inkscape:export-filename="/home/bokehlicia/.local/share/icons/Testeo/48x48/apps/google-chrome.png"
   inkscape:export-xdpi="96"
   inkscape:export-ydpi="96"
   inkscape:version="1.1 (c68e22c387, 2021-05-23)"
   xmlns:inkscape="http://www.inkscape.org/namespaces/inkscape"
   xmlns:sodipodi="http://sodipodi.sourceforge.net/DTD/sodipodi-0.dtd"
   xmlns:xlink="http://www.w3.org/1999/xlink"
   xmlns="http://www.w3.org/2000/svg"
   xmlns:svg="http://www.w3.org/2000/svg">
  <sodipodi:namedview
     id="namedview39235"
     pagecolor="#505050"
     bordercolor="#eeeeee"
     borderopacity="1"
     inkscape:pageshadow="0"
     inkscape:pageopacity="0"
     inkscape:pagecheckerboard="0"
     inkscape:document-units="mm"
     showgrid="false"
     units="px"
     inkscape:zoom="5.3664983"
     inkscape:cx="30.280453"
     inkscape:cy="9.7829156"
     inkscape:window-width="1920"
     inkscape:window-height="1048"
     inkscape:window-x="0"
     inkscape:window-y="32"
     inkscape:window-maximized="1"
     inkscape:current-layer="layer1" />
  <defs
     id="defs39230">
    <filter
       style="color-interpolation-filters:sRGB"
       inkscape:label="Blur"
       id="filter33679"
       x="-0.0022677166"
       y="-0.070299215"
       width="1.0045354"
       height="1.1405984">
      <feGaussianBlur
         stdDeviation="0.01 0.31"
         result="blur"
         id="feGaussianBlur33677" />
    </filter>
    <filter
       style="color-interpolation-filters:sRGB"
       inkscape:label="Blur"
       id="filter65980"
       x="-0.010198114"
       y="-0.12576999"
       width="1.0203962"
       height="1.25154">
      <feGaussianBlur
         stdDeviation="0.01 0.11"
         result="blur"
         id="feGaussianBlur65978" />
    </filter>
    <filter
       style="color-interpolation-filters:sRGB"
       inkscape:label="Blur"
       id="filter65984"
       x="-0.0081395336"
       y="-0.089952017"
       width="1.0162791"
       height="1.179904">
      <feGaussianBlur
         stdDeviation="0.01 0.11"
         result="blur"
         id="feGaussianBlur65982" />
    </filter>
    <filter
       style="color-interpolation-filters:sRGB"
       inkscape:label="Blur"
       id="filter66150"
       x="-0.091021455"
       y="-0.071366375"
       width="1.1820429"
       height="1.1427327">
      <feGaussianBlur
         stdDeviation="0.01 0.11"
         result="blur"
         id="feGaussianBlur66148" />
    </filter>
    <filter
       style="color-interpolation-filters:sRGB"
       inkscape:label="Blur"
       id="filter65936"
       x="-0.0257849"
       y="-0.2836339"
       width="1.0515698"
       height="1.5672678">
      <feGaussianBlur
         stdDeviation="0.01 0.11"
         result="blur"
         id="feGaussianBlur65934" />
    </filter>
    <linearGradient
       inkscape:collect="always"
       xlink:href="#linearGradient2864"
       id="linearGradient60746"
       gradientUnits="userSpaceOnUse"
       gradientTransform="translate(-73.935754,-26.832043)"
       x1="6.4202108"
       y1="0.96924353"
       x2="6.4202108"
       y2="11.540484" />
    <linearGradient
       inkscape:collect="always"
       id="linearGradient2864">
      <stop
         style="stop-color:#000000;stop-opacity:1"
         offset="0"
         id="stop2860" />
      <stop
         style="stop-color:#fefefe;stop-opacity:0"
         offset="1"
         id="stop2862" />
    </linearGradient>
    <linearGradient
       inkscape:collect="always"
       xlink:href="#linearGradient2084"
       id="linearGradient60748"
       gradientUnits="userSpaceOnUse"
       gradientTransform="translate(61.23575,14.132045)"
       x1="6.4202108"
       y1="0.96924353"
       x2="6.4202108"
       y2="11.540484" />
    <linearGradient
       inkscape:collect="always"
       id="linearGradient2084">
      <stop
         style="stop-color:#ffffff;stop-opacity:1"
         offset="0"
         id="stop2080" />
      <stop
         style="stop-color:#000000;stop-opacity:0"
         offset="1"
         id="stop2082" />
    </linearGradient>
  </defs>
  <g
     inkscape:label="Calque 1"
     inkscape:groupmode="layer"
     id="layer1">
    <g
       id="g21301"
       transform="translate(-61.196492,-14.921041)">
      <rect
         style="opacity:0.2;mix-blend-mode:overlay;fill:#000000;fill-opacity:1;stroke:none;stroke-width:0.55007;stroke-linecap:square;filter:url(#filter33679)"
         id="rect61280"
         width="10.583333"
         height="10.583333"
         x="-31.628342"
         y="-3.2242157"
         ry="2.2002783"
         rx="2.2002783"
         transform="rotate(180,20.597282,11.512079)" />
      <rect
         style="fill:#2d3436;fill-opacity:1;stroke:none;stroke-width:0.55007;stroke-linecap:square"
         id="rect61282"
         width="10.583333"
         height="10.583333"
         x="62.239578"
         y="15.135875"
         ry="2.2002783"
         rx="2.2002783" />
      <path
         id="path61302"
         style="color:#000000;opacity:0.2;mix-blend-mode:soft-light;fill:#ffffff;stroke-width:1;stroke-linecap:square;-inkscape-stroke:none"
         d="m 64.439945,15.135858 c -0.03809,0 -0.07608,0.0012 -0.113689,0.0031 -0.0376,0.0019 -0.07506,0.0045 -0.112139,0.0083 -0.03707,0.0037 -0.07358,0.0084 -0.110069,0.01395 -0.0365,0.0056 -0.07265,0.01182 -0.108521,0.01912 -0.03587,0.0073 -0.07177,0.01579 -0.106969,0.02481 -0.03521,0.009 -0.0699,0.01877 -0.104388,0.02946 -0.03449,0.01068 -0.06859,0.02232 -0.10232,0.03462 -0.03373,0.0123 -0.06732,0.02539 -0.100251,0.03927 -0.03293,0.01388 -0.06507,0.02851 -0.09715,0.04393 -0.03208,0.01541 -0.0639,0.03116 -0.09508,0.04806 -0.03118,0.0169 -0.06174,0.03489 -0.09198,0.05323 -0.03024,0.01834 -0.06015,0.03711 -0.0894,0.05684 -0.02926,0.01973 -0.05808,0.04041 -0.0863,0.06149 -0.02822,0.02108 -0.05554,0.04273 -0.08268,0.06511 -0.02715,0.02238 -0.05407,0.0456 -0.0801,0.06925 -0.02604,0.02364 -0.05162,0.04749 -0.07648,0.07235 -0.02484,0.02486 -0.0487,0.05046 -0.07235,0.07648 -0.02365,0.02602 -0.04686,0.05243 -0.06925,0.07958 -0.02238,0.02715 -0.04403,0.05498 -0.06511,0.0832 -0.02109,0.02822 -0.04176,0.05705 -0.0615,0.0863 -0.01974,0.02925 -0.03851,0.05916 -0.05684,0.0894 -0.01834,0.03024 -0.03581,0.0608 -0.05271,0.09198 -0.01691,0.03118 -0.03317,0.06301 -0.04858,0.09508 -0.0154,0.03208 -0.03004,0.06423 -0.04392,0.09715 -0.01389,0.03293 -0.02697,0.06652 -0.03927,0.100252 -0.0123,0.03373 -0.02394,0.06783 -0.03462,0.10232 -0.01069,0.03449 -0.02043,0.06918 -0.02946,0.104386 -0.009,0.0352 -0.01749,0.0711 -0.02479,0.10697 -0.0073,0.03587 -0.01357,0.07203 -0.01913,0.108521 -0.0056,0.0365 -0.01021,0.073 -0.01394,0.110071 -0.0037,0.03707 -0.0064,0.07453 -0.0083,0.112138 -0.0019,0.03761 -0.0031,0.0756 -0.0031,0.113688 v 6.182566 c 0,0.03809 0.0013,0.07608 0.0031,0.113688 0.0019,0.03761 0.0045,0.07506 0.0083,0.112138 0.0038,0.03707 0.0084,0.07358 0.01394,0.110071 0.0056,0.0365 0.01183,0.07265 0.01913,0.10852 0.0073,0.03587 0.01579,0.07177 0.02479,0.10697 0.009,0.0352 0.01876,0.0699 0.02946,0.104387 0.01069,0.03449 0.0223,0.06859 0.03462,0.102319 0.0123,0.03373 0.0254,0.06733 0.03927,0.100252 0.01389,0.03293 0.02851,0.06508 0.04392,0.09715 0.0154,0.03208 0.03168,0.0639 0.04858,0.09508 0.01691,0.03118 0.03437,0.06174 0.05271,0.09198 0.01833,0.03024 0.03711,0.06015 0.05684,0.0894 0.01974,0.02925 0.04041,0.05808 0.0615,0.0863 0.02109,0.02822 0.04273,0.05605 0.06511,0.0832 0.02238,0.02715 0.0456,0.05356 0.06925,0.07958 0.02365,0.02602 0.04749,0.05162 0.07235,0.07648 0.02487,0.02485 0.05046,0.0487 0.07648,0.07235 0.02603,0.02364 0.05295,0.04686 0.0801,0.06925 0.02715,0.02238 0.05446,0.04403 0.08268,0.06511 0.02822,0.02108 0.05705,0.04176 0.0863,0.06149 0.02925,0.01973 0.05916,0.03851 0.0894,0.05684 0.03024,0.01834 0.0608,0.03633 0.09198,0.05323 0.03118,0.0169 0.06301,0.03265 0.09508,0.04806 0.03208,0.01541 0.06422,0.03004 0.09715,0.04392 0.03293,0.01388 0.06652,0.02697 0.100251,0.03927 0.03373,0.01231 0.06783,0.02394 0.10232,0.03462 0.03449,0.01068 0.06918,0.02044 0.104388,0.02946 0.0352,0.009 0.0711,0.0175 0.106969,0.0248 0.03587,0.0073 0.07203,0.01358 0.108521,0.01912 0.03649,0.0055 0.073,0.01021 0.110069,0.01395 0.03707,0.0037 0.07453,0.0064 0.112139,0.0083 0.0376,0.0019 0.0756,0.0031 0.113689,0.0031 h 6.182569 c 0.03809,0 0.07608,-0.0012 0.113686,-0.0031 0.03761,-0.0019 0.07507,-0.0045 0.112138,-0.0083 0.03707,-0.0037 0.07358,-0.0084 0.110072,-0.01395 0.03649,-0.0055 0.07265,-0.01182 0.108519,-0.01912 0.03588,-0.0073 0.07177,-0.01579 0.106971,-0.0248 0.03521,-0.009 0.0699,-0.01877 0.104386,-0.02946 0.03449,-0.01068 0.06859,-0.02232 0.10232,-0.03462 0.03373,-0.01231 0.06733,-0.02539 0.100253,-0.03927 0.03293,-0.01388 0.06507,-0.02851 0.09715,-0.04392 0.03208,-0.01541 0.0639,-0.03116 0.09508,-0.04806 0.03118,-0.0169 0.06174,-0.03489 0.09198,-0.05323 0.03024,-0.01834 0.06015,-0.03711 0.0894,-0.05684 0.02926,-0.01973 0.05808,-0.04041 0.0863,-0.06149 0.02822,-0.02108 0.05605,-0.04273 0.0832,-0.06511 0.02715,-0.02238 0.05356,-0.0456 0.07958,-0.06925 0.02603,-0.02364 0.05163,-0.04749 0.07648,-0.07235 0.02484,-0.02486 0.04922,-0.05046 0.07286,-0.07648 0.02365,-0.02602 0.04635,-0.05243 0.06873,-0.07958 0.02238,-0.02715 0.04403,-0.05498 0.06511,-0.0832 0.02109,-0.02822 0.04176,-0.05705 0.0615,-0.0863 0.01974,-0.02925 0.03851,-0.05916 0.05684,-0.0894 0.01833,-0.03024 0.03633,-0.0608 0.05323,-0.09198 0.01691,-0.03118 0.03265,-0.06301 0.04806,-0.09508 0.01543,-0.03208 0.03056,-0.06423 0.04444,-0.09715 0.01389,-0.03293 0.02697,-0.06652 0.03928,-0.100252 0.0123,-0.03373 0.02341,-0.06783 0.03411,-0.102319 0.01069,-0.03449 0.02096,-0.06918 0.02997,-0.104387 0.009,-0.0352 0.01699,-0.0711 0.02429,-0.10697 0.0073,-0.03587 0.01357,-0.07203 0.01913,-0.10852 0.0056,-0.0365 0.01021,-0.073 0.01394,-0.110071 0.0038,-0.03707 0.0069,-0.07453 0.0088,-0.112138 0.0019,-0.0376 0.0026,-0.0756 0.0026,-0.113688 v -6.182568 c 0,-0.03809 -7.94e-4,-0.07608 -0.0026,-0.113688 -0.0019,-0.03761 -0.0051,-0.07507 -0.0088,-0.112138 -0.0037,-0.03707 -0.0084,-0.07357 -0.01394,-0.110071 -0.0056,-0.0365 -0.01183,-0.07265 -0.01913,-0.108521 -0.0073,-0.03587 -0.01527,-0.07177 -0.02429,-0.10697 -0.009,-0.0352 -0.01929,-0.0699 -0.02997,-0.104386 -0.01069,-0.03449 -0.0218,-0.06859 -0.03411,-0.10232 -0.0123,-0.03373 -0.0254,-0.06733 -0.03928,-0.100252 -0.01389,-0.03293 -0.02903,-0.06508 -0.04444,-0.09715 -0.0154,-0.03208 -0.03116,-0.0639 -0.04806,-0.09509 -0.01691,-0.03118 -0.03489,-0.06174 -0.05323,-0.09198 -0.01834,-0.03024 -0.03711,-0.06015 -0.05684,-0.0894 -0.01974,-0.02926 -0.04042,-0.05808 -0.0615,-0.0863 -0.02109,-0.02822 -0.04273,-0.05605 -0.06511,-0.0832 -0.02238,-0.02715 -0.04509,-0.05356 -0.06873,-0.07958 -0.02365,-0.02602 -0.04801,-0.05162 -0.07286,-0.07648 -0.02487,-0.02486 -0.05046,-0.0487 -0.07648,-0.07235 -0.02604,-0.02364 -0.05244,-0.04686 -0.07958,-0.06925 -0.02715,-0.02238 -0.05497,-0.04403 -0.0832,-0.06511 -0.02822,-0.02108 -0.05704,-0.04176 -0.0863,-0.06149 -0.02925,-0.01973 -0.05916,-0.03851 -0.0894,-0.05684 -0.03024,-0.01834 -0.0608,-0.03633 -0.09198,-0.05323 -0.03118,-0.0169 -0.06301,-0.03265 -0.09508,-0.04806 -0.03208,-0.01541 -0.06423,-0.03004 -0.09715,-0.04392 -0.03293,-0.01388 -0.06652,-0.02697 -0.100253,-0.03927 -0.03373,-0.0123 -0.06783,-0.02394 -0.10232,-0.03462 -0.03449,-0.01068 -0.06918,-0.02044 -0.104386,-0.02946 -0.0352,-0.009 -0.0711,-0.0175 -0.106971,-0.02481 -0.03587,-0.0073 -0.07202,-0.01357 -0.108519,-0.01912 -0.0365,-0.0056 -0.073,-0.01021 -0.110072,-0.01395 -0.03707,-0.0037 -0.07453,-0.0064 -0.112138,-0.0083 -0.0376,-0.0019 -0.07559,-0.0031 -0.113686,-0.0031 z m 5.29e-4,0.264067 h 6.181534 c 1.076952,0 1.9358,0.858848 1.9358,1.935799 v 6.183601 c 0,1.076951 -0.858848,1.935283 -1.9358,1.935283 h -6.181534 c -1.07695,0 -1.935282,-0.858332 -1.935282,-1.935283 v -6.183601 c 0,-1.076951 0.858332,-1.935799 1.935282,-1.935799 z" />
      <path
         id="circle64483"
         style="opacity:0.2;fill:#000000;fill-opacity:1;stroke:none;stroke-width:1.19796;stroke-linecap:round;stroke-miterlimit:4;stroke-dasharray:none;stroke-opacity:1"
         d="m 240.46094,77.912109 a 15,15 0 0 0 -0.0195,0.5 15,15 0 0 0 15,15 15,15 0 0 0 15,-15 15,15 0 0 0 -0.0137,-0.626953 15,15 0 0 1 -0.0273,0.748047 15,15 0 0 1 -0.125,1.115235 15,15 0 0 1 -0.20898,1.101562 15,15 0 0 1 -0.29102,1.083984 15,15 0 0 1 -0.36914,1.058594 15,15 0 0 1 -0.44922,1.027344 15,15 0 0 1 -0.52539,0.992187 15,15 0 0 1 -0.5957,0.949219 15,15 0 0 1 -0.66602,0.904297 15,15 0 0 1 -0.73242,0.849609 15,15 0 0 1 -0.79297,0.792969 15,15 0 0 1 -0.84961,0.732422 15,15 0 0 1 -0.90234,0.666016 15,15 0 0 1 -0.95117,0.595703 15,15 0 0 1 -0.99024,0.52539 15,15 0 0 1 -1.02929,0.447266 15,15 0 0 1 -1.0586,0.371094 15,15 0 0 1 -1.08398,0.291015 15,15 0 0 1 -1.10157,0.207032 15,15 0 0 1 -1.11523,0.126953 15,15 0 0 1 -1.12109,0.04102 15,15 0 0 1 -1.1211,-0.04102 15,15 0 0 1 -1.11328,-0.126953 15,15 0 0 1 -1.10351,-0.207032 15,15 0 0 1 -1.08204,-0.291015 15,15 0 0 1 -1.05859,-0.371094 15,15 0 0 1 -1.0293,-0.447266 15,15 0 0 1 -0.99218,-0.52539 15,15 0 0 1 -0.94922,-0.595703 15,15 0 0 1 -0.90235,-0.666016 15,15 0 0 1 -0.84961,-0.732422 15,15 0 0 1 -0.79296,-0.792969 15,15 0 0 1 -0.73243,-0.849609 15,15 0 0 1 -0.66601,-0.904297 15,15 0 0 1 -0.59766,-0.949219 15,15 0 0 1 -0.52344,-0.992187 15,15 0 0 1 -0.44921,-1.027344 15,15 0 0 1 -0.36914,-1.058594 15,15 0 0 1 -0.29102,-1.083984 15,15 0 0 1 -0.20898,-1.101562 15,15 0 0 1 -0.125,-1.115235 15,15 0 0 1 -0.0234,-0.621094 z"
         transform="scale(0.26458333)" />
      <circle
         style="opacity:0.9;fill:#ffffff;fill-opacity:1;stroke:none;stroke-width:0.316961;stroke-linecap:round;stroke-miterlimit:4;stroke-dasharray:none;stroke-opacity:1"
         id="path61424"
         cx="67.585747"
         cy="20.482044"
         r="3.96875" />
      <path
         style="color:#000000;opacity:0.2;fill:#000000;stroke-linecap:round;-inkscape-stroke:none;filter:url(#filter65980)"
         d="m 69.18177,19.043807 a 0.39687499,0.39687499 0 0 0 -0.291016,0.0918 l -1.558593,1.302734 a 0.39687499,0.39687499 0 0 0 -0.05078,0.560547 0.39687499,0.39687499 0 0 0 0.560547,0.04883 l 1.558592,-1.304692 a 0.39687499,0.39687499 0 0 0 0.04883,-0.558594 0.39687499,0.39687499 0 0 0 -0.267578,-0.140625 z"
         id="path65976" />
      <path
         style="color:#000000;opacity:0.2;fill:#000000;stroke-linecap:round;-inkscape-stroke:none;filter:url(#filter65984)"
         d="m 65.707537,18.319605 a 0.39687499,0.39687499 0 0 0 -0.560547,0.002 0.39687499,0.39687499 0 0 0 0.002,0.5625 l 2.154297,2.140625 a 0.39687499,0.39687499 0 0 0 0.560547,-0.002 0.39687499,0.39687499 0 0 0 -0.002,-0.5625 z"
         id="path65974" />
      <path
         style="color:#000000;opacity:0.2;fill:#000000;stroke-linecap:round;-inkscape-stroke:none;filter:url(#filter66150)"
         d="m 67.585105,20.635748 a 0.1322915,0.1322915 0 0 0 -0.13086,0.13086 v 3.435546 a 0.1322915,0.1322915 0 0 0 0.13086,0.132813 0.1322915,0.1322915 0 0 0 0.132812,-0.132813 v -3.435546 a 0.1322915,0.1322915 0 0 0 -0.132812,-0.13086 z"
         id="path66102" />
      <path
         style="color:#000000;fill:#000000;stroke-linecap:round;-inkscape-stroke:none"
         d="m 65.707537,18.055022 a 0.39687499,0.39687499 0 0 0 -0.560547,0.002 0.39687499,0.39687499 0 0 0 0.002,0.5625 l 2.154297,2.140625 a 0.39687499,0.39687499 0 0 0 0.560547,-0.002 0.39687499,0.39687499 0 0 0 -0.002,-0.5625 z"
         id="path61709" />
      <path
         style="fill:none;stroke:#d63031;stroke-width:0.264583;stroke-linecap:round;stroke-linejoin:miter;stroke-miterlimit:4;stroke-dasharray:none;stroke-opacity:1"
         d="m 67.585746,20.502708 v 3.435731"
         id="path65020" />
      <path
         style="color:#000000;fill:#000000;stroke-linecap:round;-inkscape-stroke:none"
         d="m 69.18177,18.779224 a 0.39687499,0.39687499 0 0 0 -0.291016,0.0918 l -1.558593,1.302734 a 0.39687499,0.39687499 0 0 0 -0.05078,0.560547 0.39687499,0.39687499 0 0 0 0.560547,0.04883 l 1.558592,-1.304692 a 0.39687499,0.39687499 0 0 0 0.04883,-0.558594 0.39687499,0.39687499 0 0 0 -0.267578,-0.140625 z"
         id="path62655" />
      <circle
         style="opacity:0.2;fill:#000000;fill-opacity:1;stroke:none;stroke-width:0.181607;stroke-linecap:round;stroke-miterlimit:4;stroke-dasharray:none;stroke-opacity:1;filter:url(#filter65936)"
         id="circle65896"
         cx="67.585747"
         cy="20.678114"
         r="0.46538866" />
      <circle
         style="fill:#d63031;fill-opacity:1;stroke:none;stroke-width:0.181607;stroke-linecap:round;stroke-miterlimit:4;stroke-dasharray:none;stroke-opacity:1"
         id="path61572"
         cx="67.585747"
         cy="20.41353"
         r="0.46538866" />
      <rect
         style="opacity:0.2;mix-blend-mode:overlay;fill:url(#linearGradient60746);fill-opacity:1;stroke:none;stroke-width:0.55007;stroke-linecap:square"
         id="rect60736"
         width="10.583333"
         height="10.583333"
         x="-72.877411"
         y="-25.77371"
         ry="2.2002783"
         rx="2.2002783"
         transform="scale(-1)" />
      <rect
         style="opacity:0.2;mix-blend-mode:overlay;fill:url(#linearGradient60748);fill-opacity:1;stroke:none;stroke-width:0.55007;stroke-linecap:square"
         id="rect60738"
         width="10.583333"
         height="10.583333"
         x="62.294079"
         y="15.190378"
         ry="2.2002783"
         rx="2.2002783" />
    </g>
  </g>
</svg>
