<?xml version="1.0" encoding="UTF-8" standalone="no"?>
<!-- Created with Inkscape (http://www.inkscape.org/) -->

<svg
   width="48"
   height="48"
   viewBox="0 0 12.7 12.7"
   version="1.1"
   id="svg39233"
   sodipodi:docname="org.gnome.Maps.svg"
   inkscape:export-filename="/home/bokehlicia/.local/share/icons/Testeo/48x48/apps/google-chrome.png"
   inkscape:export-xdpi="96"
   inkscape:export-ydpi="96"
   inkscape:version="1.1 (c68e22c387, 2021-05-23)"
   xmlns:inkscape="http://www.inkscape.org/namespaces/inkscape"
   xmlns:sodipodi="http://sodipodi.sourceforge.net/DTD/sodipodi-0.dtd"
   xmlns:xlink="http://www.w3.org/1999/xlink"
   xmlns="http://www.w3.org/2000/svg"
   xmlns:svg="http://www.w3.org/2000/svg">
  <sodipodi:namedview
     id="namedview39235"
     pagecolor="#505050"
     bordercolor="#eeeeee"
     borderopacity="1"
     inkscape:pageshadow="0"
     inkscape:pageopacity="0"
     inkscape:pagecheckerboard="0"
     inkscape:document-units="mm"
     showgrid="false"
     units="px"
     inkscape:zoom="5.3664983"
     inkscape:cx="30.280453"
     inkscape:cy="9.7829156"
     inkscape:window-width="1920"
     inkscape:window-height="1048"
     inkscape:window-x="0"
     inkscape:window-y="32"
     inkscape:window-maximized="1"
     inkscape:current-layer="layer1" />
  <defs
     id="defs39230">
    <filter
       style="color-interpolation-filters:sRGB"
       inkscape:label="Blur"
       id="filter33679-367"
       x="-0.0022677166"
       y="-0.070299215"
       width="1.0045354"
       height="1.1405984">
      <feGaussianBlur
         stdDeviation="0.01 0.31"
         result="blur"
         id="feGaussianBlur33677-5" />
    </filter>
    <filter
       style="color-interpolation-filters:sRGB"
       inkscape:label="Blur"
       id="filter2277-3"
       x="-0.0027247917"
       y="-0.061506464"
       width="1.0054496"
       height="1.1230129">
      <feGaussianBlur
         stdDeviation="7.0055253e-05"
         result="fbSourceGraphic"
         id="feGaussianBlur2275-5" />
      <feColorMatrix
         result="fbSourceGraphicAlpha"
         in="fbSourceGraphic"
         values="0 0 0 -1 0 0 0 0 -1 0 0 0 0 -1 0 0 0 0 1 0"
         id="feColorMatrix3634-6" />
      <feGaussianBlur
         id="feGaussianBlur3636-2"
         stdDeviation="0.01 0.31"
         result="fbSourceGraphic"
         in="fbSourceGraphic" />
      <feColorMatrix
         result="fbSourceGraphicAlpha"
         in="fbSourceGraphic"
         values="0 0 0 -1 0 0 0 0 -1 0 0 0 0 -1 0 0 0 0 1 0"
         id="feColorMatrix17820" />
      <feGaussianBlur
         id="feGaussianBlur17822"
         stdDeviation="0.01 0.31"
         result="blur"
         in="fbSourceGraphic" />
    </filter>
    <linearGradient
       inkscape:collect="always"
       xlink:href="#linearGradient2084"
       id="linearGradient61306"
       gradientUnits="userSpaceOnUse"
       gradientTransform="translate(75.78132,14.077539)"
       x1="6.4202108"
       y1="0.96924353"
       x2="6.4202108"
       y2="11.540484" />
    <linearGradient
       inkscape:collect="always"
       id="linearGradient2084">
      <stop
         style="stop-color:#ffffff;stop-opacity:1"
         offset="0"
         id="stop2080" />
      <stop
         style="stop-color:#000000;stop-opacity:0"
         offset="1"
         id="stop2082" />
    </linearGradient>
    <linearGradient
       inkscape:collect="always"
       xlink:href="#linearGradient2864"
       id="linearGradient61308"
       gradientUnits="userSpaceOnUse"
       gradientTransform="translate(-88.481325,-26.777539)"
       x1="6.4202108"
       y1="0.96924353"
       x2="6.4202108"
       y2="11.540484" />
    <linearGradient
       inkscape:collect="always"
       id="linearGradient2864">
      <stop
         style="stop-color:#000000;stop-opacity:1"
         offset="0"
         id="stop2860" />
      <stop
         style="stop-color:#fefefe;stop-opacity:0"
         offset="1"
         id="stop2862" />
    </linearGradient>
  </defs>
  <g
     inkscape:label="Calque 1"
     inkscape:groupmode="layer"
     id="layer1">
    <g
       id="g21543"
       transform="translate(-75.781325,-14.921041)">
      <g
         id="g21533">
        <rect
           style="opacity:0.2;mix-blend-mode:overlay;fill:#000000;fill-opacity:1;stroke:none;stroke-width:0.55007;stroke-linecap:square;filter:url(#filter33679-367)"
           id="rect1188"
           width="10.583333"
           height="10.583333"
           x="-31.628342"
           y="-3.2242157"
           ry="2.2002783"
           rx="2.2002783"
           transform="rotate(180,27.897325,11.512079)" />
        <rect
           style="fill:#ffffff;fill-opacity:1;stroke:none;stroke-width:0.55007;stroke-linecap:square"
           id="rect1190"
           width="10.583333"
           height="10.583333"
           x="76.839661"
           y="15.135873"
           ry="2.2002783"
           rx="2.2002783" />
        <path
           id="path1196"
           style="color:#000000;opacity:0.2;mix-blend-mode:soft-light;fill:#ffffff;stroke-width:1;stroke-linecap:square;-inkscape-stroke:none"
           d="m 79.039541,15.135874 c -0.0381,0 -0.0761,0.0012 -0.11369,0.0031 -0.0376,0.0019 -0.0751,0.0045 -0.11213,0.0083 -0.0371,0.0037 -0.0736,0.0084 -0.11007,0.01395 -0.0365,0.0056 -0.0726,0.01182 -0.10852,0.01912 -0.0359,0.0073 -0.0718,0.01579 -0.10697,0.02481 -0.0352,0.009 -0.0699,0.01877 -0.10439,0.02946 -0.0345,0.01068 -0.0686,0.02232 -0.10232,0.03462 -0.0337,0.0123 -0.0673,0.02539 -0.10025,0.03927 -0.0329,0.01388 -0.0651,0.02851 -0.0971,0.04393 -0.0321,0.01541 -0.0639,0.03116 -0.0951,0.04806 -0.0312,0.0169 -0.0617,0.03489 -0.092,0.05323 -0.0302,0.01834 -0.0602,0.03711 -0.0894,0.05684 -0.0293,0.01973 -0.0581,0.04041 -0.0863,0.06149 -0.0282,0.02108 -0.0555,0.04273 -0.0827,0.06511 -0.0272,0.02238 -0.0541,0.0456 -0.0801,0.06925 -0.026,0.02364 -0.0516,0.04749 -0.0765,0.07235 -0.0248,0.02486 -0.0487,0.05046 -0.0724,0.07648 -0.0237,0.02602 -0.0469,0.05243 -0.0692,0.07958 -0.0224,0.02715 -0.044,0.05498 -0.0651,0.0832 -0.0211,0.02822 -0.0418,0.05705 -0.0615,0.0863 -0.0197,0.02925 -0.0385,0.05916 -0.0568,0.0894 -0.0183,0.03024 -0.0358,0.0608 -0.0527,0.09198 -0.0169,0.03118 -0.0332,0.06301 -0.0486,0.09508 -0.0154,0.03208 -0.03,0.06423 -0.0439,0.09715 -0.0139,0.03293 -0.027,0.06652 -0.0393,0.100252 -0.0123,0.03373 -0.0239,0.06783 -0.0346,0.10232 -0.0107,0.03449 -0.0204,0.06918 -0.0295,0.104386 -0.009,0.0352 -0.0175,0.0711 -0.0248,0.10697 -0.007,0.03587 -0.0136,0.07203 -0.0191,0.108521 -0.006,0.0365 -0.0102,0.073 -0.0139,0.110071 -0.004,0.03707 -0.006,0.07453 -0.008,0.112138 -0.002,0.03761 -0.003,0.0756 -0.003,0.113688 v 6.182567 c 0,0.03809 0.001,0.07608 0.003,0.113688 0.002,0.03761 0.004,0.07507 0.008,0.112137 0.004,0.03707 0.008,0.07357 0.0139,0.110071 0.006,0.0365 0.0118,0.07265 0.0191,0.108521 0.007,0.03587 0.0158,0.07177 0.0248,0.10697 0.009,0.0352 0.0188,0.0699 0.0295,0.104386 0.0107,0.03449 0.0223,0.06859 0.0346,0.10232 0.0123,0.03373 0.0254,0.06733 0.0393,0.100252 0.0139,0.03293 0.0285,0.06508 0.0439,0.09715 0.0154,0.03208 0.0317,0.0639 0.0486,0.09509 0.0169,0.03118 0.0344,0.06174 0.0527,0.09198 0.0183,0.03024 0.0371,0.06015 0.0568,0.0894 0.0197,0.02925 0.0404,0.05808 0.0615,0.0863 0.0211,0.02822 0.0427,0.05605 0.0651,0.0832 0.0224,0.02715 0.0456,0.05356 0.0692,0.07958 0.0237,0.02602 0.0475,0.05162 0.0724,0.07648 0.0249,0.02485 0.0505,0.0487 0.0765,0.07235 0.026,0.02364 0.0529,0.04686 0.0801,0.06925 0.0271,0.02238 0.0545,0.04403 0.0827,0.06511 0.0282,0.02108 0.0571,0.04176 0.0863,0.06149 0.0293,0.01973 0.0592,0.03851 0.0894,0.05684 0.0302,0.01834 0.0608,0.03633 0.092,0.05323 0.0312,0.0169 0.063,0.03265 0.0951,0.04806 0.0321,0.01541 0.0642,0.03004 0.0971,0.04392 0.0329,0.01388 0.0665,0.02697 0.10025,0.03927 0.0337,0.01231 0.0678,0.02394 0.10232,0.03462 0.0345,0.01068 0.0692,0.02044 0.10439,0.02946 0.0352,0.009 0.0711,0.0175 0.10697,0.0248 0.0359,0.0073 0.072,0.01358 0.10852,0.01912 0.0365,0.0055 0.073,0.01021 0.11007,0.01395 0.0371,0.0037 0.0745,0.0064 0.11213,0.0083 0.0376,0.0019 0.0756,0.0031 0.11369,0.0031 h 6.18257 c 0.0381,0 0.0761,-0.0012 0.11369,-0.0031 0.0376,-0.0019 0.0751,-0.0045 0.11214,-0.0083 0.0371,-0.0037 0.0736,-0.0084 0.11007,-0.01395 0.0365,-0.0055 0.0727,-0.01182 0.10852,-0.01912 0.0359,-0.0073 0.0718,-0.01579 0.10697,-0.0248 0.0352,-0.009 0.0699,-0.01877 0.10439,-0.02946 0.0345,-0.01068 0.0686,-0.02232 0.10232,-0.03462 0.0337,-0.01231 0.0673,-0.02539 0.10025,-0.03927 0.0329,-0.01388 0.0651,-0.02851 0.0971,-0.04392 0.0321,-0.01541 0.0639,-0.03116 0.0951,-0.04806 0.0312,-0.0169 0.0617,-0.03489 0.092,-0.05323 0.0302,-0.01834 0.0601,-0.03711 0.0894,-0.05684 0.0293,-0.01973 0.0581,-0.04041 0.0863,-0.06149 0.0282,-0.02108 0.056,-0.04273 0.0832,-0.06511 0.0272,-0.02238 0.0536,-0.0456 0.0796,-0.06925 0.026,-0.02364 0.0516,-0.04749 0.0765,-0.07235 0.0248,-0.02486 0.0492,-0.05046 0.0729,-0.07648 0.0237,-0.02602 0.0464,-0.05243 0.0687,-0.07958 0.0224,-0.02715 0.044,-0.05498 0.0651,-0.0832 0.0211,-0.02822 0.0418,-0.05705 0.0615,-0.0863 0.0197,-0.02926 0.0385,-0.05916 0.0568,-0.0894 0.0183,-0.03024 0.0363,-0.0608 0.0532,-0.09198 0.0169,-0.03118 0.0327,-0.06301 0.0481,-0.09509 0.0154,-0.03208 0.0306,-0.06423 0.0444,-0.09715 0.0139,-0.03293 0.027,-0.06652 0.0393,-0.100252 0.0123,-0.03373 0.0234,-0.06783 0.0341,-0.10232 0.0107,-0.03449 0.021,-0.06918 0.03,-0.104386 0.009,-0.0352 0.017,-0.0711 0.0243,-0.10697 0.007,-0.03587 0.0136,-0.07203 0.0191,-0.108521 0.006,-0.0365 0.0102,-0.073 0.0139,-0.110071 0.004,-0.03707 0.007,-0.07453 0.009,-0.112137 0.002,-0.03761 0.003,-0.0756 0.003,-0.113688 v -6.182569 c 0,-0.03809 -7.9e-4,-0.07608 -0.003,-0.113688 -0.002,-0.03761 -0.005,-0.07507 -0.009,-0.112138 -0.004,-0.03707 -0.008,-0.07357 -0.0139,-0.110071 -0.006,-0.0365 -0.0118,-0.07265 -0.0191,-0.108521 -0.007,-0.03587 -0.0153,-0.07177 -0.0243,-0.10697 -0.009,-0.0352 -0.0193,-0.0699 -0.03,-0.104386 -0.0107,-0.03449 -0.0218,-0.06859 -0.0341,-0.10232 -0.0123,-0.03373 -0.0254,-0.06733 -0.0393,-0.100252 -0.0139,-0.03293 -0.029,-0.06508 -0.0444,-0.09715 -0.0154,-0.03208 -0.0312,-0.0639 -0.0481,-0.09509 -0.0169,-0.03118 -0.0349,-0.06174 -0.0532,-0.09198 -0.0183,-0.03024 -0.0371,-0.06015 -0.0568,-0.0894 -0.0197,-0.02926 -0.0404,-0.05808 -0.0615,-0.0863 -0.0211,-0.02822 -0.0427,-0.05605 -0.0651,-0.0832 -0.0224,-0.02715 -0.0451,-0.05356 -0.0687,-0.07958 -0.0237,-0.02602 -0.048,-0.05162 -0.0729,-0.07648 -0.0249,-0.02486 -0.0505,-0.0487 -0.0765,-0.07235 -0.026,-0.02364 -0.0524,-0.04686 -0.0796,-0.06925 -0.0272,-0.02238 -0.055,-0.04403 -0.0832,-0.06511 -0.0282,-0.02108 -0.057,-0.04176 -0.0863,-0.06149 -0.0293,-0.01973 -0.0592,-0.03851 -0.0894,-0.05684 -0.0302,-0.01834 -0.0608,-0.03633 -0.092,-0.05323 -0.0312,-0.0169 -0.063,-0.03265 -0.0951,-0.04806 -0.0321,-0.01541 -0.0642,-0.03004 -0.0971,-0.04392 -0.0329,-0.01388 -0.0665,-0.02697 -0.10025,-0.03927 -0.0337,-0.0123 -0.0678,-0.02394 -0.10232,-0.03462 -0.0345,-0.01068 -0.0692,-0.02044 -0.10439,-0.02946 -0.0352,-0.009 -0.0711,-0.0175 -0.10697,-0.02481 -0.0359,-0.0073 -0.072,-0.01357 -0.10852,-0.01912 -0.0365,-0.0056 -0.073,-0.01021 -0.11007,-0.01395 -0.0371,-0.0037 -0.0745,-0.0064 -0.11214,-0.0083 -0.0376,-0.0019 -0.0756,-0.0031 -0.11369,-0.0031 z m 5.3e-4,0.264067 h 6.18154 c 1.07695,0 1.9358,0.858848 1.9358,1.935799 v 6.183602 c 0,1.07695 -0.85885,1.935283 -1.9358,1.935283 h -6.18154 c -1.07695,0 -1.93528,-0.858333 -1.93528,-1.935283 V 17.33574 c 0,-1.076951 0.85833,-1.935799 1.93528,-1.935799 z" />
        <path
           id="path2255"
           style="opacity:0.2;fill:#000000;fill-opacity:1;stroke-width:1.86249;stroke-linecap:square;filter:url(#filter2277-3)"
           d="m 325.42383,65.861328 c -4.88142,0 -8.83789,3.956476 -8.83789,8.837891 0,4.881415 8.83789,15.357422 8.83789,15.357422 0,0 8.83984,-10.476007 8.83984,-15.357422 0,-4.881415 -3.95843,-8.837891 -8.83984,-8.837891 z m 0,4.396484 a 4.5608527,4.5608527 0 0 1 0.11719,0 4.5608527,4.5608527 0 0 1 0.11718,0.0059 4.5608527,4.5608527 0 0 1 0.11719,0.0059 4.5608527,4.5608527 0 0 1 0.11719,0.01172 4.5608527,4.5608527 0 0 1 0.11719,0.01367 4.5608527,4.5608527 0 0 1 0.11718,0.01563 4.5608527,4.5608527 0 0 1 0.11524,0.01953 4.5608527,4.5608527 0 0 1 0.11523,0.02344 4.5608527,4.5608527 0 0 1 0.11524,0.02539 4.5608527,4.5608527 0 0 1 0.11328,0.02734 4.5608527,4.5608527 0 0 1 0.11328,0.0332 4.5608527,4.5608527 0 0 1 0.11133,0.0332 4.5608527,4.5608527 0 0 1 0.11133,0.03711 4.5608527,4.5608527 0 0 1 0.11132,0.04102 4.5608527,4.5608527 0 0 1 0.10938,0.04297 4.5608527,4.5608527 0 0 1 0.10742,0.04492 4.5608527,4.5608527 0 0 1 0.10742,0.04883 4.5608527,4.5608527 0 0 1 0.10547,0.05078 4.5608527,4.5608527 0 0 1 0.10547,0.05273 4.5608527,4.5608527 0 0 1 0.10156,0.05664 4.5608527,4.5608527 0 0 1 0.10156,0.06055 4.5608527,4.5608527 0 0 1 0.0996,0.06055 4.5608527,4.5608527 0 0 1 0.0996,0.06445 4.5608527,4.5608527 0 0 1 0.0957,0.06641 4.5608527,4.5608527 0 0 1 0.0957,0.07031 4.5608527,4.5608527 0 0 1 0.0918,0.07227 4.5608527,4.5608527 0 0 1 0.0918,0.07422 4.5608527,4.5608527 0 0 1 0.0898,0.07617 4.5608527,4.5608527 0 0 1 0.0859,0.07813 4.5608527,4.5608527 0 0 1 0.0859,0.08008 4.5608527,4.5608527 0 0 1 0.082,0.08398 4.5608527,4.5608527 0 0 1 0.082,0.08398 4.5608527,4.5608527 0 0 1 0.0781,0.08789 4.5608527,4.5608527 0 0 1 0.0762,0.08984 4.5608527,4.5608527 0 0 1 0.0742,0.08984 4.5608527,4.5608527 0 0 1 0.0723,0.09375 4.5608527,4.5608527 0 0 1 0.0684,0.0957 4.5608527,4.5608527 0 0 1 0.0684,0.0957 4.5608527,4.5608527 0 0 1 0.0625,0.09766 4.5608527,4.5608527 0 0 1 0.0625,0.101562 4.5608527,4.5608527 0 0 1 0.0586,0.09961 4.5608527,4.5608527 0 0 1 0.0566,0.103516 4.5608527,4.5608527 0 0 1 0.0547,0.105469 4.5608527,4.5608527 0 0 1 0.0508,0.105469 4.5608527,4.5608527 0 0 1 0.0488,0.107422 4.5608527,4.5608527 0 0 1 0.0449,0.107421 4.5608527,4.5608527 0 0 1 0.043,0.109375 4.5608527,4.5608527 0 0 1 0.041,0.109375 4.5608527,4.5608527 0 0 1 0.0371,0.113282 4.5608527,4.5608527 0 0 1 0.0332,0.111328 4.5608527,4.5608527 0 0 1 0.0312,0.113281 4.5608527,4.5608527 0 0 1 0.0293,0.113281 4.5608527,4.5608527 0 0 1 0.0254,0.115235 4.5608527,4.5608527 0 0 1 0.0215,0.115234 4.5608527,4.5608527 0 0 1 0.0195,0.115234 4.5608527,4.5608527 0 0 1 0.0176,0.117188 4.5608527,4.5608527 0 0 1 0.0137,0.117187 4.5608527,4.5608527 0 0 1 0.01,0.115235 4.5608527,4.5608527 0 0 1 0.008,0.117187 4.5608527,4.5608527 0 0 1 0.006,0.119141 4.5608527,4.5608527 0 0 1 0,0.117187 4.5608527,4.5608527 0 0 1 -0.0117,0.339844 4.5608527,4.5608527 0 0 1 -0.0391,0.339844 4.5608527,4.5608527 0 0 1 -0.0625,0.333984 4.5608527,4.5608527 0 0 1 -0.0879,0.330078 4.5608527,4.5608527 0 0 1 -0.11328,0.322266 4.5608527,4.5608527 0 0 1 -0.13672,0.3125 4.5608527,4.5608527 0 0 1 -0.16015,0.300781 4.5608527,4.5608527 0 0 1 -0.17969,0.289063 4.5608527,4.5608527 0 0 1 -0.20313,0.27539 4.5608527,4.5608527 0 0 1 -0.22265,0.257813 4.5608527,4.5608527 0 0 1 -0.24219,0.240234 4.5608527,4.5608527 0 0 1 -0.25781,0.222656 4.5608527,4.5608527 0 0 1 -0.27344,0.203126 4.5608527,4.5608527 0 0 1 -0.28906,0.18164 4.5608527,4.5608527 0 0 1 -0.30274,0.160156 4.5608527,4.5608527 0 0 1 -0.3125,0.134766 4.5608527,4.5608527 0 0 1 -0.32226,0.113281 4.5608527,4.5608527 0 0 1 -0.32813,0.08789 4.5608527,4.5608527 0 0 1 -0.33593,0.06445 4.5608527,4.5608527 0 0 1 -0.3379,0.03711 4.5608527,4.5608527 0 0 1 -0.34179,0.01367 4.5608527,4.5608527 0 0 1 -0.33985,-0.01367 4.5608527,4.5608527 0 0 1 -0.33984,-0.03711 4.5608527,4.5608527 0 0 1 -0.33398,-0.06445 4.5608527,4.5608527 0 0 1 -0.33008,-0.08789 4.5608527,4.5608527 0 0 1 -0.32227,-0.113281 4.5608527,4.5608527 0 0 1 -0.3125,-0.134766 4.5608527,4.5608527 0 0 1 -0.30078,-0.160156 4.5608527,4.5608527 0 0 1 -0.28906,-0.18164 4.5608527,4.5608527 0 0 1 -0.27539,-0.203126 4.5608527,4.5608527 0 0 1 -0.25781,-0.222656 4.5608527,4.5608527 0 0 1 -0.24219,-0.240234 4.5608527,4.5608527 0 0 1 -0.22266,-0.257813 4.5608527,4.5608527 0 0 1 -0.20117,-0.27539 4.5608527,4.5608527 0 0 1 -0.18164,-0.289063 4.5608527,4.5608527 0 0 1 -0.16016,-0.300781 4.5608527,4.5608527 0 0 1 -0.13672,-0.3125 4.5608527,4.5608527 0 0 1 -0.11132,-0.322266 4.5608527,4.5608527 0 0 1 -0.0879,-0.330078 4.5608527,4.5608527 0 0 1 -0.0645,-0.333984 4.5608527,4.5608527 0 0 1 -0.0371,-0.339844 4.5608527,4.5608527 0 0 1 -0.0137,-0.339844 4.5608527,4.5608527 0 0 1 0.0137,-0.341797 4.5608527,4.5608527 0 0 1 0.0371,-0.33789 4.5608527,4.5608527 0 0 1 0.0645,-0.335938 4.5608527,4.5608527 0 0 1 0.0879,-0.330078 4.5608527,4.5608527 0 0 1 0.11132,-0.320312 4.5608527,4.5608527 0 0 1 0.13672,-0.314453 4.5608527,4.5608527 0 0 1 0.16016,-0.300782 4.5608527,4.5608527 0 0 1 0.18164,-0.289062 4.5608527,4.5608527 0 0 1 0.20117,-0.273438 4.5608527,4.5608527 0 0 1 0.22266,-0.259765 4.5608527,4.5608527 0 0 1 0.24219,-0.240235 4.5608527,4.5608527 0 0 1 0.25781,-0.222656 4.5608527,4.5608527 0 0 1 0.27539,-0.203125 4.5608527,4.5608527 0 0 1 0.28906,-0.18164 4.5608527,4.5608527 0 0 1 0.30078,-0.158204 4.5608527,4.5608527 0 0 1 0.3125,-0.136718 4.5608527,4.5608527 0 0 1 0.32227,-0.113282 4.5608527,4.5608527 0 0 1 0.33008,-0.08789 4.5608527,4.5608527 0 0 1 0.33398,-0.0625 4.5608527,4.5608527 0 0 1 0.33984,-0.03906 4.5608527,4.5608527 0 0 1 0.33985,-0.01172 z"
           transform="matrix(0.26458333,0,0,0.26458333,-3.9704741,-0.19918058)" />
        <path
           id="path2092"
           style="fill:#d63031;fill-opacity:1;stroke-width:0.492784;stroke-linecap:square"
           d="m 82.131247,16.962045 c -1.291543,0 -2.338359,1.046818 -2.338359,2.338359 0,1.291541 2.338359,4.063318 2.338359,4.063318 0,0 2.338874,-2.771777 2.338874,-4.063318 0,-1.291541 -1.047335,-2.338359 -2.338874,-2.338359 z m 0,1.163237 a 1.2067256,1.2067256 0 0 1 0.03101,0 1.2067256,1.2067256 0 0 1 0.031,0.0015 1.2067256,1.2067256 0 0 1 0.03101,0.0016 1.2067256,1.2067256 0 0 1 0.03101,0.0031 1.2067256,1.2067256 0 0 1 0.03101,0.0036 1.2067256,1.2067256 0 0 1 0.031,0.0041 1.2067256,1.2067256 0 0 1 0.03049,0.0052 1.2067256,1.2067256 0 0 1 0.03049,0.0062 1.2067256,1.2067256 0 0 1 0.03049,0.0067 1.2067256,1.2067256 0 0 1 0.02997,0.0072 1.2067256,1.2067256 0 0 1 0.02997,0.0088 1.2067256,1.2067256 0 0 1 0.02946,0.0088 1.2067256,1.2067256 0 0 1 0.02946,0.0098 1.2067256,1.2067256 0 0 1 0.02945,0.01085 1.2067256,1.2067256 0 0 1 0.02894,0.01137 1.2067256,1.2067256 0 0 1 0.02842,0.01189 1.2067256,1.2067256 0 0 1 0.02842,0.01292 1.2067256,1.2067256 0 0 1 0.02791,0.01344 1.2067256,1.2067256 0 0 1 0.02791,0.01395 1.2067256,1.2067256 0 0 1 0.02687,0.01499 1.2067256,1.2067256 0 0 1 0.02687,0.01602 1.2067256,1.2067256 0 0 1 0.02635,0.01602 1.2067256,1.2067256 0 0 1 0.02636,0.01705 1.2067256,1.2067256 0 0 1 0.02532,0.01757 1.2067256,1.2067256 0 0 1 0.02532,0.0186 1.2067256,1.2067256 0 0 1 0.02429,0.01912 1.2067256,1.2067256 0 0 1 0.02429,0.01964 1.2067256,1.2067256 0 0 1 0.02377,0.02015 1.2067256,1.2067256 0 0 1 0.02273,0.02067 1.2067256,1.2067256 0 0 1 0.02274,0.02119 1.2067256,1.2067256 0 0 1 0.0217,0.02222 1.2067256,1.2067256 0 0 1 0.0217,0.02222 1.2067256,1.2067256 0 0 1 0.02067,0.02325 1.2067256,1.2067256 0 0 1 0.02015,0.02377 1.2067256,1.2067256 0 0 1 0.01964,0.02377 1.2067256,1.2067256 0 0 1 0.01912,0.02481 1.2067256,1.2067256 0 0 1 0.01808,0.02532 1.2067256,1.2067256 0 0 1 0.01809,0.02532 1.2067256,1.2067256 0 0 1 0.01654,0.02584 1.2067256,1.2067256 0 0 1 0.01654,0.02687 1.2067256,1.2067256 0 0 1 0.01551,0.02635 1.2067256,1.2067256 0 0 1 0.01499,0.02739 1.2067256,1.2067256 0 0 1 0.01447,0.02791 1.2067256,1.2067256 0 0 1 0.01344,0.02791 1.2067256,1.2067256 0 0 1 0.01292,0.02842 1.2067256,1.2067256 0 0 1 0.01188,0.02842 1.2067256,1.2067256 0 0 1 0.01137,0.02894 1.2067256,1.2067256 0 0 1 0.01085,0.02894 1.2067256,1.2067256 0 0 1 0.0098,0.02997 1.2067256,1.2067256 0 0 1 0.0088,0.02946 1.2067256,1.2067256 0 0 1 0.0083,0.02997 1.2067256,1.2067256 0 0 1 0.0078,0.02997 1.2067256,1.2067256 0 0 1 0.0067,0.03049 1.2067256,1.2067256 0 0 1 0.0057,0.03049 1.2067256,1.2067256 0 0 1 0.0052,0.03049 1.2067256,1.2067256 0 0 1 0.0047,0.03101 1.2067256,1.2067256 0 0 1 0.0036,0.03101 1.2067256,1.2067256 0 0 1 0.0026,0.03049 1.2067256,1.2067256 0 0 1 0.0021,0.03101 1.2067256,1.2067256 0 0 1 0.0016,0.03152 1.2067256,1.2067256 0 0 1 0,0.03101 1.2067256,1.2067256 0 0 1 -0.0031,0.08992 1.2067256,1.2067256 0 0 1 -0.01034,0.08992 1.2067256,1.2067256 0 0 1 -0.01654,0.08837 1.2067256,1.2067256 0 0 1 -0.02325,0.08733 1.2067256,1.2067256 0 0 1 -0.02997,0.08527 1.2067256,1.2067256 0 0 1 -0.03617,0.08268 1.2067256,1.2067256 0 0 1 -0.04237,0.07958 1.2067256,1.2067256 0 0 1 -0.04754,0.07648 1.2067256,1.2067256 0 0 1 -0.05374,0.07286 1.2067256,1.2067256 0 0 1 -0.05891,0.06821 1.2067256,1.2067256 0 0 1 -0.06408,0.06356 1.2067256,1.2067256 0 0 1 -0.06821,0.05891 1.2067256,1.2067256 0 0 1 -0.07235,0.05374 1.2067256,1.2067256 0 0 1 -0.07648,0.04806 1.2067256,1.2067256 0 0 1 -0.0801,0.04237 1.2067256,1.2067256 0 0 1 -0.08268,0.03566 1.2067256,1.2067256 0 0 1 -0.08526,0.02997 1.2067256,1.2067256 0 0 1 -0.08682,0.02326 1.2067256,1.2067256 0 0 1 -0.08888,0.01705 1.2067256,1.2067256 0 0 1 -0.0894,0.0098 1.2067256,1.2067256 0 0 1 -0.09043,0.0036 1.2067256,1.2067256 0 0 1 -0.08992,-0.0036 1.2067256,1.2067256 0 0 1 -0.08992,-0.0098 1.2067256,1.2067256 0 0 1 -0.08837,-0.01705 1.2067256,1.2067256 0 0 1 -0.08733,-0.02326 1.2067256,1.2067256 0 0 1 -0.08527,-0.02997 1.2067256,1.2067256 0 0 1 -0.08268,-0.03566 1.2067256,1.2067256 0 0 1 -0.07958,-0.04237 1.2067256,1.2067256 0 0 1 -0.07648,-0.04806 1.2067256,1.2067256 0 0 1 -0.07286,-0.05374 1.2067256,1.2067256 0 0 1 -0.06821,-0.05891 1.2067256,1.2067256 0 0 1 -0.06408,-0.06356 1.2067256,1.2067256 0 0 1 -0.05891,-0.06821 1.2067256,1.2067256 0 0 1 -0.05323,-0.07286 1.2067256,1.2067256 0 0 1 -0.04806,-0.07648 1.2067256,1.2067256 0 0 1 -0.04238,-0.07958 1.2067256,1.2067256 0 0 1 -0.03617,-0.08268 1.2067256,1.2067256 0 0 1 -0.02945,-0.08527 1.2067256,1.2067256 0 0 1 -0.02325,-0.08733 1.2067256,1.2067256 0 0 1 -0.01705,-0.08837 1.2067256,1.2067256 0 0 1 -0.0098,-0.08992 1.2067256,1.2067256 0 0 1 -0.0036,-0.08992 1.2067256,1.2067256 0 0 1 0.0036,-0.09043 1.2067256,1.2067256 0 0 1 0.0098,-0.0894 1.2067256,1.2067256 0 0 1 0.01705,-0.08888 1.2067256,1.2067256 0 0 1 0.02325,-0.08733 1.2067256,1.2067256 0 0 1 0.02945,-0.08475 1.2067256,1.2067256 0 0 1 0.03617,-0.0832 1.2067256,1.2067256 0 0 1 0.04238,-0.07958 1.2067256,1.2067256 0 0 1 0.04806,-0.07648 1.2067256,1.2067256 0 0 1 0.05323,-0.07235 1.2067256,1.2067256 0 0 1 0.05891,-0.06873 1.2067256,1.2067256 0 0 1 0.06408,-0.06356 1.2067256,1.2067256 0 0 1 0.06821,-0.05891 1.2067256,1.2067256 0 0 1 0.07286,-0.05374 1.2067256,1.2067256 0 0 1 0.07648,-0.04806 1.2067256,1.2067256 0 0 1 0.07958,-0.04186 1.2067256,1.2067256 0 0 1 0.08268,-0.03617 1.2067256,1.2067256 0 0 1 0.08527,-0.02997 1.2067256,1.2067256 0 0 1 0.08733,-0.02325 1.2067256,1.2067256 0 0 1 0.08837,-0.01654 1.2067256,1.2067256 0 0 1 0.08992,-0.01034 1.2067256,1.2067256 0 0 1 0.08992,-0.0031 z" />
        <rect
           style="opacity:0.2;mix-blend-mode:overlay;fill:url(#linearGradient61306);fill-opacity:1;stroke:none;stroke-width:0.55007;stroke-linecap:square"
           id="rect61284"
           width="10.583333"
           height="10.583333"
           x="76.839661"
           y="15.135873"
           ry="2.2002783"
           rx="2.2002783" />
        <rect
           style="opacity:0.2;mix-blend-mode:overlay;fill:url(#linearGradient61308);fill-opacity:1;stroke:none;stroke-width:0.55007;stroke-linecap:square"
           id="rect61286"
           width="10.583333"
           height="10.583333"
           x="-87.422997"
           y="-25.719206"
           ry="2.2002783"
           rx="2.2002783"
           transform="scale(-1)" />
      </g>
    </g>
  </g>
</svg>
