<?xml version="1.0" encoding="UTF-8" standalone="no"?>
<!-- Created with Inkscape (http://www.inkscape.org/) -->

<svg
   width="48"
   height="48"
   viewBox="0 0 12.7 12.7"
   version="1.1"
   id="svg39233"
   sodipodi:docname="org.inkscape.Rhythmbox.svg"
   inkscape:export-filename="/home/bokehlicia/.local/share/icons/Testeo/48x48/apps/google-chrome.png"
   inkscape:export-xdpi="96"
   inkscape:export-ydpi="96"
   inkscape:version="1.1 (c68e22c387, 2021-05-23)"
   xmlns:inkscape="http://www.inkscape.org/namespaces/inkscape"
   xmlns:sodipodi="http://sodipodi.sourceforge.net/DTD/sodipodi-0.dtd"
   xmlns:xlink="http://www.w3.org/1999/xlink"
   xmlns="http://www.w3.org/2000/svg"
   xmlns:svg="http://www.w3.org/2000/svg">
  <sodipodi:namedview
     id="namedview39235"
     pagecolor="#505050"
     bordercolor="#eeeeee"
     borderopacity="1"
     inkscape:pageshadow="0"
     inkscape:pageopacity="0"
     inkscape:pagecheckerboard="0"
     inkscape:document-units="mm"
     showgrid="false"
     units="px"
     inkscape:zoom="5.3664983"
     inkscape:cx="30.280453"
     inkscape:cy="10.900963"
     inkscape:window-width="1920"
     inkscape:window-height="1048"
     inkscape:window-x="0"
     inkscape:window-y="32"
     inkscape:window-maximized="1"
     inkscape:current-layer="layer1" />
  <defs
     id="defs39230">
    <filter
       style="color-interpolation-filters:sRGB"
       inkscape:label="Blur"
       id="filter33679-3"
       x="-0.0022677166"
       y="-0.070299215"
       width="1.0045354"
       height="1.1405984">
      <feGaussianBlur
         stdDeviation="0.01 0.31"
         result="blur"
         id="feGaussianBlur33677-6" />
    </filter>
    <linearGradient
       inkscape:collect="always"
       xlink:href="#linearGradient2864"
       id="linearGradient23364"
       gradientUnits="userSpaceOnUse"
       gradientTransform="translate(-88.351988,-41.53283)"
       x1="6.4202108"
       y1="0.96924353"
       x2="6.4202108"
       y2="11.540484" />
    <linearGradient
       inkscape:collect="always"
       id="linearGradient2864">
      <stop
         style="stop-color:#000000;stop-opacity:1"
         offset="0"
         id="stop2860" />
      <stop
         style="stop-color:#fefefe;stop-opacity:0"
         offset="1"
         id="stop2862" />
    </linearGradient>
    <linearGradient
       inkscape:collect="always"
       xlink:href="#linearGradient2084"
       id="linearGradient23362"
       gradientUnits="userSpaceOnUse"
       gradientTransform="translate(75.651988,28.77636)"
       x1="6.4202108"
       y1="0.96924353"
       x2="6.4202108"
       y2="11.540484" />
    <linearGradient
       inkscape:collect="always"
       id="linearGradient2084">
      <stop
         style="stop-color:#ffffff;stop-opacity:1"
         offset="0"
         id="stop2080" />
      <stop
         style="stop-color:#000000;stop-opacity:0"
         offset="1"
         id="stop2082" />
    </linearGradient>
    <filter
       style="color-interpolation-filters:sRGB"
       inkscape:label="Blur"
       id="filter28088"
       x="-0.0026961122"
       y="-0.10325213"
       width="1.0053922"
       height="1.2065043">
      <feGaussianBlur
         stdDeviation="0.01 0.21"
         result="blur"
         id="feGaussianBlur28086" />
    </filter>
    <filter
       style="color-interpolation-filters:sRGB"
       inkscape:label="Blur"
       id="filter28084"
       x="-0.0060264863"
       y="-0.96286104"
       width="1.012053"
       height="2.9257221">
      <feGaussianBlur
         stdDeviation="0.01 0.21"
         result="blur"
         id="feGaussianBlur28082" />
    </filter>
    <filter
       style="color-interpolation-filters:sRGB"
       inkscape:label="Blur"
       id="filter28022"
       x="-0.0013954129"
       y="-0.15667452"
       width="1.0027908"
       height="1.313349">
      <feGaussianBlur
         stdDeviation="0.01 0.21"
         result="blur"
         id="feGaussianBlur28020" />
    </filter>
  </defs>
  <g
     inkscape:label="Calque 1"
     inkscape:groupmode="layer"
     id="layer1">
    <g
       id="g29156"
       transform="translate(-75.651989,-29.676329)">
      <rect
         style="opacity:0.2;mix-blend-mode:overlay;fill:#000000;fill-opacity:1;stroke:none;stroke-width:0.55007;stroke-linecap:square;filter:url(#filter33679-3)"
         id="rect23352"
         width="10.583333"
         height="10.583333"
         x="-31.628342"
         y="-3.2242157"
         ry="2.2002783"
         rx="2.2002783"
         transform="rotate(180,27.832657,18.889723)" />
      <rect
         style="opacity:1;fill:#d63031;fill-opacity:1;stroke:none;stroke-width:0.55007;stroke-linecap:square"
         id="rect23354"
         width="10.583333"
         height="10.583333"
         x="76.71032"
         y="29.891163"
         ry="2.2002783"
         rx="2.2002783" />
      <rect
         style="opacity:0.2;mix-blend-mode:overlay;fill:url(#linearGradient23364);fill-opacity:1;stroke:none;stroke-width:0.55007;stroke-linecap:square"
         id="rect23356"
         width="10.583333"
         height="10.583333"
         x="-87.293663"
         y="-40.474499"
         ry="2.2002783"
         rx="2.2002783"
         transform="scale(-1)" />
      <rect
         style="opacity:0.2;mix-blend-mode:overlay;fill:url(#linearGradient23362);fill-opacity:1;stroke:none;stroke-width:0.55007;stroke-linecap:square"
         id="rect23358"
         width="10.583333"
         height="10.583333"
         x="76.71032"
         y="29.834692"
         ry="2.2002783"
         rx="2.2002783" />
      <path
         id="path23360"
         style="color:#000000;opacity:0.2;mix-blend-mode:soft-light;fill:#ffffff;stroke-width:1;stroke-linecap:square;-inkscape-stroke:none"
         d="m 78.9102,29.891148 c -0.0381,0 -0.0761,0.0012 -0.11369,0.0031 -0.0376,0.0019 -0.0751,0.0045 -0.11213,0.0083 -0.0371,0.0037 -0.0736,0.0084 -0.11007,0.01395 -0.0365,0.0056 -0.0726,0.01182 -0.10852,0.01912 -0.0359,0.0073 -0.0718,0.01579 -0.10697,0.02481 -0.0352,0.009 -0.0699,0.01877 -0.10439,0.02946 -0.0345,0.01068 -0.0686,0.02232 -0.10232,0.03462 -0.0337,0.0123 -0.0673,0.02539 -0.10025,0.03927 -0.0329,0.01388 -0.0651,0.02851 -0.0971,0.04393 -0.0321,0.01541 -0.0639,0.03116 -0.0951,0.04806 -0.0312,0.0169 -0.0617,0.03489 -0.092,0.05323 -0.0302,0.01834 -0.0602,0.03711 -0.0894,0.05684 -0.0293,0.01973 -0.0581,0.04041 -0.0863,0.06149 -0.0282,0.02108 -0.0555,0.04273 -0.0827,0.06511 -0.0272,0.02238 -0.0541,0.0456 -0.0801,0.06925 -0.026,0.02364 -0.0516,0.04749 -0.0765,0.07235 -0.0248,0.02486 -0.0487,0.05046 -0.0724,0.07648 -0.0237,0.02602 -0.0469,0.05243 -0.0692,0.07958 -0.0224,0.02715 -0.044,0.05498 -0.0651,0.0832 -0.0211,0.02822 -0.0418,0.05705 -0.0615,0.0863 -0.0197,0.02925 -0.0385,0.05916 -0.0568,0.0894 -0.0183,0.03024 -0.0358,0.0608 -0.0527,0.09198 -0.0169,0.03118 -0.0332,0.06301 -0.0486,0.09508 -0.0154,0.03208 -0.03,0.06423 -0.0439,0.09715 -0.0139,0.03293 -0.027,0.06652 -0.0393,0.100252 -0.0123,0.03373 -0.0239,0.06783 -0.0346,0.10232 -0.0107,0.03449 -0.0204,0.06918 -0.0295,0.104386 -0.009,0.0352 -0.0175,0.0711 -0.0248,0.10697 -0.007,0.03587 -0.0136,0.07203 -0.0191,0.108521 -0.006,0.0365 -0.0102,0.073 -0.0139,0.110071 -0.004,0.03707 -0.006,0.07453 -0.008,0.112138 -0.002,0.03761 -0.003,0.0756 -0.003,0.113688 v 6.182567 c 0,0.03809 10e-4,0.07608 0.003,0.113688 0.002,0.03761 0.004,0.07507 0.008,0.112137 0.004,0.03707 0.008,0.07357 0.0139,0.110071 0.006,0.0365 0.0118,0.07265 0.0191,0.108521 0.007,0.03587 0.0158,0.07177 0.0248,0.10697 0.009,0.0352 0.0188,0.0699 0.0295,0.104386 0.0107,0.03449 0.0223,0.06859 0.0346,0.10232 0.0123,0.03373 0.0254,0.06733 0.0393,0.100252 0.0139,0.03293 0.0285,0.06508 0.0439,0.09715 0.0154,0.03208 0.0317,0.0639 0.0486,0.09509 0.0169,0.03118 0.0344,0.06174 0.0527,0.09198 0.0183,0.03024 0.0371,0.06015 0.0568,0.0894 0.0197,0.02925 0.0404,0.05808 0.0615,0.0863 0.0211,0.02822 0.0427,0.05605 0.0651,0.0832 0.0224,0.02715 0.0456,0.05356 0.0692,0.07958 0.0237,0.02602 0.0475,0.05162 0.0724,0.07648 0.0249,0.02485 0.0505,0.0487 0.0765,0.07235 0.026,0.02364 0.0529,0.04686 0.0801,0.06925 0.0271,0.02238 0.0545,0.04403 0.0827,0.06511 0.0282,0.02108 0.0571,0.04176 0.0863,0.06149 0.0293,0.01973 0.0592,0.03851 0.0894,0.05684 0.0302,0.01834 0.0608,0.03633 0.092,0.05323 0.0312,0.0169 0.063,0.03265 0.0951,0.04806 0.0321,0.01541 0.0642,0.03004 0.0971,0.04392 0.0329,0.01388 0.0665,0.02697 0.10025,0.03927 0.0337,0.01231 0.0678,0.02394 0.10232,0.03462 0.0345,0.01068 0.0692,0.02044 0.10439,0.02946 0.0352,0.009 0.0711,0.0175 0.10697,0.0248 0.0359,0.0073 0.072,0.01358 0.10852,0.01912 0.0365,0.0055 0.073,0.01021 0.11007,0.01395 0.0371,0.0037 0.0745,0.0064 0.11213,0.0083 0.0376,0.0019 0.0756,0.0031 0.11369,0.0031 h 6.18257 c 0.0381,0 0.0761,-0.0012 0.11369,-0.0031 0.0376,-0.0019 0.0751,-0.0045 0.11214,-0.0083 0.0371,-0.0037 0.0736,-0.0084 0.11007,-0.01395 0.0365,-0.0055 0.0727,-0.01182 0.10852,-0.01912 0.0359,-0.0073 0.0718,-0.01579 0.10697,-0.0248 0.0352,-0.009 0.0699,-0.01877 0.10439,-0.02946 0.0345,-0.01068 0.0686,-0.02232 0.10232,-0.03462 0.0337,-0.01231 0.0673,-0.02539 0.10025,-0.03927 0.0329,-0.01388 0.0651,-0.02851 0.0971,-0.04392 0.0321,-0.01541 0.0639,-0.03116 0.0951,-0.04806 0.0312,-0.0169 0.0617,-0.03489 0.092,-0.05323 0.0302,-0.01834 0.0601,-0.03711 0.0894,-0.05684 0.0293,-0.01973 0.0581,-0.04041 0.0863,-0.06149 0.0282,-0.02108 0.056,-0.04273 0.0832,-0.06511 0.0272,-0.02238 0.0536,-0.0456 0.0796,-0.06925 0.026,-0.02364 0.0516,-0.04749 0.0765,-0.07235 0.0248,-0.02486 0.0492,-0.05046 0.0729,-0.07648 0.0237,-0.02602 0.0464,-0.05243 0.0687,-0.07958 0.0224,-0.02715 0.044,-0.05498 0.0651,-0.0832 0.0211,-0.02822 0.0418,-0.05705 0.0615,-0.0863 0.0197,-0.02926 0.0385,-0.05916 0.0568,-0.0894 0.0183,-0.03024 0.0363,-0.0608 0.0532,-0.09198 0.0169,-0.03118 0.0327,-0.06301 0.0481,-0.09509 0.0154,-0.03208 0.0306,-0.06423 0.0444,-0.09715 0.0139,-0.03293 0.027,-0.06652 0.0393,-0.100252 0.0123,-0.03373 0.0234,-0.06783 0.0341,-0.10232 0.0107,-0.03449 0.021,-0.06918 0.03,-0.104386 0.009,-0.0352 0.017,-0.0711 0.0243,-0.10697 0.007,-0.03587 0.0136,-0.07203 0.0191,-0.108521 0.006,-0.0365 0.0102,-0.073 0.0139,-0.110071 0.004,-0.03707 0.007,-0.07453 0.009,-0.112137 0.002,-0.03761 0.003,-0.0756 0.003,-0.113688 v -6.182569 c 0,-0.03809 -7.9e-4,-0.07608 -0.003,-0.113688 -0.002,-0.03761 -0.005,-0.07507 -0.009,-0.112138 -0.004,-0.03707 -0.008,-0.07357 -0.0139,-0.110071 -0.006,-0.0365 -0.0118,-0.07265 -0.0191,-0.108521 -0.007,-0.03587 -0.0153,-0.07177 -0.0243,-0.10697 -0.009,-0.0352 -0.0193,-0.0699 -0.03,-0.104386 -0.0107,-0.03449 -0.0218,-0.06859 -0.0341,-0.10232 -0.0123,-0.03373 -0.0254,-0.06733 -0.0393,-0.100252 -0.0139,-0.03293 -0.029,-0.06508 -0.0444,-0.09715 -0.0154,-0.03208 -0.0312,-0.0639 -0.0481,-0.09509 -0.0169,-0.03118 -0.0349,-0.06174 -0.0532,-0.09198 -0.0183,-0.03024 -0.0371,-0.06015 -0.0568,-0.0894 -0.0197,-0.02926 -0.0404,-0.05808 -0.0615,-0.0863 -0.0211,-0.02822 -0.0427,-0.05605 -0.0651,-0.0832 -0.0224,-0.02715 -0.0451,-0.05356 -0.0687,-0.07958 -0.0237,-0.02602 -0.048,-0.05162 -0.0729,-0.07648 -0.0249,-0.02486 -0.0505,-0.0487 -0.0765,-0.07235 -0.026,-0.02364 -0.0524,-0.04686 -0.0796,-0.06925 -0.0272,-0.02238 -0.055,-0.04403 -0.0832,-0.06511 -0.0282,-0.02108 -0.057,-0.04176 -0.0863,-0.06149 -0.0293,-0.01973 -0.0592,-0.03851 -0.0894,-0.05684 -0.0302,-0.01834 -0.0608,-0.03633 -0.092,-0.05323 -0.0312,-0.0169 -0.063,-0.03265 -0.0951,-0.04806 -0.0321,-0.01541 -0.0642,-0.03004 -0.0971,-0.04392 -0.0329,-0.01388 -0.0665,-0.02697 -0.10025,-0.03927 -0.0337,-0.0123 -0.0678,-0.02394 -0.10232,-0.03462 -0.0345,-0.01068 -0.0692,-0.02044 -0.10439,-0.02946 -0.0352,-0.009 -0.0711,-0.0175 -0.10697,-0.02481 -0.0359,-0.0073 -0.072,-0.01357 -0.10852,-0.01912 -0.0365,-0.0056 -0.073,-0.01021 -0.11007,-0.01395 -0.0371,-0.0037 -0.0745,-0.0064 -0.11214,-0.0083 -0.0376,-0.0019 -0.0756,-0.0031 -0.11369,-0.0031 z m 5.3e-4,0.264067 h 6.18154 c 1.07695,0 1.9358,0.858848 1.9358,1.935799 v 6.183602 c 0,1.07695 -0.85885,1.935283 -1.9358,1.935283 h -6.18154 c -1.07695,0 -1.93528,-0.858333 -1.93528,-1.935283 v -6.183602 c 0,-1.076951 0.85833,-1.935799 1.93528,-1.935799 z" />
      <path
         id="path23388"
         style="opacity:0.9;fill:#ffffff;fill-opacity:1;stroke:none;stroke-width:0.605888;stroke-linecap:square"
         d="m 84.416034,32.929451 v 3.255099 a 0.96516654,1.1906249 75 0 0 -0.898652,-0.06149 0.96516654,1.1906249 75 0 0 -0.900203,1.24075 0.96516654,1.1906249 75 0 0 1.399913,0.623734 0.96516654,1.1906249 75 0 0 0.924492,-0.976685 h 0.0036 v -4.149617 z" />
      <path
         id="path27018"
         style="opacity:0.5;fill:#aa0000;stroke-width:0.529167;stroke-linecap:square;stroke-linejoin:round"
         d="m 84.416034,32.929451 v -0.01033 l -3.492291,0.459404 v 10e-4 z" />
      <path
         id="path28060"
         style="opacity:0.2;fill:#000000;fill-opacity:1;stroke:none;stroke-width:1.44501;stroke-linecap:square;stroke-linejoin:round;stroke-miterlimit:4;stroke-dasharray:none;filter:url(#filter28088)"
         d="m 321.05273,139.30273 h -0.0137 a 3.6478736,4.4999996 75 0 1 -0.0547,0.40039 3.6478736,4.4999996 75 0 1 -0.10547,0.39844 3.6478736,4.4999996 75 0 1 -0.15625,0.39063 3.6478736,4.4999996 75 0 1 -0.20313,0.3789 3.6478736,4.4999996 75 0 1 -0.25,0.36329 3.6478736,4.4999996 75 0 1 -0.29297,0.34179 3.6478736,4.4999996 75 0 1 -0.33008,0.31641 3.6478736,4.4999996 75 0 1 -0.36718,0.28906 3.6478736,4.4999996 75 0 1 -0.39844,0.25781 3.6478736,4.4999996 75 0 1 -0.42578,0.22266 3.6478736,4.4999996 75 0 1 -0.44727,0.18555 3.6478736,4.4999996 75 0 1 -0.46289,0.14648 3.6478736,4.4999996 75 0 1 -0.0117,0.004 3.6478736,4.4999996 75 0 1 -0.01,0.002 3.6478736,4.4999996 75 0 1 -0.0117,0.004 3.6478736,4.4999996 75 0 1 -0.0117,0.002 3.6478736,4.4999996 75 0 1 -0.0117,0.004 3.6478736,4.4999996 75 0 1 -0.01,0.002 3.6478736,4.4999996 75 0 1 -0.0117,0.002 3.6478736,4.4999996 75 0 1 -0.0117,0.004 3.6478736,4.4999996 75 0 1 -0.0117,0.002 3.6478736,4.4999996 75 0 1 -0.0117,0.004 3.6478736,4.4999996 75 0 1 -0.01,0.002 3.6478736,4.4999996 75 0 1 -0.0117,0.004 3.6478736,4.4999996 75 0 1 -0.0117,0.002 3.6478736,4.4999996 75 0 1 -0.0117,0.002 3.6478736,4.4999996 75 0 1 -0.01,0.004 3.6478736,4.4999996 75 0 1 -0.0117,0.002 3.6478736,4.4999996 75 0 1 -0.0117,0.002 3.6478736,4.4999996 75 0 1 -0.0117,0.004 3.6478736,4.4999996 75 0 1 -0.0117,0.002 3.6478736,4.4999996 75 0 1 -0.01,0.002 3.6478736,4.4999996 75 0 1 -0.0117,0.004 3.6478736,4.4999996 75 0 1 -0.0117,0.002 3.6478736,4.4999996 75 0 1 -0.0117,0.002 3.6478736,4.4999996 75 0 1 -0.0117,0.002 3.6478736,4.4999996 75 0 1 -0.01,0.004 3.6478736,4.4999996 75 0 1 -0.0117,0.002 3.6478736,4.4999996 75 0 1 -0.0117,0.002 3.6478736,4.4999996 75 0 1 -0.0117,0.002 3.6478736,4.4999996 75 0 1 -0.0117,0.002 3.6478736,4.4999996 75 0 1 -0.01,0.004 3.6478736,4.4999996 75 0 1 -0.0117,0.002 3.6478736,4.4999996 75 0 1 -0.0117,0.002 3.6478736,4.4999996 75 0 1 -0.36718,0.0605 3.6478736,4.4999996 75 0 1 -0.36719,0.0332 3.6478736,4.4999996 75 0 1 -0.36719,0.01 3.6478736,4.4999996 75 0 1 -0.36328,-0.0156 3.6478736,4.4999996 75 0 1 -0.35547,-0.041 3.6478736,4.4999996 75 0 1 -0.34961,-0.0664 3.6478736,4.4999996 75 0 1 -0.33789,-0.0918 3.6478736,4.4999996 75 0 1 -0.32422,-0.11524 3.6478736,4.4999996 75 0 1 -0.30859,-0.13672 3.6478736,4.4999996 75 0 1 -0.29297,-0.16015 3.6478736,4.4999996 75 0 1 -0.27148,-0.18164 3.6478736,4.4999996 75 0 1 -0.25,-0.20117 3.6478736,4.4999996 75 0 1 -0.22852,-0.21876 3.6478736,4.4999996 75 0 1 -0.20312,-0.23632 3.6478736,4.4999996 75 0 1 -0.17774,-0.25196 3.6478736,4.4999996 75 0 1 -0.15039,-0.26367 3.6478736,4.4999996 75 0 1 -0.12109,-0.27734 3.6478736,4.4999996 75 0 1 -0.0937,-0.28711 3.6478736,4.4999996 75 0 1 -0.0566,-0.28711 3.6478736,4.4999996 75 0 0 -0.0449,0.47461 3.6478736,4.4999996 75 0 0 0.10157,0.8125 3.6478736,4.4999996 75 0 0 0.0937,0.28711 3.6478736,4.4999996 75 0 0 0.12109,0.27734 3.6478736,4.4999996 75 0 0 0.15039,0.26367 3.6478736,4.4999996 75 0 0 0.17774,0.25196 3.6478736,4.4999996 75 0 0 0.20312,0.23632 3.6478736,4.4999996 75 0 0 0.22852,0.21876 3.6478736,4.4999996 75 0 0 0.25,0.20117 3.6478736,4.4999996 75 0 0 0.27148,0.18164 3.6478736,4.4999996 75 0 0 0.29297,0.16015 3.6478736,4.4999996 75 0 0 0.30859,0.13672 3.6478736,4.4999996 75 0 0 0.32422,0.11524 3.6478736,4.4999996 75 0 0 0.33789,0.0918 3.6478736,4.4999996 75 0 0 0.34961,0.0664 3.6478736,4.4999996 75 0 0 0.35547,0.041 3.6478736,4.4999996 75 0 0 0.36328,0.0156 3.6478736,4.4999996 75 0 0 0.36719,-0.01 3.6478736,4.4999996 75 0 0 0.36719,-0.0332 3.6478736,4.4999996 75 0 0 0.36718,-0.0605 3.6478736,4.4999996 75 0 0 0.36133,-0.084 3.6478736,4.4999996 75 0 0 0.91016,-0.33203 3.6478736,4.4999996 75 0 0 0.82422,-0.48047 3.6478736,4.4999996 75 0 0 0.69726,-0.60547 3.6478736,4.4999996 75 0 0 0.54297,-0.70508 3.6478736,4.4999996 75 0 0 0.35938,-0.76953 3.6478736,4.4999996 75 0 0 0.16015,-0.79883 h 0.0137 z"
         transform="matrix(0.26458333,0,0,0.26458333,0,0.15367458)" />
      <path
         id="path27710"
         style="opacity:0.9;fill:#ffffff;fill-opacity:1;stroke:none;stroke-width:0.382326;stroke-linecap:square;stroke-linejoin:round;stroke-miterlimit:4;stroke-dasharray:none"
         d="m 80.394576,33.44415 v 3.268017 a 0.96516654,1.1906249 75 0 0 -0.206706,-0.07183 0.96516654,1.1906249 75 0 0 -0.224276,-0.03462 0.96516654,1.1906249 75 0 0 -0.232545,0.0041 0.96516654,1.1906249 75 0 0 -0.232027,0.04238 0.96516654,1.1906249 75 0 0 -0.249597,0.09198 0.96516654,1.1906249 75 0 0 -0.224793,0.134358 0.96516654,1.1906249 75 0 0 -0.188102,0.1695 0.96516654,1.1906249 75 0 0 -0.142627,0.196371 0.96516654,1.1906249 75 0 0 -0.08992,0.213424 0.96516654,1.1906249 75 0 0 -0.03204,0.220141 0.96516654,1.1906249 75 0 0 0.02687,0.214974 0.96516654,1.1906249 75 0 0 0.02481,0.07596 0.96516654,1.1906249 75 0 0 0.03204,0.07338 0.96516654,1.1906249 75 0 0 0.03979,0.06976 0.96516654,1.1906249 75 0 0 0.04703,0.06666 0.96516654,1.1906249 75 0 0 0.05374,0.06253 0.96516654,1.1906249 75 0 0 0.06046,0.05788 0.96516654,1.1906249 75 0 0 0.06615,0.05323 0.96516654,1.1906249 75 0 0 0.07183,0.04806 0.96516654,1.1906249 75 0 0 0.07752,0.04237 0.96516654,1.1906249 75 0 0 0.08165,0.03617 0.96516654,1.1906249 75 0 0 0.08578,0.03049 0.96516654,1.1906249 75 0 0 0.0894,0.02429 0.96516654,1.1906249 75 0 0 0.0925,0.01757 0.96516654,1.1906249 75 0 0 0.09405,0.01085 0.96516654,1.1906249 75 0 0 0.09612,0.0041 0.96516654,1.1906249 75 0 0 0.09715,-0.0026 0.96516654,1.1906249 75 0 0 0.09715,-0.0088 0.96516654,1.1906249 75 0 0 0.09715,-0.01602 0.96516654,1.1906249 75 0 0 0.0956,-0.02222 0.96516654,1.1906249 75 0 0 0.262001,-0.09767 0.96516654,1.1906249 75 0 0 0.233577,-0.144177 0.96516654,1.1906249 75 0 0 0.192236,-0.18242 0.96516654,1.1906249 75 0 0 0.140043,-0.210322 0.96516654,1.1906249 75 0 0 0.08062,-0.226859 0.96516654,1.1906249 75 0 0 0.01654,-0.230995 V 33.37852 l 1.053682,-0.138494 z" />
      <path
         id="path28062"
         style="opacity:0.2;fill:#000000;fill-opacity:1;stroke:none;stroke-width:1.44501;stroke-linecap:square;stroke-linejoin:round;stroke-miterlimit:4;stroke-dasharray:none;filter:url(#filter28084)"
         d="m 305.85352,141.30078 a 3.6478736,4.4999996 75 0 1 -0.0625,0.4375 3.6478736,4.4999996 75 0 1 -0.12305,0.4336 3.6478736,4.4999996 75 0 1 -0.18164,0.42382 3.6478736,4.4999996 75 0 1 -0.23828,0.40821 3.6478736,4.4999996 75 0 1 -0.29102,0.38671 3.6478736,4.4999996 75 0 1 -0.3418,0.36133 3.6478736,4.4999996 75 0 1 -0.38476,0.32813 3.6478736,4.4999996 75 0 1 -0.42383,0.29297 3.6478736,4.4999996 75 0 1 -0.45898,0.25195 3.6478736,4.4999996 75 0 1 -0.0312,0.0156 3.6478736,4.4999996 75 0 1 -0.0312,0.0156 3.6478736,4.4999996 75 0 1 -0.0332,0.0137 3.6478736,4.4999996 75 0 1 -0.0312,0.0156 3.6478736,4.4999996 75 0 1 -0.0312,0.0137 3.6478736,4.4999996 75 0 1 -0.0332,0.0137 3.6478736,4.4999996 75 0 1 -0.0312,0.0156 3.6478736,4.4999996 75 0 1 -0.0332,0.0137 3.6478736,4.4999996 75 0 1 -0.0332,0.0137 3.6478736,4.4999996 75 0 1 -0.0312,0.0137 3.6478736,4.4999996 75 0 1 -0.0332,0.0117 3.6478736,4.4999996 75 0 1 -0.0332,0.0137 3.6478736,4.4999996 75 0 1 -0.0332,0.0137 3.6478736,4.4999996 75 0 1 -0.0312,0.0117 3.6478736,4.4999996 75 0 1 -0.0332,0.0117 3.6478736,4.4999996 75 0 1 -0.0332,0.0137 3.6478736,4.4999996 75 0 1 -0.0332,0.0117 3.6478736,4.4999996 75 0 1 -0.0332,0.0117 3.6478736,4.4999996 75 0 1 -0.0332,0.0117 3.6478736,4.4999996 75 0 1 -0.0352,0.0117 3.6478736,4.4999996 75 0 1 -0.0332,0.01 3.6478736,4.4999996 75 0 1 -0.0332,0.0117 3.6478736,4.4999996 75 0 1 -0.0332,0.0117 3.6478736,4.4999996 75 0 1 -0.0352,0.01 3.6478736,4.4999996 75 0 1 -0.0332,0.01 3.6478736,4.4999996 75 0 1 -0.0332,0.01 3.6478736,4.4999996 75 0 1 -0.0352,0.01 3.6478736,4.4999996 75 0 1 -0.0332,0.01 3.6478736,4.4999996 75 0 1 -0.0352,0.01 3.6478736,4.4999996 75 0 1 -0.0332,0.01 3.6478736,4.4999996 75 0 1 -0.0117,0.004 3.6478736,4.4999996 75 0 1 -0.0117,0.002 3.6478736,4.4999996 75 0 1 -0.0117,0.004 3.6478736,4.4999996 75 0 1 -0.0117,0.002 3.6478736,4.4999996 75 0 1 -0.0117,0.004 3.6478736,4.4999996 75 0 1 -0.0117,0.002 3.6478736,4.4999996 75 0 1 -0.0117,0.004 3.6478736,4.4999996 75 0 1 -0.01,0.002 3.6478736,4.4999996 75 0 1 -0.0117,0.004 3.6478736,4.4999996 75 0 1 -0.0117,0.002 3.6478736,4.4999996 75 0 1 -0.0117,0.004 3.6478736,4.4999996 75 0 1 -0.0117,0.002 3.6478736,4.4999996 75 0 1 -0.0117,0.004 3.6478736,4.4999996 75 0 1 -0.0117,0.002 3.6478736,4.4999996 75 0 1 -0.0117,0.002 3.6478736,4.4999996 75 0 1 -0.0117,0.004 3.6478736,4.4999996 75 0 1 -0.0117,0.002 3.6478736,4.4999996 75 0 1 -0.0117,0.002 3.6478736,4.4999996 75 0 1 -0.0117,0.004 3.6478736,4.4999996 75 0 1 -0.0117,0.002 3.6478736,4.4999996 75 0 1 -0.0117,0.002 3.6478736,4.4999996 75 0 1 -0.0117,0.004 3.6478736,4.4999996 75 0 1 -0.0117,0.002 3.6478736,4.4999996 75 0 1 -0.0117,0.002 3.6478736,4.4999996 75 0 1 -0.0117,0.004 3.6478736,4.4999996 75 0 1 -0.0117,0.002 3.6478736,4.4999996 75 0 1 -0.0117,0.002 3.6478736,4.4999996 75 0 1 -0.0117,0.002 3.6478736,4.4999996 75 0 1 -0.0117,0.004 3.6478736,4.4999996 75 0 1 -0.0117,0.002 3.6478736,4.4999996 75 0 1 -0.0117,0.002 3.6478736,4.4999996 75 0 1 -0.36718,0.0605 3.6478736,4.4999996 75 0 1 -0.36719,0.0332 3.6478736,4.4999996 75 0 1 -0.36719,0.01 3.6478736,4.4999996 75 0 1 -0.36328,-0.0156 3.6478736,4.4999996 75 0 1 -0.35547,-0.041 3.6478736,4.4999996 75 0 1 -0.34961,-0.0664 3.6478736,4.4999996 75 0 1 -0.33789,-0.0918 3.6478736,4.4999996 75 0 1 -0.32422,-0.11524 3.6478736,4.4999996 75 0 1 -0.30859,-0.13672 3.6478736,4.4999996 75 0 1 -0.29297,-0.16015 3.6478736,4.4999996 75 0 1 -0.27148,-0.18164 3.6478736,4.4999996 75 0 1 -0.25,-0.20117 3.6478736,4.4999996 75 0 1 -0.22852,-0.21876 3.6478736,4.4999996 75 0 1 -0.20312,-0.23632 3.6478736,4.4999996 75 0 1 -0.17774,-0.25196 3.6478736,4.4999996 75 0 1 -0.15039,-0.26367 3.6478736,4.4999996 75 0 1 -0.12109,-0.27734 3.6478736,4.4999996 75 0 1 -0.0937,-0.28711 3.6478736,4.4999996 75 0 1 -0.0566,-0.28711 3.6478736,4.4999996 75 0 0 -0.0449,0.47461 3.6478736,4.4999996 75 0 0 0.10157,0.8125 3.6478736,4.4999996 75 0 0 0.0937,0.28711 3.6478736,4.4999996 75 0 0 0.12109,0.27734 3.6478736,4.4999996 75 0 0 0.15039,0.26367 3.6478736,4.4999996 75 0 0 0.17774,0.25196 3.6478736,4.4999996 75 0 0 0.20312,0.23632 3.6478736,4.4999996 75 0 0 0.22852,0.21876 3.6478736,4.4999996 75 0 0 0.25,0.20117 3.6478736,4.4999996 75 0 0 0.27148,0.18164 3.6478736,4.4999996 75 0 0 0.29297,0.16015 3.6478736,4.4999996 75 0 0 0.30859,0.13672 3.6478736,4.4999996 75 0 0 0.32422,0.11524 3.6478736,4.4999996 75 0 0 0.33789,0.0918 3.6478736,4.4999996 75 0 0 0.34961,0.0664 3.6478736,4.4999996 75 0 0 0.35547,0.041 3.6478736,4.4999996 75 0 0 0.36328,0.0156 3.6478736,4.4999996 75 0 0 0.36719,-0.01 3.6478736,4.4999996 75 0 0 0.36719,-0.0332 3.6478736,4.4999996 75 0 0 0.36718,-0.0605 3.6478736,4.4999996 75 0 0 0.36133,-0.084 3.6478736,4.4999996 75 0 0 0.99024,-0.36914 3.6478736,4.4999996 75 0 0 0.88281,-0.54492 3.6478736,4.4999996 75 0 0 0.72656,-0.68946 3.6478736,4.4999996 75 0 0 0.5293,-0.79492 3.6478736,4.4999996 75 0 0 0.30469,-0.85742 3.6478736,4.4999996 75 0 0 0.0625,-0.87305 z"
         transform="matrix(0.26458333,0,0,0.26458333,0,0.15367458)" />
      <path
         id="path28217"
         style="opacity:0.2;fill:#000000;fill-opacity:1;stroke:none;stroke-width:1.44501;stroke-linecap:square;stroke-linejoin:round;stroke-miterlimit:4;stroke-dasharray:none;filter:url(#filter28084)"
         d="m 305.85352,126.56445 v 0.01 l 3.98242,-0.52344 z"
         transform="matrix(0.26458333,0,0,0.26458333,0,0.15367458)" />
      <path
         id="path27996"
         style="opacity:0.2;fill:#000000;fill-opacity:1;stroke:none;stroke-width:2.28997;stroke-linecap:square;filter:url(#filter28022)"
         d="m 321.05273,123.61914 -2,0.25781 v -0.0391 l -13.19921,1.73633 v 0.004 l -2,0.25782 v 1 l 2,-0.25782 v -0.004 l 13.19921,-1.73633 v 0.0391 l 2,-0.25781 z"
         transform="matrix(0.26458333,0,0,0.26458333,0,0.15367458)" />
      <path
         id="path27955"
         style="opacity:0.9;fill:#ffffff;fill-opacity:1;stroke:none;stroke-width:0.605888;stroke-linecap:square"
         d="m 80.394576,33.447767 0.529167,-0.06822 v -0.001 l 3.492291,-0.459404 v 0.01033 l 0.529166,-0.06821 v -1.03818 c -2.3e-4,-0.150333 -0.124843,-0.268512 -0.271301,-0.264583 -0.0098,2.62e-4 -0.01953,0.0012 -0.02945,0.0026 l -4.019394,0.529167 c -0.131575,0.01712 -0.230137,0.129315 -0.230476,0.261998 z" />
    </g>
  </g>
</svg>
