<?xml version="1.0" encoding="UTF-8" standalone="no"?>
<!-- Created with Inkscape (http://www.inkscape.org/) -->

<svg
   width="48"
   height="48"
   viewBox="0 0 12.7 12.7"
   version="1.1"
   id="svg39233"
   sodipodi:docname="org.inkscape.Contacts.svg"
   inkscape:export-filename="/home/bokehlicia/.local/share/icons/Testeo/48x48/apps/google-chrome.png"
   inkscape:export-xdpi="96"
   inkscape:export-ydpi="96"
   inkscape:version="1.1 (c68e22c387, 2021-05-23)"
   xmlns:inkscape="http://www.inkscape.org/namespaces/inkscape"
   xmlns:sodipodi="http://sodipodi.sourceforge.net/DTD/sodipodi-0.dtd"
   xmlns:xlink="http://www.w3.org/1999/xlink"
   xmlns="http://www.w3.org/2000/svg"
   xmlns:svg="http://www.w3.org/2000/svg">
  <sodipodi:namedview
     id="namedview39235"
     pagecolor="#505050"
     bordercolor="#eeeeee"
     borderopacity="1"
     inkscape:pageshadow="0"
     inkscape:pageopacity="0"
     inkscape:pagecheckerboard="0"
     inkscape:document-units="mm"
     showgrid="false"
     units="px"
     inkscape:zoom="5.3664983"
     inkscape:cx="30.280453"
     inkscape:cy="10.900963"
     inkscape:window-width="1920"
     inkscape:window-height="1048"
     inkscape:window-x="0"
     inkscape:window-y="32"
     inkscape:window-maximized="1"
     inkscape:current-layer="layer1" />
  <defs
     id="defs39230">
    <filter
       style="color-interpolation-filters:sRGB"
       inkscape:label="Blur"
       id="filter33679"
       x="-0.0022677166"
       y="-0.070299215"
       width="1.0045354"
       height="1.1405984">
      <feGaussianBlur
         stdDeviation="0.01 0.31"
         result="blur"
         id="feGaussianBlur33677" />
    </filter>
    <filter
       style="color-interpolation-filters:sRGB"
       inkscape:label="Blur"
       id="filter29572"
       x="-0.0074367595"
       y="-0.12923641"
       width="1.0148735"
       height="1.2584728">
      <feGaussianBlur
         stdDeviation="0.01 0.11"
         result="blur"
         id="feGaussianBlur29570" />
    </filter>
    <filter
       style="color-interpolation-filters:sRGB"
       inkscape:label="Blur"
       id="filter29568"
       x="-0.0037131814"
       y="-0.35302613"
       width="1.0074264"
       height="1.7060523">
      <feGaussianBlur
         stdDeviation="0.01 0.11"
         result="blur"
         id="feGaussianBlur29566" />
    </filter>
    <linearGradient
       inkscape:collect="always"
       xlink:href="#linearGradient2864"
       id="linearGradient22805"
       gradientUnits="userSpaceOnUse"
       gradientTransform="translate(-108.58893,-46.319396)"
       x1="6.4202108"
       y1="0.96924353"
       x2="6.4202108"
       y2="11.540484" />
    <linearGradient
       inkscape:collect="always"
       id="linearGradient2864">
      <stop
         style="stop-color:#000000;stop-opacity:1"
         offset="0"
         id="stop2860" />
      <stop
         style="stop-color:#fefefe;stop-opacity:0"
         offset="1"
         id="stop2862" />
    </linearGradient>
    <filter
       style="color-interpolation-filters:sRGB"
       inkscape:label="Blur"
       id="filter29564"
       x="-0.0022677166"
       y="-0.024944883"
       width="1.0045354"
       height="1.0498898">
      <feGaussianBlur
         stdDeviation="0.01 0.11"
         result="blur"
         id="feGaussianBlur29562" />
    </filter>
    <linearGradient
       inkscape:collect="always"
       xlink:href="#linearGradient2084"
       id="linearGradient22803"
       gradientUnits="userSpaceOnUse"
       gradientTransform="translate(104.98149,28.991186)"
       x1="6.4202108"
       y1="0.96924353"
       x2="6.4202108"
       y2="11.540484" />
    <linearGradient
       inkscape:collect="always"
       id="linearGradient2084">
      <stop
         style="stop-color:#ffffff;stop-opacity:1"
         offset="0"
         id="stop2080" />
      <stop
         style="stop-color:#000000;stop-opacity:0"
         offset="1"
         id="stop2082" />
    </linearGradient>
  </defs>
  <g
     inkscape:label="Calque 1"
     inkscape:groupmode="layer"
     id="layer1">
    <g
       id="g29971"
       transform="translate(-104.98149,-29.785524)">
      <rect
         style="opacity:0.2;mix-blend-mode:overlay;fill:#000000;fill-opacity:1;stroke:none;stroke-width:0.55007;stroke-linecap:square;filter:url(#filter33679)"
         id="rect22785"
         width="10.583333"
         height="10.583333"
         x="-31.628342"
         y="-3.2242157"
         ry="2.2002783"
         rx="2.2002783"
         transform="rotate(180,42.497407,18.968905)" />
      <rect
         style="fill:#0984e3;fill-opacity:1;stroke:none;stroke-width:0.55007;stroke-linecap:square"
         id="rect22787"
         width="10.583333"
         height="10.583333"
         x="106.03983"
         y="30.049524"
         ry="2.2002783"
         rx="2.2002783" />
      <path
         id="path22789"
         style="color:#000000;opacity:0.2;mix-blend-mode:soft-light;fill:#ffffff;stroke-width:1;stroke-linecap:square;-inkscape-stroke:none"
         d="m 108.2397,30.049508 c -0.0381,0 -0.0761,0.0012 -0.11369,0.0031 -0.0376,0.0019 -0.0751,0.0045 -0.11213,0.0083 -0.0371,0.0037 -0.0736,0.0084 -0.11007,0.01395 -0.0365,0.0056 -0.0726,0.01182 -0.10852,0.01912 -0.0359,0.0073 -0.0718,0.01579 -0.10697,0.02481 -0.0352,0.009 -0.0699,0.01877 -0.10439,0.02946 -0.0345,0.01068 -0.0686,0.02232 -0.10232,0.03462 -0.0337,0.0123 -0.0673,0.02539 -0.10025,0.03927 -0.0329,0.01388 -0.0651,0.02851 -0.0971,0.04393 -0.0321,0.01541 -0.0639,0.03116 -0.0951,0.04806 -0.0312,0.0169 -0.0617,0.03489 -0.092,0.05323 -0.0302,0.01834 -0.0602,0.03711 -0.0894,0.05684 -0.0293,0.01973 -0.0581,0.04041 -0.0863,0.06149 -0.0282,0.02108 -0.0555,0.04273 -0.0827,0.06511 -0.0272,0.02238 -0.0541,0.0456 -0.0801,0.06925 -0.026,0.02364 -0.0516,0.04749 -0.0765,0.07235 -0.0248,0.02486 -0.0487,0.05046 -0.0724,0.07648 -0.0237,0.02602 -0.0469,0.05243 -0.0692,0.07958 -0.0224,0.02715 -0.044,0.05498 -0.0651,0.0832 -0.0211,0.02822 -0.0418,0.05705 -0.0615,0.0863 -0.0197,0.02925 -0.0385,0.05916 -0.0568,0.0894 -0.0183,0.03024 -0.0358,0.0608 -0.0527,0.09198 -0.0169,0.03118 -0.0332,0.06301 -0.0486,0.09508 -0.0154,0.03208 -0.03,0.06423 -0.0439,0.09715 -0.0139,0.03293 -0.027,0.06652 -0.0393,0.100252 -0.0123,0.03373 -0.0239,0.06783 -0.0346,0.10232 -0.0107,0.03449 -0.0204,0.06918 -0.0295,0.104386 -0.009,0.0352 -0.0175,0.0711 -0.0248,0.10697 -0.007,0.03587 -0.0136,0.07203 -0.0191,0.108521 -0.006,0.0365 -0.0102,0.073 -0.0139,0.110071 -0.004,0.03707 -0.006,0.07453 -0.008,0.112138 -0.002,0.03761 -0.003,0.0756 -0.003,0.113688 v 6.182567 c 0,0.03809 0.001,0.07608 0.003,0.113688 0.002,0.03761 0.004,0.07507 0.008,0.112137 0.004,0.03707 0.008,0.07357 0.0139,0.110071 0.006,0.0365 0.0118,0.07265 0.0191,0.108521 0.007,0.03587 0.0158,0.07177 0.0248,0.10697 0.009,0.0352 0.0188,0.0699 0.0295,0.104386 0.0107,0.03449 0.0223,0.06859 0.0346,0.10232 0.0123,0.03373 0.0254,0.06733 0.0393,0.100252 0.0139,0.03293 0.0285,0.06508 0.0439,0.09715 0.0154,0.03208 0.0317,0.0639 0.0486,0.09509 0.0169,0.03118 0.0344,0.06174 0.0527,0.09198 0.0183,0.03024 0.0371,0.06015 0.0568,0.0894 0.0197,0.02925 0.0404,0.05808 0.0615,0.0863 0.0211,0.02822 0.0427,0.05605 0.0651,0.0832 0.0224,0.02715 0.0456,0.05356 0.0692,0.07958 0.0237,0.02602 0.0475,0.05162 0.0724,0.07648 0.0249,0.02485 0.0505,0.0487 0.0765,0.07235 0.026,0.02364 0.0529,0.04686 0.0801,0.06925 0.0271,0.02238 0.0545,0.04403 0.0827,0.06511 0.0282,0.02108 0.0571,0.04176 0.0863,0.06149 0.0293,0.01973 0.0592,0.03851 0.0894,0.05684 0.0302,0.01834 0.0608,0.03633 0.092,0.05323 0.0312,0.0169 0.063,0.03265 0.0951,0.04806 0.0321,0.01541 0.0642,0.03004 0.0971,0.04392 0.0329,0.01388 0.0665,0.02697 0.10025,0.03927 0.0337,0.01231 0.0678,0.02394 0.10232,0.03462 0.0345,0.01068 0.0692,0.02044 0.10439,0.02946 0.0352,0.009 0.0711,0.0175 0.10697,0.0248 0.0359,0.0073 0.072,0.01358 0.10852,0.01912 0.0365,0.0055 0.073,0.01021 0.11007,0.01395 0.0371,0.0037 0.0745,0.0064 0.11213,0.0083 0.0376,0.0019 0.0756,0.0031 0.11369,0.0031 h 6.18257 c 0.0381,0 0.0761,-0.0012 0.11369,-0.0031 0.0376,-0.0019 0.0751,-0.0045 0.11214,-0.0083 0.0371,-0.0037 0.0736,-0.0084 0.11007,-0.01395 0.0365,-0.0055 0.0727,-0.01182 0.10852,-0.01912 0.0359,-0.0073 0.0718,-0.01579 0.10697,-0.0248 0.0352,-0.009 0.0699,-0.01877 0.10439,-0.02946 0.0345,-0.01068 0.0686,-0.02232 0.10232,-0.03462 0.0337,-0.01231 0.0673,-0.02539 0.10025,-0.03927 0.0329,-0.01388 0.0651,-0.02851 0.0971,-0.04392 0.0321,-0.01541 0.0639,-0.03116 0.0951,-0.04806 0.0312,-0.0169 0.0617,-0.03489 0.092,-0.05323 0.0302,-0.01834 0.0601,-0.03711 0.0894,-0.05684 0.0293,-0.01973 0.0581,-0.04041 0.0863,-0.06149 0.0282,-0.02108 0.056,-0.04273 0.0832,-0.06511 0.0272,-0.02238 0.0536,-0.0456 0.0796,-0.06925 0.026,-0.02364 0.0516,-0.04749 0.0765,-0.07235 0.0248,-0.02486 0.0492,-0.05046 0.0729,-0.07648 0.0237,-0.02602 0.0464,-0.05243 0.0687,-0.07958 0.0224,-0.02715 0.044,-0.05498 0.0651,-0.0832 0.0211,-0.02822 0.0418,-0.05705 0.0615,-0.0863 0.0197,-0.02926 0.0385,-0.05916 0.0568,-0.0894 0.0183,-0.03024 0.0363,-0.0608 0.0532,-0.09198 0.0169,-0.03118 0.0327,-0.06301 0.0481,-0.09509 0.0154,-0.03208 0.0306,-0.06423 0.0444,-0.09715 0.0139,-0.03293 0.027,-0.06652 0.0393,-0.100252 0.0123,-0.03373 0.0234,-0.06783 0.0341,-0.10232 0.0107,-0.03449 0.021,-0.06918 0.03,-0.104386 0.009,-0.0352 0.017,-0.0711 0.0243,-0.10697 0.007,-0.03587 0.0136,-0.07203 0.0191,-0.108521 0.006,-0.0365 0.0102,-0.073 0.0139,-0.110071 0.004,-0.03707 0.007,-0.07453 0.009,-0.112137 0.002,-0.03761 0.003,-0.0756 0.003,-0.113688 v -6.182569 c 0,-0.03809 -7.9e-4,-0.07608 -0.003,-0.113688 -0.002,-0.03761 -0.005,-0.07507 -0.009,-0.112138 -0.004,-0.03707 -0.008,-0.07357 -0.0139,-0.110071 -0.006,-0.0365 -0.0118,-0.07265 -0.0191,-0.108521 -0.007,-0.03587 -0.0153,-0.07177 -0.0243,-0.10697 -0.009,-0.0352 -0.0193,-0.0699 -0.03,-0.104386 -0.0107,-0.03449 -0.0218,-0.06859 -0.0341,-0.10232 -0.0123,-0.03373 -0.0254,-0.06733 -0.0393,-0.100252 -0.0139,-0.03293 -0.029,-0.06508 -0.0444,-0.09715 -0.0154,-0.03208 -0.0312,-0.0639 -0.0481,-0.09509 -0.0169,-0.03118 -0.0349,-0.06174 -0.0532,-0.09198 -0.0183,-0.03024 -0.0371,-0.06015 -0.0568,-0.0894 -0.0197,-0.02926 -0.0404,-0.05808 -0.0615,-0.0863 -0.0211,-0.02822 -0.0427,-0.05605 -0.0651,-0.0832 -0.0224,-0.02715 -0.0451,-0.05356 -0.0687,-0.07958 -0.0237,-0.02602 -0.048,-0.05162 -0.0729,-0.07648 -0.0249,-0.02486 -0.0505,-0.0487 -0.0765,-0.07235 -0.026,-0.02364 -0.0524,-0.04686 -0.0796,-0.06925 -0.0272,-0.02238 -0.055,-0.04403 -0.0832,-0.06511 -0.0282,-0.02108 -0.057,-0.04176 -0.0863,-0.06149 -0.0293,-0.01973 -0.0592,-0.03851 -0.0894,-0.05684 -0.0302,-0.01834 -0.0608,-0.03633 -0.092,-0.05323 -0.0312,-0.0169 -0.063,-0.03265 -0.0951,-0.04806 -0.0321,-0.01541 -0.0642,-0.03004 -0.0971,-0.04392 -0.0329,-0.01388 -0.0665,-0.02697 -0.10025,-0.03927 -0.0337,-0.0123 -0.0678,-0.02394 -0.10232,-0.03462 -0.0345,-0.01068 -0.0692,-0.02044 -0.10439,-0.02946 -0.0352,-0.009 -0.0711,-0.0175 -0.10697,-0.02481 -0.0359,-0.0073 -0.072,-0.01357 -0.10852,-0.01912 -0.0365,-0.0056 -0.073,-0.01021 -0.11007,-0.01395 -0.0371,-0.0037 -0.0745,-0.0064 -0.11214,-0.0083 -0.0376,-0.0019 -0.0756,-0.0031 -0.11369,-0.0031 z m 5.3e-4,0.264067 h 6.18154 c 1.07695,0 1.9358,0.858848 1.9358,1.935799 v 6.183602 c 0,1.07695 -0.85885,1.935283 -1.9358,1.935283 h -6.18154 c -1.07695,0 -1.93528,-0.858333 -1.93528,-1.935283 v -6.183602 c 0,-1.076951 0.85833,-1.935799 1.93528,-1.935799 z" />
      <path
         id="path22791"
         style="opacity:0.2;fill:#000000;fill-opacity:1;stroke:none;stroke-width:0.576929;stroke-linecap:round;stroke-miterlimit:4;stroke-dasharray:none;stroke-opacity:1;filter:url(#filter29572)"
         d="m 109.79293,33.675462 a 1.6137858,1.9182575 0 0 0 -0.004,0.11679 1.6137858,1.9182575 0 0 0 1.61386,1.918229 1.6137858,1.9182575 0 0 0 1.61334,-1.918229 1.6137858,1.9182575 0 0 0 -0.003,-0.124539 c -5.3e-4,0.01132 -0.001,0.02291 -0.002,0.03411 -0.002,0.02813 -0.003,0.05597 -0.005,0.0832 -0.002,0.02723 -0.005,0.05375 -0.008,0.0801 -0.003,0.02635 -0.006,0.05255 -0.01,0.07803 -0.004,0.02548 -0.008,0.05031 -0.0119,0.07493 -0.004,0.02463 -0.009,0.04908 -0.0134,0.07286 -0.005,0.02379 -0.0105,0.04681 -0.016,0.06976 -0.005,0.02294 -0.0109,0.04556 -0.0171,0.0677 -0.006,0.02215 -0.0125,0.04377 -0.0191,0.06511 -0.007,0.02135 -0.014,0.04249 -0.0212,0.06305 -0.007,0.02056 -0.0145,0.04068 -0.0222,0.06046 -0.008,0.01979 -0.0156,0.03936 -0.0238,0.05839 -0.008,0.01902 -0.0162,0.03752 -0.0248,0.05581 -0.009,0.01831 -0.0178,0.03617 -0.0269,0.05374 -0.009,0.01757 -0.0179,0.03482 -0.0274,0.05168 -0.009,0.01685 -0.0196,0.03344 -0.0294,0.04961 -0.01,0.01617 -0.0198,0.03206 -0.03,0.04754 -0.0102,0.01548 -0.0205,0.03066 -0.031,0.04548 -0.0105,0.01482 -0.0212,0.02924 -0.032,0.04341 -0.0109,0.01418 -0.022,0.02781 -0.0331,0.04134 -0.0111,0.01352 -0.0222,0.02688 -0.0336,0.03979 -0.0114,0.01291 -0.023,0.02543 -0.0346,0.03772 -0.0116,0.0123 -0.0233,0.02447 -0.0351,0.03617 -0.0118,0.01172 -0.0237,0.02297 -0.0357,0.0341 -0.012,0.01114 -0.024,0.02199 -0.0362,0.03256 -0.0122,0.01056 -0.0244,0.02098 -0.0367,0.03101 -0.0123,0.01003 -0.0248,0.01945 -0.0372,0.02894 -0.0124,0.0095 -0.0247,0.01894 -0.0372,0.02791 -0.0125,0.009 -0.0252,0.01791 -0.0377,0.02635 -0.0126,0.0085 -0.0251,0.01633 -0.0377,0.02429 -0.0126,0.008 -0.0251,0.01577 -0.0377,0.02326 -0.0126,0.0075 -0.0251,0.01469 -0.0377,0.0217 -0.0126,0.007 -0.0252,0.01408 -0.0377,0.02066 -0.0126,0.0066 -0.0252,0.01296 -0.0377,0.01913 -0.0125,0.0062 -0.0248,0.01183 -0.0372,0.01757 -0.0124,0.0057 -0.0249,0.01119 -0.0372,0.01654 -0.0123,0.0053 -0.0245,0.01056 -0.0367,0.0155 -0.0122,0.0049 -0.0242,0.0099 -0.0362,0.01447 -0.012,0.0046 -0.0238,0.0087 -0.0357,0.01291 -0.0118,0.0042 -0.0235,0.0085 -0.0351,0.01241 -0.0116,0.0039 -0.0233,0.0073 -0.0346,0.01085 -0.0114,0.0035 -0.0225,0.0071 -0.0336,0.01034 -0.0111,0.0032 -0.0222,0.0064 -0.0331,0.0093 -0.0217,0.0058 -0.0427,0.01077 -0.0631,0.0155 -0.0204,0.0047 -0.04,0.0092 -0.0589,0.01291 -0.0189,0.0037 -0.037,0.007 -0.0543,0.0098 -0.0172,0.0029 -0.0337,0.0051 -0.0491,0.0072 -0.0154,0.0021 -0.0296,0.0042 -0.0429,0.0057 -0.0133,0.0016 -0.0257,0.0027 -0.0367,0.0036 -0.011,0.0011 -0.0209,0.0016 -0.0295,0.0021 -0.009,5.29e-4 -0.0158,7.94e-4 -0.0217,0.0011 -0.0118,5.3e-4 -0.0181,5.3e-4 -0.0181,5.3e-4 0,0 -0.006,-3.5e-5 -0.0181,-5.3e-4 -0.006,-2.4e-4 -0.0136,-5.29e-4 -0.0222,-0.0011 -0.009,-5.29e-4 -0.0184,-0.0016 -0.0295,-0.0026 -0.011,-0.0011 -0.0229,-0.0021 -0.0362,-0.0036 -0.0133,-0.0016 -0.028,-0.003 -0.0434,-0.0052 -0.0154,-0.0021 -0.0313,-0.0043 -0.0486,-0.0072 -0.0172,-0.0029 -0.0353,-0.0066 -0.0543,-0.01035 -0.0189,-0.0038 -0.039,-0.0076 -0.0594,-0.01241 -0.0204,-0.0048 -0.0414,-0.01013 -0.063,-0.01601 -0.0109,-0.0029 -0.0214,-0.0061 -0.0326,-0.0093 -0.0111,-0.0032 -0.0227,-0.0068 -0.0341,-0.01035 -0.0114,-0.0035 -0.0225,-0.007 -0.0341,-0.01085 -0.0116,-0.0039 -0.0233,-0.0082 -0.0351,-0.01241 -0.0118,-0.0042 -0.0242,-0.0083 -0.0362,-0.01291 -0.012,-0.0046 -0.024,-0.0095 -0.0362,-0.01447 -0.0122,-0.0049 -0.0244,-0.01016 -0.0367,-0.0155 -0.0123,-0.0053 -0.0248,-0.0108 -0.0372,-0.01654 -0.0124,-0.0057 -0.0247,-0.01193 -0.0372,-0.0181 -0.0125,-0.0062 -0.0252,-0.01252 -0.0377,-0.01913 -0.0126,-0.0066 -0.0251,-0.01312 -0.0377,-0.02016 -0.0126,-0.007 -0.0251,-0.01471 -0.0377,-0.02222 -0.0126,-0.0075 -0.0251,-0.01476 -0.0377,-0.02273 -0.0126,-0.008 -0.0252,-0.01635 -0.0377,-0.02479 -0.0126,-0.0085 -0.0252,-0.01738 -0.0377,-0.02635 -0.0125,-0.009 -0.0248,-0.01791 -0.0372,-0.02739 -0.0124,-0.0095 -0.0249,-0.01945 -0.0372,-0.02946 -0.0123,-0.01003 -0.0245,-0.02043 -0.0367,-0.031 -0.0122,-0.01058 -0.0242,-0.02143 -0.0362,-0.03256 -0.012,-0.01114 -0.0238,-0.02241 -0.0357,-0.03411 -0.0118,-0.01172 -0.0235,-0.02387 -0.0351,-0.03617 -0.0116,-0.0123 -0.0233,-0.02482 -0.0346,-0.03772 -0.0114,-0.01291 -0.0225,-0.02627 -0.0336,-0.03979 -0.0111,-0.01352 -0.0222,-0.02717 -0.0331,-0.04134 -0.0109,-0.01416 -0.0215,-0.02859 -0.032,-0.04341 -0.0105,-0.01482 -0.0208,-0.02999 -0.031,-0.04547 -0.0102,-0.01548 -0.0201,-0.03138 -0.03,-0.04754 -0.01,-0.01617 -0.0195,-0.03276 -0.0289,-0.04961 -0.009,-0.01685 -0.0189,-0.03411 -0.0279,-0.05168 -0.009,-0.01757 -0.0177,-0.03546 -0.0263,-0.05374 -0.009,-0.01828 -0.0171,-0.03679 -0.0253,-0.05581 -0.008,-0.01902 -0.0161,-0.03862 -0.0238,-0.0584 -0.008,-0.01976 -0.015,-0.03992 -0.0222,-0.06046 -0.007,-0.02053 -0.014,-0.0412 -0.0207,-0.06253 -0.007,-0.02133 -0.013,-0.04299 -0.0191,-0.06511 -0.006,-0.02212 -0.0121,-0.04476 -0.0176,-0.06769 -0.005,-0.02294 -0.0106,-0.04652 -0.0155,-0.07028 -0.005,-0.02376 -0.01,-0.04775 -0.0139,-0.07235 -0.004,-0.02461 -0.008,-0.04948 -0.0119,-0.07493 -0.004,-0.02545 -0.007,-0.05119 -0.01,-0.07752 -0.003,-0.02633 -0.005,-0.05341 -0.008,-0.08062 -0.002,-0.0272 -0.004,-0.05458 -0.006,-0.08268 -5.3e-4,-0.0086 -5.3e-4,-0.01762 -10e-4,-0.02635 z" />
      <path
         id="path22793"
         style="opacity:0.9;fill:#ffffff;stroke-width:0.57693;stroke-linecap:round"
         d="m 113.01675,33.527527 c 0,1.91865 -1.61378,1.918257 -1.61378,1.918257 0,0 -1.61379,-0.0018 -1.61379,-1.918257 0,-1.059426 0.72252,-1.918261 1.61379,-1.918258 0.89127,4e-6 1.61378,0.858836 1.61378,1.918258 z"
         sodipodi:nodetypes="scsss" />
      <path
         id="path22795"
         style="opacity:0.2;fill:#000000;fill-opacity:1;stroke:none;stroke-width:1.15937;stroke-linecap:round;stroke-miterlimit:4;stroke-dasharray:none;stroke-opacity:1;filter:url(#filter29568)"
         d="m 108.25176,38.878764 c -0.0156,0.07508 -0.0312,0.15019 -0.047,0.227374 0.0224,0.01826 0.045,0.03642 0.0682,0.05374 0.0268,0.02003 0.0538,0.03963 0.0817,0.05839 0.0278,0.01876 0.0565,0.03683 0.0853,0.05426 0.0288,0.01744 0.0577,0.03406 0.0873,0.05013 0.0297,0.01606 0.0599,0.03134 0.0904,0.04599 0.0305,0.01466 0.0612,0.02866 0.0925,0.04186 0.0313,0.0132 0.063,0.02604 0.0951,0.03772 0.0321,0.01169 0.0644,0.02241 0.0971,0.03256 0.0328,0.01016 0.0663,0.01934 0.0997,0.0279 0.0335,0.0086 0.0672,0.0163 0.10129,0.02326 0.0341,0.0069 0.0686,0.01333 0.10335,0.0186 0.0347,0.0053 0.0697,0.0099 0.1049,0.01344 0.0353,0.0036 0.0707,0.006 0.10646,0.0078 0.0358,0.0019 0.0718,0.0026 0.108,0.0026 h 3.75326 c 0.0362,0 0.0722,-7.93e-4 0.10801,-0.0026 0.0358,-0.0019 0.0712,-0.0042 0.10645,-0.0078 0.0353,-0.0036 0.0702,-0.0081 0.1049,-0.01344 0.0347,-0.0053 0.0692,-0.01167 0.10335,-0.0186 0.0341,-0.007 0.0678,-0.01468 0.10129,-0.02326 0.0335,-0.0086 0.067,-0.01775 0.0997,-0.0279 0.0328,-0.01016 0.0651,-0.02085 0.0971,-0.03256 0.0321,-0.01169 0.0638,-0.02453 0.0951,-0.03772 0.0313,-0.0132 0.062,-0.02721 0.0925,-0.04186 0.0305,-0.01466 0.0608,-0.02993 0.0904,-0.04599 0.0296,-0.01606 0.0591,-0.03269 0.0879,-0.05013 0.0288,-0.01744 0.0569,-0.0355 0.0847,-0.05426 0.0278,-0.01876 0.0548,-0.03835 0.0816,-0.05839 0.0268,-0.02003 0.0533,-0.04073 0.0791,-0.06201 0.0193,-0.01593 0.0381,-0.0325 0.0568,-0.04909 -0.0166,-0.07559 -0.0329,-0.148706 -0.0491,-0.22221 -0.003,0.0021 -0.005,0.0046 -0.008,0.0067 -0.0258,0.02127 -0.0523,0.04198 -0.0791,0.06201 -0.0268,0.02003 -0.0538,0.03963 -0.0816,0.05839 -0.0278,0.01876 -0.0559,0.03682 -0.0847,0.05426 -0.0288,0.01744 -0.0581,0.03407 -0.0879,0.05013 -0.0296,0.01606 -0.0599,0.03133 -0.0904,0.04599 -0.0305,0.01466 -0.0612,0.02866 -0.0925,0.04186 -0.0313,0.0132 -0.063,0.02604 -0.0951,0.03772 -0.032,0.01172 -0.0644,0.02241 -0.0971,0.03256 -0.0328,0.01016 -0.0662,0.01931 -0.0997,0.02791 -0.0335,0.0086 -0.0672,0.01625 -0.10129,0.02326 -0.0341,0.0069 -0.0686,0.01331 -0.10335,0.0186 -0.0347,0.0053 -0.0697,0.0098 -0.1049,0.01344 -0.0353,0.0036 -0.0707,0.0058 -0.10645,0.0078 -0.0357,0.0019 -0.0718,0.0026 -0.10801,0.0026 h -3.75295 c -0.0362,0 -0.0722,-7.94e-4 -0.10801,-0.0026 -0.0357,-0.0019 -0.0712,-0.0042 -0.10645,-0.0078 -0.0353,-0.0035 -0.0702,-0.0081 -0.1049,-0.01344 -0.0347,-0.0053 -0.0692,-0.01169 -0.10336,-0.0186 -0.0341,-0.007 -0.0678,-0.01466 -0.10128,-0.02326 -0.0335,-0.0086 -0.067,-0.01775 -0.0997,-0.02791 -0.0328,-0.01016 -0.0651,-0.02085 -0.0971,-0.03256 -0.0321,-0.01167 -0.0638,-0.02453 -0.0951,-0.03772 -0.0313,-0.0132 -0.062,-0.0272 -0.0925,-0.04186 -0.0305,-0.01466 -0.0608,-0.02993 -0.0904,-0.04599 -0.0296,-0.01606 -0.0586,-0.03268 -0.0873,-0.05013 -0.0288,-0.01744 -0.0575,-0.0355 -0.0853,-0.05426 -0.0278,-0.01876 -0.0548,-0.03836 -0.0816,-0.05839 -0.007,-0.0054 -0.0141,-0.01103 -0.0212,-0.01654 z" />
      <path
         id="path22797"
         style="opacity:0.9;fill:#ffffff;fill-opacity:1;stroke:none;stroke-width:1.15937;stroke-linecap:round;stroke-miterlimit:4;stroke-dasharray:none;stroke-opacity:1"
         d="m 108.20492,38.841555 c 0.0224,0.01826 0.045,0.03642 0.0682,0.05374 0.0268,0.02003 0.0538,0.03964 0.0816,0.05839 0.0278,0.01876 0.0565,0.03683 0.0853,0.05426 0.0287,0.01744 0.0577,0.03406 0.0873,0.05013 0.0297,0.01606 0.0599,0.03134 0.0904,0.04599 0.0305,0.01466 0.0612,0.02866 0.0925,0.04186 0.0313,0.0132 0.063,0.02604 0.0951,0.03772 0.0321,0.0117 0.0644,0.02241 0.0971,0.03256 0.0328,0.01016 0.0663,0.01934 0.0997,0.02791 0.0335,0.0086 0.0672,0.0163 0.10128,0.02326 0.0341,0.0069 0.0687,0.01333 0.10336,0.0186 0.0347,0.0053 0.0696,0.0099 0.1049,0.01344 0.0353,0.0036 0.0707,0.006 0.10646,0.0078 0.0358,0.0019 0.0718,0.0026 0.108,0.0026 h 3.75326 c 0.0362,0 0.0722,-7.94e-4 0.108,-0.0026 0.0357,-0.0019 0.0712,-0.0042 0.10645,-0.0078 0.0353,-0.0036 0.0702,-0.0081 0.10491,-0.01344 0.0347,-0.0053 0.0692,-0.01167 0.10335,-0.0186 0.0341,-0.007 0.0678,-0.01468 0.10129,-0.02326 0.0335,-0.0086 0.0669,-0.01775 0.0997,-0.02791 0.0328,-0.01016 0.0651,-0.02085 0.0971,-0.03256 0.0321,-0.01169 0.0638,-0.02453 0.0951,-0.03772 0.0313,-0.0132 0.062,-0.0272 0.0925,-0.04186 0.0305,-0.01466 0.0608,-0.02993 0.0904,-0.04599 0.0297,-0.01606 0.0591,-0.03269 0.0879,-0.05013 0.0288,-0.01744 0.0569,-0.0355 0.0847,-0.05426 0.0278,-0.01876 0.0548,-0.03835 0.0816,-0.05839 0.0268,-0.02003 0.0533,-0.04073 0.0791,-0.06201 0.0193,-0.01593 0.0381,-0.0325 0.0568,-0.04909 -0.36841,-1.676045 -0.56778,-2.853057 -3.22564,-2.853057 -2.65787,0 -2.88851,1.206494 -3.23805,2.910416 z"
         sodipodi:nodetypes="csssssssssssssssssssssssssssssczc" />
      <rect
         style="opacity:0.2;mix-blend-mode:overlay;fill:url(#linearGradient22805);fill-opacity:1;stroke:none;stroke-width:0.55007;stroke-linecap:square;filter:url(#filter29564)"
         id="rect22799"
         width="10.583333"
         height="10.583333"
         x="-107.53062"
         y="-45.26107"
         ry="2.2002783"
         rx="2.2002783"
         transform="rotate(180,4.5462747,-2.3141064)" />
      <rect
         style="opacity:0.2;mix-blend-mode:overlay;fill:url(#linearGradient22803);fill-opacity:1;stroke:none;stroke-width:0.55007;stroke-linecap:square"
         id="rect22801"
         width="10.583333"
         height="10.583333"
         x="106.03983"
         y="30.049524"
         ry="2.2002783"
         rx="2.2002783" />
    </g>
  </g>
</svg>
