<?xml version="1.0" encoding="UTF-8" standalone="no"?>
<!-- Created with Inkscape (http://www.inkscape.org/) -->

<svg
   width="48"
   height="48"
   viewBox="0 0 12.7 12.7"
   version="1.1"
   id="svg39233"
   sodipodi:docname="org.gnome.Nautilus.svg"
   inkscape:export-filename="/home/bokehlicia/.local/share/icons/Testeo/48x48/apps/google-chrome.png"
   inkscape:export-xdpi="96"
   inkscape:export-ydpi="96"
   inkscape:version="1.1 (c68e22c387, 2021-05-23)"
   xmlns:inkscape="http://www.inkscape.org/namespaces/inkscape"
   xmlns:sodipodi="http://sodipodi.sourceforge.net/DTD/sodipodi-0.dtd"
   xmlns:xlink="http://www.w3.org/1999/xlink"
   xmlns="http://www.w3.org/2000/svg"
   xmlns:svg="http://www.w3.org/2000/svg">
  <sodipodi:namedview
     id="namedview39235"
     pagecolor="#505050"
     bordercolor="#eeeeee"
     borderopacity="1"
     inkscape:pageshadow="0"
     inkscape:pageopacity="0"
     inkscape:pagecheckerboard="0"
     inkscape:document-units="mm"
     showgrid="false"
     units="px"
     inkscape:zoom="5.3664983"
     inkscape:cx="-17.609248"
     inkscape:cy="47.423848"
     inkscape:window-width="1920"
     inkscape:window-height="1048"
     inkscape:window-x="0"
     inkscape:window-y="32"
     inkscape:window-maximized="1"
     inkscape:current-layer="layer1" />
  <defs
     id="defs39230">
    <filter
       style="color-interpolation-filters:sRGB"
       inkscape:label="Blur"
       id="filter33679-36"
       x="-0.0022677166"
       y="-0.070299215"
       width="1.0045354"
       height="1.1405984">
      <feGaussianBlur
         stdDeviation="0.01 0.31"
         result="blur"
         id="feGaussianBlur33677-75" />
    </filter>
    <filter
       style="color-interpolation-filters:sRGB"
       inkscape:label="Blur"
       id="filter16454"
       x="-0.0029128176"
       y="-0.50314333"
       width="1.0058256"
       height="2.0062867">
      <feGaussianBlur
         stdDeviation="0.00014329173"
         result="fbSourceGraphic"
         id="feGaussianBlur16448" />
      <feColorMatrix
         result="fbSourceGraphicAlpha"
         in="fbSourceGraphic"
         values="0 0 0 -1 0 0 0 0 -1 0 0 0 0 -1 0 0 0 0 1 0"
         id="feColorMatrix16450" />
      <feGaussianBlur
         id="feGaussianBlur16452"
         stdDeviation="0.01 0.21"
         result="fbSourceGraphic"
         in="fbSourceGraphic" />
      <feColorMatrix
         result="fbSourceGraphicAlpha"
         in="fbSourceGraphic"
         values="0 0 0 -1 0 0 0 0 -1 0 0 0 0 -1 0 0 0 0 1 0"
         id="feColorMatrix16550" />
      <feGaussianBlur
         id="feGaussianBlur16552"
         stdDeviation="0.01 0.31"
         result="blur"
         in="fbSourceGraphic" />
    </filter>
    <filter
       style="color-interpolation-filters:sRGB"
       inkscape:label="Blur"
       id="filter37594-3"
       x="-4009.562"
       y="-0.60945949"
       width="8020.1241"
       height="2.218919">
      <feGaussianBlur
         stdDeviation="3.3313018"
         result="fbSourceGraphic"
         id="feGaussianBlur37592-5" />
      <feColorMatrix
         result="fbSourceGraphicAlpha"
         in="fbSourceGraphic"
         values="0 0 0 -1 0 0 0 0 -1 0 0 0 0 -1 0 0 0 0 1 0"
         id="feColorMatrix37903-6" />
      <feGaussianBlur
         id="feGaussianBlur37905-2"
         stdDeviation="0.01 0.21"
         result="blur"
         in="fbSourceGraphic" />
    </filter>
    <filter
       inkscape:collect="always"
       style="color-interpolation-filters:sRGB"
       id="filter16464"
       x="-0.00089796437"
       y="-0.060707384"
       width="1.0017959"
       height="1.1214148"
       inkscape:label="Blur">
      <feGaussianBlur
         inkscape:collect="always"
         stdDeviation="3.2113752e-06"
         id="feGaussianBlur16466"
         result="fbSourceGraphic" />
      <feColorMatrix
         result="fbSourceGraphicAlpha"
         in="fbSourceGraphic"
         values="0 0 0 -1 0 0 0 0 -1 0 0 0 0 -1 0 0 0 0 1 0"
         id="feColorMatrix16546" />
      <feGaussianBlur
         id="feGaussianBlur16548"
         stdDeviation="0.01 0.31"
         result="blur"
         in="fbSourceGraphic" />
    </filter>
    <linearGradient
       inkscape:collect="always"
       xlink:href="#linearGradient2864"
       id="linearGradient35388"
       gradientUnits="userSpaceOnUse"
       gradientTransform="translate(-117.68149,-11.863905)"
       x1="6.4202108"
       y1="0.96924353"
       x2="6.4202108"
       y2="11.540484" />
    <linearGradient
       inkscape:collect="always"
       id="linearGradient2864">
      <stop
         style="stop-color:#000000;stop-opacity:1"
         offset="0"
         id="stop2860" />
      <stop
         style="stop-color:#fefefe;stop-opacity:0"
         offset="1"
         id="stop2862" />
    </linearGradient>
    <linearGradient
       inkscape:collect="always"
       xlink:href="#linearGradient2084"
       id="linearGradient35386"
       gradientUnits="userSpaceOnUse"
       gradientTransform="translate(104.98147,-0.83609696)"
       x1="6.4202108"
       y1="0.96924353"
       x2="6.4202108"
       y2="11.540484" />
    <linearGradient
       inkscape:collect="always"
       id="linearGradient2084">
      <stop
         style="stop-color:#ffffff;stop-opacity:1"
         offset="0"
         id="stop2080" />
      <stop
         style="stop-color:#000000;stop-opacity:0"
         offset="1"
         id="stop2082" />
    </linearGradient>
  </defs>
  <g
     inkscape:label="Calque 1"
     inkscape:groupmode="layer"
     id="layer1">
    <g
       id="path1657" />
    <g
       id="path1659" />
    <g
       id="g21647"
       transform="translate(-104.98149,-0.00738588)">
      <rect
         style="opacity:0.2;mix-blend-mode:overlay;fill:#000000;fill-opacity:1;stroke:none;stroke-width:0.55007;stroke-linecap:square;filter:url(#filter33679-36)"
         id="rect38133"
         width="10.583333"
         height="10.583333"
         x="-31.628342"
         y="-3.2242157"
         ry="2.2002783"
         rx="2.2002783"
         transform="rotate(180,42.497407,4.0552515)" />
      <rect
         style="fill:#6c5ce7;fill-opacity:1;stroke:none;stroke-width:0.55007;stroke-linecap:square"
         id="rect35380"
         width="10.583333"
         height="10.583333"
         x="106.03983"
         y="0.22223713"
         ry="2.2002783"
         rx="2.2002783" />
      <path
         id="path37190"
         style="color:#000000;opacity:0.2;fill:#000000;stroke-width:3.77953;stroke-linecap:round;-inkscape-stroke:none;paint-order:stroke fill markers;filter:url(#filter16454)"
         d="m 412.66406,32.134766 v 0.974609 a 1.5,1.5 0 0 0 0.0176,0.232422 1.5,1.5 0 0 0 0.004,0.01563 1.5,1.5 0 0 0 0.0488,0.205078 1.5,1.5 0 0 0 0.0156,0.04687 1.5,1.5 0 0 0 0.0664,0.162109 1.5,1.5 0 0 0 0.0469,0.08203 1.5,1.5 0 0 0 0.0566,0.09375 1.5,1.5 0 0 0 0.0664,0.09375 1.5,1.5 0 0 0 0.0879,0.101562 1.5,1.5 0 0 0 0.0644,0.0625 1.5,1.5 0 0 0 0.0957,0.08203 1.5,1.5 0 0 0 0.0781,0.05859 1.5,1.5 0 0 0 0.10547,0.06641 1.5,1.5 0 0 0 0.0976,0.05469 1.5,1.5 0 0 0 0.11915,0.04883 1.5,1.5 0 0 0 0.0762,0.0293 1.5,1.5 0 0 0 0.18945,0.04492 1.5,1.5 0 0 0 0.0273,0.0059 1.5,1.5 0 0 0 0.006,0 1.5,1.5 0 0 0 0.22852,0.01953 h 13.59766 a 1.5,1.5 0 0 0 0.0762,-0.002 1.5,1.5 0 0 0 0.0527,-0.0039 1.5,1.5 0 0 0 0.0234,-0.002 1.5,1.5 0 0 0 0.0293,-0.0039 1.5,1.5 0 0 0 0.0859,-0.01367 1.5,1.5 0 0 0 0.004,0 1.5,1.5 0 0 0 0.0312,-0.0059 1.5,1.5 0 0 0 0.0566,-0.01367 1.5,1.5 0 0 0 0.0176,-0.0039 1.5,1.5 0 0 0 0.0254,-0.0078 1.5,1.5 0 0 0 0.0469,-0.01367 1.5,1.5 0 0 0 0.084,-0.02734 1.5,1.5 0 0 0 0.0586,-0.02539 1.5,1.5 0 0 0 0.0527,-0.02344 1.5,1.5 0 0 0 0.0176,-0.0078 1.5,1.5 0 0 0 0.0371,-0.01953 1.5,1.5 0 0 0 0.0293,-0.01563 1.5,1.5 0 0 0 0.0488,-0.02734 1.5,1.5 0 0 0 0.0176,-0.01172 1.5,1.5 0 0 0 0.0586,-0.03906 1.5,1.5 0 0 0 0.004,-0.0039 1.5,1.5 0 0 0 0.0684,-0.04883 1.5,1.5 0 0 0 0.0527,-0.04297 1.5,1.5 0 0 0 0.0176,-0.01563 1.5,1.5 0 0 0 0.0391,-0.03711 1.5,1.5 0 0 0 0.0274,-0.02539 1.5,1.5 0 0 0 0.0254,-0.02734 1.5,1.5 0 0 0 0.0351,-0.03906 1.5,1.5 0 0 0 0.0156,-0.01758 1.5,1.5 0 0 0 0.043,-0.05273 1.5,1.5 0 0 0 0.006,-0.0059 1.5,1.5 0 0 0 0.0488,-0.06641 1.5,1.5 0 0 0 0.0371,-0.06055 1.5,1.5 0 0 0 0.0117,-0.01758 1.5,1.5 0 0 0 0.01,-0.01953 1.5,1.5 0 0 0 0.0332,-0.05859 1.5,1.5 0 0 0 0.0195,-0.03711 1.5,1.5 0 0 0 0.0215,-0.04492 1.5,1.5 0 0 0 0.0117,-0.02344 1.5,1.5 0 0 0 0.0215,-0.06055 1.5,1.5 0 0 0 0.006,-0.01172 1.5,1.5 0 0 0 0.002,-0.0039 1.5,1.5 0 0 0 0.0234,-0.07031 1.5,1.5 0 0 0 0.0117,-0.03906 1.5,1.5 0 0 0 0.008,-0.03125 1.5,1.5 0 0 0 0.0156,-0.06445 1.5,1.5 0 0 0 0.002,-0.0098 1.5,1.5 0 0 0 0.006,-0.03125 1.5,1.5 0 0 0 0,-0.002 1.5,1.5 0 0 0 0,-0.002 1.5,1.5 0 0 0 0.0137,-0.08594 1.5,1.5 0 0 0 0.006,-0.06836 1.5,1.5 0 0 0 0.002,-0.02148 1.5,1.5 0 0 0 0,-0.002 1.5,1.5 0 0 0 0,-0.002 1.5,1.5 0 0 0 0,-0.002 1.5,1.5 0 0 0 0,-0.002 1.5,1.5 0 0 0 0,-0.002 1.5,1.5 0 0 0 0,-0.002 1.5,1.5 0 0 0 0,-0.002 1.5,1.5 0 0 0 0,-0.002 1.5,1.5 0 0 0 0.002,-0.07617 v -0.955078 a 1.5,1.5 0 0 1 -0.0176,0.197265 1.5,1.5 0 0 1 -0.0156,0.07227 1.5,1.5 0 0 1 -0.041,0.158203 1.5,1.5 0 0 1 -0.0391,0.101563 1.5,1.5 0 0 1 -0.0527,0.111328 1.5,1.5 0 0 1 -0.0488,0.09375 1.5,1.5 0 0 1 -0.1289,0.179687 1.5,1.5 0 0 1 -0.006,0.0078 1.5,1.5 0 0 0 -0.002,0.002 1.5,1.5 0 0 1 -0.17968,0.179687 1.5,1.5 0 0 1 -0.004,0.0039 1.5,1.5 0 0 1 -0.0254,0.01758 1.5,1.5 0 0 1 -0.16992,0.117187 1.5,1.5 0 0 1 -0.0586,0.03125 1.5,1.5 0 0 1 -0.15234,0.07227 1.5,1.5 0 0 1 -0.0879,0.0332 1.5,1.5 0 0 1 -0.16211,0.04102 1.5,1.5 0 0 1 -0.0664,0.01563 1.5,1.5 0 0 1 -0.24414,0.01953 h -13.58984 a 1.5,1.5 0 0 1 -0.23438,-0.01758 1.5,1.5 0 0 1 -0.0273,-0.0059 1.5,1.5 0 0 1 -0.19141,-0.04688 1.5,1.5 0 0 1 -0.0508,-0.01758 1.5,1.5 0 0 1 -0.15039,-0.06055 1.5,1.5 0 0 1 -0.0996,-0.05664 1.5,1.5 0 0 1 -0.082,-0.04883 1.5,1.5 0 0 1 -0.10742,-0.08008 1.5,1.5 0 0 1 -0.0703,-0.05859 1.5,1.5 0 0 1 -0.0937,-0.09375 1.5,1.5 0 0 1 -0.0664,-0.07813 1.5,1.5 0 0 1 -0.0625,-0.08203 1.5,1.5 0 0 1 -0.0781,-0.128907 1.5,1.5 0 0 1 -0.0352,-0.0625 1.5,1.5 0 0 1 -0.0527,-0.125 1.5,1.5 0 0 1 -0.0351,-0.0957 1.5,1.5 0 0 1 -0.0352,-0.148437 1.5,1.5 0 0 1 -0.0137,-0.0625 1.5,1.5 0 0 1 -0.0176,-0.205078 z"
         transform="scale(0.26458333)" />
      <path
         id="path9049"
         style="color:#000000;opacity:0.2;fill:#000000;stroke-width:3.77953;stroke-linecap:round;-inkscape-stroke:none;paint-order:stroke fill markers;filter:url(#filter37594-3)"
         d="M 415.66797,30.613281 V 16.677734 a 1.5,1.5 0 0 0 -0.002,-0.0098 v 13.945312 z"
         transform="scale(0.26458333)" />
      <path
         id="path35656"
         style="color:#000000;opacity:0.9;fill:#ffffff;stroke-width:3.77953;stroke-linecap:round;-inkscape-stroke:none;paint-order:stroke fill markers"
         d="m 426.25977,11.355469 3.0039,3.001953 v -3.033203 a 1.5,1.5 0 0 0 -1.50586,-1.4980471 1.5,1.5 0 0 0 -1.49804,1.4980471 z"
         transform="scale(0.26458333)" />
      <path
         id="path9312"
         style="color:#000000;opacity:0.9;fill:#ffffff;stroke-width:3.77953;stroke-linecap:round;-inkscape-stroke:none;paint-order:stroke fill markers"
         d="m 412.66211,18.226562 v 13.884766 a 1.5,1.5 0 0 0 0.0195,0.228516 1.5,1.5 0 0 0 0.0137,0.0625 1.5,1.5 0 0 0 0.0352,0.148437 1.5,1.5 0 0 0 0.0351,0.0957 1.5,1.5 0 0 0 0.0527,0.125 1.5,1.5 0 0 0 0.0352,0.0625 1.5,1.5 0 0 0 0.0781,0.128907 1.5,1.5 0 0 0 0.0625,0.08203 1.5,1.5 0 0 0 0.0664,0.07813 1.5,1.5 0 0 0 0.0937,0.09375 1.5,1.5 0 0 0 0.0703,0.05859 1.5,1.5 0 0 0 0.10742,0.08008 1.5,1.5 0 0 0 0.082,0.04883 1.5,1.5 0 0 0 0.0996,0.05664 1.5,1.5 0 0 0 0.15039,0.06055 1.5,1.5 0 0 0 0.0508,0.01758 1.5,1.5 0 0 0 0.19141,0.04688 1.5,1.5 0 0 0 0.0273,0.0059 1.5,1.5 0 0 0 0.23438,0.01758 h 13.58984 a 1.5,1.5 0 0 0 0.24414,-0.01953 1.5,1.5 0 0 0 0.0664,-0.01563 1.5,1.5 0 0 0 0.16211,-0.04102 1.5,1.5 0 0 0 0.0879,-0.0332 1.5,1.5 0 0 0 0.15234,-0.07227 1.5,1.5 0 0 0 0.0586,-0.03125 1.5,1.5 0 0 0 0.16992,-0.117187 1.5,1.5 0 0 0 0.0254,-0.01758 1.5,1.5 0 0 0 0.004,-0.0039 1.5,1.5 0 0 0 0.17968,-0.179687 1.5,1.5 0 0 0 0.002,-0.002 1.5,1.5 0 0 0 0.006,-0.0078 1.5,1.5 0 0 0 0.1289,-0.179687 1.5,1.5 0 0 0 0.0488,-0.09375 1.5,1.5 0 0 0 0.0527,-0.111328 1.5,1.5 0 0 0 0.0391,-0.101563 1.5,1.5 0 0 0 0.041,-0.158203 1.5,1.5 0 0 0 0.0156,-0.07227 1.5,1.5 0 0 0 0.0215,-0.240234 V 18.601562 l -3.0039,-3.005859 V 30.613281 H 415.66602 V 15.679688 a 1.5,1.5 0 0 0 -0.0547,-0.402344 z"
         transform="scale(0.26458333)" />
      <path
         id="path37196"
         style="color:#000000;opacity:0.2;fill:#000000;stroke-width:3.77953;stroke-linecap:round;-inkscape-stroke:none;paint-order:stroke fill markers;filter:url(#filter16464)"
         d="m 407.50391,20.371094 a 1.5,1.5 0 0 0 0.33984,1.554687 1.5,1.5 0 0 0 2.11914,0 l 10.81445,-10.80664 10.81446,10.80664 a 1.5,1.5 0 0 0 2.125,0 1.5,1.5 0 0 0 0.34765,-1.560547 1.5,1.5 0 0 1 -0.0254,0.07617 1.5,1.5 0 0 1 -0.0859,0.175782 1.5,1.5 0 0 1 -0.10937,0.164062 1.5,1.5 0 0 1 -0.12891,0.146484 1.5,1.5 0 0 1 -0.48632,0.326172 1.5,1.5 0 0 1 -0.57618,0.115235 1.5,1.5 0 0 1 -0.57617,-0.115235 1.5,1.5 0 0 1 -0.48633,-0.326172 l -10.8125,-10.816406 -10.8164,10.816406 a 1.5,1.5 0 0 1 -0.48633,0.324219 1.5,1.5 0 0 1 -0.57422,0.113281 1.5,1.5 0 0 1 -0.57227,-0.113281 1.5,1.5 0 0 1 -0.48632,-0.324219 1.5,1.5 0 0 1 -0.32422,-0.486328 1.5,1.5 0 0 1 -0.0137,-0.07031 z"
         transform="scale(0.26458333)" />
      <path
         id="path35839"
         style="color:#000000;opacity:0.9;fill:#ffffff;stroke-width:3.77953;stroke-linecap:round;-inkscape-stroke:none;paint-order:stroke fill markers"
         d="m 420.7793,6.4941406 a 1.5,1.5 0 0 0 -1.06055,0.4375 L 407.8418,18.808594 a 1.5,1.5 0 0 0 0,2.11914 1.5,1.5 0 0 0 2.11914,0 l 10.8164,-10.816406 10.8125,10.816406 a 1.5,1.5 0 0 0 2.125,0 1.5,1.5 0 0 0 0,-2.11914 L 421.89648,6.9921875 a 1.5,1.5 0 0 0 -0.0586,-0.060547 1.5,1.5 0 0 0 -1.05859,-0.4375 z"
         transform="scale(0.26458333)" />
      <path
         id="path38131"
         style="color:#000000;opacity:0.2;mix-blend-mode:soft-light;fill:#ffffff;stroke-width:1;stroke-linecap:square;-inkscape-stroke:none"
         d="m 108.2397,0.22222131 c -0.0381,0 -0.0761,0.0012 -0.11369,0.0031 -0.0376,0.0019 -0.0751,0.0045 -0.11213,0.0083 -0.0371,0.0037 -0.0736,0.0084 -0.11007,0.01395 -0.0365,0.0056 -0.0726,0.01182 -0.10852,0.01912 -0.0359,0.0073 -0.0718,0.01579 -0.10697,0.02481 -0.0352,0.009 -0.0699,0.01877 -0.10439,0.02946 -0.0345,0.01068 -0.0686,0.02232 -0.10232,0.03462 -0.0337,0.0123 -0.0673,0.02539 -0.10025,0.03927 -0.0329,0.01388 -0.0651,0.02851 -0.0971,0.04393 -0.0321,0.01541 -0.0639,0.03116 -0.0951,0.04806 -0.0312,0.0169 -0.0617,0.03489 -0.092,0.05323 -0.0302,0.01834 -0.0602,0.03711 -0.0894,0.05684 -0.0293,0.01973 -0.0581,0.04041 -0.0863,0.06149 -0.0282,0.02108 -0.0555,0.04273 -0.0827,0.06511 -0.0272,0.02238 -0.0541,0.0456 -0.0801,0.06925 -0.026,0.02364 -0.0516,0.04749 -0.0765,0.07235 -0.0248,0.02486 -0.0487,0.05046 -0.0724,0.07648 -0.0237,0.02602 -0.0469,0.05243 -0.0692,0.07958 -0.0224,0.02715 -0.044,0.05498 -0.0651,0.0832 -0.0211,0.02822 -0.0418,0.05705 -0.0615,0.0863 -0.0197,0.02925 -0.0385,0.05916 -0.0568,0.0894 -0.0183,0.03024 -0.0358,0.0608 -0.0527,0.09198 -0.0169,0.03118 -0.0332,0.06301 -0.0486,0.09508 -0.0154,0.03208 -0.03,0.06423 -0.0439,0.09715 -0.0139,0.03293 -0.027,0.06652 -0.0393,0.100252 -0.0123,0.03373 -0.0239,0.06783 -0.0346,0.10232 -0.0107,0.03449 -0.0204,0.06918 -0.0295,0.104386 -0.009,0.0352 -0.0175,0.0711 -0.0248,0.10697 -0.007,0.03587 -0.0136,0.07203 -0.0191,0.108521 -0.006,0.0365 -0.0102,0.073 -0.0139,0.110071 -0.004,0.03707 -0.006,0.07453 -0.008,0.112138 -0.002,0.03761 -0.003,0.0756 -0.003,0.113688 v 6.1825662 c 0,0.038092 0.001,0.076083 0.003,0.113688 0.002,0.037606 0.004,0.075065 0.008,0.1121378 0.004,0.037073 0.008,0.073575 0.0139,0.1100709 0.006,0.036496 0.0118,0.072648 0.0191,0.1085205 0.007,0.035873 0.0158,0.071766 0.0248,0.1069702 0.009,0.035204 0.0188,0.069896 0.0295,0.1043863 0.0107,0.034491 0.0223,0.068588 0.0346,0.1023194 0.0123,0.033732 0.0254,0.067325 0.0393,0.1002527 0.0139,0.03293 0.0285,0.06508 0.0439,0.09715 0.0154,0.03208 0.0317,0.0639 0.0486,0.09509 0.0169,0.03118 0.0344,0.06174 0.0527,0.09198 0.0183,0.03024 0.0371,0.06015 0.0568,0.0894 0.0197,0.02925 0.0404,0.05808 0.0615,0.0863 0.0211,0.02822 0.0427,0.05605 0.0651,0.0832 0.0224,0.02715 0.0456,0.05356 0.0692,0.07958 0.0237,0.02602 0.0475,0.05162 0.0724,0.07648 0.0249,0.02485 0.0505,0.0487 0.0765,0.07235 0.026,0.02364 0.0529,0.04686 0.0801,0.06925 0.0271,0.02238 0.0545,0.04403 0.0827,0.06511 0.0282,0.02108 0.0571,0.04176 0.0863,0.06149 0.0293,0.01973 0.0592,0.03851 0.0894,0.05684 0.0302,0.01834 0.0608,0.03633 0.092,0.05323 0.0312,0.0169 0.063,0.03265 0.0951,0.04806 0.0321,0.01541 0.0642,0.03004 0.0971,0.04392 0.0329,0.01388 0.0665,0.02697 0.10025,0.03927 0.0337,0.01231 0.0678,0.02394 0.10232,0.03462 0.0345,0.01068 0.0692,0.02044 0.10439,0.02946 0.0352,0.009 0.0711,0.0175 0.10697,0.0248 0.0359,0.0073 0.072,0.01358 0.10852,0.01912 0.0365,0.0055 0.073,0.01021 0.11007,0.01395 0.0371,0.0037 0.0745,0.0064 0.11213,0.0083 0.0376,0.0019 0.0756,0.0031 0.11369,0.0031 h 6.18257 c 0.0381,0 0.0761,-0.0012 0.11369,-0.0031 0.0376,-0.0019 0.0751,-0.0045 0.11214,-0.0083 0.0371,-0.0037 0.0736,-0.0084 0.11007,-0.01395 0.0365,-0.0055 0.0727,-0.01182 0.10852,-0.01912 0.0359,-0.0073 0.0718,-0.01579 0.10697,-0.0248 0.0352,-0.009 0.0699,-0.01877 0.10439,-0.02946 0.0345,-0.01068 0.0686,-0.02232 0.10232,-0.03462 0.0337,-0.01231 0.0673,-0.02539 0.10025,-0.03927 0.0329,-0.01388 0.0651,-0.02851 0.0971,-0.04392 0.0321,-0.01541 0.0639,-0.03116 0.0951,-0.04806 0.0312,-0.0169 0.0617,-0.03489 0.092,-0.05323 0.0302,-0.01834 0.0601,-0.03711 0.0894,-0.05684 0.0293,-0.01973 0.0581,-0.04041 0.0863,-0.06149 0.0282,-0.02108 0.056,-0.04273 0.0832,-0.06511 0.0272,-0.02238 0.0536,-0.0456 0.0796,-0.06925 0.026,-0.02364 0.0516,-0.04749 0.0765,-0.07235 0.0248,-0.02486 0.0492,-0.05046 0.0729,-0.07648 0.0237,-0.02602 0.0464,-0.05243 0.0687,-0.07958 0.0224,-0.02715 0.044,-0.05498 0.0651,-0.0832 0.0211,-0.02822 0.0418,-0.05705 0.0615,-0.0863 0.0197,-0.02926 0.0385,-0.05916 0.0568,-0.0894 0.0183,-0.03024 0.0363,-0.0608 0.0532,-0.09198 0.0169,-0.03118 0.0327,-0.06301 0.0481,-0.09509 0.0154,-0.03208 0.0306,-0.06423 0.0444,-0.09715 0.0139,-0.03293 0.027,-0.066521 0.0393,-0.1002527 0.0123,-0.033731 0.0234,-0.067829 0.0341,-0.1023194 0.0107,-0.034491 0.021,-0.069182 0.03,-0.1043863 0.009,-0.035204 0.017,-0.071098 0.0243,-0.1069702 0.007,-0.035873 0.0136,-0.072025 0.0191,-0.1085205 0.006,-0.036496 0.0102,-0.072997 0.0139,-0.1100709 0.004,-0.037073 0.007,-0.074532 0.009,-0.1121378 0.002,-0.037605 0.003,-0.075596 0.003,-0.113688 V 2.4226253 c 0,-0.03809 -7.9e-4,-0.07608 -0.003,-0.113688 -0.002,-0.03761 -0.005,-0.07507 -0.009,-0.112138 -0.004,-0.03707 -0.008,-0.07357 -0.0139,-0.110071 -0.006,-0.0365 -0.0118,-0.07265 -0.0191,-0.108521 -0.007,-0.03587 -0.0153,-0.07177 -0.0243,-0.10697 -0.009,-0.0352 -0.0193,-0.0699 -0.03,-0.104386 -0.0107,-0.03449 -0.0218,-0.06859 -0.0341,-0.10232 -0.0123,-0.03373 -0.0254,-0.06733 -0.0393,-0.100252 -0.0139,-0.03293 -0.029,-0.06508 -0.0444,-0.09715 -0.0154,-0.03208 -0.0312,-0.0639 -0.0481,-0.09509 -0.0169,-0.03118 -0.0349,-0.06174 -0.0532,-0.09198 -0.0183,-0.03024 -0.0371,-0.06015 -0.0568,-0.0894 -0.0197,-0.02926 -0.0404,-0.05808 -0.0615,-0.0863 -0.0211,-0.02822 -0.0427,-0.05605 -0.0651,-0.0832 -0.0224,-0.02715 -0.0451,-0.05356 -0.0687,-0.07958 -0.0237,-0.02602 -0.048,-0.05162 -0.0729,-0.07648 -0.0249,-0.02486 -0.0505,-0.0487 -0.0765,-0.07235 -0.026,-0.02364 -0.0524,-0.04686 -0.0796,-0.06925 -0.0272,-0.02238 -0.055,-0.04403 -0.0832,-0.06511 -0.0282,-0.02108 -0.057,-0.04176 -0.0863,-0.06149 -0.0293,-0.01973 -0.0592,-0.03851 -0.0894,-0.05684 -0.0302,-0.01834 -0.0608,-0.03633 -0.092,-0.05323 -0.0312,-0.0169 -0.063,-0.03265 -0.0951,-0.04806 -0.0321,-0.01541 -0.0642,-0.03004 -0.0971,-0.04392 -0.0329,-0.01388 -0.0665,-0.02697 -0.10025,-0.03927 -0.0337,-0.0123 -0.0678,-0.02394 -0.10232,-0.03462 -0.0345,-0.01068 -0.0692,-0.02044 -0.10439,-0.02946 -0.0352,-0.009 -0.0711,-0.0175 -0.10697,-0.02481 -0.0359,-0.0073 -0.072,-0.01357 -0.10852,-0.01912 -0.0365,-0.0056 -0.073,-0.01021 -0.11007,-0.01395 -0.0371,-0.0037 -0.0745,-0.0064 -0.11214,-0.0083 -0.0376,-0.0019 -0.0756,-0.0031 -0.11369,-0.0031 z m 5.3e-4,0.26406699 h 6.18154 c 1.07695,0 1.9358,0.858848 1.9358,1.935799 v 6.1836018 c 0,1.0769502 -0.85885,1.9352829 -1.9358,1.9352829 h -6.18154 c -1.07695,0 -1.93528,-0.8583327 -1.93528,-1.9352829 V 2.4220873 c 0,-1.076951 0.85833,-1.935799 1.93528,-1.935799 z" />
      <rect
         style="opacity:0.2;mix-blend-mode:overlay;fill:url(#linearGradient35388);fill-opacity:1;stroke:none;stroke-width:0.55007;stroke-linecap:square"
         id="rect35382"
         width="10.583333"
         height="10.583333"
         x="-116.62317"
         y="-10.805571"
         ry="2.2002783"
         rx="2.2002783"
         transform="scale(-1)" />
      <rect
         style="opacity:0.2;mix-blend-mode:overlay;fill:url(#linearGradient35386);fill-opacity:1;stroke:none;stroke-width:0.55007;stroke-linecap:square"
         id="rect35384"
         width="10.583333"
         height="10.583333"
         x="106.03983"
         y="0.22223713"
         ry="2.2002783"
         rx="2.2002783" />
    </g>
  </g>
</svg>
