<?xml version="1.0" encoding="UTF-8" standalone="no"?>
<!-- Created with Inkscape (http://www.inkscape.org/) -->

<svg
   width="48"
   height="48"
   viewBox="0 0 12.7 12.7"
   version="1.1"
   id="svg39233"
   sodipodi:docname="org.gnome.Weather.svg"
   inkscape:export-filename="/home/bokehlicia/.local/share/icons/Testeo/48x48/apps/google-chrome.png"
   inkscape:export-xdpi="96"
   inkscape:export-ydpi="96"
   inkscape:version="1.1 (c68e22c387, 2021-05-23)"
   xmlns:inkscape="http://www.inkscape.org/namespaces/inkscape"
   xmlns:sodipodi="http://sodipodi.sourceforge.net/DTD/sodipodi-0.dtd"
   xmlns:xlink="http://www.w3.org/1999/xlink"
   xmlns="http://www.w3.org/2000/svg"
   xmlns:svg="http://www.w3.org/2000/svg">
  <sodipodi:namedview
     id="namedview39235"
     pagecolor="#505050"
     bordercolor="#eeeeee"
     borderopacity="1"
     inkscape:pageshadow="0"
     inkscape:pageopacity="0"
     inkscape:pagecheckerboard="0"
     inkscape:document-units="mm"
     showgrid="false"
     units="px"
     inkscape:zoom="2.6832492"
     inkscape:cx="-37.827273"
     inkscape:cy="51.989208"
     inkscape:window-width="1920"
     inkscape:window-height="1048"
     inkscape:window-x="0"
     inkscape:window-y="32"
     inkscape:window-maximized="1"
     inkscape:current-layer="layer1" />
  <defs
     id="defs39230">
    <filter
       style="color-interpolation-filters:sRGB"
       inkscape:label="Blur"
       id="filter33679-367"
       x="-0.0022677166"
       y="-0.070299215"
       width="1.0045354"
       height="1.1405984">
      <feGaussianBlur
         stdDeviation="0.01 0.31"
         result="blur"
         id="feGaussianBlur33677-5" />
    </filter>
    <filter
       style="color-interpolation-filters:sRGB"
       inkscape:label="Blur"
       id="filter33595-3"
       x="-0.0034887946"
       y="-0.073264686"
       width="1.0069776"
       height="1.1465294">
      <feGaussianBlur
         stdDeviation="0.01 0.21"
         result="blur"
         id="feGaussianBlur33593-5" />
    </filter>
    <filter
       style="color-interpolation-filters:sRGB"
       inkscape:label="Blur"
       id="filter18540"
       x="-0.0014052986"
       y="-0.074365453"
       width="1.0028106"
       height="1.1487309">
      <feGaussianBlur
         stdDeviation="0.01 0.21"
         result="blur"
         id="feGaussianBlur18538" />
    </filter>
    <linearGradient
       inkscape:collect="always"
       xlink:href="#linearGradient2864"
       id="linearGradient2849"
       gradientUnits="userSpaceOnUse"
       gradientTransform="translate(-117.68148,-26.777541)"
       x1="6.4202108"
       y1="0.96924353"
       x2="6.4202108"
       y2="11.540484" />
    <linearGradient
       inkscape:collect="always"
       id="linearGradient2864">
      <stop
         style="stop-color:#000000;stop-opacity:1"
         offset="0"
         id="stop2860" />
      <stop
         style="stop-color:#fefefe;stop-opacity:0"
         offset="1"
         id="stop2862" />
    </linearGradient>
    <linearGradient
       inkscape:collect="always"
       xlink:href="#linearGradient2084"
       id="linearGradient2847"
       gradientUnits="userSpaceOnUse"
       gradientTransform="translate(104.98149,14.07754)"
       x1="6.4202108"
       y1="0.96924353"
       x2="6.4202108"
       y2="11.540484" />
    <linearGradient
       inkscape:collect="always"
       id="linearGradient2084">
      <stop
         style="stop-color:#ffffff;stop-opacity:1"
         offset="0"
         id="stop2080" />
      <stop
         style="stop-color:#000000;stop-opacity:0"
         offset="1"
         id="stop2082" />
    </linearGradient>
  </defs>
  <g
     inkscape:label="Calque 1"
     inkscape:groupmode="layer"
     id="layer1">
    <g
       id="g22610"
       transform="translate(-104.98149,-14.921041)">
      <rect
         style="opacity:0.2;mix-blend-mode:overlay;fill:#000000;fill-opacity:1;stroke:none;stroke-width:0.55007;stroke-linecap:square;filter:url(#filter33679-367)"
         id="rect5671"
         width="10.583333"
         height="10.583333"
         x="-31.628342"
         y="-3.2242157"
         ry="2.2002783"
         rx="2.2002783"
         transform="rotate(180,42.497407,11.512079)" />
      <rect
         style="fill:#0984e3;fill-opacity:1;stroke:none;stroke-width:0.55007;stroke-linecap:square"
         id="rect5673"
         width="10.583333"
         height="10.583333"
         x="106.03983"
         y="15.135872"
         ry="2.2002783"
         rx="2.2002783" />
      <path
         id="path5679"
         style="color:#000000;opacity:0.2;mix-blend-mode:soft-light;fill:#ffffff;stroke-width:1;stroke-linecap:square;-inkscape-stroke:none"
         d="m 108.2397,15.135857 c -0.0381,0 -0.0761,0.0012 -0.11369,0.0031 -0.0376,0.0019 -0.0751,0.0045 -0.11213,0.0083 -0.0371,0.0037 -0.0736,0.0084 -0.11007,0.01395 -0.0365,0.0056 -0.0726,0.01182 -0.10852,0.01912 -0.0359,0.0073 -0.0718,0.01579 -0.10697,0.02481 -0.0352,0.009 -0.0699,0.01877 -0.10439,0.02946 -0.0345,0.01068 -0.0686,0.02232 -0.10232,0.03462 -0.0337,0.0123 -0.0673,0.02539 -0.10025,0.03927 -0.0329,0.01388 -0.0651,0.02851 -0.0971,0.04393 -0.0321,0.01541 -0.0639,0.03116 -0.0951,0.04806 -0.0312,0.0169 -0.0617,0.03489 -0.092,0.05323 -0.0302,0.01834 -0.0602,0.03711 -0.0894,0.05684 -0.0293,0.01973 -0.0581,0.04041 -0.0863,0.06149 -0.0282,0.02108 -0.0555,0.04273 -0.0827,0.06511 -0.0272,0.02238 -0.0541,0.0456 -0.0801,0.06925 -0.026,0.02364 -0.0516,0.04749 -0.0765,0.07235 -0.0248,0.02486 -0.0487,0.05046 -0.0724,0.07648 -0.0237,0.02602 -0.0469,0.05243 -0.0692,0.07958 -0.0224,0.02715 -0.044,0.05498 -0.0651,0.0832 -0.0211,0.02822 -0.0418,0.05705 -0.0615,0.0863 -0.0197,0.02925 -0.0385,0.05916 -0.0568,0.0894 -0.0183,0.03024 -0.0358,0.0608 -0.0527,0.09198 -0.0169,0.03118 -0.0332,0.06301 -0.0486,0.09508 -0.0154,0.03208 -0.03,0.06423 -0.0439,0.09715 -0.0139,0.03293 -0.027,0.06652 -0.0393,0.100252 -0.0123,0.03373 -0.0239,0.06783 -0.0346,0.10232 -0.0107,0.03449 -0.0204,0.06918 -0.0295,0.104386 -0.009,0.0352 -0.0175,0.0711 -0.0248,0.10697 -0.007,0.03587 -0.0136,0.07203 -0.0191,0.108521 -0.006,0.0365 -0.0102,0.073 -0.0139,0.110071 -0.004,0.03707 -0.006,0.07453 -0.008,0.112138 -0.002,0.03761 -0.003,0.0756 -0.003,0.113688 v 6.182567 c 0,0.03809 0.001,0.07608 0.003,0.113688 0.002,0.03761 0.004,0.07507 0.008,0.112137 0.004,0.03707 0.008,0.07357 0.0139,0.110071 0.006,0.0365 0.0118,0.07265 0.0191,0.108521 0.007,0.03587 0.0158,0.07177 0.0248,0.10697 0.009,0.0352 0.0188,0.0699 0.0295,0.104386 0.0107,0.03449 0.0223,0.06859 0.0346,0.10232 0.0123,0.03373 0.0254,0.06733 0.0393,0.100252 0.0139,0.03293 0.0285,0.06508 0.0439,0.09715 0.0154,0.03208 0.0317,0.0639 0.0486,0.09509 0.0169,0.03118 0.0344,0.06174 0.0527,0.09198 0.0183,0.03024 0.0371,0.06015 0.0568,0.0894 0.0197,0.02925 0.0404,0.05808 0.0615,0.0863 0.0211,0.02822 0.0427,0.05605 0.0651,0.0832 0.0224,0.02715 0.0456,0.05356 0.0692,0.07958 0.0237,0.02602 0.0475,0.05162 0.0724,0.07648 0.0249,0.02485 0.0505,0.0487 0.0765,0.07235 0.026,0.02364 0.0529,0.04686 0.0801,0.06925 0.0271,0.02238 0.0545,0.04403 0.0827,0.06511 0.0282,0.02108 0.0571,0.04176 0.0863,0.06149 0.0293,0.01973 0.0592,0.03851 0.0894,0.05684 0.0302,0.01834 0.0608,0.03633 0.092,0.05323 0.0312,0.0169 0.063,0.03265 0.0951,0.04806 0.0321,0.01541 0.0642,0.03004 0.0971,0.04392 0.0329,0.01388 0.0665,0.02697 0.10025,0.03927 0.0337,0.01231 0.0678,0.02394 0.10232,0.03462 0.0345,0.01068 0.0692,0.02044 0.10439,0.02946 0.0352,0.009 0.0711,0.0175 0.10697,0.0248 0.0359,0.0073 0.072,0.01358 0.10852,0.01912 0.0365,0.0055 0.073,0.01021 0.11007,0.01395 0.0371,0.0037 0.0745,0.0064 0.11213,0.0083 0.0376,0.0019 0.0756,0.0031 0.11369,0.0031 h 6.18257 c 0.0381,0 0.0761,-0.0012 0.11369,-0.0031 0.0376,-0.0019 0.0751,-0.0045 0.11214,-0.0083 0.0371,-0.0037 0.0736,-0.0084 0.11007,-0.01395 0.0365,-0.0055 0.0727,-0.01182 0.10852,-0.01912 0.0359,-0.0073 0.0718,-0.01579 0.10697,-0.0248 0.0352,-0.009 0.0699,-0.01877 0.10439,-0.02946 0.0345,-0.01068 0.0686,-0.02232 0.10232,-0.03462 0.0337,-0.01231 0.0673,-0.02539 0.10025,-0.03927 0.0329,-0.01388 0.0651,-0.02851 0.0971,-0.04392 0.0321,-0.01541 0.0639,-0.03116 0.0951,-0.04806 0.0312,-0.0169 0.0617,-0.03489 0.092,-0.05323 0.0302,-0.01834 0.0601,-0.03711 0.0894,-0.05684 0.0293,-0.01973 0.0581,-0.04041 0.0863,-0.06149 0.0282,-0.02108 0.056,-0.04273 0.0832,-0.06511 0.0272,-0.02238 0.0536,-0.0456 0.0796,-0.06925 0.026,-0.02364 0.0516,-0.04749 0.0765,-0.07235 0.0248,-0.02486 0.0492,-0.05046 0.0729,-0.07648 0.0237,-0.02602 0.0464,-0.05243 0.0687,-0.07958 0.0224,-0.02715 0.044,-0.05498 0.0651,-0.0832 0.0211,-0.02822 0.0418,-0.05705 0.0615,-0.0863 0.0197,-0.02926 0.0385,-0.05916 0.0568,-0.0894 0.0183,-0.03024 0.0363,-0.0608 0.0532,-0.09198 0.0169,-0.03118 0.0327,-0.06301 0.0481,-0.09509 0.0154,-0.03208 0.0306,-0.06423 0.0444,-0.09715 0.0139,-0.03293 0.027,-0.06652 0.0393,-0.100252 0.0123,-0.03373 0.0234,-0.06783 0.0341,-0.10232 0.0107,-0.03449 0.021,-0.06918 0.03,-0.104386 0.009,-0.0352 0.017,-0.0711 0.0243,-0.10697 0.007,-0.03587 0.0136,-0.07203 0.0191,-0.108521 0.006,-0.0365 0.0102,-0.073 0.0139,-0.110071 0.004,-0.03707 0.007,-0.07453 0.009,-0.112137 0.002,-0.03761 0.003,-0.0756 0.003,-0.113688 v -6.182569 c 0,-0.03809 -7.9e-4,-0.07608 -0.003,-0.113688 -0.002,-0.03761 -0.005,-0.07507 -0.009,-0.112138 -0.004,-0.03707 -0.008,-0.07357 -0.0139,-0.110071 -0.006,-0.0365 -0.0118,-0.07265 -0.0191,-0.108521 -0.007,-0.03587 -0.0153,-0.07177 -0.0243,-0.10697 -0.009,-0.0352 -0.0193,-0.0699 -0.03,-0.104386 -0.0107,-0.03449 -0.0218,-0.06859 -0.0341,-0.10232 -0.0123,-0.03373 -0.0254,-0.06733 -0.0393,-0.100252 -0.0139,-0.03293 -0.029,-0.06508 -0.0444,-0.09715 -0.0154,-0.03208 -0.0312,-0.0639 -0.0481,-0.09509 -0.0169,-0.03118 -0.0349,-0.06174 -0.0532,-0.09198 -0.0183,-0.03024 -0.0371,-0.06015 -0.0568,-0.0894 -0.0197,-0.02926 -0.0404,-0.05808 -0.0615,-0.0863 -0.0211,-0.02822 -0.0427,-0.05605 -0.0651,-0.0832 -0.0224,-0.02715 -0.0451,-0.05356 -0.0687,-0.07958 -0.0237,-0.02602 -0.048,-0.05162 -0.0729,-0.07648 -0.0249,-0.02486 -0.0505,-0.0487 -0.0765,-0.07235 -0.026,-0.02364 -0.0524,-0.04686 -0.0796,-0.06925 -0.0272,-0.02238 -0.055,-0.04403 -0.0832,-0.06511 -0.0282,-0.02108 -0.057,-0.04176 -0.0863,-0.06149 -0.0293,-0.01973 -0.0592,-0.03851 -0.0894,-0.05684 -0.0302,-0.01834 -0.0608,-0.03633 -0.092,-0.05323 -0.0312,-0.0169 -0.063,-0.03265 -0.0951,-0.04806 -0.0321,-0.01541 -0.0642,-0.03004 -0.0971,-0.04392 -0.0329,-0.01388 -0.0665,-0.02697 -0.10025,-0.03927 -0.0337,-0.0123 -0.0678,-0.02394 -0.10232,-0.03462 -0.0345,-0.01068 -0.0692,-0.02044 -0.10439,-0.02946 -0.0352,-0.009 -0.0711,-0.0175 -0.10697,-0.02481 -0.0359,-0.0073 -0.072,-0.01357 -0.10852,-0.01912 -0.0365,-0.0056 -0.073,-0.01021 -0.11007,-0.01395 -0.0371,-0.0037 -0.0745,-0.0064 -0.11214,-0.0083 -0.0376,-0.0019 -0.0756,-0.0031 -0.11369,-0.0031 z m 5.3e-4,0.264067 h 6.18154 c 1.07695,0 1.9358,0.858848 1.9358,1.935799 v 6.183602 c 0,1.07695 -0.85885,1.935283 -1.9358,1.935283 h -6.18154 c -1.07695,0 -1.93528,-0.858333 -1.93528,-1.935283 v -6.183602 c 0,-1.076951 0.85833,-1.935799 1.93528,-1.935799 z" />
      <circle
         style="opacity:0.2;fill:#000000;fill-opacity:1;stroke:none;stroke-width:2.33261;stroke-linecap:round;stroke-miterlimit:4;stroke-dasharray:none;stroke-opacity:1;filter:url(#filter33595-3)"
         id="circle5681"
         cx="111.33149"
         cy="20.692122"
         r="3.4395833" />
      <circle
         style="fill:#fdcb6e;fill-opacity:1;stroke:none;stroke-width:2.33261;stroke-linecap:round;stroke-miterlimit:4;stroke-dasharray:none;stroke-opacity:1"
         id="circle5683"
         cx="111.33149"
         cy="20.427538"
         r="3.4395833" />
      <path
         id="path5685"
         style="opacity:0.2;fill:#000000;fill-opacity:1;stroke:none;stroke-width:0.694182;stroke-linecap:round;stroke-miterlimit:4;stroke-dasharray:none;stroke-opacity:1;filter:url(#filter18540)"
         d="m 299.24023,144.11914 a 3.8764222,3.8764222 0 0 0 -0.0371,0.5 3.8764222,3.8764222 0 0 0 3.87696,3.87695 h 7.12109 a 6.0792416,6.2870268 0 0 0 0.004,0 6.0792416,6.2870268 0 0 0 6.07617,-6.28711 6.0792416,6.2870268 0 0 0 -0.0195,-0.49023 6.0792416,6.2870268 0 0 1 -0.002,0.0176 6.0792416,6.2870268 0 0 1 -0.0156,0.17578 6.0792416,6.2870268 0 0 1 -0.0215,0.17578 6.0792416,6.2870268 0 0 1 -0.0274,0.17383 6.0792416,6.2870268 0 0 1 -0.0312,0.17187 6.0792416,6.2870268 0 0 1 -0.0351,0.17383 6.0792416,6.2870268 0 0 1 -0.041,0.16992 6.0792416,6.2870268 0 0 1 -0.043,0.17188 6.0792416,6.2870268 0 0 1 -0.0508,0.16797 6.0792416,6.2870268 0 0 1 -0.0527,0.16797 6.0792416,6.2870268 0 0 1 -0.0586,0.16406 6.0792416,6.2870268 0 0 1 -0.0645,0.16406 6.0792416,6.2870268 0 0 1 -0.0664,0.16211 6.0792416,6.2870268 0 0 1 -0.0723,0.16016 6.0792416,6.2870268 0 0 1 -0.0762,0.1582 6.0792416,6.2870268 0 0 1 -0.0801,0.1543 6.0792416,6.2870268 0 0 1 -0.084,0.15429 6.0792416,6.2870268 0 0 1 -0.0898,0.15039 6.0792416,6.2870268 0 0 1 -0.0918,0.14844 6.0792416,6.2870268 0 0 1 -0.0976,0.14453 6.0792416,6.2870268 0 0 1 -0.0996,0.14258 6.0792416,6.2870268 0 0 1 -0.10547,0.13867 6.0792416,6.2870268 0 0 1 -0.10742,0.13672 6.0792416,6.2870268 0 0 1 -0.11133,0.13281 6.0792416,6.2870268 0 0 1 -0.11524,0.13086 6.0792416,6.2870268 0 0 1 -0.11914,0.125 6.0792416,6.2870268 0 0 1 -0.12304,0.12305 6.0792416,6.2870268 0 0 1 -0.125,0.12109 6.0792416,6.2870268 0 0 1 -0.12891,0.11524 6.0792416,6.2870268 0 0 1 -0.13086,0.11133 6.0792416,6.2870268 0 0 1 -0.13476,0.10742 6.0792416,6.2870268 0 0 1 -0.13868,0.10547 6.0792416,6.2870268 0 0 1 -0.14062,0.0996 6.0792416,6.2870268 0 0 1 -0.14258,0.0957 6.0792416,6.2870268 0 0 1 -0.14453,0.0918 6.0792416,6.2870268 0 0 1 -0.14844,0.0879 6.0792416,6.2870268 0 0 1 -0.15039,0.082 6.0792416,6.2870268 0 0 1 -0.15234,0.0801 6.0792416,6.2870268 0 0 1 -0.1543,0.0742 6.0792416,6.2870268 0 0 1 -0.1582,0.0684 6.0792416,6.2870268 0 0 1 -0.15821,0.0664 6.0792416,6.2870268 0 0 1 -0.16015,0.0606 6.0792416,6.2870268 0 0 1 -0.16016,0.0547 6.0792416,6.2870268 0 0 1 -0.16406,0.0527 6.0792416,6.2870268 0 0 1 -0.16406,0.0449 6.0792416,6.2870268 0 0 1 -0.16602,0.043 6.0792416,6.2870268 0 0 1 -0.16602,0.0371 6.0792416,6.2870268 0 0 1 -0.16796,0.0312 6.0792416,6.2870268 0 0 1 -0.16797,0.0273 6.0792416,6.2870268 0 0 1 -0.16992,0.0215 6.0792416,6.2870268 0 0 1 -0.16993,0.0176 6.0792416,6.2870268 0 0 1 -0.16992,0.0137 6.0792416,6.2870268 0 0 1 -0.16992,0.006 6.0792416,6.2870268 0 0 1 -0.16992,0.004 6.0792416,6.2870268 0 0 1 -0.004,0 h -7.12109 a 3.8764222,3.8764222 0 0 1 -0.40625,-0.0215 3.8764222,3.8764222 0 0 1 -0.40039,-0.0645 3.8764222,3.8764222 0 0 1 -0.39258,-0.10352 3.8764222,3.8764222 0 0 1 -0.37891,-0.14648 3.8764222,3.8764222 0 0 1 -0.36133,-0.1836 3.8764222,3.8764222 0 0 1 -0.33984,-0.2207 3.8764222,3.8764222 0 0 1 -0.3164,-0.25586 3.8764222,3.8764222 0 0 1 -0.28516,-0.28711 3.8764222,3.8764222 0 0 1 -0.25586,-0.31445 3.8764222,3.8764222 0 0 1 -0.2207,-0.33985 3.8764222,3.8764222 0 0 1 -0.18555,-0.36328 3.8764222,3.8764222 0 0 1 -0.14453,-0.3789 3.8764222,3.8764222 0 0 1 -0.10547,-0.39063 3.8764222,3.8764222 0 0 1 -0.0469,-0.30664 z"
         transform="matrix(0.26458333,0,0,0.26458333,32.210098,-16.276518)" />
      <path
         id="path5687"
         style="opacity:0.9;fill:#ffffff;fill-opacity:1;stroke:none;stroke-width:0.183669;stroke-linecap:round;stroke-miterlimit:4;stroke-dasharray:none;stroke-opacity:1"
         d="m 114.28439,19.421429 a 1.608466,1.6634425 0 0 0 -1.5737,1.323942 1.0256367,1.0256367 0 0 0 -0.31082,-0.04824 1.0256367,1.0256367 0 0 0 -1.02578,1.025619 1.0256367,1.0256367 0 0 0 1.02578,1.025621 h 1.88452 a 1.608466,1.6634425 0 0 0 6.1e-4,0 1.608466,1.6634425 0 0 0 1.60787,-1.663548 1.608466,1.6634425 0 0 0 -1.6085,-1.66339 z" />
      <rect
         style="opacity:0.2;mix-blend-mode:overlay;fill:url(#linearGradient2849);fill-opacity:1;stroke:none;stroke-width:0.55007;stroke-linecap:square"
         id="rect2841"
         width="10.583333"
         height="10.583333"
         x="-116.62317"
         y="-25.719206"
         ry="2.2002783"
         rx="2.2002783"
         transform="scale(-1)" />
      <rect
         style="opacity:0.2;mix-blend-mode:overlay;fill:url(#linearGradient2847);fill-opacity:1;stroke:none;stroke-width:0.55007;stroke-linecap:square"
         id="rect2843"
         width="10.583333"
         height="10.583333"
         x="106.03983"
         y="15.135872"
         ry="2.2002783"
         rx="2.2002783" />
    </g>
  </g>
</svg>
