<?xml version="1.0" encoding="UTF-8" standalone="no"?>
<!-- Created with Inkscape (http://www.inkscape.org/) -->

<svg
   width="48"
   height="48"
   viewBox="0 0 12.7 12.7"
   version="1.1"
   id="svg39233"
   sodipodi:docname="org.gnome.gedit.svg"
   inkscape:export-filename="/home/bokehlicia/.local/share/icons/Testeo/48x48/apps/google-chrome.png"
   inkscape:export-xdpi="96"
   inkscape:export-ydpi="96"
   inkscape:version="1.1 (c68e22c387, 2021-05-23)"
   xmlns:inkscape="http://www.inkscape.org/namespaces/inkscape"
   xmlns:sodipodi="http://sodipodi.sourceforge.net/DTD/sodipodi-0.dtd"
   xmlns:xlink="http://www.w3.org/1999/xlink"
   xmlns="http://www.w3.org/2000/svg"
   xmlns:svg="http://www.w3.org/2000/svg">
  <sodipodi:namedview
     id="namedview39235"
     pagecolor="#505050"
     bordercolor="#eeeeee"
     borderopacity="1"
     inkscape:pageshadow="0"
     inkscape:pageopacity="0"
     inkscape:pagecheckerboard="0"
     inkscape:document-units="mm"
     showgrid="false"
     units="px"
     inkscape:zoom="5.3664983"
     inkscape:cx="30.280453"
     inkscape:cy="9.7829156"
     inkscape:window-width="1920"
     inkscape:window-height="1048"
     inkscape:window-x="0"
     inkscape:window-y="32"
     inkscape:window-maximized="1"
     inkscape:current-layer="layer1" />
  <defs
     id="defs39230">
    <filter
       style="color-interpolation-filters:sRGB"
       inkscape:label="Blur"
       id="filter33679"
       x="-0.0022677166"
       y="-0.070299215"
       width="1.0045354"
       height="1.1405984">
      <feGaussianBlur
         stdDeviation="0.01 0.31"
         result="blur"
         id="feGaussianBlur33677" />
    </filter>
    <filter
       inkscape:collect="always"
       style="color-interpolation-filters:sRGB"
       id="filter11014"
       x="-0.0096945843"
       y="-0.025852224"
       width="1.0193892"
       height="1.0517044">
      <feGaussianBlur
         inkscape:collect="always"
         stdDeviation="0.1615764"
         id="feGaussianBlur11016" />
    </filter>
    <linearGradient
       inkscape:collect="always"
       xlink:href="#linearGradient2864"
       id="linearGradient16560"
       gradientUnits="userSpaceOnUse"
       gradientTransform="translate(-44.523873,-26.777529)"
       x1="6.4202108"
       y1="0.96924353"
       x2="6.4202108"
       y2="11.540484" />
    <linearGradient
       inkscape:collect="always"
       id="linearGradient2864">
      <stop
         style="stop-color:#000000;stop-opacity:1"
         offset="0"
         id="stop2860" />
      <stop
         style="stop-color:#fefefe;stop-opacity:0"
         offset="1"
         id="stop2862" />
    </linearGradient>
    <linearGradient
       inkscape:collect="always"
       xlink:href="#linearGradient2084"
       id="linearGradient16558"
       gradientUnits="userSpaceOnUse"
       gradientTransform="translate(31.823874,14.077529)"
       x1="6.4202108"
       y1="0.96924353"
       x2="6.4202108"
       y2="11.540484" />
    <linearGradient
       inkscape:collect="always"
       id="linearGradient2084">
      <stop
         style="stop-color:#ffffff;stop-opacity:1"
         offset="0"
         id="stop2080" />
      <stop
         style="stop-color:#000000;stop-opacity:0"
         offset="1"
         id="stop2082" />
    </linearGradient>
  </defs>
  <g
     inkscape:label="Calque 1"
     inkscape:groupmode="layer"
     id="layer1">
    <g
       id="g21433"
       transform="translate(-31.823869,-14.921041)">
      <rect
         style="opacity:0.2;mix-blend-mode:overlay;fill:#000000;fill-opacity:1;stroke:none;stroke-width:0.55007;stroke-linecap:square;filter:url(#filter33679)"
         id="rect60726"
         width="10.583333"
         height="10.583333"
         x="-31.628342"
         y="-3.2242157"
         ry="2.2002783"
         rx="2.2002783"
         transform="rotate(180,5.9185973,11.512079)" />
      <path
         id="path60728"
         style="fill:#ffffff;fill-opacity:1;stroke:none;stroke-width:0.550069;stroke-linecap:square"
         d="m 34.856684,15.147252 c -0.07398,0.0075 -0.147005,0.01852 -0.218591,0.03307 0.07175,-0.01461 0.144444,-0.02559 0.218591,-0.03307 z m 6.63422,0 c 0.07415,0.0075 0.146844,0.01847 0.218592,0.03307 -0.07174,-0.01461 -0.144444,-0.02559 -0.218592,-0.03307 z m 0.218592,0.03307 c 0.07175,0.01461 0.142375,0.03289 0.211357,0.05426 -0.06898,-0.02137 -0.13961,-0.03965 -0.211357,-0.05426 z m 0.211357,0.05426 c 0.06899,0.02137 0.1362,0.04613 0.202055,0.0739 -0.06585,-0.02776 -0.133072,-0.05253 -0.202055,-0.0739 z m 0.202055,0.0739 c 0.06586,0.02776 0.130389,0.05819 0.192754,0.09198 -0.06236,-0.03379 -0.126899,-0.06422 -0.192754,-0.09198 z m 0.192754,0.09198 c 0.06236,0.0338 0.122872,0.0706 0.181385,0.11007 -0.05851,-0.03946 -0.119023,-0.07628 -0.181385,-0.11007 z m 0.181385,0.11007 c 0.05851,0.03947 0.114686,0.08183 0.168982,0.126608 -0.05429,-0.04477 -0.110475,-0.08714 -0.168982,-0.126608 z m 0.168982,0.126608 c 0.0543,0.04477 0.106862,0.09188 0.156579,0.141593 -0.04971,-0.04971 -0.102288,-0.09682 -0.156579,-0.141593 z m 0.156579,0.141593 c 0.04962,0.04963 0.09689,0.101874 0.141593,0.156063 -0.04477,-0.05429 -0.09188,-0.10635 -0.141593,-0.156063 z M 34.637577,15.18032 c -0.07175,0.01461 -0.141858,0.03289 -0.210841,0.05426 0.06883,-0.02132 0.139263,-0.03967 0.210841,-0.05426 z m -0.210841,0.05426 c -0.06883,0.02132 -0.13634,0.04621 -0.202054,0.0739 0.06586,-0.02776 0.133072,-0.05253 0.202054,-0.0739 z m -0.20257,0.0739 c -0.06585,0.02776 -0.129874,0.05819 -0.192236,0.09198 0.06223,-0.03372 0.126529,-0.06427 0.192236,-0.09198 z m -0.192236,0.09198 c -0.06236,0.03379 -0.122875,0.07061 -0.181385,0.11007 0.05851,-0.03947 0.119017,-0.07627 0.181385,-0.11007 z m -0.181385,0.11007 c -0.0584,0.03939 -0.114787,0.08193 -0.168982,0.126608 0.0543,-0.04477 0.110469,-0.08714 0.168982,-0.126608 z m -0.1695,0.126608 c -0.05429,0.04477 -0.106349,0.09188 -0.156062,0.141593 0.04962,-0.04963 0.101873,-0.09689 0.156062,-0.141593 z m -0.156062,0.141593 c -0.04971,0.04971 -0.09682,0.10177 -0.141594,0.156063 0.0447,-0.05419 0.09197,-0.106437 0.141594,-0.156063 z m -0.141594,0.15658 c -0.04467,0.0542 -0.08722,0.110585 -0.126606,0.168982 0.03946,-0.05851 0.08183,-0.114687 0.126606,-0.168982 z m -0.126606,0.168982 c -0.03946,0.05851 -0.07628,0.119021 -0.110072,0.181384 0.0338,-0.06237 0.0706,-0.122872 0.110072,-0.181384 z m -0.110072,0.181384 c -0.06759,0.124726 -0.12315,0.256846 -0.165881,0.394808 0.04274,-0.137966 0.09829,-0.270076 0.165881,-0.394808 z m -0.165881,0.394808 c -0.02136,0.06898 -0.03965,0.139611 -0.05426,0.211356 0.01461,-0.07175 0.03289,-0.142373 0.05426,-0.211356 z m -0.05426,0.211356 c -0.01461,0.07174 -0.02559,0.144445 -0.03307,0.218592 0.0075,-0.07415 0.01847,-0.146845 0.03307,-0.218592 z m -0.03307,0.218592 c -0.0075,0.07415 -0.01137,0.149641 -0.01137,0.225826 0,-0.07619 0.0039,-0.151679 0.01137,-0.225826 z m 10.0707,-1.175122 c 0.04477,0.0543 0.08714,0.110469 0.126608,0.168982 -0.03939,-0.0584 -0.08193,-0.114786 -0.126608,-0.168982 z m 0.126608,0.168982 c 0.0361,0.05353 0.0694,0.109117 0.100769,0.165881 -0.0314,-0.05684 -0.06462,-0.112289 -0.100769,-0.165881 z m 0.100769,0.165881 c 0.0057,0.01025 0.01103,0.02065 0.01654,0.03101 -0.0055,-0.01036 -0.01087,-0.02075 -0.01654,-0.03101 z m 0.01654,0.03101 c 0.03058,0.0575 0.05926,0.116303 0.08475,0.176733 -0.02551,-0.06051 -0.05414,-0.119159 -0.08475,-0.176733 z m 0.08475,0.17725 c 0.02776,0.06586 0.05253,0.133072 0.0739,0.202055 -0.02132,-0.06883 -0.04621,-0.136341 -0.0739,-0.202055 z m 0.0739,0.202055 c 0.02137,0.06898 0.03965,0.13961 0.05426,0.211357 -0.01461,-0.07174 -0.03289,-0.142376 -0.05426,-0.211357 z m 0.05426,0.211357 c 0.01461,0.07175 0.02559,0.144444 0.03307,0.218591 -0.0075,-0.07415 -0.01847,-0.146846 -0.03307,-0.218591 z M 32.882128,19.10463 v 4.414201 c 0,1.218954 0.981429,2.200383 2.200383,2.200383 h 6.182569 c 1.218954,0 2.200381,-0.981429 2.200381,-2.200383 V 19.10463 Z" />
      <path
         style="fill:none;stroke:#b3b3b3;stroke-width:0.264583;stroke-linecap:round;stroke-linejoin:miter;stroke-miterlimit:4;stroke-dasharray:none;stroke-opacity:1"
         d="m 34.606804,18.94144 h 7.133979"
         id="path60948" />
      <path
         style="fill:none;stroke:#b3b3b3;stroke-width:0.264583;stroke-linecap:round;stroke-linejoin:miter;stroke-miterlimit:4;stroke-dasharray:none;stroke-opacity:1"
         d="m 34.606804,20.528938 h 7.133979"
         id="path60950" />
      <path
         style="fill:none;stroke:#b3b3b3;stroke-width:0.264583;stroke-linecap:round;stroke-linejoin:miter;stroke-miterlimit:4;stroke-dasharray:none;stroke-opacity:1"
         d="m 34.606804,22.116436 h 7.133979"
         id="path60952" />
      <path
         style="fill:none;stroke:#b3b3b3;stroke-width:0.264583;stroke-linecap:round;stroke-linejoin:miter;stroke-miterlimit:4;stroke-dasharray:none;stroke-opacity:1"
         d="m 34.606804,23.703934 h 7.133979"
         id="path60954" />
      <path
         style="fill:none;stroke:#b3b3b3;stroke-width:0.264583;stroke-linecap:round;stroke-linejoin:miter;stroke-miterlimit:4;stroke-dasharray:none;stroke-opacity:1"
         d="m 34.606804,17.353942 h 7.133979"
         id="path60956" />
      <path
         id="path60730"
         style="opacity:0.2;mix-blend-mode:normal;fill:#000000;fill-opacity:1;stroke:none;stroke-width:2.079;stroke-linecap:square;filter:url(#filter11014)"
         d="m 124.28906,15.839844 h 40 V 9.15625 c 0,-4.6070709 -3.70933,-8.31640625 -8.3164,-8.31640625 h -23.36719 c -4.60707,0 -8.31641,3.70933535 -8.31641,8.31640625 z"
         transform="matrix(0.26458333,0,0,0.26458333,-0.0026105,15.178237)" />
      <path
         id="path60732"
         style="fill:#2d3436;fill-opacity:1;stroke:none;stroke-width:0.550069;stroke-linecap:square"
         d="m 32.882203,19.104613 h 10.583334 v -1.768368 c 0,-1.218954 -0.981427,-2.200382 -2.200381,-2.200382 h -6.182569 c -1.218954,0 -2.200384,0.981428 -2.200384,2.200382 z" />
      <path
         id="path60742"
         style="color:#000000;opacity:0.2;mix-blend-mode:soft-light;fill:#ffffff;stroke-width:1;stroke-linecap:square;-inkscape-stroke:none"
         d="m 35.082576,15.135858 c -0.03809,0 -0.07608,0.0012 -0.113689,0.0031 -0.0376,0.0019 -0.07506,0.0045 -0.112139,0.0083 -0.03707,0.0037 -0.07358,0.0084 -0.110069,0.01395 -0.0365,0.0056 -0.07265,0.01182 -0.108522,0.01912 -0.03587,0.0073 -0.07177,0.01579 -0.106969,0.02481 -0.03521,0.009 -0.0699,0.01877 -0.104388,0.02946 -0.03449,0.01068 -0.06859,0.02232 -0.10232,0.03462 -0.03373,0.0123 -0.06732,0.02539 -0.100251,0.03927 -0.03293,0.01388 -0.06507,0.02851 -0.09715,0.04393 -0.03208,0.01541 -0.0639,0.03116 -0.09508,0.04806 -0.03118,0.0169 -0.06174,0.03489 -0.09198,0.05323 -0.03024,0.01834 -0.06015,0.03711 -0.0894,0.05684 -0.02926,0.01973 -0.05808,0.04041 -0.0863,0.06149 -0.02822,0.02108 -0.05554,0.04273 -0.08268,0.06511 -0.02715,0.02238 -0.05407,0.0456 -0.0801,0.06925 -0.02604,0.02364 -0.05162,0.04749 -0.07648,0.07235 -0.02484,0.02486 -0.0487,0.05046 -0.07235,0.07648 -0.02365,0.02602 -0.04686,0.05243 -0.06925,0.07958 -0.02238,0.02715 -0.04403,0.05498 -0.06511,0.0832 -0.02109,0.02822 -0.04176,0.05705 -0.0615,0.0863 -0.01974,0.02925 -0.03851,0.05916 -0.05684,0.0894 -0.01834,0.03024 -0.03581,0.0608 -0.05271,0.09198 -0.01691,0.03118 -0.03317,0.06301 -0.04858,0.09508 -0.0154,0.03208 -0.03004,0.06423 -0.04392,0.09715 -0.01389,0.03293 -0.02697,0.06652 -0.03927,0.100252 -0.0123,0.03373 -0.02394,0.06783 -0.03462,0.10232 -0.01069,0.03449 -0.02043,0.06918 -0.02946,0.104386 -0.009,0.0352 -0.01749,0.0711 -0.02479,0.10697 -0.0073,0.03587 -0.01357,0.07203 -0.01913,0.108521 -0.0056,0.0365 -0.01021,0.073 -0.01394,0.110071 -0.0037,0.03707 -0.0064,0.07453 -0.0083,0.112138 -0.0019,0.03761 -0.0031,0.0756 -0.0031,0.113688 v 6.182566 c 0,0.03809 0.0013,0.07608 0.0031,0.113688 0.0019,0.03761 0.0045,0.07506 0.0083,0.112138 0.0038,0.03707 0.0084,0.07358 0.01394,0.11007 0.0056,0.0365 0.01183,0.07265 0.01913,0.108521 0.0073,0.03587 0.01579,0.07177 0.02479,0.10697 0.009,0.0352 0.01876,0.0699 0.02946,0.104386 0.01069,0.03449 0.0223,0.06859 0.03462,0.10232 0.0123,0.03373 0.0254,0.06733 0.03927,0.100252 0.01389,0.03293 0.02851,0.06508 0.04392,0.09715 0.0154,0.03208 0.03168,0.0639 0.04858,0.09509 0.01691,0.03118 0.03437,0.06174 0.05271,0.09198 0.01833,0.03024 0.03711,0.06015 0.05684,0.0894 0.01974,0.02925 0.04041,0.05808 0.0615,0.0863 0.02109,0.02822 0.04273,0.05605 0.06511,0.0832 0.02238,0.02715 0.0456,0.05356 0.06925,0.07958 0.02365,0.02602 0.04749,0.05162 0.07235,0.07648 0.02487,0.02485 0.05046,0.0487 0.07648,0.07235 0.02603,0.02364 0.05295,0.04686 0.0801,0.06925 0.02715,0.02238 0.05446,0.04403 0.08268,0.06511 0.02822,0.02108 0.05705,0.04176 0.0863,0.06149 0.02925,0.01973 0.05916,0.03851 0.0894,0.05684 0.03024,0.01834 0.0608,0.03633 0.09198,0.05323 0.03118,0.0169 0.06301,0.03265 0.09508,0.04806 0.03208,0.01541 0.06422,0.03004 0.09715,0.04392 0.03293,0.01388 0.06652,0.02697 0.100251,0.03927 0.03373,0.01231 0.06783,0.02394 0.10232,0.03462 0.03449,0.01068 0.06918,0.02044 0.104388,0.02946 0.0352,0.009 0.0711,0.0175 0.106969,0.0248 0.03587,0.0073 0.07203,0.01358 0.108522,0.01912 0.03649,0.0055 0.073,0.01021 0.110069,0.01395 0.03707,0.0037 0.07453,0.0064 0.112139,0.0083 0.0376,0.0019 0.0756,0.0031 0.113689,0.0031 h 6.182569 c 0.03809,0 0.07608,-0.0012 0.113686,-0.0031 0.03761,-0.0019 0.07507,-0.0045 0.112138,-0.0083 0.03707,-0.0037 0.07358,-0.0084 0.110072,-0.01395 0.03649,-0.0055 0.07265,-0.01182 0.108519,-0.01912 0.03588,-0.0073 0.07177,-0.01579 0.106971,-0.0248 0.03521,-0.009 0.0699,-0.01877 0.104386,-0.02946 0.03449,-0.01068 0.06859,-0.02232 0.10232,-0.03462 0.03373,-0.01231 0.06733,-0.02539 0.100253,-0.03927 0.03293,-0.01388 0.06507,-0.02851 0.09715,-0.04392 0.03208,-0.01541 0.0639,-0.03116 0.09508,-0.04806 0.03118,-0.0169 0.06174,-0.03489 0.09198,-0.05323 0.03024,-0.01834 0.06015,-0.03711 0.0894,-0.05684 0.02926,-0.01973 0.05808,-0.04041 0.0863,-0.06149 0.02822,-0.02108 0.05605,-0.04273 0.0832,-0.06511 0.02715,-0.02238 0.05356,-0.0456 0.07958,-0.06925 0.02603,-0.02364 0.05163,-0.04749 0.07648,-0.07235 0.02484,-0.02486 0.04922,-0.05046 0.07286,-0.07648 0.02365,-0.02602 0.04635,-0.05243 0.06873,-0.07958 0.02238,-0.02715 0.04403,-0.05498 0.06511,-0.0832 0.02109,-0.02822 0.04176,-0.05705 0.0615,-0.0863 0.01974,-0.02925 0.03851,-0.05916 0.05684,-0.0894 0.01833,-0.03024 0.03633,-0.0608 0.05323,-0.09198 0.01691,-0.03118 0.03265,-0.06301 0.04806,-0.09509 0.01543,-0.03208 0.03056,-0.06422 0.04444,-0.09715 0.01389,-0.03293 0.02697,-0.06652 0.03928,-0.100252 0.0123,-0.03373 0.02341,-0.06783 0.03411,-0.10232 0.01069,-0.03449 0.02096,-0.06918 0.02997,-0.104386 0.009,-0.0352 0.01699,-0.0711 0.02429,-0.10697 0.0073,-0.03587 0.01357,-0.07203 0.01913,-0.108521 0.0056,-0.0365 0.01021,-0.073 0.01394,-0.11007 0.0038,-0.03707 0.0069,-0.07453 0.0088,-0.112138 0.0019,-0.0376 0.0026,-0.0756 0.0026,-0.113688 v -6.182568 c 0,-0.03809 -7.94e-4,-0.07608 -0.0026,-0.113689 -0.0019,-0.03761 -0.0051,-0.07507 -0.0088,-0.112138 -0.0037,-0.03707 -0.0084,-0.07357 -0.01394,-0.110071 -0.0056,-0.0365 -0.01183,-0.07265 -0.01913,-0.108521 -0.0073,-0.03587 -0.01527,-0.07177 -0.02429,-0.10697 -0.009,-0.0352 -0.01929,-0.0699 -0.02997,-0.104386 -0.01069,-0.03449 -0.0218,-0.06859 -0.03411,-0.102319 -0.0123,-0.03373 -0.0254,-0.06733 -0.03928,-0.100253 -0.01389,-0.03293 -0.02903,-0.06508 -0.04444,-0.09715 -0.0154,-0.03208 -0.03116,-0.0639 -0.04806,-0.09509 -0.01691,-0.03118 -0.03489,-0.06174 -0.05323,-0.09198 -0.01834,-0.03024 -0.03711,-0.06015 -0.05684,-0.0894 -0.01974,-0.02926 -0.04042,-0.05808 -0.0615,-0.0863 -0.02109,-0.02822 -0.04273,-0.05605 -0.06511,-0.0832 -0.02238,-0.02715 -0.04509,-0.05356 -0.06873,-0.07958 -0.02365,-0.02602 -0.04801,-0.05162 -0.07286,-0.07648 -0.02487,-0.02486 -0.05046,-0.0487 -0.07648,-0.07235 -0.02604,-0.02364 -0.05244,-0.04686 -0.07958,-0.06925 -0.02715,-0.02238 -0.05497,-0.04403 -0.0832,-0.06511 -0.02822,-0.02108 -0.05704,-0.04176 -0.0863,-0.06149 -0.02925,-0.01973 -0.05916,-0.03851 -0.0894,-0.05684 -0.03024,-0.01834 -0.0608,-0.03633 -0.09198,-0.05323 -0.03118,-0.0169 -0.06301,-0.03265 -0.09508,-0.04806 -0.03208,-0.01541 -0.06423,-0.03004 -0.09715,-0.04392 -0.03293,-0.01388 -0.06652,-0.02697 -0.100253,-0.03927 -0.03373,-0.0123 -0.06783,-0.02394 -0.10232,-0.03462 -0.03449,-0.01068 -0.06918,-0.02044 -0.104386,-0.02946 -0.0352,-0.009 -0.0711,-0.0175 -0.106971,-0.02481 -0.03587,-0.0073 -0.07202,-0.01357 -0.108519,-0.01912 -0.0365,-0.0056 -0.073,-0.01021 -0.110072,-0.01395 -0.03707,-0.0037 -0.07453,-0.0064 -0.112138,-0.0083 -0.0376,-0.0019 -0.07559,-0.0031 -0.113686,-0.0031 z m 5.29e-4,0.264067 h 6.181534 c 1.076952,0 1.9358,0.858848 1.9358,1.935798 v 6.183602 c 0,1.07695 -0.858848,1.935282 -1.9358,1.935282 h -6.181534 c -1.07695,0 -1.935282,-0.858332 -1.935282,-1.935282 v -6.183602 c 0,-1.07695 0.858331,-1.935798 1.935282,-1.935798 z" />
      <rect
         style="opacity:0.2;mix-blend-mode:overlay;fill:url(#linearGradient16560);fill-opacity:1;stroke:none;stroke-width:0.55007;stroke-linecap:square"
         id="rect16554"
         width="10.583333"
         height="10.583333"
         x="-43.465538"
         y="-25.719196"
         ry="2.2002783"
         rx="2.2002783"
         transform="scale(-1)" />
      <rect
         style="opacity:0.2;mix-blend-mode:overlay;fill:url(#linearGradient16558);fill-opacity:1;stroke:none;stroke-width:0.55007;stroke-linecap:square"
         id="rect16556"
         width="10.583333"
         height="10.583333"
         x="32.882202"
         y="15.135863"
         ry="2.2002783"
         rx="2.2002783" />
    </g>
  </g>
</svg>
