<?xml version="1.0" encoding="UTF-8" standalone="no"?>
<!-- Created with Inkscape (http://www.inkscape.org/) -->

<svg
   width="48"
   height="48"
   viewBox="0 0 12.7 12.7"
   version="1.1"
   id="svg39233"
   sodipodi:docname="org.gnome.Yelp.svg"
   inkscape:export-filename="/home/bokehlicia/.local/share/icons/Testeo/48x48/apps/google-chrome.png"
   inkscape:export-xdpi="96"
   inkscape:export-ydpi="96"
   inkscape:version="1.1 (c68e22c387, 2021-05-23)"
   xmlns:inkscape="http://www.inkscape.org/namespaces/inkscape"
   xmlns:sodipodi="http://sodipodi.sourceforge.net/DTD/sodipodi-0.dtd"
   xmlns:xlink="http://www.w3.org/1999/xlink"
   xmlns="http://www.w3.org/2000/svg"
   xmlns:svg="http://www.w3.org/2000/svg">
  <sodipodi:namedview
     id="namedview39235"
     pagecolor="#505050"
     bordercolor="#eeeeee"
     borderopacity="1"
     inkscape:pageshadow="0"
     inkscape:pageopacity="0"
     inkscape:pagecheckerboard="0"
     inkscape:document-units="mm"
     showgrid="false"
     units="px"
     inkscape:zoom="17.337391"
     inkscape:cx="24.023223"
     inkscape:cy="22.811968"
     inkscape:window-width="1920"
     inkscape:window-height="1048"
     inkscape:window-x="0"
     inkscape:window-y="32"
     inkscape:window-maximized="1"
     inkscape:current-layer="layer1" />
  <defs
     id="defs39230">
    <filter
       style="color-interpolation-filters:sRGB"
       inkscape:label="Blur"
       id="filter33679"
       x="-0.0022677166"
       y="-0.070299215"
       width="1.0045354"
       height="1.1405984">
      <feGaussianBlur
         stdDeviation="0.01 0.31"
         result="blur"
         id="feGaussianBlur33677" />
    </filter>
    <filter
       style="color-interpolation-filters:sRGB"
       inkscape:label="Blur"
       id="filter44738"
       x="-0.0038016884"
       y="-0.083285628"
       width="1.0076034"
       height="1.1665713">
      <feGaussianBlur
         stdDeviation="0.01 0.21"
         result="blur"
         id="feGaussianBlur44736" />
    </filter>
    <linearGradient
       inkscape:collect="always"
       xlink:href="#linearGradient2864"
       id="linearGradient8756"
       gradientUnits="userSpaceOnUse"
       gradientTransform="translate(-59.123959,-41.532834)"
       x1="6.4202108"
       y1="0.96924353"
       x2="6.4202108"
       y2="11.540484" />
    <linearGradient
       inkscape:collect="always"
       id="linearGradient2864">
      <stop
         style="stop-color:#000000;stop-opacity:1"
         offset="0"
         id="stop2860" />
      <stop
         style="stop-color:#fefefe;stop-opacity:0"
         offset="1"
         id="stop2862" />
    </linearGradient>
    <linearGradient
       inkscape:collect="always"
       xlink:href="#linearGradient2084"
       id="linearGradient8758"
       gradientUnits="userSpaceOnUse"
       gradientTransform="translate(46.423955,28.832832)"
       x1="6.4202108"
       y1="0.96924353"
       x2="6.4202108"
       y2="11.540484" />
    <linearGradient
       inkscape:collect="always"
       id="linearGradient2084">
      <stop
         style="stop-color:#ffffff;stop-opacity:1"
         offset="0"
         id="stop2080" />
      <stop
         style="stop-color:#000000;stop-opacity:0"
         offset="1"
         id="stop2082" />
    </linearGradient>
  </defs>
  <g
     inkscape:label="Calque 1"
     inkscape:groupmode="layer"
     id="layer1">
    <g
       id="path1657" />
    <g
       id="path1659" />
    <g
       id="g45279"
       transform="translate(-46.423957,-29.676329)">
      <rect
         style="opacity:0.2;mix-blend-mode:overlay;fill:#000000;fill-opacity:1;stroke:none;stroke-width:0.55007;stroke-linecap:square;filter:url(#filter33679)"
         id="rect8739"
         width="10.583333"
         height="10.583333"
         x="-31.628342"
         y="-3.2242157"
         ry="2.2002783"
         rx="2.2002783"
         transform="rotate(180,13.218641,18.889723)" />
      <rect
         style="fill:#ffffff;fill-opacity:1;stroke:none;stroke-width:0.55007;stroke-linecap:square"
         id="rect8741"
         width="10.583333"
         height="10.583333"
         x="47.482292"
         y="29.891163"
         ry="2.2002783"
         rx="2.2002783" />
      <path
         id="path8747"
         style="color:#000000;opacity:0.2;mix-blend-mode:soft-light;fill:#ffffff;stroke-width:1;stroke-linecap:square;-inkscape-stroke:none"
         d="m 49.682168,29.891146 c -0.0381,0 -0.0761,0.0012 -0.11369,0.0031 -0.0376,0.0019 -0.0751,0.0045 -0.11213,0.0083 -0.0371,0.0037 -0.0736,0.0084 -0.11007,0.01395 -0.0365,0.0056 -0.0726,0.01182 -0.10852,0.01912 -0.0359,0.0073 -0.0718,0.01579 -0.10697,0.02481 -0.0352,0.009 -0.0699,0.01877 -0.10439,0.02946 -0.0345,0.01068 -0.0686,0.02232 -0.10232,0.03462 -0.0337,0.0123 -0.0673,0.02539 -0.10025,0.03927 -0.0329,0.01388 -0.0651,0.02851 -0.0971,0.04393 -0.0321,0.01541 -0.0639,0.03116 -0.0951,0.04806 -0.0312,0.0169 -0.0617,0.03489 -0.092,0.05323 -0.0302,0.01834 -0.0602,0.03711 -0.0894,0.05684 -0.0293,0.01973 -0.0581,0.04041 -0.0863,0.06149 -0.0282,0.02108 -0.0555,0.04273 -0.0827,0.06511 -0.0272,0.02238 -0.0541,0.0456 -0.0801,0.06925 -0.026,0.02364 -0.0516,0.04749 -0.0765,0.07235 -0.0248,0.02486 -0.0487,0.05046 -0.0724,0.07648 -0.0237,0.02602 -0.0469,0.05243 -0.0692,0.07958 -0.0224,0.02715 -0.044,0.05498 -0.0651,0.0832 -0.0211,0.02822 -0.0418,0.05705 -0.0615,0.0863 -0.0197,0.02925 -0.0385,0.05916 -0.0568,0.0894 -0.0183,0.03024 -0.0358,0.0608 -0.0527,0.09198 -0.0169,0.03118 -0.0332,0.06301 -0.0486,0.09508 -0.0154,0.03208 -0.03,0.06423 -0.0439,0.09715 -0.0139,0.03293 -0.027,0.06652 -0.0393,0.100252 -0.0123,0.03373 -0.0239,0.06783 -0.0346,0.10232 -0.0107,0.03449 -0.0204,0.06918 -0.0295,0.104386 -0.009,0.0352 -0.0175,0.0711 -0.0248,0.10697 -0.007,0.03587 -0.0136,0.07203 -0.0191,0.108521 -0.006,0.0365 -0.0102,0.073 -0.0139,0.110071 -0.004,0.03707 -0.006,0.07453 -0.008,0.112138 -0.002,0.03761 -0.003,0.0756 -0.003,0.113688 v 6.182567 c 0,0.03809 10e-4,0.07608 0.003,0.113688 0.002,0.03761 0.004,0.07507 0.008,0.112137 0.004,0.03707 0.008,0.07357 0.0139,0.110071 0.006,0.0365 0.0118,0.07265 0.0191,0.108521 0.007,0.03587 0.0158,0.07177 0.0248,0.10697 0.009,0.0352 0.0188,0.0699 0.0295,0.104386 0.0107,0.03449 0.0223,0.06859 0.0346,0.10232 0.0123,0.03373 0.0254,0.06733 0.0393,0.100252 0.0139,0.03293 0.0285,0.06508 0.0439,0.09715 0.0154,0.03208 0.0317,0.0639 0.0486,0.09509 0.0169,0.03118 0.0344,0.06174 0.0527,0.09198 0.0183,0.03024 0.0371,0.06015 0.0568,0.0894 0.0197,0.02925 0.0404,0.05808 0.0615,0.0863 0.0211,0.02822 0.0427,0.05605 0.0651,0.0832 0.0224,0.02715 0.0456,0.05356 0.0692,0.07958 0.0237,0.02602 0.0475,0.05162 0.0724,0.07648 0.0249,0.02485 0.0505,0.0487 0.0765,0.07235 0.026,0.02364 0.0529,0.04686 0.0801,0.06925 0.0271,0.02238 0.0545,0.04403 0.0827,0.06511 0.0282,0.02108 0.0571,0.04176 0.0863,0.06149 0.0293,0.01973 0.0592,0.03851 0.0894,0.05684 0.0302,0.01834 0.0608,0.03633 0.092,0.05323 0.0312,0.0169 0.063,0.03265 0.0951,0.04806 0.0321,0.01541 0.0642,0.03004 0.0971,0.04392 0.0329,0.01388 0.0665,0.02697 0.10025,0.03927 0.0337,0.01231 0.0678,0.02394 0.10232,0.03462 0.0345,0.01068 0.0692,0.02044 0.10439,0.02946 0.0352,0.009 0.0711,0.0175 0.10697,0.0248 0.0359,0.0073 0.072,0.01358 0.10852,0.01912 0.0365,0.0055 0.073,0.01021 0.11007,0.01395 0.0371,0.0037 0.0745,0.0064 0.11213,0.0083 0.0376,0.0019 0.0756,0.0031 0.11369,0.0031 h 6.18257 c 0.0381,0 0.0761,-0.0012 0.11369,-0.0031 0.0376,-0.0019 0.0751,-0.0045 0.11214,-0.0083 0.0371,-0.0037 0.0736,-0.0084 0.11007,-0.01395 0.0365,-0.0055 0.0727,-0.01182 0.10852,-0.01912 0.0359,-0.0073 0.0718,-0.01579 0.10697,-0.0248 0.0352,-0.009 0.0699,-0.01877 0.10439,-0.02946 0.0345,-0.01068 0.0686,-0.02232 0.10232,-0.03462 0.0337,-0.01231 0.0673,-0.02539 0.10025,-0.03927 0.0329,-0.01388 0.0651,-0.02851 0.0971,-0.04392 0.0321,-0.01541 0.0639,-0.03116 0.0951,-0.04806 0.0312,-0.0169 0.0617,-0.03489 0.092,-0.05323 0.0302,-0.01834 0.0601,-0.03711 0.0894,-0.05684 0.0293,-0.01973 0.0581,-0.04041 0.0863,-0.06149 0.0282,-0.02108 0.056,-0.04273 0.0832,-0.06511 0.0272,-0.02238 0.0536,-0.0456 0.0796,-0.06925 0.026,-0.02364 0.0516,-0.04749 0.0765,-0.07235 0.0248,-0.02486 0.0492,-0.05046 0.0729,-0.07648 0.0237,-0.02602 0.0464,-0.05243 0.0687,-0.07958 0.0224,-0.02715 0.044,-0.05498 0.0651,-0.0832 0.0211,-0.02822 0.0418,-0.05705 0.0615,-0.0863 0.0197,-0.02926 0.0385,-0.05916 0.0568,-0.0894 0.0183,-0.03024 0.0363,-0.0608 0.0532,-0.09198 0.0169,-0.03118 0.0327,-0.06301 0.0481,-0.09509 0.0154,-0.03208 0.0306,-0.06423 0.0444,-0.09715 0.0139,-0.03293 0.027,-0.06652 0.0393,-0.100252 0.0123,-0.03373 0.0234,-0.06783 0.0341,-0.10232 0.0107,-0.03449 0.021,-0.06918 0.03,-0.104386 0.009,-0.0352 0.017,-0.0711 0.0243,-0.10697 0.007,-0.03587 0.0136,-0.07203 0.0191,-0.108521 0.006,-0.0365 0.0102,-0.073 0.0139,-0.110071 0.004,-0.03707 0.007,-0.07453 0.009,-0.112137 0.002,-0.03761 0.003,-0.0756 0.003,-0.113688 V 32.09155 c 0,-0.03809 -7.9e-4,-0.07608 -0.003,-0.113688 -0.002,-0.03761 -0.005,-0.07507 -0.009,-0.112138 -0.004,-0.03707 -0.008,-0.07357 -0.0139,-0.110071 -0.006,-0.0365 -0.0118,-0.07265 -0.0191,-0.108521 -0.007,-0.03587 -0.0153,-0.07177 -0.0243,-0.10697 -0.009,-0.0352 -0.0193,-0.0699 -0.03,-0.104386 -0.0107,-0.03449 -0.0218,-0.06859 -0.0341,-0.10232 -0.0123,-0.03373 -0.0254,-0.06733 -0.0393,-0.100252 -0.0139,-0.03293 -0.029,-0.06508 -0.0444,-0.09715 -0.0154,-0.03208 -0.0312,-0.0639 -0.0481,-0.09509 -0.0169,-0.03118 -0.0349,-0.06174 -0.0532,-0.09198 -0.0183,-0.03024 -0.0371,-0.06015 -0.0568,-0.0894 -0.0197,-0.02926 -0.0404,-0.05808 -0.0615,-0.0863 -0.0211,-0.02822 -0.0427,-0.05605 -0.0651,-0.0832 -0.0224,-0.02715 -0.0451,-0.05356 -0.0687,-0.07958 -0.0237,-0.02602 -0.048,-0.05162 -0.0729,-0.07648 -0.0249,-0.02486 -0.0505,-0.0487 -0.0765,-0.07235 -0.026,-0.02364 -0.0524,-0.04686 -0.0796,-0.06925 -0.0272,-0.02238 -0.055,-0.04403 -0.0832,-0.06511 -0.0282,-0.02108 -0.057,-0.04176 -0.0863,-0.06149 -0.0293,-0.01973 -0.0592,-0.03851 -0.0894,-0.05684 -0.0302,-0.01834 -0.0608,-0.03633 -0.092,-0.05323 -0.0312,-0.0169 -0.063,-0.03265 -0.0951,-0.04806 -0.0321,-0.01541 -0.0642,-0.03004 -0.0971,-0.04392 -0.0329,-0.01388 -0.0665,-0.02697 -0.10025,-0.03927 -0.0337,-0.0123 -0.0678,-0.02394 -0.10232,-0.03462 -0.0345,-0.01068 -0.0692,-0.02044 -0.10439,-0.02946 -0.0352,-0.009 -0.0711,-0.0175 -0.10697,-0.02481 -0.0359,-0.0073 -0.072,-0.01357 -0.10852,-0.01912 -0.0365,-0.0056 -0.073,-0.01021 -0.11007,-0.01395 -0.0371,-0.0037 -0.0745,-0.0064 -0.11214,-0.0083 -0.0376,-0.0019 -0.0756,-0.0031 -0.11369,-0.0031 z m 5.3e-4,0.264067 h 6.18154 c 1.07695,0 1.9358,0.858848 1.9358,1.935799 v 6.183602 c 0,1.07695 -0.85885,1.935283 -1.9358,1.935283 h -6.18154 c -1.07695,0 -1.93528,-0.858333 -1.93528,-1.935283 v -6.183602 c 0,-1.076951 0.85833,-1.935799 1.93528,-1.935799 z" />
      <path
         id="path44716"
         style="opacity:0.2;fill:#000000;fill-opacity:1;stroke:none;stroke-width:0.226975;stroke-linecap:round;stroke-linejoin:round;stroke-miterlimit:4;stroke-dasharray:none;filter:url(#filter44738)"
         d="m 51.292912,32.421835 c -0.233008,-0.0016 -0.472168,0.03713 -0.709001,0.117821 -0.421389,0.143584 -0.700535,0.424238 -0.853694,0.858345 -0.338043,0.958107 0.07025,2.000544 1.4118,3.603398 0.629328,0.751917 1.379009,1.425585 1.631942,1.471745 0.252932,-0.04616 1.002613,-0.719828 1.631943,-1.471745 1.341545,-1.602854 1.749843,-2.645291 1.411798,-3.603398 -0.15316,-0.434107 -0.432306,-0.714761 -0.853694,-0.858345 -0.688967,-0.234754 -1.40022,-0.11489 -1.909961,0.321429 l -0.280086,0.239779 -0.280087,-0.239779 c -0.334518,-0.286335 -0.756124,-0.436274 -1.20096,-0.43925 z" />
      <path
         id="path43520"
         style="opacity:1;fill:#d63031;fill-opacity:1;stroke:none;stroke-width:0.226975;stroke-linecap:round;stroke-linejoin:round;stroke-miterlimit:4;stroke-dasharray:none"
         d="m 51.292912,32.157252 c -0.233008,-0.0016 -0.472168,0.03713 -0.709001,0.117821 -0.421389,0.143584 -0.700535,0.424238 -0.853694,0.858345 -0.338043,0.958107 0.07025,2.000544 1.4118,3.603398 0.629328,0.751917 1.379009,1.425585 1.631942,1.471745 0.252932,-0.04616 1.002613,-0.719828 1.631943,-1.471745 1.341545,-1.602854 1.749843,-2.645291 1.411798,-3.603398 -0.15316,-0.434107 -0.432306,-0.714761 -0.853694,-0.858345 -0.688967,-0.234754 -1.40022,-0.11489 -1.909961,0.321429 l -0.280086,0.239779 -0.280087,-0.239779 c -0.334518,-0.286335 -0.756124,-0.436274 -1.20096,-0.43925 z" />
      <rect
         style="opacity:0.2;mix-blend-mode:overlay;fill:url(#linearGradient8756);fill-opacity:1;stroke:none;stroke-width:0.55007;stroke-linecap:square"
         id="rect8743"
         width="10.583333"
         height="10.583333"
         x="-58.065624"
         y="-40.474495"
         ry="2.2002783"
         rx="2.2002783"
         transform="scale(-1)" />
      <rect
         style="opacity:0.2;mix-blend-mode:overlay;fill:url(#linearGradient8758);fill-opacity:1;stroke:none;stroke-width:0.55007;stroke-linecap:square"
         id="rect8745"
         width="10.583333"
         height="10.583333"
         x="47.482292"
         y="29.891163"
         ry="2.2002783"
         rx="2.2002783" />
    </g>
  </g>
</svg>
