<?xml version="1.0" encoding="UTF-8" standalone="no"?>
<!-- Created with Inkscape (http://www.inkscape.org/) -->

<svg
   width="48"
   height="48"
   viewBox="0 0 12.7 12.7"
   version="1.1"
   id="svg39233"
   sodipodi:docname="org.gnome.Photos.svg"
   inkscape:export-filename="/home/bokehlicia/.local/share/icons/Testeo/48x48/apps/google-chrome.png"
   inkscape:export-xdpi="96"
   inkscape:export-ydpi="96"
   inkscape:version="1.1 (c68e22c387, 2021-05-23)"
   xmlns:inkscape="http://www.inkscape.org/namespaces/inkscape"
   xmlns:sodipodi="http://sodipodi.sourceforge.net/DTD/sodipodi-0.dtd"
   xmlns:xlink="http://www.w3.org/1999/xlink"
   xmlns="http://www.w3.org/2000/svg"
   xmlns:svg="http://www.w3.org/2000/svg">
  <sodipodi:namedview
     id="namedview39235"
     pagecolor="#505050"
     bordercolor="#eeeeee"
     borderopacity="1"
     inkscape:pageshadow="0"
     inkscape:pageopacity="0"
     inkscape:pagecheckerboard="0"
     inkscape:document-units="mm"
     showgrid="false"
     units="px"
     inkscape:zoom="5.3664983"
     inkscape:cx="-17.422907"
     inkscape:cy="47.423848"
     inkscape:window-width="1920"
     inkscape:window-height="1048"
     inkscape:window-x="0"
     inkscape:window-y="32"
     inkscape:window-maximized="1"
     inkscape:current-layer="layer1" />
  <defs
     id="defs39230">
    <filter
       style="color-interpolation-filters:sRGB"
       inkscape:label="Blur"
       id="filter33679-36"
       x="-0.0022677166"
       y="-0.070299215"
       width="1.0045354"
       height="1.1405984">
      <feGaussianBlur
         stdDeviation="0.01 0.31"
         result="blur"
         id="feGaussianBlur33677-75" />
    </filter>
    <filter
       style="color-interpolation-filters:sRGB"
       inkscape:label="Blur"
       id="filter16454"
       x="-0.0029128176"
       y="-0.50314333"
       width="1.0058256"
       height="2.0062867">
      <feGaussianBlur
         stdDeviation="0.00014329173"
         result="fbSourceGraphic"
         id="feGaussianBlur16448" />
      <feColorMatrix
         result="fbSourceGraphicAlpha"
         in="fbSourceGraphic"
         values="0 0 0 -1 0 0 0 0 -1 0 0 0 0 -1 0 0 0 0 1 0"
         id="feColorMatrix16450" />
      <feGaussianBlur
         id="feGaussianBlur16452"
         stdDeviation="0.01 0.21"
         result="fbSourceGraphic"
         in="fbSourceGraphic" />
      <feColorMatrix
         result="fbSourceGraphicAlpha"
         in="fbSourceGraphic"
         values="0 0 0 -1 0 0 0 0 -1 0 0 0 0 -1 0 0 0 0 1 0"
         id="feColorMatrix16550" />
      <feGaussianBlur
         id="feGaussianBlur16552"
         stdDeviation="0.01 0.31"
         result="blur"
         in="fbSourceGraphic" />
    </filter>
    <filter
       style="color-interpolation-filters:sRGB"
       inkscape:label="Blur"
       id="filter37594-3"
       x="-4009.562"
       y="-0.60945949"
       width="8020.1241"
       height="2.218919">
      <feGaussianBlur
         stdDeviation="3.3313018"
         result="fbSourceGraphic"
         id="feGaussianBlur37592-5" />
      <feColorMatrix
         result="fbSourceGraphicAlpha"
         in="fbSourceGraphic"
         values="0 0 0 -1 0 0 0 0 -1 0 0 0 0 -1 0 0 0 0 1 0"
         id="feColorMatrix37903-6" />
      <feGaussianBlur
         id="feGaussianBlur37905-2"
         stdDeviation="0.01 0.21"
         result="blur"
         in="fbSourceGraphic" />
    </filter>
    <filter
       style="color-interpolation-filters:sRGB"
       inkscape:label="Blur"
       id="filter33679"
       x="-0.0022677166"
       y="-0.070299215"
       width="1.0045354"
       height="1.1405984">
      <feGaussianBlur
         stdDeviation="0.01 0.31"
         result="blur"
         id="feGaussianBlur33677" />
    </filter>
    <filter
       style="color-interpolation-filters:sRGB"
       inkscape:label="Blur"
       id="filter44951"
       x="-0.0033005626"
       y="-0.15077289"
       width="1.0066011"
       height="1.3015458">
      <feGaussianBlur
         stdDeviation="0.01 0.11"
         result="fbSourceGraphic"
         id="feGaussianBlur44949" />
      <feColorMatrix
         result="fbSourceGraphicAlpha"
         in="fbSourceGraphic"
         values="0 0 0 -1 0 0 0 0 -1 0 0 0 0 -1 0 0 0 0 1 0"
         id="feColorMatrix45347" />
      <feGaussianBlur
         id="feGaussianBlur45349"
         stdDeviation="0.01 0.11"
         result="blur"
         in="fbSourceGraphic" />
    </filter>
    <filter
       style="color-interpolation-filters:sRGB"
       inkscape:label="Blur"
       id="filter44955"
       x="-0.0038281128"
       y="-0.058683163"
       width="1.0076562"
       height="1.1173663">
      <feGaussianBlur
         stdDeviation="0.01 0.11"
         result="fbSourceGraphic"
         id="feGaussianBlur44953" />
      <feColorMatrix
         result="fbSourceGraphicAlpha"
         in="fbSourceGraphic"
         values="0 0 0 -1 0 0 0 0 -1 0 0 0 0 -1 0 0 0 0 1 0"
         id="feColorMatrix45351" />
      <feGaussianBlur
         id="feGaussianBlur45353"
         stdDeviation="0.01 0.11"
         result="blur"
         in="fbSourceGraphic" />
    </filter>
    <filter
       style="color-interpolation-filters:sRGB"
       inkscape:label="Blur"
       id="filter44947"
       x="-0.0038288034"
       y="-0.058711379"
       width="1.0076576"
       height="1.1174228">
      <feGaussianBlur
         stdDeviation="0.01 0.11"
         result="fbSourceGraphic"
         id="feGaussianBlur44945" />
      <feColorMatrix
         result="fbSourceGraphicAlpha"
         in="fbSourceGraphic"
         values="0 0 0 -1 0 0 0 0 -1 0 0 0 0 -1 0 0 0 0 1 0"
         id="feColorMatrix45343" />
      <feGaussianBlur
         id="feGaussianBlur45345"
         stdDeviation="0.01 0.11"
         result="blur"
         in="fbSourceGraphic" />
    </filter>
    <filter
       style="color-interpolation-filters:sRGB"
       inkscape:label="Blur"
       id="filter44927"
       x="-0.0080073361"
       y="-0.13179736"
       width="1.0160147"
       height="1.2635947">
      <feGaussianBlur
         stdDeviation="0.01 0.11"
         result="fbSourceGraphic"
         id="feGaussianBlur44925" />
      <feColorMatrix
         result="fbSourceGraphicAlpha"
         in="fbSourceGraphic"
         values="0 0 0 -1 0 0 0 0 -1 0 0 0 0 -1 0 0 0 0 1 0"
         id="feColorMatrix45323" />
      <feGaussianBlur
         id="feGaussianBlur45325"
         stdDeviation="0.01 0.11"
         result="blur"
         in="fbSourceGraphic" />
    </filter>
    <filter
       style="color-interpolation-filters:sRGB"
       inkscape:label="Blur"
       id="filter44931"
       x="-0.0038285368"
       y="-0.058710993"
       width="1.0076571"
       height="1.117422">
      <feGaussianBlur
         stdDeviation="0.01 0.11"
         result="fbSourceGraphic"
         id="feGaussianBlur44929" />
      <feColorMatrix
         result="fbSourceGraphicAlpha"
         in="fbSourceGraphic"
         values="0 0 0 -1 0 0 0 0 -1 0 0 0 0 -1 0 0 0 0 1 0"
         id="feColorMatrix45327" />
      <feGaussianBlur
         id="feGaussianBlur45329"
         stdDeviation="0.01 0.11"
         result="blur"
         in="fbSourceGraphic" />
    </filter>
    <filter
       style="color-interpolation-filters:sRGB"
       inkscape:label="Blur"
       id="filter44935"
       x="-0.0033005626"
       y="-0.15077314"
       width="1.0066011"
       height="1.3015463">
      <feGaussianBlur
         stdDeviation="0.01 0.11"
         result="fbSourceGraphic"
         id="feGaussianBlur44933" />
      <feColorMatrix
         result="fbSourceGraphicAlpha"
         in="fbSourceGraphic"
         values="0 0 0 -1 0 0 0 0 -1 0 0 0 0 -1 0 0 0 0 1 0"
         id="feColorMatrix45331" />
      <feGaussianBlur
         id="feGaussianBlur45333"
         stdDeviation="0.01 0.11"
         result="blur"
         in="fbSourceGraphic" />
    </filter>
    <filter
       style="color-interpolation-filters:sRGB"
       inkscape:label="Blur"
       id="filter44939"
       x="-0.0038278962"
       y="-0.058690636"
       width="1.0076558"
       height="1.1173813">
      <feGaussianBlur
         stdDeviation="0.01 0.11"
         result="fbSourceGraphic"
         id="feGaussianBlur44937" />
      <feColorMatrix
         result="fbSourceGraphicAlpha"
         in="fbSourceGraphic"
         values="0 0 0 -1 0 0 0 0 -1 0 0 0 0 -1 0 0 0 0 1 0"
         id="feColorMatrix45335" />
      <feGaussianBlur
         id="feGaussianBlur45337"
         stdDeviation="0.01 0.11"
         result="blur"
         in="fbSourceGraphic" />
    </filter>
    <filter
       style="color-interpolation-filters:sRGB"
       inkscape:label="Blur"
       id="filter44943"
       x="-0.0080078036"
       y="-0.13206438"
       width="1.0160156"
       height="1.2641288">
      <feGaussianBlur
         stdDeviation="0.01 0.11"
         result="fbSourceGraphic"
         id="feGaussianBlur44941" />
      <feColorMatrix
         result="fbSourceGraphicAlpha"
         in="fbSourceGraphic"
         values="0 0 0 -1 0 0 0 0 -1 0 0 0 0 -1 0 0 0 0 1 0"
         id="feColorMatrix45339" />
      <feGaussianBlur
         id="feGaussianBlur45341"
         stdDeviation="0.01 0.11"
         result="blur"
         in="fbSourceGraphic" />
    </filter>
    <linearGradient
       inkscape:collect="always"
       xlink:href="#linearGradient2084"
       id="linearGradient46100"
       gradientUnits="userSpaceOnUse"
       gradientTransform="translate(63.42345,42.755106)"
       x1="6.4202108"
       y1="0.96924353"
       x2="6.4202108"
       y2="11.540484" />
    <linearGradient
       inkscape:collect="always"
       id="linearGradient2084">
      <stop
         style="stop-color:#ffffff;stop-opacity:1"
         offset="0"
         id="stop2080" />
      <stop
         style="stop-color:#000000;stop-opacity:0"
         offset="1"
         id="stop2082" />
    </linearGradient>
    <linearGradient
       inkscape:collect="always"
       xlink:href="#linearGradient2864"
       id="linearGradient46098"
       gradientUnits="userSpaceOnUse"
       gradientTransform="translate(-76.123439,-55.4551)"
       x1="6.4202108"
       y1="0.96924353"
       x2="6.4202108"
       y2="11.540484" />
    <linearGradient
       inkscape:collect="always"
       id="linearGradient2864">
      <stop
         style="stop-color:#000000;stop-opacity:1"
         offset="0"
         id="stop2860" />
      <stop
         style="stop-color:#fefefe;stop-opacity:0"
         offset="1"
         id="stop2862" />
    </linearGradient>
    <filter
       style="color-interpolation-filters:sRGB"
       inkscape:label="Blur"
       id="filter33679-3"
       x="-0.0022677166"
       y="-0.070299215"
       width="1.0045354"
       height="1.1405984">
      <feGaussianBlur
         stdDeviation="0.01 0.31"
         result="blur"
         id="feGaussianBlur33677-5" />
    </filter>
    <filter
       style="color-interpolation-filters:sRGB"
       inkscape:label="Blur"
       id="filter96504"
       x="-0.0069797323"
       y="-0.081836166"
       width="1.0139595"
       height="1.1636723">
      <feGaussianBlur
         stdDeviation="0.01 0.11"
         result="blur"
         id="feGaussianBlur96502" />
    </filter>
    <filter
       style="color-interpolation-filters:sRGB"
       inkscape:label="Blur"
       id="filter96500"
       x="-0.0062470763"
       y="-0.12469375"
       width="1.0124942"
       height="1.2493875">
      <feGaussianBlur
         stdDeviation="0.01 0.11"
         result="blur"
         id="feGaussianBlur96498" />
    </filter>
    <filter
       style="color-interpolation-filters:sRGB"
       inkscape:label="Blur"
       id="filter96496"
       x="-0.0069797346"
       y="-0.081836202"
       width="1.0139595"
       height="1.1636724">
      <feGaussianBlur
         stdDeviation="0.01 0.11"
         result="blur"
         id="feGaussianBlur96494" />
    </filter>
    <filter
       style="color-interpolation-filters:sRGB"
       inkscape:label="Blur"
       id="filter96492"
       x="-0.011335795"
       y="-0.068717841"
       width="1.0226716"
       height="1.1374357">
      <feGaussianBlur
         stdDeviation="0.01 0.11"
         result="blur"
         id="feGaussianBlur96490" />
    </filter>
    <filter
       style="color-interpolation-filters:sRGB"
       inkscape:label="Blur"
       id="filter96488"
       x="-0.0069797345"
       y="-0.081836187"
       width="1.0139595"
       height="1.1636724">
      <feGaussianBlur
         stdDeviation="0.01 0.11"
         result="blur"
         id="feGaussianBlur96486" />
    </filter>
    <filter
       style="color-interpolation-filters:sRGB"
       inkscape:label="Blur"
       id="filter96484"
       x="-0.0062470779"
       y="-0.12469375"
       width="1.0124942"
       height="1.2493875">
      <feGaussianBlur
         stdDeviation="0.01 0.11"
         result="blur"
         id="feGaussianBlur96482" />
    </filter>
    <filter
       style="color-interpolation-filters:sRGB"
       inkscape:label="Blur"
       id="filter96480"
       x="-0.0069797333"
       y="-0.081836204"
       width="1.0139595"
       height="1.1636724">
      <feGaussianBlur
         stdDeviation="0.01 0.11"
         result="blur"
         id="feGaussianBlur96478" />
    </filter>
    <filter
       style="color-interpolation-filters:sRGB"
       inkscape:label="Blur"
       id="filter96476"
       x="-0.011335795"
       y="-0.068717859"
       width="1.0226716"
       height="1.1374357">
      <feGaussianBlur
         stdDeviation="0.01 0.11"
         result="blur"
         id="feGaussianBlur96474" />
    </filter>
  </defs>
  <g
     inkscape:label="Calque 1"
     inkscape:groupmode="layer"
     id="layer1">
    <g
       id="path1657" />
    <g
       id="path1659" />
    <g
       id="g96705"
       transform="translate(-63.423455,-43.598605)">
      <rect
         style="opacity:0.2;mix-blend-mode:overlay;fill:url(#linearGradient46100);fill-opacity:1;stroke:none;stroke-width:0.55007;stroke-linecap:square"
         id="rect46094"
         width="10.583333"
         height="10.583333"
         x="64.481789"
         y="43.813438"
         ry="2.2002783"
         rx="2.2002783" />
      <rect
         style="opacity:0.2;mix-blend-mode:overlay;fill:url(#linearGradient46098);fill-opacity:1;stroke:none;stroke-width:0.55007;stroke-linecap:square"
         id="rect46096"
         width="10.583333"
         height="10.583333"
         x="-75.065125"
         y="-54.39677"
         ry="2.2002783"
         rx="2.2002783"
         transform="scale(-1)" />
      <rect
         style="opacity:0.2;mix-blend-mode:overlay;fill:#000000;fill-opacity:1;stroke:none;stroke-width:0.55007;stroke-linecap:square;filter:url(#filter33679-3)"
         id="rect46287"
         width="10.583333"
         height="10.583333"
         x="-31.628342"
         y="-3.2242157"
         ry="2.2002783"
         rx="2.2002783"
         transform="rotate(180,21.71839,25.850861)" />
      <rect
         style="fill:#ffffff;fill-opacity:1;stroke:none;stroke-width:0.55007;stroke-linecap:square"
         id="rect46289"
         width="10.583333"
         height="10.583333"
         x="64.481789"
         y="43.813438"
         ry="2.2002783"
         rx="2.2002783" />
      <path
         id="path46299"
         style="color:#000000;opacity:0.2;mix-blend-mode:soft-light;fill:#ffffff;stroke-width:1;stroke-linecap:square;-inkscape-stroke:none"
         d="m 66.681671,43.813438 c -0.0381,0 -0.0761,0.0012 -0.11369,0.0031 -0.0376,0.0019 -0.0751,0.0045 -0.11213,0.0083 -0.0371,0.0037 -0.0736,0.0084 -0.11007,0.01395 -0.0365,0.0056 -0.0726,0.01182 -0.10852,0.01912 -0.0359,0.0073 -0.0718,0.01579 -0.10697,0.02481 -0.0352,0.009 -0.0699,0.01877 -0.10439,0.02946 -0.0345,0.01068 -0.0686,0.02232 -0.10232,0.03462 -0.0337,0.0123 -0.0673,0.02539 -0.10025,0.03927 -0.0329,0.01388 -0.0651,0.02851 -0.0971,0.04393 -0.0321,0.01541 -0.0639,0.03116 -0.0951,0.04806 -0.0312,0.0169 -0.0617,0.03489 -0.092,0.05323 -0.0302,0.01834 -0.0602,0.03711 -0.0894,0.05684 -0.0293,0.01973 -0.0581,0.04041 -0.0863,0.06149 -0.0282,0.02108 -0.0555,0.04273 -0.0827,0.06511 -0.0272,0.02238 -0.0541,0.0456 -0.0801,0.06925 -0.026,0.02364 -0.0516,0.04749 -0.0765,0.07235 -0.0248,0.02486 -0.0487,0.05046 -0.0724,0.07648 -0.0237,0.02602 -0.0469,0.05243 -0.0692,0.07958 -0.0224,0.02715 -0.044,0.05498 -0.0651,0.0832 -0.0211,0.02822 -0.0418,0.05705 -0.0615,0.0863 -0.0197,0.02925 -0.0385,0.05916 -0.0568,0.0894 -0.0183,0.03024 -0.0358,0.0608 -0.0527,0.09198 -0.0169,0.03118 -0.0332,0.06301 -0.0486,0.09508 -0.0154,0.03208 -0.03,0.06423 -0.0439,0.09715 -0.0139,0.03293 -0.027,0.06652 -0.0393,0.100252 -0.0123,0.03373 -0.0239,0.06783 -0.0346,0.10232 -0.0107,0.03449 -0.0204,0.06918 -0.0295,0.104386 -0.009,0.0352 -0.0175,0.0711 -0.0248,0.10697 -0.007,0.03587 -0.0136,0.07203 -0.0191,0.108521 -0.006,0.0365 -0.0102,0.073 -0.0139,0.110071 -0.004,0.03707 -0.006,0.07453 -0.008,0.112138 -0.002,0.03761 -0.003,0.0756 -0.003,0.113688 v 6.182567 c 0,0.03809 0.001,0.07608 0.003,0.113688 0.002,0.03761 0.004,0.07507 0.008,0.112137 0.004,0.03707 0.008,0.07357 0.0139,0.110071 0.006,0.0365 0.0118,0.07265 0.0191,0.108521 0.007,0.03587 0.0158,0.07177 0.0248,0.10697 0.009,0.0352 0.0188,0.0699 0.0295,0.104386 0.0107,0.03449 0.0223,0.06859 0.0346,0.10232 0.0123,0.03373 0.0254,0.06733 0.0393,0.100252 0.0139,0.03293 0.0285,0.06508 0.0439,0.09715 0.0154,0.03208 0.0317,0.0639 0.0486,0.09509 0.0169,0.03118 0.0344,0.06174 0.0527,0.09198 0.0183,0.03024 0.0371,0.06015 0.0568,0.0894 0.0197,0.02925 0.0404,0.05808 0.0615,0.0863 0.0211,0.02822 0.0427,0.05605 0.0651,0.0832 0.0224,0.02715 0.0456,0.05356 0.0692,0.07958 0.0237,0.02602 0.0475,0.05162 0.0724,0.07648 0.0249,0.02485 0.0505,0.0487 0.0765,0.07235 0.026,0.02364 0.0529,0.04686 0.0801,0.06925 0.0271,0.02238 0.0545,0.04403 0.0827,0.06511 0.0282,0.02108 0.0571,0.04176 0.0863,0.06149 0.0293,0.01973 0.0592,0.03851 0.0894,0.05684 0.0302,0.01834 0.0608,0.03633 0.092,0.05323 0.0312,0.0169 0.063,0.03265 0.0951,0.04806 0.0321,0.01541 0.0642,0.03004 0.0971,0.04392 0.0329,0.01388 0.0665,0.02697 0.10025,0.03927 0.0337,0.01231 0.0678,0.02394 0.10232,0.03462 0.0345,0.01068 0.0692,0.02044 0.10439,0.02946 0.0352,0.009 0.0711,0.0175 0.10697,0.0248 0.0359,0.0073 0.072,0.01358 0.10852,0.01912 0.0365,0.0055 0.073,0.01021 0.11007,0.01395 0.0371,0.0037 0.0745,0.0064 0.11213,0.0083 0.0376,0.0019 0.0756,0.0031 0.11369,0.0031 h 6.18257 c 0.0381,0 0.0761,-0.0012 0.11369,-0.0031 0.0376,-0.0019 0.0751,-0.0045 0.11214,-0.0083 0.0371,-0.0037 0.0736,-0.0084 0.11007,-0.01395 0.0365,-0.0055 0.0727,-0.01182 0.10852,-0.01912 0.0359,-0.0073 0.0718,-0.01579 0.10697,-0.0248 0.0352,-0.009 0.0699,-0.01877 0.10439,-0.02946 0.0345,-0.01068 0.0686,-0.02232 0.10232,-0.03462 0.0337,-0.01231 0.0673,-0.02539 0.10025,-0.03927 0.0329,-0.01388 0.0651,-0.02851 0.0971,-0.04392 0.0321,-0.01541 0.0639,-0.03116 0.0951,-0.04806 0.0312,-0.0169 0.0617,-0.03489 0.092,-0.05323 0.0302,-0.01834 0.0601,-0.03711 0.0894,-0.05684 0.0293,-0.01973 0.0581,-0.04041 0.0863,-0.06149 0.0282,-0.02108 0.056,-0.04273 0.0832,-0.06511 0.0272,-0.02238 0.0536,-0.0456 0.0796,-0.06925 0.026,-0.02364 0.0516,-0.04749 0.0765,-0.07235 0.0248,-0.02486 0.0492,-0.05046 0.0729,-0.07648 0.0237,-0.02602 0.0464,-0.05243 0.0687,-0.07958 0.0224,-0.02715 0.044,-0.05498 0.0651,-0.0832 0.0211,-0.02822 0.0418,-0.05705 0.0615,-0.0863 0.0197,-0.02926 0.0385,-0.05916 0.0568,-0.0894 0.0183,-0.03024 0.0363,-0.0608 0.0532,-0.09198 0.0169,-0.03118 0.0327,-0.06301 0.0481,-0.09509 0.0154,-0.03208 0.0306,-0.06423 0.0444,-0.09715 0.0139,-0.03293 0.027,-0.06652 0.0393,-0.100252 0.0123,-0.03373 0.0234,-0.06783 0.0341,-0.10232 0.0107,-0.03449 0.021,-0.06918 0.03,-0.104386 0.009,-0.0352 0.017,-0.0711 0.0243,-0.10697 0.007,-0.03587 0.0136,-0.07203 0.0191,-0.108521 0.006,-0.0365 0.0102,-0.073 0.0139,-0.110071 0.004,-0.03707 0.007,-0.07453 0.009,-0.112137 0.002,-0.03761 0.003,-0.0756 0.003,-0.113688 v -6.182569 c 0,-0.03809 -7.9e-4,-0.07608 -0.003,-0.113688 -0.002,-0.03761 -0.005,-0.07507 -0.009,-0.112138 -0.004,-0.03707 -0.008,-0.07357 -0.0139,-0.110071 -0.006,-0.0365 -0.0118,-0.07265 -0.0191,-0.108521 -0.007,-0.03587 -0.0153,-0.07177 -0.0243,-0.10697 -0.009,-0.0352 -0.0193,-0.0699 -0.03,-0.104386 -0.0107,-0.03449 -0.0218,-0.06859 -0.0341,-0.10232 -0.0123,-0.03373 -0.0254,-0.06733 -0.0393,-0.100252 -0.0139,-0.03293 -0.029,-0.06508 -0.0444,-0.09715 -0.0154,-0.03208 -0.0312,-0.0639 -0.0481,-0.09509 -0.0169,-0.03118 -0.0349,-0.06174 -0.0532,-0.09198 -0.0183,-0.03024 -0.0371,-0.06015 -0.0568,-0.0894 -0.0197,-0.02926 -0.0404,-0.05808 -0.0615,-0.0863 -0.0211,-0.02822 -0.0427,-0.05605 -0.0651,-0.0832 -0.0224,-0.02715 -0.0451,-0.05356 -0.0687,-0.07958 -0.0237,-0.02602 -0.048,-0.05162 -0.0729,-0.07648 -0.0249,-0.02486 -0.0505,-0.0487 -0.0765,-0.07235 -0.026,-0.02364 -0.0524,-0.04686 -0.0796,-0.06925 -0.0272,-0.02238 -0.055,-0.04403 -0.0832,-0.06511 -0.0282,-0.02108 -0.057,-0.04176 -0.0863,-0.06149 -0.0293,-0.01973 -0.0592,-0.03851 -0.0894,-0.05684 -0.0302,-0.01834 -0.0608,-0.03633 -0.092,-0.05323 -0.0312,-0.0169 -0.063,-0.03265 -0.0951,-0.04806 -0.0321,-0.01541 -0.0642,-0.03004 -0.0971,-0.04392 -0.0329,-0.01388 -0.0665,-0.02697 -0.10025,-0.03927 -0.0337,-0.0123 -0.0678,-0.02394 -0.10232,-0.03462 -0.0345,-0.01068 -0.0692,-0.02044 -0.10439,-0.02946 -0.0352,-0.009 -0.0711,-0.0175 -0.10697,-0.02481 -0.0359,-0.0073 -0.072,-0.01357 -0.10852,-0.01912 -0.0365,-0.0056 -0.073,-0.01021 -0.11007,-0.01395 -0.0371,-0.0037 -0.0745,-0.0064 -0.11214,-0.0083 -0.0376,-0.0019 -0.0756,-0.0031 -0.11369,-0.0031 z m 5.3e-4,0.264067 h 6.18154 c 1.07695,0 1.9358,0.858848 1.9358,1.935799 v 6.183602 c 0,1.07695 -0.85885,1.935283 -1.9358,1.935283 h -6.18154 c -1.07695,0 -1.93528,-0.858333 -1.93528,-1.935283 v -6.183602 c 0,-1.076951 0.85833,-1.935799 1.93528,-1.935799 z" />
      <path
         style="color:#000000;opacity:0.2;fill:#000000;fill-opacity:1;stroke-linecap:round;-inkscape-stroke:none;filter:url(#filter96504)"
         d="M 69.618496,49.239691 A 1.0583349,1.0583349 0 0 0 69.488017,47.74831 L 68.16689,46.639752 a 1.0583349,1.0583349 0 0 0 -1.491382,0.130479 1.0583349,1.0583349 0 0 0 0.13048,1.491381 l 1.321127,1.108557 a 1.0583349,1.0583349 0 0 0 1.491381,-0.130478 z"
         id="path96192" />
      <path
         style="color:#000000;fill:#d63031;fill-opacity:1;stroke-linecap:round;-inkscape-stroke:none"
         d="M 69.618496,48.975108 A 1.0583349,1.0583349 0 0 0 69.488017,47.483727 L 68.16689,46.375169 a 1.0583349,1.0583349 0 0 0 -1.491382,0.130479 1.0583349,1.0583349 0 0 0 0.13048,1.491381 l 1.321127,1.108557 a 1.0583349,1.0583349 0 0 0 1.491381,-0.130478 z"
         id="path47023" />
      <path
         style="color:#000000;opacity:0.2;fill:#000000;fill-opacity:1;stroke-linecap:round;-inkscape-stroke:none;filter:url(#filter96500)"
         d="M 69.571313,49.36978 A 1.0583349,1.0583349 0 0 0 68.512719,48.311186 H 66.78811 a 1.0583349,1.0583349 0 0 0 -1.058594,1.058594 1.0583349,1.0583349 0 0 0 1.058594,1.058593 h 1.724609 a 1.0583349,1.0583349 0 0 0 1.058594,-1.058593 z"
         id="path96194" />
      <path
         style="color:#000000;fill:#e84393;fill-opacity:1;stroke-linecap:round;-inkscape-stroke:none"
         d="M 69.571313,49.105197 A 1.0583349,1.0583349 0 0 0 68.512719,48.046603 H 66.78811 a 1.0583349,1.0583349 0 0 0 -1.058594,1.058594 1.0583349,1.0583349 0 0 0 1.058594,1.058593 h 1.724609 a 1.0583349,1.0583349 0 0 0 1.058594,-1.058593 z"
         id="path46845" />
      <path
         style="color:#000000;opacity:0.2;fill:#000000;fill-opacity:1;stroke-linecap:round;-inkscape-stroke:none;filter:url(#filter96496)"
         d="m 66.675741,51.968677 a 1.0583349,1.0583349 0 0 0 1.491381,0.13048 l 1.321128,-1.108558 a 1.0583349,1.0583349 0 0 0 0.130478,-1.491381 1.0583349,1.0583349 0 0 0 -1.49138,-0.130478 l -1.321128,1.108558 a 1.0583349,1.0583349 0 0 0 -0.130479,1.491379 z"
         id="path96196" />
      <path
         style="color:#000000;fill:#6c5ce7;fill-opacity:1;stroke-linecap:round;-inkscape-stroke:none"
         d="m 66.675741,51.704094 a 1.0583349,1.0583349 0 0 0 1.491381,0.13048 l 1.321128,-1.108558 a 1.0583349,1.0583349 0 0 0 0.130478,-1.491381 1.0583349,1.0583349 0 0 0 -1.49138,-0.130478 l -1.321128,1.108558 a 1.0583349,1.0583349 0 0 0 -0.130479,1.491379 z"
         id="path47027" />
      <path
         style="color:#000000;opacity:0.2;fill:#000000;fill-opacity:1;stroke-linecap:round;-inkscape-stroke:none;filter:url(#filter96492)"
         d="m 69.773841,49.571852 a 1.0583349,1.0583349 0 0 0 -1.058594,1.058594 v 1.724609 a 1.0583349,1.0583349 0 0 0 1.058594,1.058594 1.0583349,1.0583349 0 0 0 1.058593,-1.058594 v -1.724609 a 1.0583349,1.0583349 0 0 0 -1.058593,-1.058594 z"
         id="path96198" />
      <path
         style="color:#000000;fill:#0984e3;fill-opacity:1;stroke-linecap:round;-inkscape-stroke:none"
         d="m 69.773841,49.307269 a 1.0583349,1.0583349 0 0 0 -1.058594,1.058594 v 1.724609 a 1.0583349,1.0583349 0 0 0 1.058594,1.058594 1.0583349,1.0583349 0 0 0 1.058593,-1.058594 v -1.724609 a 1.0583349,1.0583349 0 0 0 -1.058593,-1.058594 z"
         id="path46677" />
      <path
         style="color:#000000;opacity:0.2;fill:#000000;fill-opacity:1;stroke-linecap:round;-inkscape-stroke:none;filter:url(#filter96488)"
         d="m 72.871192,51.969027 a 1.0583349,1.0583349 0 0 0 -0.130479,-1.491381 l -1.321127,-1.108558 a 1.0583349,1.0583349 0 0 0 -1.491381,0.13048 1.0583349,1.0583349 0 0 0 0.130479,1.49138 l 1.321128,1.108558 a 1.0583349,1.0583349 0 0 0 1.49138,-0.130479 z"
         id="path96200" />
      <path
         style="color:#000000;fill:#00cec9;fill-opacity:1;stroke-linecap:round;-inkscape-stroke:none"
         d="m 72.871192,51.704444 a 1.0583349,1.0583349 0 0 0 -0.130479,-1.491381 l -1.321127,-1.108558 a 1.0583349,1.0583349 0 0 0 -1.491381,0.13048 1.0583349,1.0583349 0 0 0 0.130479,1.49138 l 1.321128,1.108558 a 1.0583349,1.0583349 0 0 0 1.49138,-0.130479 z"
         id="path47021" />
      <path
         style="color:#000000;opacity:0.2;fill:#000000;fill-opacity:1;stroke-linecap:round;-inkscape-stroke:none;filter:url(#filter96484)"
         d="m 73.817406,49.36978 a 1.0583349,1.0583349 0 0 0 -1.058593,-1.058594 h -1.72461 a 1.0583349,1.0583349 0 0 0 -1.058593,1.058594 1.0583349,1.0583349 0 0 0 1.058593,1.058593 h 1.72461 a 1.0583349,1.0583349 0 0 0 1.058593,-1.058593 z"
         id="path96202" />
      <path
         style="color:#000000;fill:#00b894;fill-opacity:1;stroke-linecap:round;-inkscape-stroke:none"
         d="m 73.817406,49.105197 a 1.0583349,1.0583349 0 0 0 -1.058593,-1.058594 h -1.72461 a 1.0583349,1.0583349 0 0 0 -1.058593,1.058594 1.0583349,1.0583349 0 0 0 1.058593,1.058593 h 1.72461 a 1.0583349,1.0583349 0 0 0 1.058593,-1.058593 z"
         id="path46843" />
      <path
         style="color:#000000;opacity:0.2;fill:#000000;fill-opacity:1;stroke-linecap:round;-inkscape-stroke:none;filter:url(#filter96480)"
         d="m 69.928437,49.239341 a 1.0583349,1.0583349 0 0 0 1.491381,0.130479 l 1.321128,-1.108557 a 1.0583349,1.0583349 0 0 0 0.130479,-1.491381 1.0583349,1.0583349 0 0 0 -1.491381,-0.130478 l -1.321127,1.108557 a 1.0583349,1.0583349 0 0 0 -0.13048,1.49138 z"
         id="path96204" />
      <path
         style="color:#000000;fill:#fdcb6e;fill-opacity:1;stroke-linecap:round;-inkscape-stroke:none"
         d="m 69.928437,48.974758 a 1.0583349,1.0583349 0 0 0 1.491381,0.130479 l 1.321128,-1.108557 a 1.0583349,1.0583349 0 0 0 0.130479,-1.491381 1.0583349,1.0583349 0 0 0 -1.491381,-0.130478 l -1.321127,1.108557 a 1.0583349,1.0583349 0 0 0 -0.13048,1.49138 z"
         id="path47029" />
      <path
         style="color:#000000;opacity:0.2;fill:#000000;fill-opacity:1;stroke-linecap:round;-inkscape-stroke:none;filter:url(#filter96476)"
         d="m 69.773841,45.325759 a 1.0583349,1.0583349 0 0 0 -1.058594,1.058593 v 1.72461 a 1.0583349,1.0583349 0 0 0 1.058594,1.058593 1.0583349,1.0583349 0 0 0 1.058593,-1.058593 v -1.72461 a 1.0583349,1.0583349 0 0 0 -1.058593,-1.058593 z"
         id="path96206" />
      <path
         style="color:#000000;fill:#e17055;fill-opacity:1;stroke-linecap:round;-inkscape-stroke:none"
         d="m 69.773841,45.061176 a 1.0583349,1.0583349 0 0 0 -1.058594,1.058593 v 1.72461 a 1.0583349,1.0583349 0 0 0 1.058594,1.058593 1.0583349,1.0583349 0 0 0 1.058593,-1.058593 v -1.72461 a 1.0583349,1.0583349 0 0 0 -1.058593,-1.058593 z"
         id="path46358" />
    </g>
  </g>
</svg>
