<?xml version="1.0" encoding="UTF-8" standalone="no"?>
<!-- Created with Inkscape (http://www.inkscape.org/) -->

<svg
   width="48"
   height="48"
   viewBox="0 0 12.7 12.7"
   version="1.1"
   id="svg39233"
   sodipodi:docname="org.gnome.Settings.svg"
   inkscape:export-filename="/home/bokehlicia/.local/share/icons/Testeo/48x48/apps/google-chrome.png"
   inkscape:export-xdpi="96"
   inkscape:export-ydpi="96"
   inkscape:version="1.1 (c68e22c387, 2021-05-23)"
   xmlns:inkscape="http://www.inkscape.org/namespaces/inkscape"
   xmlns:sodipodi="http://sodipodi.sourceforge.net/DTD/sodipodi-0.dtd"
   xmlns:xlink="http://www.w3.org/1999/xlink"
   xmlns="http://www.w3.org/2000/svg"
   xmlns:svg="http://www.w3.org/2000/svg">
  <sodipodi:namedview
     id="namedview39235"
     pagecolor="#505050"
     bordercolor="#eeeeee"
     borderopacity="1"
     inkscape:pageshadow="0"
     inkscape:pageopacity="0"
     inkscape:pagecheckerboard="0"
     inkscape:document-units="mm"
     showgrid="false"
     units="px"
     inkscape:zoom="5.3664983"
     inkscape:cx="30.280453"
     inkscape:cy="9.7829156"
     inkscape:window-width="1920"
     inkscape:window-height="1048"
     inkscape:window-x="0"
     inkscape:window-y="32"
     inkscape:window-maximized="1"
     inkscape:current-layer="layer1" />
  <defs
     id="defs39230">
    <filter
       style="color-interpolation-filters:sRGB"
       inkscape:label="Blur"
       id="filter33679-367"
       x="-0.0022677166"
       y="-0.070299215"
       width="1.0045354"
       height="1.1405984">
      <feGaussianBlur
         stdDeviation="0.01 0.31"
         result="blur"
         id="feGaussianBlur33677-5" />
    </filter>
    <linearGradient
       inkscape:collect="always"
       xlink:href="#linearGradient2864"
       id="linearGradient26631"
       gradientUnits="userSpaceOnUse"
       gradientTransform="translate(-132.2816,-41.691193)"
       x1="6.4202108"
       y1="0.96924353"
       x2="6.4202108"
       y2="11.540484" />
    <linearGradient
       inkscape:collect="always"
       id="linearGradient2864">
      <stop
         style="stop-color:#000000;stop-opacity:1"
         offset="0"
         id="stop2860" />
      <stop
         style="stop-color:#fefefe;stop-opacity:0"
         offset="1"
         id="stop2862" />
    </linearGradient>
    <filter
       style="color-interpolation-filters:sRGB"
       inkscape:label="Blur"
       id="filter26547-3"
       x="-0.0036284026"
       y="-0.076195638"
       width="1.0072568"
       height="1.1523913">
      <feGaussianBlur
         stdDeviation="0.01 0.21"
         result="blur"
         id="feGaussianBlur26545-5" />
    </filter>
    <linearGradient
       inkscape:collect="always"
       xlink:href="#linearGradient2084"
       id="linearGradient999"
       gradientUnits="userSpaceOnUse"
       gradientTransform="translate(119.5816,28.99119)"
       x1="6.4202108"
       y1="0.96924353"
       x2="6.4202108"
       y2="11.540484" />
    <linearGradient
       inkscape:collect="always"
       id="linearGradient2084">
      <stop
         style="stop-color:#ffffff;stop-opacity:1"
         offset="0"
         id="stop2080" />
      <stop
         style="stop-color:#000000;stop-opacity:0"
         offset="1"
         id="stop2082" />
    </linearGradient>
  </defs>
  <g
     inkscape:label="Calque 1"
     inkscape:groupmode="layer"
     id="layer1">
    <g
       id="g22116"
       transform="translate(-119.58158,-29.834693)">
      <rect
         style="opacity:0.2;mix-blend-mode:overlay;fill:#000000;fill-opacity:1;stroke:none;stroke-width:0.55007;stroke-linecap:square;filter:url(#filter33679-367)"
         id="rect26599"
         width="10.583333"
         height="10.583333"
         x="-31.628342"
         y="-3.2242157"
         ry="2.2002783"
         rx="2.2002783"
         transform="rotate(180,49.797452,18.968905)" />
      <rect
         style="fill:#ffffff;fill-opacity:1;stroke:none;stroke-width:0.55007;stroke-linecap:square"
         id="rect26601"
         width="10.583333"
         height="10.583333"
         x="120.63992"
         y="30.049526"
         ry="2.2002783"
         rx="2.2002783" />
      <rect
         style="opacity:0.2;mix-blend-mode:overlay;fill:url(#linearGradient26631);fill-opacity:1;stroke:none;stroke-width:0.55007;stroke-linecap:square"
         id="rect26603"
         width="10.583333"
         height="10.583333"
         x="-131.22325"
         y="-40.632858"
         ry="2.2002783"
         rx="2.2002783"
         transform="scale(-1)" />
      <path
         id="path26607"
         style="color:#000000;opacity:0.2;mix-blend-mode:soft-light;fill:#ffffff;stroke-width:1;stroke-linecap:square;-inkscape-stroke:none"
         d="m 122.8398,30.049528 c -0.0381,0 -0.0761,0.0012 -0.11369,0.0031 -0.0376,0.0019 -0.0751,0.0045 -0.11213,0.0083 -0.0371,0.0037 -0.0736,0.0084 -0.11007,0.01395 -0.0365,0.0056 -0.0726,0.01182 -0.10852,0.01912 -0.0359,0.0073 -0.0718,0.01579 -0.10697,0.02481 -0.0352,0.009 -0.0699,0.01877 -0.10439,0.02946 -0.0345,0.01068 -0.0686,0.02232 -0.10232,0.03462 -0.0337,0.0123 -0.0673,0.02539 -0.10025,0.03927 -0.0329,0.01388 -0.0651,0.02851 -0.0971,0.04393 -0.0321,0.01541 -0.0639,0.03116 -0.0951,0.04806 -0.0312,0.0169 -0.0617,0.03489 -0.092,0.05323 -0.0302,0.01834 -0.0602,0.03711 -0.0894,0.05684 -0.0293,0.01973 -0.0581,0.04041 -0.0863,0.06149 -0.0282,0.02108 -0.0555,0.04273 -0.0827,0.06511 -0.0272,0.02238 -0.0541,0.0456 -0.0801,0.06925 -0.026,0.02364 -0.0516,0.04749 -0.0765,0.07235 -0.0248,0.02486 -0.0487,0.05046 -0.0724,0.07648 -0.0237,0.02602 -0.0469,0.05243 -0.0692,0.07958 -0.0224,0.02715 -0.044,0.05498 -0.0651,0.0832 -0.0211,0.02822 -0.0418,0.05705 -0.0615,0.0863 -0.0197,0.02925 -0.0385,0.05916 -0.0568,0.0894 -0.0183,0.03024 -0.0358,0.0608 -0.0527,0.09198 -0.0169,0.03118 -0.0332,0.06301 -0.0486,0.09508 -0.0154,0.03208 -0.03,0.06423 -0.0439,0.09715 -0.0139,0.03293 -0.027,0.06652 -0.0393,0.100252 -0.0123,0.03373 -0.0239,0.06783 -0.0346,0.10232 -0.0107,0.03449 -0.0204,0.06918 -0.0295,0.104386 -0.009,0.0352 -0.0175,0.0711 -0.0248,0.10697 -0.007,0.03587 -0.0136,0.07203 -0.0191,0.108521 -0.006,0.0365 -0.0102,0.073 -0.0139,0.110071 -0.004,0.03707 -0.006,0.07453 -0.008,0.112138 -0.002,0.03761 -0.003,0.0756 -0.003,0.113688 v 6.182567 c 0,0.03809 0.001,0.07608 0.003,0.113688 0.002,0.03761 0.004,0.07507 0.008,0.112137 0.004,0.03707 0.008,0.07357 0.0139,0.110071 0.006,0.0365 0.0118,0.07265 0.0191,0.108521 0.007,0.03587 0.0158,0.07177 0.0248,0.10697 0.009,0.0352 0.0188,0.0699 0.0295,0.104386 0.0107,0.03449 0.0223,0.06859 0.0346,0.10232 0.0123,0.03373 0.0254,0.06733 0.0393,0.100252 0.0139,0.03293 0.0285,0.06508 0.0439,0.09715 0.0154,0.03208 0.0317,0.0639 0.0486,0.09509 0.0169,0.03118 0.0344,0.06174 0.0527,0.09198 0.0183,0.03024 0.0371,0.06015 0.0568,0.0894 0.0197,0.02925 0.0404,0.05808 0.0615,0.0863 0.0211,0.02822 0.0427,0.05605 0.0651,0.0832 0.0224,0.02715 0.0456,0.05356 0.0692,0.07958 0.0237,0.02602 0.0475,0.05162 0.0724,0.07648 0.0249,0.02485 0.0505,0.0487 0.0765,0.07235 0.026,0.02364 0.0529,0.04686 0.0801,0.06925 0.0271,0.02238 0.0545,0.04403 0.0827,0.06511 0.0282,0.02108 0.0571,0.04176 0.0863,0.06149 0.0293,0.01973 0.0592,0.03851 0.0894,0.05684 0.0302,0.01834 0.0608,0.03633 0.092,0.05323 0.0312,0.0169 0.063,0.03265 0.0951,0.04806 0.0321,0.01541 0.0642,0.03004 0.0971,0.04392 0.0329,0.01388 0.0665,0.02697 0.10025,0.03927 0.0337,0.01231 0.0678,0.02394 0.10232,0.03462 0.0345,0.01068 0.0692,0.02044 0.10439,0.02946 0.0352,0.009 0.0711,0.0175 0.10697,0.0248 0.0359,0.0073 0.072,0.01358 0.10852,0.01912 0.0365,0.0055 0.073,0.01021 0.11007,0.01395 0.0371,0.0037 0.0745,0.0064 0.11213,0.0083 0.0376,0.0019 0.0756,0.0031 0.11369,0.0031 h 6.18256 c 0.0381,0 0.0761,-0.0012 0.11369,-0.0031 0.0376,-0.0019 0.0751,-0.0045 0.11214,-0.0083 0.0371,-0.0037 0.0736,-0.0084 0.11008,-0.01395 0.0365,-0.0055 0.0727,-0.01182 0.10852,-0.01912 0.0359,-0.0073 0.0718,-0.01579 0.10696,-0.0248 0.0352,-0.009 0.0699,-0.01877 0.10439,-0.02946 0.0345,-0.01068 0.0686,-0.02232 0.10232,-0.03462 0.0337,-0.01231 0.0673,-0.02539 0.10025,-0.03927 0.0329,-0.01388 0.0651,-0.02851 0.0971,-0.04392 0.0321,-0.01541 0.0639,-0.03116 0.0951,-0.04806 0.0312,-0.0169 0.0617,-0.03489 0.092,-0.05323 0.0302,-0.01834 0.0601,-0.03711 0.0894,-0.05684 0.0293,-0.01973 0.0581,-0.04041 0.0863,-0.06149 0.0282,-0.02108 0.056,-0.04273 0.0832,-0.06511 0.0272,-0.02238 0.0536,-0.0456 0.0796,-0.06925 0.026,-0.02364 0.0516,-0.04749 0.0765,-0.07235 0.0248,-0.02486 0.0492,-0.05046 0.0729,-0.07648 0.0237,-0.02602 0.0464,-0.05243 0.0687,-0.07958 0.0224,-0.02715 0.044,-0.05498 0.0651,-0.0832 0.0211,-0.02822 0.0418,-0.05705 0.0615,-0.0863 0.0197,-0.02926 0.0385,-0.05916 0.0568,-0.0894 0.0183,-0.03024 0.0363,-0.0608 0.0532,-0.09198 0.0169,-0.03118 0.0327,-0.06301 0.0481,-0.09509 0.0154,-0.03208 0.0306,-0.06423 0.0444,-0.09715 0.0139,-0.03293 0.027,-0.06652 0.0393,-0.100252 0.0123,-0.03373 0.0234,-0.06783 0.0341,-0.10232 0.0107,-0.03449 0.021,-0.06918 0.03,-0.104386 0.009,-0.0352 0.017,-0.0711 0.0243,-0.10697 0.007,-0.03587 0.0136,-0.07203 0.0191,-0.108521 0.006,-0.0365 0.0102,-0.073 0.0139,-0.110071 0.004,-0.03707 0.007,-0.07453 0.009,-0.112137 0.002,-0.03761 0.003,-0.0756 0.003,-0.113688 v -6.182569 c 0,-0.03809 -7.9e-4,-0.07608 -0.003,-0.113688 -0.002,-0.03761 -0.005,-0.07507 -0.009,-0.112137 -0.004,-0.03707 -0.008,-0.07357 -0.0139,-0.110072 -0.006,-0.0365 -0.0118,-0.07265 -0.0191,-0.108521 -0.007,-0.03587 -0.0153,-0.07177 -0.0243,-0.10697 -0.009,-0.0352 -0.0193,-0.0699 -0.03,-0.104386 -0.0107,-0.03449 -0.0218,-0.06859 -0.0341,-0.10232 -0.0123,-0.03373 -0.0254,-0.06733 -0.0393,-0.100252 -0.0139,-0.03293 -0.029,-0.06508 -0.0444,-0.09715 -0.0154,-0.03208 -0.0312,-0.0639 -0.0481,-0.09509 -0.0169,-0.03118 -0.0349,-0.06174 -0.0532,-0.09198 -0.0183,-0.03024 -0.0371,-0.06015 -0.0568,-0.0894 -0.0197,-0.02926 -0.0404,-0.05808 -0.0615,-0.0863 -0.0211,-0.02822 -0.0427,-0.05605 -0.0651,-0.0832 -0.0224,-0.02715 -0.0451,-0.05356 -0.0687,-0.07958 -0.0237,-0.02602 -0.048,-0.05162 -0.0729,-0.07648 -0.0249,-0.02486 -0.0505,-0.0487 -0.0765,-0.07235 -0.026,-0.02364 -0.0524,-0.04686 -0.0796,-0.06925 -0.0272,-0.02238 -0.055,-0.04403 -0.0832,-0.06511 -0.0282,-0.02108 -0.057,-0.04176 -0.0863,-0.06149 -0.0293,-0.01973 -0.0592,-0.03851 -0.0894,-0.05684 -0.0302,-0.01834 -0.0608,-0.03633 -0.092,-0.05323 -0.0312,-0.0169 -0.063,-0.03265 -0.0951,-0.04806 -0.0321,-0.01541 -0.0642,-0.03004 -0.0971,-0.04392 -0.0329,-0.01388 -0.0665,-0.02697 -0.10025,-0.03927 -0.0337,-0.0123 -0.0678,-0.02394 -0.10232,-0.03462 -0.0345,-0.01068 -0.0692,-0.02044 -0.10439,-0.02946 -0.0352,-0.009 -0.0711,-0.0175 -0.10696,-0.02481 -0.0359,-0.0073 -0.072,-0.01357 -0.10852,-0.01912 -0.0365,-0.0056 -0.073,-0.01021 -0.11008,-0.01395 -0.0371,-0.0037 -0.0745,-0.0064 -0.11214,-0.0083 -0.0376,-0.0019 -0.0756,-0.0031 -0.11369,-0.0031 z m 5.3e-4,0.264067 h 6.18154 c 1.07695,0 1.9358,0.858848 1.9358,1.935799 v 6.183602 c 0,1.07695 -0.85885,1.935283 -1.9358,1.935283 h -6.18154 c -1.07696,0 -1.93528,-0.858333 -1.93528,-1.935283 v -6.183602 c 0,-1.076951 0.85832,-1.935799 1.93528,-1.935799 z" />
      <path
         d="m 125.73738,32.306931 c -0.22516,0.01382 -0.28884,0.03503 -0.36727,0.117989 -0.0867,0.09218 -0.084,0.0802 -0.0895,0.521742 -0.005,0.384391 -0.005,0.387156 -0.0267,0.428639 -0.0544,0.104163 -0.11813,0.130894 -0.33498,0.143801 -0.14949,0.0083 -0.1375,0.01659 -0.42357,-0.263637 -0.28975,-0.282994 -0.29991,-0.290369 -0.42356,-0.290369 -0.1292,0 -0.13381,0.0037 -0.46694,0.338303 -0.30638,0.307882 -0.30269,0.303273 -0.32207,0.413889 -0.007,0.04148 0.009,0.129053 0.0342,0.178831 0.0111,0.02122 0.12366,0.141958 0.2713,0.29037 0.27593,0.277462 0.29899,0.308801 0.29899,0.401905 0,0.03687 -0.007,0.05715 -0.0323,0.09955 -0.0425,0.07098 -0.11721,0.163161 -0.16703,0.207408 -0.0766,0.06729 -0.0637,0.06545 -0.44572,0.06545 -0.39588,0 -0.40326,9.17e-4 -0.49463,0.08388 -0.096,0.0885 -0.1135,0.154862 -0.1218,0.474727 -0.006,0.217547 0.007,0.431403 0.0295,0.508838 0.0314,0.10324 0.11629,0.185282 0.22424,0.2157 0.0544,0.01475 0.1006,0.01659 0.41249,0.01659 0.32853,0 0.35344,0.0018 0.39036,0.01845 0.0618,0.02765 0.0932,0.05346 0.11258,0.0931 0.036,0.06913 0.0591,0.309725 0.0369,0.385315 -0.007,0.02396 -0.0738,0.09679 -0.25654,0.281148 -0.22701,0.228605 -0.25008,0.25442 -0.26946,0.305118 -0.0267,0.07005 -0.0286,0.156707 -0.006,0.22584 0.0157,0.04702 0.0397,0.07283 0.30821,0.342912 0.20394,0.205561 0.30453,0.298665 0.33314,0.313414 0.0342,0.01659 0.0582,0.02027 0.12549,0.02122 0.1412,0 0.13658,0.0027 0.43834,-0.295899 0.28884,-0.285757 0.30545,-0.297742 0.40234,-0.298662 0.047,0 0.0637,0.0046 0.10981,0.03318 0.0674,0.03963 0.1209,0.08296 0.18549,0.149332 0.0803,0.08296 0.0776,0.06452 0.0776,0.446153 0,0.370563 0.002,0.389922 0.0563,0.471966 0.0351,0.05254 0.0978,0.101395 0.15595,0.119831 0.14581,0.04886 0.6718,0.05439 0.84714,0.0092 0.0683,-0.0175 0.14488,-0.07006 0.18363,-0.126284 0.0562,-0.08296 0.0582,-0.100479 0.0582,-0.492245 0,-0.326318 8.3e-4,-0.356738 0.0176,-0.39914 0.0231,-0.05991 0.0582,-0.106009 0.095,-0.125367 0.0664,-0.03411 0.33682,-0.05531 0.40142,-0.03043 0.0139,0.0055 0.13842,0.120757 0.27499,0.256261 0.28607,0.283916 0.28423,0.282072 0.42449,0.282072 0.12643,0 0.1292,-0.0027 0.46232,-0.338303 0.3073,-0.308804 0.30269,-0.303274 0.32206,-0.41481 0.007,-0.04241 -0.0166,-0.147488 -0.0434,-0.190811 -0.0111,-0.01845 -0.13472,-0.149336 -0.27499,-0.291294 -0.27684,-0.280227 -0.28607,-0.292208 -0.28607,-0.391765 0,-0.06268 0.0664,-0.166847 0.17718,-0.278386 0.0849,-0.08573 0.06,-0.08112 0.43648,-0.08112 0.37559,0 0.40788,-0.0037 0.49278,-0.06268 0.0591,-0.04056 0.10612,-0.105089 0.1255,-0.171456 0.0407,-0.144723 0.0434,-0.642498 0.003,-0.821328 -0.0203,-0.09034 -0.0932,-0.178831 -0.18179,-0.219389 -0.0416,-0.01936 -0.0581,-0.02027 -0.42634,-0.02488 -0.36451,-0.0046 -0.38481,-0.0055 -0.42541,-0.02396 -0.0637,-0.02951 -0.10705,-0.0719 -0.12274,-0.121679 -0.0305,-0.09679 -0.0443,-0.292211 -0.024,-0.361347 0.007,-0.02305 0.072,-0.09495 0.25285,-0.275617 0.14303,-0.144726 0.251,-0.260875 0.26208,-0.282999 0.0462,-0.09033 0.0443,-0.200029 -0.005,-0.290364 -0.0147,-0.02765 -0.12272,-0.14288 -0.30545,-0.323556 -0.3202,-0.318019 -0.31744,-0.316178 -0.44939,-0.316178 -0.12735,0 -0.14303,0.01107 -0.43833,0.303274 -0.16703,0.165925 -0.26762,0.259948 -0.29531,0.273777 -0.0286,0.01382 -0.0591,0.02027 -0.0969,0.0212 -0.0479,9.17e-4 -0.0627,-0.0037 -0.10888,-0.03134 -0.0757,-0.04517 -0.19748,-0.15302 -0.2344,-0.206484 l -0.0305,-0.04425 v -0.33925 c 0,-0.314334 -8.3e-4,-0.343833 -0.0184,-0.399141 -0.0139,-0.04517 -0.0305,-0.07375 -0.0637,-0.109693 -0.0858,-0.0931 -0.13934,-0.110618 -0.40234,-0.127211 -0.16241,-0.01014 -0.18456,-0.01014 -0.35989,9.17e-4 z m 0.36174,2.18928 c 0.42357,0.06269 0.77884,0.368721 0.90988,0.783537 0.0323,0.103238 0.0462,0.202796 0.0462,0.335532 -8.4e-4,0.399143 -0.20764,0.755884 -0.5583,0.96513 -0.083,0.04886 -0.22886,0.106929 -0.32113,0.127208 -0.10612,0.02305 -0.31745,0.02765 -0.42819,0.01015 -0.40788,-0.06729 -0.74101,-0.349359 -0.88127,-0.746661 -0.0416,-0.116145 -0.0572,-0.22031 -0.0572,-0.365033 0,-0.246122 0.0553,-0.425874 0.19286,-0.632357 0.10336,-0.153943 0.24732,-0.279307 0.41895,-0.366878 0.21501,-0.110618 0.43833,-0.146567 0.67826,-0.110618 z"
         id="path39512"
         style="opacity:0.2;fill:#000000;stroke:none;stroke-width:0.000922301;filter:url(#filter26547-3)" />
      <path
         d="m 125.73737,32.04235 c -0.22516,0.01382 -0.28884,0.03503 -0.36727,0.117989 -0.0867,0.09218 -0.084,0.0802 -0.0895,0.521742 -0.005,0.384392 -0.005,0.387156 -0.0267,0.428639 -0.0544,0.104164 -0.11814,0.130894 -0.33498,0.143802 -0.14949,0.0083 -0.1375,0.01659 -0.42358,-0.263638 -0.28975,-0.282994 -0.29991,-0.290368 -0.42356,-0.290368 -0.1292,0 -0.13381,0.0037 -0.46694,0.338302 -0.30638,0.307882 -0.30269,0.303273 -0.32207,0.413889 -0.007,0.04148 0.009,0.129053 0.0342,0.178832 0.0111,0.02122 0.12366,0.141957 0.2713,0.290369 0.27593,0.277462 0.29899,0.308801 0.29899,0.401905 0,0.03687 -0.007,0.05715 -0.0323,0.09955 -0.0425,0.07098 -0.11721,0.163161 -0.16703,0.207408 -0.0766,0.06729 -0.0637,0.06545 -0.44572,0.06545 -0.39588,0 -0.40325,9.17e-4 -0.49463,0.08389 -0.096,0.08849 -0.11349,0.154863 -0.1218,0.474727 -0.006,0.217548 0.007,0.431403 0.0295,0.508838 0.0314,0.103241 0.11629,0.185282 0.22425,0.2157 0.0544,0.01475 0.10059,0.01659 0.41248,0.01659 0.32853,0 0.35345,0.0018 0.39036,0.01845 0.0618,0.02765 0.0932,0.05347 0.11258,0.0931 0.036,0.06913 0.0591,0.309725 0.0369,0.385315 -0.007,0.02396 -0.0738,0.09679 -0.25654,0.281148 -0.22701,0.228605 -0.25008,0.25442 -0.26946,0.305118 -0.0267,0.07005 -0.0286,0.156707 -0.006,0.225841 0.0157,0.04701 0.0397,0.07282 0.30821,0.342911 0.20394,0.205561 0.30453,0.298665 0.33314,0.313414 0.0342,0.01659 0.0582,0.02027 0.12549,0.02122 0.1412,0 0.13658,0.0027 0.43834,-0.295899 0.28884,-0.285757 0.30546,-0.297742 0.40235,-0.298662 0.047,0 0.0637,0.0046 0.10981,0.03318 0.0674,0.03963 0.1209,0.08296 0.18549,0.149333 0.0803,0.08296 0.0776,0.06452 0.0776,0.446153 0,0.370562 0.002,0.389921 0.0563,0.471965 0.0351,0.05254 0.0978,0.101396 0.15595,0.119831 0.14581,0.04886 0.6718,0.05439 0.84714,0.0092 0.0683,-0.0175 0.14488,-0.07006 0.18363,-0.126284 0.0562,-0.08296 0.0582,-0.100478 0.0582,-0.492245 0,-0.326318 8.3e-4,-0.356737 0.0176,-0.39914 0.0231,-0.05992 0.0582,-0.106008 0.095,-0.125367 0.0664,-0.03411 0.33682,-0.05531 0.40142,-0.03043 0.0139,0.0055 0.13842,0.120758 0.27499,0.256262 0.28607,0.283915 0.28423,0.282071 0.42449,0.282071 0.12643,0 0.1292,-0.0027 0.46232,-0.338303 0.3073,-0.308804 0.30269,-0.303274 0.32206,-0.41481 0.007,-0.04241 -0.0166,-0.147488 -0.0434,-0.190811 -0.0111,-0.01845 -0.13472,-0.149336 -0.27499,-0.291294 -0.27684,-0.280227 -0.28607,-0.292207 -0.28607,-0.391765 0,-0.06268 0.0664,-0.166847 0.17718,-0.278386 0.0849,-0.08573 0.06,-0.08112 0.43648,-0.08112 0.37559,0 0.40788,-0.0037 0.49278,-0.06268 0.0591,-0.04056 0.10612,-0.105088 0.1255,-0.171455 0.0407,-0.144724 0.0434,-0.642498 0.003,-0.821329 -0.0203,-0.09034 -0.0932,-0.17883 -0.18179,-0.219389 -0.0416,-0.01936 -0.0581,-0.02027 -0.42634,-0.02488 -0.36451,-0.0046 -0.38481,-0.0055 -0.42541,-0.02396 -0.0637,-0.02951 -0.10705,-0.0719 -0.12274,-0.121678 -0.0305,-0.09679 -0.0443,-0.292211 -0.024,-0.361347 0.007,-0.02305 0.072,-0.09495 0.25285,-0.275618 0.14303,-0.144726 0.251,-0.260874 0.26208,-0.282998 0.0462,-0.09033 0.0443,-0.20003 -0.005,-0.290365 -0.0147,-0.02765 -0.12272,-0.14288 -0.30545,-0.323555 -0.3202,-0.31802 -0.31744,-0.316178 -0.44939,-0.316178 -0.12735,0 -0.14303,0.01107 -0.43833,0.303273 -0.16703,0.165925 -0.26762,0.259949 -0.29531,0.273777 -0.0286,0.01382 -0.0591,0.02027 -0.0969,0.0212 -0.0479,9.17e-4 -0.0627,-0.0037 -0.10888,-0.03134 -0.0757,-0.04517 -0.19748,-0.15302 -0.2344,-0.206484 l -0.0305,-0.04425 v -0.33925 c 0,-0.314333 -8.3e-4,-0.343832 -0.0184,-0.399141 -0.0139,-0.04517 -0.0305,-0.07375 -0.0637,-0.109693 -0.0858,-0.0931 -0.13934,-0.110618 -0.40234,-0.127211 -0.16241,-0.01014 -0.18456,-0.01014 -0.35989,9.17e-4 z m 0.36174,2.18928 c 0.42357,0.06269 0.77884,0.368721 0.90988,0.783537 0.0323,0.103238 0.0462,0.202796 0.0462,0.335532 -8.4e-4,0.399143 -0.20764,0.755884 -0.5583,0.96513 -0.083,0.04886 -0.22886,0.106929 -0.32113,0.127209 -0.10612,0.02305 -0.31745,0.02765 -0.42819,0.01015 -0.40788,-0.06729 -0.74101,-0.34936 -0.88127,-0.746662 -0.0416,-0.116145 -0.0572,-0.22031 -0.0572,-0.365033 0,-0.246121 0.0553,-0.425873 0.19286,-0.632357 0.10336,-0.153943 0.24732,-0.279306 0.41895,-0.366878 0.21501,-0.110617 0.43833,-0.146567 0.67826,-0.110617 z"
         id="path26646"
         style="fill:#636e72;fill-opacity:1;stroke:none;stroke-width:0.000922301;stroke-opacity:1" />
      <rect
         style="opacity:0.2;mix-blend-mode:overlay;fill:url(#linearGradient999);fill-opacity:1;stroke:none;stroke-width:0.55007;stroke-linecap:square"
         id="rect997"
         width="10.583333"
         height="10.583333"
         x="120.63992"
         y="30.049526"
         ry="2.2002783"
         rx="2.2002783" />
    </g>
  </g>
</svg>
