<?xml version="1.0" encoding="UTF-8" standalone="no"?>
<!-- Created with Inkscape (http://www.inkscape.org/) -->

<svg
   width="48"
   height="48"
   viewBox="0 0 12.7 12.7"
   version="1.1"
   id="svg39233"
   sodipodi:docname="org.gnome.Calendar.svg"
   inkscape:export-filename="/home/bokehlicia/.local/share/icons/Testeo/48x48/apps/google-chrome.png"
   inkscape:export-xdpi="96"
   inkscape:export-ydpi="96"
   inkscape:version="1.1 (c68e22c387, 2021-05-23)"
   xmlns:inkscape="http://www.inkscape.org/namespaces/inkscape"
   xmlns:sodipodi="http://sodipodi.sourceforge.net/DTD/sodipodi-0.dtd"
   xmlns:xlink="http://www.w3.org/1999/xlink"
   xmlns="http://www.w3.org/2000/svg"
   xmlns:svg="http://www.w3.org/2000/svg">
  <sodipodi:namedview
     id="namedview39235"
     pagecolor="#505050"
     bordercolor="#eeeeee"
     borderopacity="1"
     inkscape:pageshadow="0"
     inkscape:pageopacity="0"
     inkscape:pagecheckerboard="0"
     inkscape:document-units="mm"
     showgrid="false"
     units="px"
     inkscape:zoom="5.3664983"
     inkscape:cx="30.280453"
     inkscape:cy="9.7829156"
     inkscape:window-width="1920"
     inkscape:window-height="1048"
     inkscape:window-x="0"
     inkscape:window-y="32"
     inkscape:window-maximized="1"
     inkscape:current-layer="layer1" />
  <defs
     id="defs39230">
    <filter
       style="color-interpolation-filters:sRGB"
       inkscape:label="Blur"
       id="filter33679"
       x="-0.0022677166"
       y="-0.070299215"
       width="1.0045354"
       height="1.1405984">
      <feGaussianBlur
         stdDeviation="0.01 0.31"
         result="blur"
         id="feGaussianBlur33677" />
    </filter>
    <filter
       inkscape:collect="always"
       style="color-interpolation-filters:sRGB"
       id="filter11014"
       x="-0.0096945843"
       y="-0.025852224"
       width="1.0193892"
       height="1.0517044">
      <feGaussianBlur
         inkscape:collect="always"
         stdDeviation="0.1615764"
         id="feGaussianBlur11016" />
    </filter>
    <linearGradient
       inkscape:collect="always"
       xlink:href="#linearGradient2864"
       id="linearGradient11008"
       gradientUnits="userSpaceOnUse"
       gradientTransform="translate(-59.202487,-11.86958)"
       x1="6.4202108"
       y1="0.96924353"
       x2="6.4202108"
       y2="11.540484" />
    <linearGradient
       inkscape:collect="always"
       id="linearGradient2864">
      <stop
         style="stop-color:#000000;stop-opacity:1"
         offset="0"
         id="stop2860" />
      <stop
         style="stop-color:#fefefe;stop-opacity:0"
         offset="1"
         id="stop2862" />
    </linearGradient>
    <linearGradient
       inkscape:collect="always"
       xlink:href="#linearGradient2084"
       id="linearGradient11006"
       gradientUnits="userSpaceOnUse"
       gradientTransform="translate(46.502487,-0.83041971)"
       x1="6.4202108"
       y1="0.96924353"
       x2="6.4202108"
       y2="11.540484" />
    <linearGradient
       inkscape:collect="always"
       id="linearGradient2084">
      <stop
         style="stop-color:#ffffff;stop-opacity:1"
         offset="0"
         id="stop2080" />
      <stop
         style="stop-color:#000000;stop-opacity:0"
         offset="1"
         id="stop2082" />
    </linearGradient>
  </defs>
  <g
     inkscape:label="Calque 1"
     inkscape:groupmode="layer"
     id="layer1">
    <g
       id="g21205"
       transform="translate(-46.502554,-0.00738628)">
      <rect
         style="opacity:0.2;mix-blend-mode:overlay;fill:#000000;fill-opacity:1;stroke:none;stroke-width:0.55007;stroke-linecap:square;filter:url(#filter33679)"
         id="rect33701"
         width="10.583333"
         height="10.583333"
         x="-31.628342"
         y="-3.2242157"
         ry="2.2002783"
         rx="2.2002783"
         transform="rotate(180,13.257939,4.0552517)" />
      <path
         id="path11859"
         style="fill:#ffffff;fill-opacity:1;stroke:none;stroke-width:0.550069;stroke-linecap:square"
         d="m 49.535369,0.23359812 c -0.07398,0.007468 -0.147005,0.0185155 -0.218591,0.0330729 0.07175,-0.0146083 0.144444,-0.0255871 0.218591,-0.0330729 z m 6.63422,0 c 0.07415,0.007486 0.146844,0.0184646 0.218591,0.0330729 -0.07174,-0.0146069 -0.144444,-0.0255879 -0.218591,-0.0330729 z m 0.218591,0.0330729 c 0.07175,0.0146084 0.142375,0.0328926 0.211357,0.0542602 -0.06898,-0.0213657 -0.13961,-0.0396533 -0.211357,-0.0542602 z m 0.211357,0.0542602 c 0.06899,0.0213677 0.1362,0.0461336 0.202055,0.0738973 -0.06585,-0.0277613 -0.133072,-0.0525316 -0.202055,-0.0738973 z m 0.202055,0.0738973 c 0.06586,0.0277638 0.130389,0.0581874 0.192754,0.0919841 -0.06236,-0.0337938 -0.126899,-0.0642227 -0.192754,-0.0919841 z m 0.192754,0.0919841 c 0.06236,0.0337966 0.122872,0.0706045 0.181385,0.11007079 -0.05851,-0.0394632 -0.119023,-0.076277 -0.181385,-0.11007079 z m 0.181385,0.11007079 c 0.05851,0.0394662 0.114686,0.0818346 0.168982,0.12660725 -0.05429,-0.0447694 -0.110475,-0.0871441 -0.168982,-0.12660725 z m 0.168982,0.12660725 c 0.0543,0.0447726 0.106862,0.0918776 0.15658,0.14159341 -0.04971,-0.0497125 -0.102288,-0.096824 -0.15658,-0.14159341 z m 0.15658,0.14159341 c 0.04962,0.0496255 0.09689,0.10187369 0.141592,0.15606283 -0.04477,-0.0542925 -0.09188,-0.10635027 -0.141592,-0.15606283 z M 49.316262,0.26667104 c -0.07175,0.0146069 -0.141859,0.0328946 -0.210841,0.0542602 0.06883,-0.0213186 0.139263,-0.0396695 0.210841,-0.0542602 z m -0.210841,0.0542602 c -0.06883,0.021318 -0.13634,0.0462119 -0.202054,0.0738973 0.06586,-0.0277638 0.133072,-0.0525296 0.202054,-0.0738973 z m -0.20257,0.0738973 c -0.06585,0.0277613 -0.129874,0.0581902 -0.192236,0.0919841 0.06223,-0.0337228 0.126529,-0.0642674 0.192236,-0.0919841 z m -0.192236,0.0919841 c -0.06236,0.0337938 -0.122875,0.0706076 -0.181385,0.11007079 0.05851,-0.0394662 0.119017,-0.0762742 0.181385,-0.11007079 z M 48.52923,0.59688343 c -0.0584,0.0393872 -0.114787,0.0819339 -0.168982,0.12660725 0.0543,-0.0447726 0.110469,-0.087141 0.168982,-0.12660725 z m -0.1695,0.12660725 c -0.05429,0.0447694 -0.106349,0.0918809 -0.156062,0.14159341 0.04962,-0.0496255 0.101873,-0.0968928 0.156062,-0.14159341 z M 48.203668,0.8650841 c -0.04971,0.0497126 -0.09682,0.10177034 -0.141594,0.1560628 0.0447,-0.0541892 0.09197,-0.10643726 0.141594,-0.1560628 z m -0.141594,0.1565795 c -0.04467,0.054196 -0.08722,0.1105853 -0.126606,0.168982 0.03946,-0.058512 0.08183,-0.1146862 0.126606,-0.168982 z m -0.126606,0.168982 c -0.03946,0.058509 -0.07628,0.1190212 -0.110072,0.1813843 0.0338,-0.062366 0.0706,-0.1228719 0.110072,-0.1813843 z m -0.110072,0.1813843 c -0.06759,0.1247261 -0.12315,0.2568457 -0.165881,0.3948079 0.04274,-0.1379662 0.09829,-0.2700762 0.165881,-0.3948079 z m -0.165881,0.3948079 c -0.02136,0.068981 -0.03965,0.1396112 -0.05426,0.2113566 0.01461,-0.071747 0.03289,-0.1423735 0.05426,-0.2113566 z m -0.05426,0.2113566 c -0.01461,0.071745 -0.02559,0.1444447 -0.03307,0.2185913 0.0075,-0.074147 0.01847,-0.1468445 0.03307,-0.2185913 z m -0.03307,0.2185913 c -0.0075,0.074147 -0.01137,0.1496414 -0.01137,0.225826 0,-0.076185 0.0039,-0.1516786 0.01137,-0.225826 z m 10.0707,-1.1751221 c 0.04477,0.054296 0.08714,0.1104696 0.126608,0.168982 -0.03939,-0.058397 -0.08193,-0.1147856 -0.126608,-0.168982 z m 0.126608,0.168982 c 0.0361,0.053527 0.0694,0.1091171 0.100769,0.1658813 -0.0314,-0.056838 -0.06462,-0.112289 -0.100769,-0.1658813 z m 0.100769,0.1658813 c 0.0057,0.010251 0.01103,0.020654 0.01654,0.031006 -0.0055,-0.010358 -0.01087,-0.020748 -0.01654,-0.031006 z m 0.01654,0.031006 c 0.03058,0.057503 0.05926,0.1163028 0.08475,0.1767334 -0.02551,-0.060509 -0.05414,-0.1191592 -0.08475,-0.1767334 z m 0.08475,0.1772502 c 0.02776,0.065856 0.05253,0.1330717 0.0739,0.2020548 -0.02132,-0.068827 -0.04621,-0.136341 -0.0739,-0.2020548 z m 0.0739,0.2020548 c 0.02137,0.068983 0.03965,0.1396098 0.05426,0.2113566 -0.01461,-0.071745 -0.03289,-0.1423755 -0.05426,-0.2113566 z m 0.05426,0.2113566 c 0.01461,0.071747 0.02559,0.144444 0.03307,0.2185913 -0.0075,-0.074147 -0.01847,-0.1468459 -0.03307,-0.2185913 z M 47.560813,4.1909793 v 4.4142008 c 0,1.218954 0.981429,2.2003829 2.200383,2.2003829 h 6.182569 c 1.218954,0 2.200381,-0.9814289 2.200381,-2.2003829 V 4.1909793 Z" />
      <path
         id="path10598"
         style="opacity:0.2;mix-blend-mode:normal;fill:#000000;fill-opacity:1;stroke:none;stroke-width:2.079;stroke-linecap:square;filter:url(#filter11014)"
         d="m 124.28906,15.839844 h 40 V 9.15625 c 0,-4.6070709 -3.70933,-8.31640625 -8.3164,-8.31640625 h -23.36719 c -4.60707,0 -8.31641,3.70933535 -8.31641,8.31640625 z"
         transform="matrix(0.26458333,0,0,0.26458333,14.676074,0.26458334)" />
      <path
         id="path7327"
         style="fill:#d63031;fill-opacity:1;stroke:none;stroke-width:0.550069;stroke-linecap:square"
         d="M 47.560887,4.1909587 H 58.144221 V 2.4225911 c 0,-1.2189541 -0.981427,-2.20038244 -2.200381,-2.20038244 h -6.182569 c -1.218954,0 -2.200384,0.98142834 -2.200384,2.20038244 z" />
      <rect
         style="opacity:0.2;mix-blend-mode:overlay;fill:url(#linearGradient11008);fill-opacity:1;stroke:none;stroke-width:0.55007;stroke-linecap:square"
         id="rect11002"
         width="10.583333"
         height="10.583333"
         x="-58.144146"
         y="-10.811247"
         ry="2.2002783"
         rx="2.2002783"
         transform="scale(-1)" />
      <rect
         style="opacity:0.2;mix-blend-mode:overlay;fill:url(#linearGradient11006);fill-opacity:1;stroke:none;stroke-width:0.55007;stroke-linecap:square"
         id="rect11004"
         width="10.583333"
         height="10.583333"
         x="47.560814"
         y="0.22791405"
         ry="2.2002783"
         rx="2.2002783" />
      <path
         id="path11617"
         style="color:#000000;opacity:0.3;fill:#000000;stroke-linecap:round;-inkscape-stroke:none"
         d="M 54.969957,4.8691406 A 0.1322915,0.1322915 0 0 0 54.837145,5 v 5.195313 a 0.1322915,0.1322915 0 0 0 0.132812,0.132812 0.1322915,0.1322915 0 0 0 0.13086,-0.132812 V 5 a 0.1322915,0.1322915 0 0 0 -0.13086,-0.1308594 z m -2.117187,0 A 0.1322915,0.1322915 0 0 0 52.719957,5 v 5.195313 a 0.1322915,0.1322915 0 0 0 0.132813,0.132812 0.1322915,0.1322915 0 0 0 0.132812,-0.132812 V 5 A 0.1322915,0.1322915 0 0 0 52.85277,4.8691406 Z m -4.51389,1.4287761 a 0.1322915,0.1322915 0 0 0 -0.132813,0.1328125 0.1322915,0.1322915 0 0 0 0.132813,0.1328125 h 9.027344 A 0.1322915,0.1322915 0 0 0 57.499036,6.4307292 0.1322915,0.1322915 0 0 0 57.366224,6.2979167 Z m 0,1.767578 a 0.1322915,0.1322915 0 0 0 -0.132813,0.1328125 0.1322915,0.1322915 0 0 0 0.132813,0.1328125 h 9.027344 A 0.1322915,0.1322915 0 0 0 57.499036,8.1983072 0.1322915,0.1322915 0 0 0 57.366224,8.0654947 Z M 50.735582,4.8691406 A 0.1322915,0.1322915 0 0 0 50.60277,5 v 5.195313 a 0.1322915,0.1322915 0 0 0 0.132812,0.132812 0.1322915,0.1322915 0 0 0 0.132813,-0.132812 V 5 A 0.1322915,0.1322915 0 0 0 50.735582,4.8691406 Z" />
      <path
         id="path32895"
         style="color:#000000;opacity:0.2;mix-blend-mode:soft-light;fill:#ffffff;stroke-width:1;stroke-linecap:square;-inkscape-stroke:none"
         d="m 49.76126,0.22220353 c -0.03809,0 -0.07608,0.0012 -0.113689,0.0031 -0.0376,0.0019 -0.07506,0.0045 -0.112139,0.0083 -0.03707,0.0037 -0.07358,0.0084 -0.110069,0.01395 -0.0365,0.0056 -0.07265,0.01182 -0.108521,0.01912 -0.03587,0.0073 -0.07177,0.01579 -0.106969,0.02481 -0.03521,0.009 -0.0699,0.01877 -0.104388,0.02946 -0.03449,0.01068 -0.06859,0.02232 -0.10232,0.03462 -0.03373,0.0123 -0.06732,0.02539 -0.100251,0.03927 -0.03293,0.01388 -0.06507,0.02851 -0.09715,0.04393 -0.03208,0.01541 -0.0639,0.03116 -0.09508,0.04806 -0.03118,0.0169 -0.06174,0.03489 -0.09198,0.05323 -0.03024,0.01834 -0.06015,0.03711 -0.0894,0.05684 -0.02926,0.01973 -0.05808,0.04041 -0.0863,0.06149 -0.02822,0.02108 -0.05554,0.04273 -0.08268,0.06511 -0.02715,0.02238 -0.05407,0.0456 -0.0801,0.06925 -0.02604,0.02364 -0.05162,0.04749 -0.07648,0.07235 -0.02484,0.02486 -0.0487,0.05046 -0.07235,0.07648 -0.02365,0.02602 -0.04686,0.05243 -0.06925,0.07958 -0.02238,0.02715 -0.04403,0.05498 -0.06511,0.0832 -0.02109,0.02822 -0.04176,0.05705 -0.0615,0.0863 -0.01974,0.02925 -0.03851,0.05916 -0.05684,0.0894 -0.01834,0.03024 -0.03581,0.0608 -0.05271,0.09198 -0.01691,0.03118 -0.03317,0.06301 -0.04858,0.09508 -0.0154,0.03208 -0.03004,0.06423 -0.04392,0.09715 -0.01389,0.03293 -0.02697,0.06652 -0.03927,0.100252 -0.0123,0.03373 -0.02394,0.06783 -0.03462,0.10232 -0.01069,0.03449 -0.02043,0.06918 -0.02946,0.104386 -0.009,0.0352 -0.01749,0.0711 -0.02479,0.10697 -0.0073,0.03587 -0.01357,0.07203 -0.01913,0.108521 -0.0056,0.0365 -0.01021,0.073 -0.01394,0.110071 -0.0037,0.03707 -0.0064,0.07453 -0.0083,0.112138 -0.0019,0.03761 -0.0031,0.0756 -0.0031,0.113688 v 6.1825662 c 0,0.038092 0.0013,0.076083 0.0031,0.113688 0.0019,0.037606 0.0045,0.075065 0.0083,0.1121378 0.0038,0.037073 0.0084,0.073575 0.01394,0.1100709 0.0056,0.036496 0.01183,0.072648 0.01913,0.1085205 0.0073,0.035873 0.01579,0.071766 0.02479,0.1069702 0.009,0.035204 0.01876,0.069896 0.02946,0.1043863 0.01069,0.034491 0.0223,0.068588 0.03462,0.1023194 0.0123,0.033732 0.0254,0.067325 0.03927,0.1002523 0.01389,0.032927 0.02851,0.065075 0.04392,0.097152 0.0154,0.032077 0.03168,0.063903 0.04858,0.095085 0.01691,0.031181 0.03437,0.061743 0.05271,0.091984 0.01833,0.030241 0.03711,0.060146 0.05684,0.0894 0.01974,0.029254 0.04041,0.058076 0.0615,0.086299 0.02109,0.028223 0.04273,0.056053 0.06511,0.083199 0.02238,0.02715 0.0456,0.05356 0.06925,0.07958 0.02365,0.02602 0.04749,0.05162 0.07235,0.07648 0.02487,0.02485 0.05046,0.0487 0.07648,0.07235 0.02603,0.02364 0.05295,0.04686 0.0801,0.06925 0.02715,0.02238 0.05446,0.04403 0.08268,0.06511 0.02822,0.02108 0.05705,0.04176 0.0863,0.06149 0.02925,0.01973 0.05916,0.03851 0.0894,0.05684 0.03024,0.01834 0.0608,0.03633 0.09198,0.05323 0.03118,0.0169 0.06301,0.03265 0.09508,0.04806 0.03208,0.01541 0.06422,0.03004 0.09715,0.04392 0.03293,0.01388 0.06652,0.02697 0.100251,0.03927 0.03373,0.01231 0.06783,0.02394 0.10232,0.03462 0.03449,0.01068 0.06918,0.02044 0.104388,0.02946 0.0352,0.009 0.0711,0.0175 0.106969,0.0248 0.03587,0.0073 0.07203,0.01358 0.108521,0.01912 0.03649,0.0055 0.073,0.01021 0.110069,0.01395 0.03707,0.0037 0.07453,0.0064 0.112139,0.0083 0.0376,0.0019 0.0756,0.0031 0.113689,0.0031 h 6.182569 c 0.03809,0 0.07608,-0.0012 0.113686,-0.0031 0.03761,-0.0019 0.07507,-0.0045 0.112138,-0.0083 0.03707,-0.0037 0.07358,-0.0084 0.110072,-0.01395 0.03649,-0.0055 0.07265,-0.01182 0.108519,-0.01912 0.03588,-0.0073 0.07177,-0.01579 0.106971,-0.0248 0.03521,-0.009 0.0699,-0.01877 0.104386,-0.02946 0.03449,-0.01068 0.06859,-0.02232 0.10232,-0.03462 0.03373,-0.01231 0.06733,-0.02539 0.100253,-0.03927 0.03293,-0.01388 0.06507,-0.02851 0.09715,-0.04392 0.03208,-0.01541 0.0639,-0.03116 0.09508,-0.04806 0.03118,-0.0169 0.06174,-0.03489 0.09198,-0.05323 0.03024,-0.01834 0.06015,-0.03711 0.0894,-0.05684 0.02926,-0.01973 0.05808,-0.04041 0.0863,-0.06149 0.02822,-0.02108 0.05605,-0.04273 0.0832,-0.06511 0.02715,-0.02238 0.05356,-0.0456 0.07958,-0.06925 0.02603,-0.02364 0.05163,-0.04749 0.07648,-0.07235 0.02484,-0.02486 0.04922,-0.05046 0.07286,-0.07648 0.02365,-0.02602 0.04635,-0.05243 0.06873,-0.07958 0.02238,-0.027146 0.04403,-0.054976 0.06511,-0.083199 0.02109,-0.028223 0.04176,-0.057045 0.0615,-0.086299 0.01974,-0.029255 0.03851,-0.059159 0.05684,-0.0894 0.01833,-0.030241 0.03633,-0.060803 0.05323,-0.091984 0.01691,-0.031182 0.03265,-0.063008 0.04806,-0.095085 0.01543,-0.032077 0.03056,-0.064225 0.04444,-0.097152 0.01389,-0.032927 0.02697,-0.066521 0.03928,-0.1002523 0.0123,-0.033731 0.02341,-0.067829 0.03411,-0.1023194 0.01069,-0.034491 0.02096,-0.069182 0.02997,-0.1043863 0.009,-0.035204 0.01699,-0.071098 0.02429,-0.1069702 0.0073,-0.035873 0.01357,-0.072025 0.01913,-0.1085205 0.0056,-0.036496 0.01021,-0.072997 0.01394,-0.1100709 0.0038,-0.037073 0.0069,-0.074532 0.0088,-0.1121378 0.0019,-0.037605 0.0026,-0.075596 0.0026,-0.113688 V 2.4226075 c 0,-0.03809 -7.94e-4,-0.07608 -0.0026,-0.113688 -0.0019,-0.03761 -0.0051,-0.07507 -0.0088,-0.112138 -0.0037,-0.03707 -0.0084,-0.07357 -0.01394,-0.110071 -0.0056,-0.0365 -0.01183,-0.07265 -0.01913,-0.108521 -0.0073,-0.03587 -0.01527,-0.07177 -0.02429,-0.10697 -0.009,-0.0352 -0.01929,-0.0699 -0.02997,-0.104386 -0.01069,-0.03449 -0.0218,-0.06859 -0.03411,-0.10232 -0.0123,-0.03373 -0.0254,-0.06733 -0.03928,-0.100252 -0.01389,-0.03293 -0.02903,-0.06508 -0.04444,-0.09715 -0.0154,-0.03208 -0.03116,-0.0639 -0.04806,-0.09509 -0.01691,-0.03118 -0.03489,-0.06174 -0.05323,-0.09198 -0.01834,-0.03024 -0.03711,-0.06015 -0.05684,-0.0894 -0.01974,-0.02926 -0.04042,-0.05808 -0.0615,-0.0863 -0.02109,-0.02822 -0.04273,-0.05605 -0.06511,-0.0832 -0.02238,-0.02715 -0.04509,-0.05356 -0.06873,-0.07958 -0.02365,-0.02602 -0.04801,-0.05162 -0.07286,-0.07648 -0.02487,-0.02486 -0.05046,-0.0487 -0.07648,-0.07235 -0.02604,-0.02364 -0.05244,-0.04686 -0.07958,-0.06925 -0.02715,-0.02238 -0.05497,-0.04403 -0.0832,-0.06511 -0.02822,-0.02108 -0.05704,-0.04176 -0.0863,-0.06149 -0.02925,-0.01973 -0.05916,-0.03851 -0.0894,-0.05684 -0.03024,-0.01834 -0.0608,-0.03633 -0.09198,-0.05323 -0.03118,-0.0169 -0.06301,-0.03265 -0.09508,-0.04806 -0.03208,-0.01541 -0.06423,-0.03004 -0.09715,-0.04392 -0.03293,-0.01388 -0.06652,-0.02697 -0.100253,-0.03927 -0.03373,-0.0123 -0.06783,-0.02394 -0.10232,-0.03462 -0.03449,-0.01068 -0.06918,-0.02044 -0.104386,-0.02946 -0.0352,-0.009 -0.0711,-0.0175 -0.106971,-0.02481 -0.03587,-0.0073 -0.07202,-0.01357 -0.108519,-0.01912 -0.0365,-0.0056 -0.073,-0.01021 -0.110072,-0.01395 -0.03707,-0.0037 -0.07453,-0.0064 -0.112138,-0.0083 -0.0376,-0.0019 -0.07559,-0.0031 -0.113686,-0.0031 z m 5.29e-4,0.264067 h 6.181534 c 1.076952,0 1.9358,0.85884797 1.9358,1.93579897 v 6.1836018 c 0,1.0769502 -0.858848,1.9352817 -1.9358,1.9352817 h -6.181534 c -1.07695,0 -1.935282,-0.8583315 -1.935282,-1.9352817 V 2.4220695 c 0,-1.076951 0.858332,-1.93579897 1.935282,-1.93579897 z" />
    </g>
  </g>
</svg>
