<?xml version="1.0" encoding="UTF-8" standalone="no"?>
<!-- Created with Inkscape (http://www.inkscape.org/) -->

<svg
   width="48"
   height="48"
   viewBox="0 0 12.7 12.7"
   version="1.1"
   id="svg39233"
   sodipodi:docname="org.gnome.Calculator.svg"
   inkscape:export-filename="/home/bokehlicia/.local/share/icons/Testeo/48x48/apps/google-chrome.png"
   inkscape:export-xdpi="96"
   inkscape:export-ydpi="96"
   inkscape:version="1.1 (c68e22c387, 2021-05-23)"
   xmlns:inkscape="http://www.inkscape.org/namespaces/inkscape"
   xmlns:sodipodi="http://sodipodi.sourceforge.net/DTD/sodipodi-0.dtd"
   xmlns:xlink="http://www.w3.org/1999/xlink"
   xmlns="http://www.w3.org/2000/svg"
   xmlns:svg="http://www.w3.org/2000/svg">
  <sodipodi:namedview
     id="namedview39235"
     pagecolor="#505050"
     bordercolor="#eeeeee"
     borderopacity="1"
     inkscape:pageshadow="0"
     inkscape:pageopacity="0"
     inkscape:pagecheckerboard="0"
     inkscape:document-units="mm"
     showgrid="false"
     units="px"
     inkscape:zoom="5.3664983"
     inkscape:cx="30.280453"
     inkscape:cy="9.7829156"
     inkscape:window-width="1920"
     inkscape:window-height="1048"
     inkscape:window-x="0"
     inkscape:window-y="32"
     inkscape:window-maximized="1"
     inkscape:current-layer="layer1" />
  <defs
     id="defs39230">
    <filter
       style="color-interpolation-filters:sRGB"
       inkscape:label="Blur"
       id="filter33679-367"
       x="-0.0022677166"
       y="-0.070299215"
       width="1.0045354"
       height="1.1405984">
      <feGaussianBlur
         stdDeviation="0.01 0.31"
         result="blur"
         id="feGaussianBlur33677-5" />
    </filter>
    <filter
       style="color-interpolation-filters:sRGB"
       inkscape:label="Blur"
       id="filter18192"
       x="-0.0072028161"
       y="-0.332926"
       width="1.0144056"
       height="1.665852">
      <feGaussianBlur
         stdDeviation="0.01 0.11"
         result="blur"
         id="feGaussianBlur18190" />
    </filter>
    <filter
       style="color-interpolation-filters:sRGB"
       inkscape:label="Blur"
       id="filter18344"
       x="-0.0024533221"
       y="-0.057351846"
       width="1.0049066"
       height="1.1147037">
      <feGaussianBlur
         stdDeviation="0.01 0.21"
         result="blur"
         id="feGaussianBlur18342" />
    </filter>
    <filter
       style="color-interpolation-filters:sRGB"
       inkscape:label="Blur"
       id="filter18097-3"
       x="-0.01822025"
       y="-0.01992877"
       width="1.0364405"
       height="1.0398575">
      <feGaussianBlur
         stdDeviation="0.072922984"
         result="blur"
         id="feGaussianBlur18095-5" />
    </filter>
    <filter
       style="color-interpolation-filters:sRGB"
       inkscape:label="Blur"
       id="filter18348"
       x="-0.0024533221"
       y="-0.057313635"
       width="1.0049066"
       height="1.1146273">
      <feGaussianBlur
         stdDeviation="0.01 0.21"
         result="blur"
         id="feGaussianBlur18346" />
    </filter>
    <filter
       style="color-interpolation-filters:sRGB"
       inkscape:label="Blur"
       id="filter18101-6"
       x="-0.031924097"
       y="-0.0349022"
       width="1.0638482"
       height="1.0698044">
      <feGaussianBlur
         stdDeviation="0.12776995"
         result="blur"
         id="feGaussianBlur18099-2" />
    </filter>
    <filter
       style="color-interpolation-filters:sRGB"
       inkscape:label="Blur"
       id="filter18188"
       x="-0.0072028161"
       y="-0.33292642"
       width="1.0144056"
       height="1.6658528">
      <feGaussianBlur
         stdDeviation="0.01 0.11"
         result="blur"
         id="feGaussianBlur18186" />
    </filter>
    <filter
       style="color-interpolation-filters:sRGB"
       inkscape:label="Blur"
       id="filter18474"
       x="-0.0019056996"
       y="-0.25150733"
       width="1.0038114"
       height="1.5030147">
      <feGaussianBlur
         stdDeviation="0.01 0.21"
         result="blur"
         id="feGaussianBlur18472" />
    </filter>
    <filter
       style="color-interpolation-filters:sRGB"
       inkscape:label="Blur"
       id="filter18452"
       x="-0.0080093975"
       y="-0.20660369"
       width="1.0160188"
       height="1.4132074">
      <feGaussianBlur
         stdDeviation="0.01 0.21"
         result="blur"
         id="feGaussianBlur18450" />
    </filter>
    <filter
       style="color-interpolation-filters:sRGB"
       inkscape:label="Blur"
       id="filter18448"
       x="-0.0019057056"
       y="-0.25175271"
       width="1.0038114"
       height="1.5035054">
      <feGaussianBlur
         stdDeviation="0.01 0.21"
         result="blur"
         id="feGaussianBlur18446" />
    </filter>
    <linearGradient
       inkscape:collect="always"
       xlink:href="#linearGradient2864"
       id="linearGradient1206"
       gradientUnits="userSpaceOnUse"
       gradientTransform="translate(-103.08143,-26.777538)"
       x1="6.4202108"
       y1="0.96924353"
       x2="6.4202108"
       y2="11.540484" />
    <linearGradient
       inkscape:collect="always"
       id="linearGradient2864">
      <stop
         style="stop-color:#000000;stop-opacity:1"
         offset="0"
         id="stop2860" />
      <stop
         style="stop-color:#fefefe;stop-opacity:0"
         offset="1"
         id="stop2862" />
    </linearGradient>
    <linearGradient
       inkscape:collect="always"
       xlink:href="#linearGradient2084"
       id="linearGradient1208"
       gradientUnits="userSpaceOnUse"
       gradientTransform="translate(90.381406,14.077538)"
       x1="6.4202108"
       y1="0.96924353"
       x2="6.4202108"
       y2="11.540484" />
    <linearGradient
       inkscape:collect="always"
       id="linearGradient2084">
      <stop
         style="stop-color:#ffffff;stop-opacity:1"
         offset="0"
         id="stop2080" />
      <stop
         style="stop-color:#000000;stop-opacity:0"
         offset="1"
         id="stop2082" />
    </linearGradient>
  </defs>
  <g
     inkscape:label="Calque 1"
     inkscape:groupmode="layer"
     id="layer1">
    <g
       id="g21023"
       transform="translate(-90.381407,-14.921041)">
      <rect
         style="opacity:0.2;mix-blend-mode:overlay;fill:#000000;fill-opacity:1;stroke:none;stroke-width:0.55007;stroke-linecap:square;filter:url(#filter33679-367)"
         id="rect2837"
         width="10.583333"
         height="10.583333"
         x="-31.628342"
         y="-3.2242157"
         ry="2.2002783"
         rx="2.2002783"
         transform="rotate(180,35.197366,11.512079)" />
      <rect
         style="fill:#636e72;fill-opacity:1;stroke:none;stroke-width:0.55007;stroke-linecap:square"
         id="rect2839"
         width="10.583333"
         height="10.583333"
         x="91.439743"
         y="15.135874"
         ry="2.2002783"
         rx="2.2002783" />
      <path
         style="color:#000000;opacity:0.2;fill:#000000;stroke-linecap:round;-inkscape-stroke:none;filter:url(#filter18192)"
         d="m 97.76465,21.768242 a 0.39687499,0.39687499 0 0 0 -0.39649,0.396485 0.39687499,0.39687499 0 0 0 0.39649,0.396484 h 2.53906 a 0.39687499,0.39687499 0 0 0 0.39648,-0.396484 0.39687499,0.39687499 0 0 0 -0.39648,-0.396485 z"
         id="path17620" />
      <path
         id="path2845"
         style="color:#000000;opacity:0.2;mix-blend-mode:soft-light;fill:#ffffff;stroke-width:1;stroke-linecap:square;-inkscape-stroke:none"
         d="m 93.639617,15.135857 c -0.0381,0 -0.0761,0.0012 -0.11369,0.0031 -0.0376,0.0019 -0.0751,0.0045 -0.11213,0.0083 -0.0371,0.0037 -0.0736,0.0084 -0.11007,0.01395 -0.0365,0.0056 -0.0726,0.01182 -0.10852,0.01912 -0.0359,0.0073 -0.0718,0.01579 -0.10697,0.02481 -0.0352,0.009 -0.0699,0.01877 -0.10439,0.02946 -0.0345,0.01068 -0.0686,0.02232 -0.10232,0.03462 -0.0337,0.0123 -0.0673,0.02539 -0.10025,0.03927 -0.0329,0.01388 -0.0651,0.02851 -0.0971,0.04393 -0.0321,0.01541 -0.0639,0.03116 -0.0951,0.04806 -0.0312,0.0169 -0.0617,0.03489 -0.092,0.05323 -0.0302,0.01834 -0.0602,0.03711 -0.0894,0.05684 -0.0293,0.01973 -0.0581,0.04041 -0.0863,0.06149 -0.0282,0.02108 -0.0555,0.04273 -0.0827,0.06511 -0.0272,0.02238 -0.0541,0.0456 -0.0801,0.06925 -0.026,0.02364 -0.0516,0.04749 -0.0765,0.07235 -0.0248,0.02486 -0.0487,0.05046 -0.0724,0.07648 -0.0237,0.02602 -0.0469,0.05243 -0.0692,0.07958 -0.0224,0.02715 -0.044,0.05498 -0.0651,0.0832 -0.0211,0.02822 -0.0418,0.05705 -0.0615,0.0863 -0.0197,0.02925 -0.0385,0.05916 -0.0568,0.0894 -0.0183,0.03024 -0.0358,0.0608 -0.0527,0.09198 -0.0169,0.03118 -0.0332,0.06301 -0.0486,0.09508 -0.0154,0.03208 -0.03,0.06423 -0.0439,0.09715 -0.0139,0.03293 -0.027,0.06652 -0.0393,0.100252 -0.0123,0.03373 -0.0239,0.06783 -0.0346,0.10232 -0.0107,0.03449 -0.0204,0.06918 -0.0295,0.104386 -0.009,0.0352 -0.0175,0.0711 -0.0248,0.10697 -0.007,0.03587 -0.0136,0.07203 -0.0191,0.108521 -0.006,0.0365 -0.0102,0.073 -0.0139,0.110071 -0.004,0.03707 -0.006,0.07453 -0.008,0.112138 -0.002,0.03761 -0.003,0.0756 -0.003,0.113688 v 6.182567 c 0,0.03809 10e-4,0.07608 0.003,0.113688 0.002,0.03761 0.004,0.07507 0.008,0.112137 0.004,0.03707 0.008,0.07357 0.0139,0.110071 0.006,0.0365 0.0118,0.07265 0.0191,0.108521 0.007,0.03587 0.0158,0.07177 0.0248,0.10697 0.009,0.0352 0.0188,0.0699 0.0295,0.104386 0.0107,0.03449 0.0223,0.06859 0.0346,0.10232 0.0123,0.03373 0.0254,0.06733 0.0393,0.100252 0.0139,0.03293 0.0285,0.06508 0.0439,0.09715 0.0154,0.03208 0.0317,0.0639 0.0486,0.09509 0.0169,0.03118 0.0344,0.06174 0.0527,0.09198 0.0183,0.03024 0.0371,0.06015 0.0568,0.0894 0.0197,0.02925 0.0404,0.05808 0.0615,0.0863 0.0211,0.02822 0.0427,0.05605 0.0651,0.0832 0.0224,0.02715 0.0456,0.05356 0.0692,0.07958 0.0237,0.02602 0.0475,0.05162 0.0724,0.07648 0.0249,0.02485 0.0505,0.0487 0.0765,0.07235 0.026,0.02364 0.0529,0.04686 0.0801,0.06925 0.0271,0.02238 0.0545,0.04403 0.0827,0.06511 0.0282,0.02108 0.0571,0.04176 0.0863,0.06149 0.0293,0.01973 0.0592,0.03851 0.0894,0.05684 0.0302,0.01834 0.0608,0.03633 0.092,0.05323 0.0312,0.0169 0.063,0.03265 0.0951,0.04806 0.0321,0.01541 0.0642,0.03004 0.0971,0.04392 0.0329,0.01388 0.0665,0.02697 0.10025,0.03927 0.0337,0.01231 0.0678,0.02394 0.10232,0.03462 0.0345,0.01068 0.0692,0.02044 0.10439,0.02946 0.0352,0.009 0.0711,0.0175 0.10697,0.0248 0.0359,0.0073 0.072,0.01358 0.10852,0.01912 0.0365,0.0055 0.073,0.01021 0.11007,0.01395 0.0371,0.0037 0.0745,0.0064 0.11213,0.0083 0.0376,0.0019 0.0756,0.0031 0.11369,0.0031 h 6.182573 c 0.0381,0 0.0761,-0.0012 0.11369,-0.0031 0.0376,-0.0019 0.0751,-0.0045 0.11214,-0.0083 0.0371,-0.0037 0.0736,-0.0084 0.11007,-0.01395 0.0365,-0.0055 0.0727,-0.01182 0.10852,-0.01912 0.0359,-0.0073 0.0718,-0.01579 0.10697,-0.0248 0.0352,-0.009 0.0699,-0.01877 0.10439,-0.02946 0.0345,-0.01068 0.0686,-0.02232 0.10232,-0.03462 0.0337,-0.01231 0.0673,-0.02539 0.10025,-0.03927 0.0329,-0.01388 0.0651,-0.02851 0.0971,-0.04392 0.0321,-0.01541 0.0639,-0.03116 0.0951,-0.04806 0.0312,-0.0169 0.0617,-0.03489 0.092,-0.05323 0.0302,-0.01834 0.0601,-0.03711 0.0894,-0.05684 0.0293,-0.01973 0.0581,-0.04041 0.0863,-0.06149 0.0282,-0.02108 0.056,-0.04273 0.0832,-0.06511 0.0272,-0.02238 0.0536,-0.0456 0.0796,-0.06925 0.026,-0.02364 0.0516,-0.04749 0.0765,-0.07235 0.0248,-0.02486 0.0492,-0.05046 0.0729,-0.07648 0.0237,-0.02602 0.0464,-0.05243 0.0687,-0.07958 0.0224,-0.02715 0.044,-0.05498 0.0651,-0.0832 0.0211,-0.02822 0.0418,-0.05705 0.0615,-0.0863 0.0197,-0.02926 0.0385,-0.05916 0.0568,-0.0894 0.0183,-0.03024 0.0363,-0.0608 0.0532,-0.09198 0.0169,-0.03118 0.0327,-0.06301 0.0481,-0.09509 0.0154,-0.03208 0.0306,-0.06423 0.0444,-0.09715 0.0139,-0.03293 0.027,-0.06652 0.0393,-0.100252 0.0123,-0.03373 0.0234,-0.06783 0.0341,-0.10232 0.0107,-0.03449 0.021,-0.06918 0.03,-0.104386 0.009,-0.0352 0.017,-0.0711 0.0243,-0.10697 0.007,-0.03587 0.0136,-0.07203 0.0191,-0.108521 0.006,-0.0365 0.0102,-0.073 0.0139,-0.110071 0.004,-0.03707 0.007,-0.07453 0.009,-0.112137 0.002,-0.03761 0.003,-0.0756 0.003,-0.113688 v -6.182569 c 0,-0.03809 -7.9e-4,-0.07608 -0.003,-0.113688 -0.002,-0.03761 -0.005,-0.07507 -0.009,-0.112138 -0.004,-0.03707 -0.008,-0.07357 -0.0139,-0.110071 -0.006,-0.0365 -0.0118,-0.07265 -0.0191,-0.108521 -0.007,-0.03587 -0.0153,-0.07177 -0.0243,-0.10697 -0.009,-0.0352 -0.0193,-0.0699 -0.03,-0.104386 -0.0107,-0.03449 -0.0218,-0.06859 -0.0341,-0.10232 -0.0123,-0.03373 -0.0254,-0.06733 -0.0393,-0.100252 -0.0139,-0.03293 -0.029,-0.06508 -0.0444,-0.09715 -0.0154,-0.03208 -0.0312,-0.0639 -0.0481,-0.09509 -0.0169,-0.03118 -0.0349,-0.06174 -0.0532,-0.09198 -0.0183,-0.03024 -0.0371,-0.06015 -0.0568,-0.0894 -0.0197,-0.02926 -0.0404,-0.05808 -0.0615,-0.0863 -0.0211,-0.02822 -0.0427,-0.05605 -0.0651,-0.0832 -0.0224,-0.02715 -0.0451,-0.05356 -0.0687,-0.07958 -0.0237,-0.02602 -0.048,-0.05162 -0.0729,-0.07648 -0.0249,-0.02486 -0.0505,-0.0487 -0.0765,-0.07235 -0.026,-0.02364 -0.0524,-0.04686 -0.0796,-0.06925 -0.0272,-0.02238 -0.055,-0.04403 -0.0832,-0.06511 -0.0282,-0.02108 -0.057,-0.04176 -0.0863,-0.06149 -0.0293,-0.01973 -0.0592,-0.03851 -0.0894,-0.05684 -0.0302,-0.01834 -0.0608,-0.03633 -0.092,-0.05323 -0.0312,-0.0169 -0.063,-0.03265 -0.0951,-0.04806 -0.0321,-0.01541 -0.0642,-0.03004 -0.0971,-0.04392 -0.0329,-0.01388 -0.0665,-0.02697 -0.10025,-0.03927 -0.0337,-0.0123 -0.0678,-0.02394 -0.10232,-0.03462 -0.0345,-0.01068 -0.0692,-0.02044 -0.10439,-0.02946 -0.0352,-0.009 -0.0711,-0.0175 -0.10697,-0.02481 -0.0359,-0.0073 -0.072,-0.01357 -0.10852,-0.01912 -0.0365,-0.0056 -0.073,-0.01021 -0.11007,-0.01395 -0.0371,-0.0037 -0.0745,-0.0064 -0.11214,-0.0083 -0.0376,-0.0019 -0.0756,-0.0031 -0.11369,-0.0031 z m 5.3e-4,0.264067 h 6.181543 c 1.07695,0 1.9358,0.858848 1.9358,1.935799 v 6.183602 c 0,1.07695 -0.85885,1.935283 -1.9358,1.935283 h -6.181543 c -1.07695,0 -1.93528,-0.858333 -1.93528,-1.935283 v -6.183602 c 0,-1.076951 0.85833,-1.935799 1.93528,-1.935799 z" />
      <path
         id="path17614"
         style="color:#000000;opacity:0.2;fill:#000000;stroke-width:3.77953;stroke-linecap:round;-inkscape-stroke:none;filter:url(#filter18344)"
         d="m 352.0918,83.015625 a 1.5,1.5 0 0 0 0.35156,1.566406 l 6.7832,6.783203 a 1.5,1.5 0 0 0 2.11914,0 1.5,1.5 0 0 0 0.35157,-1.572265 1.5,1.5 0 0 1 -0.0176,0.05078 1.5,1.5 0 0 1 -0.0254,0.06445 1.5,1.5 0 0 1 -0.0293,0.0625 1.5,1.5 0 0 1 -0.0332,0.06055 1.5,1.5 0 0 1 -0.0352,0.06055 1.5,1.5 0 0 1 -0.0371,0.05664 1.5,1.5 0 0 1 -0.041,0.05664 1.5,1.5 0 0 1 -0.041,0.05469 1.5,1.5 0 0 1 -0.0469,0.05273 1.5,1.5 0 0 1 -0.0469,0.04883 1.5,1.5 0 0 1 -0.14844,0.128906 1.5,1.5 0 0 1 -0.16211,0.109375 1.5,1.5 0 0 1 -0.17578,0.08594 1.5,1.5 0 0 1 -0.18554,0.0625 1.5,1.5 0 0 1 -0.19141,0.03906 1.5,1.5 0 0 1 -0.19531,0.01172 1.5,1.5 0 0 1 -0.19727,-0.01172 1.5,1.5 0 0 1 -0.19141,-0.03906 1.5,1.5 0 0 1 -0.18554,-0.0625 1.5,1.5 0 0 1 -0.17578,-0.08594 1.5,1.5 0 0 1 -0.16211,-0.109375 1.5,1.5 0 0 1 -0.14844,-0.128906 l -6.7832,-6.783203 a 1.5,1.5 0 0 1 -0.12891,-0.148437 1.5,1.5 0 0 1 -0.10938,-0.16211 1.5,1.5 0 0 1 -0.0859,-0.175781 1.5,1.5 0 0 1 -0.0254,-0.07617 z"
         transform="scale(0.26458333)" />
      <path
         id="path7785"
         style="color:#000000;opacity:0.2;fill:#000000;stroke-width:3.77953;stroke-linecap:round;-inkscape-stroke:none;filter:url(#filter18097-3)"
         d="m 352.0918,83.015625 a 1.5,1.5 0 0 0 0.0254,0.07617 1.5,1.5 0 0 0 0.0859,0.175781 1.5,1.5 0 0 0 0.10938,0.16211 1.5,1.5 0 0 0 0.12891,0.148437 l 6.7832,6.783203 a 1.5,1.5 0 0 0 0.14844,0.128906 1.5,1.5 0 0 0 0.16211,0.109375 1.5,1.5 0 0 0 0.17578,0.08594 1.5,1.5 0 0 0 0.18554,0.0625 1.5,1.5 0 0 0 0.19141,0.03906 1.5,1.5 0 0 0 0.19727,0.01172 1.5,1.5 0 0 0 0.19531,-0.01172 1.5,1.5 0 0 0 0.19141,-0.03906 1.5,1.5 0 0 0 0.18554,-0.0625 1.5,1.5 0 0 0 0.17578,-0.08594 1.5,1.5 0 0 0 0.16211,-0.109375 1.5,1.5 0 0 0 0.14844,-0.128906 1.5,1.5 0 0 0 0.0469,-0.04883 1.5,1.5 0 0 0 0.0469,-0.05273 1.5,1.5 0 0 0 0.041,-0.05469 1.5,1.5 0 0 0 0.041,-0.05664 1.5,1.5 0 0 0 0.0371,-0.05664 1.5,1.5 0 0 0 0.0352,-0.06055 1.5,1.5 0 0 0 0.0332,-0.06055 1.5,1.5 0 0 0 0.0293,-0.0625 1.5,1.5 0 0 0 0.0254,-0.06445 1.5,1.5 0 0 0 0.0176,-0.05078 1.5,1.5 0 0 0 -0.35157,-0.552735 l -6.7832,-6.785156 a 1.5,1.5 0 0 0 -2.11914,0 1.5,1.5 0 0 0 -0.35156,0.560547 z"
         transform="scale(0.26458333)" />
      <path
         id="path3211"
         style="color:#000000;opacity:0.9;fill:#ffffff;stroke-width:3.77953;stroke-linecap:round;-inkscape-stroke:none"
         d="m 359.01367,85.910156 -2.11914,2.121094 2.33008,2.330078 a 1.5,1.5 0 0 0 2.11914,0 1.5,1.5 0 0 0 0,-2.11914 z"
         transform="scale(0.26458333)" />
      <path
         id="path7793"
         style="color:#000000;opacity:0.9;fill:#ffffff;stroke-width:3.77953;stroke-linecap:round;-inkscape-stroke:none"
         d="m 353.50391,81.015625 a 1.5,1.5 0 0 0 -1.0625,0.443359 1.5,1.5 0 0 0 0,2.119141 l 2.33203,2.332031 2.12109,-2.121094 -2.32812,-2.330078 a 1.5,1.5 0 0 0 -1.0625,-0.443359 z"
         transform="scale(0.26458333)" />
      <path
         id="path17616"
         style="color:#000000;opacity:0.2;fill:#000000;stroke-width:3.77953;stroke-linecap:round;-inkscape-stroke:none;filter:url(#filter18348)"
         d="m 352.0918,89.798828 a 1.5,1.5 0 0 0 0.35156,1.566406 1.5,1.5 0 0 0 2.11914,0 l 6.7832,-6.783203 a 1.5,1.5 0 0 0 0.35157,-1.572265 1.5,1.5 0 0 1 -0.0176,0.04883 1.5,1.5 0 0 1 -0.0254,0.06445 1.5,1.5 0 0 1 -0.0293,0.0625 1.5,1.5 0 0 1 -0.0332,0.0625 1.5,1.5 0 0 1 -0.0352,0.05859 1.5,1.5 0 0 1 -0.0371,0.05859 1.5,1.5 0 0 1 -0.041,0.05664 1.5,1.5 0 0 1 -0.041,0.05273 1.5,1.5 0 0 1 -0.0469,0.05273 1.5,1.5 0 0 1 -0.0469,0.05078 l -6.77734,6.783203 a 1.5,1.5 0 0 1 -0.14649,0.13086 1.5,1.5 0 0 1 -0.16406,0.109374 1.5,1.5 0 0 1 -0.17578,0.08789 1.5,1.5 0 0 1 -0.1875,0.0625 1.5,1.5 0 0 1 -0.19141,0.03906 1.5,1.5 0 0 1 -0.19726,0.01172 1.5,1.5 0 0 1 -0.19727,-0.01172 1.5,1.5 0 0 1 -0.19141,-0.03906 1.5,1.5 0 0 1 -0.1875,-0.0625 1.5,1.5 0 0 1 -0.17578,-0.08789 1.5,1.5 0 0 1 -0.16406,-0.109374 1.5,1.5 0 0 1 -0.14648,-0.13086 1.5,1.5 0 0 1 -0.12891,-0.146484 1.5,1.5 0 0 1 -0.10938,-0.164063 1.5,1.5 0 0 1 -0.0859,-0.175781 1.5,1.5 0 0 1 -0.0254,-0.07617 z"
         transform="scale(0.26458333)" />
      <path
         id="path7788"
         style="color:#000000;opacity:0.2;fill:#000000;stroke-width:3.77953;stroke-linecap:round;-inkscape-stroke:none;filter:url(#filter18101-6)"
         d="m 352.0918,89.798828 a 1.5,1.5 0 0 0 0.0254,0.07617 1.5,1.5 0 0 0 0.0859,0.175781 1.5,1.5 0 0 0 0.10938,0.164063 1.5,1.5 0 0 0 0.12891,0.146484 1.5,1.5 0 0 0 0.14648,0.13086 1.5,1.5 0 0 0 0.16406,0.109374 1.5,1.5 0 0 0 0.17578,0.08789 1.5,1.5 0 0 0 0.1875,0.0625 1.5,1.5 0 0 0 0.19141,0.03906 1.5,1.5 0 0 0 0.19727,0.01172 1.5,1.5 0 0 0 0.19726,-0.01172 1.5,1.5 0 0 0 0.19141,-0.03906 1.5,1.5 0 0 0 0.1875,-0.0625 1.5,1.5 0 0 0 0.17578,-0.08789 1.5,1.5 0 0 0 0.16406,-0.109374 1.5,1.5 0 0 0 0.14649,-0.13086 l 6.77734,-6.783203 a 1.5,1.5 0 0 0 0.0469,-0.05078 1.5,1.5 0 0 0 0.0469,-0.05273 1.5,1.5 0 0 0 0.041,-0.05273 1.5,1.5 0 0 0 0.041,-0.05664 1.5,1.5 0 0 0 0.0371,-0.05859 1.5,1.5 0 0 0 0.0352,-0.05859 1.5,1.5 0 0 0 0.0332,-0.0625 1.5,1.5 0 0 0 0.0293,-0.0625 1.5,1.5 0 0 0 0.0254,-0.06445 1.5,1.5 0 0 0 0.0176,-0.04883 1.5,1.5 0 0 0 -0.35157,-0.554688 1.5,1.5 0 0 0 -2.11914,0 l -6.7832,6.785156 a 1.5,1.5 0 0 0 -0.35156,0.558594 z"
         transform="scale(0.26458333)" />
      <path
         style="color:#000000;opacity:0.9;fill:#ffffff;stroke-linecap:round;-inkscape-stroke:none"
         d="m 95.326172,21.435547 a 0.39687499,0.39687499 0 0 0 -0.28125,0.117187 L 93.25,23.347656 a 0.39687499,0.39687499 0 0 0 0,0.560547 0.39687499,0.39687499 0 0 0 0.5625,0 l 1.792969,-1.794922 a 0.39687499,0.39687499 0 0 0 0,-0.560547 0.39687499,0.39687499 0 0 0 -0.279297,-0.117187 z"
         id="path3213" />
      <path
         style="color:#000000;opacity:0.2;fill:#000000;stroke-linecap:round;-inkscape-stroke:none;filter:url(#filter18188)"
         d="m 97.76465,23.428399 a 0.39687499,0.39687499 0 0 0 -0.39649,0.396484 0.39687499,0.39687499 0 0 0 0.39649,0.396484 h 2.53906 a 0.39687499,0.39687499 0 0 0 0.39648,-0.396484 0.39687499,0.39687499 0 0 0 -0.39648,-0.396484 z"
         id="path17622" />
      <path
         style="fill:none;stroke:#e17055;stroke-width:0.79375;stroke-linecap:round;stroke-linejoin:miter;stroke-miterlimit:4;stroke-dasharray:none;stroke-opacity:1"
         d="m 97.76556,21.900684 h 2.53773"
         id="path16991"
         sodipodi:nodetypes="cc" />
      <path
         style="fill:none;stroke:#e17055;stroke-width:0.79375;stroke-linecap:round;stroke-linejoin:miter;stroke-miterlimit:4;stroke-dasharray:none;stroke-opacity:1"
         d="m 97.76556,23.560424 h 2.53773"
         id="path16993"
         sodipodi:nodetypes="cc" />
      <path
         id="path17626"
         style="color:#000000;opacity:0.2;fill:#000000;stroke-width:3.77953;stroke-linecap:round;-inkscape-stroke:none;filter:url(#filter18474)"
         d="m 368.09766,69.003906 a 1.5,1.5 0 0 0 -0.0899,0.496094 1.5,1.5 0 0 0 1.5,1.498047 h 9.58789 A 1.5,1.5 0 0 0 380.60156,69.5 a 1.5,1.5 0 0 0 -0.0918,-0.505859 1.5,1.5 0 0 1 -0.0293,0.08398 1.5,1.5 0 0 1 -0.0859,0.173828 1.5,1.5 0 0 1 -0.10937,0.164063 1.5,1.5 0 0 1 -0.12891,0.146484 1.5,1.5 0 0 1 -0.14648,0.128906 1.5,1.5 0 0 1 -0.16407,0.109375 1.5,1.5 0 0 1 -0.17578,0.08789 1.5,1.5 0 0 1 -0.18554,0.0625 1.5,1.5 0 0 1 -0.19141,0.03906 1.5,1.5 0 0 1 -0.19531,0.01172 h -9.58985 a 1.5,1.5 0 0 1 -0.19531,-0.01172 1.5,1.5 0 0 1 -0.19141,-0.03906 1.5,1.5 0 0 1 -0.18554,-0.0625 1.5,1.5 0 0 1 -0.17578,-0.08789 1.5,1.5 0 0 1 -0.16407,-0.109375 1.5,1.5 0 0 1 -0.14648,-0.128906 1.5,1.5 0 0 1 -0.12891,-0.146484 1.5,1.5 0 0 1 -0.10937,-0.164063 1.5,1.5 0 0 1 -0.0879,-0.173828 1.5,1.5 0 0 1 -0.0254,-0.07422 z"
         transform="scale(0.26458333)" />
      <path
         style="color:#000000;opacity:0.9;fill:#ffffff;stroke-linecap:round;-inkscape-stroke:none"
         d="m 97.765625,17.728516 a 0.39687499,0.39687499 0 0 0 -0.396484,0.396484 0.39687499,0.39687499 0 0 0 0.396484,0.396484 h 2.537105 a 0.39687499,0.39687499 0 0 0 0.39649,-0.396484 0.39687499,0.39687499 0 0 0 -0.39649,-0.396484 z"
         id="path17093" />
      <path
         id="path17630"
         style="color:#000000;opacity:0.2;fill:#000000;stroke-width:3.77953;stroke-linecap:round;-inkscape-stroke:none;filter:url(#filter18452)"
         d="m 355.39844,73.359375 v 0.941406 a 1.5,1.5 0 0 0 1.49804,1.498047 1.5,1.5 0 0 0 1.49805,-1.498047 v -0.904297 a 1.5,1.5 0 0 1 -0.002,0.0332 1.5,1.5 0 0 1 -0.008,0.06836 1.5,1.5 0 0 1 -0.01,0.06641 1.5,1.5 0 0 1 -0.0137,0.06641 1.5,1.5 0 0 1 -0.0156,0.06445 1.5,1.5 0 0 1 -0.0195,0.06641 1.5,1.5 0 0 1 -0.0234,0.0625 1.5,1.5 0 0 1 -0.0234,0.0625 1.5,1.5 0 0 1 -0.0293,0.0625 1.5,1.5 0 0 1 -0.0293,0.06055 1.5,1.5 0 0 1 -0.0332,0.05859 1.5,1.5 0 0 1 -0.0371,0.05664 1.5,1.5 0 0 1 -0.0371,0.05664 1.5,1.5 0 0 1 -0.041,0.05273 1.5,1.5 0 0 1 -0.0449,0.05273 1.5,1.5 0 0 1 -0.0449,0.05078 1.5,1.5 0 0 1 -0.0469,0.04687 1.5,1.5 0 0 1 -0.0508,0.04492 1.5,1.5 0 0 1 -0.0527,0.04492 1.5,1.5 0 0 1 -0.0527,0.04102 1.5,1.5 0 0 1 -0.0566,0.03711 1.5,1.5 0 0 1 -0.0566,0.03711 1.5,1.5 0 0 1 -0.0586,0.0332 1.5,1.5 0 0 1 -0.0605,0.0293 1.5,1.5 0 0 1 -0.0625,0.0293 1.5,1.5 0 0 1 -0.0625,0.02539 1.5,1.5 0 0 1 -0.0645,0.02148 1.5,1.5 0 0 1 -0.0644,0.01953 1.5,1.5 0 0 1 -0.0645,0.01563 1.5,1.5 0 0 1 -0.0664,0.01367 1.5,1.5 0 0 1 -0.0684,0.0098 1.5,1.5 0 0 1 -0.0664,0.0078 1.5,1.5 0 0 1 -0.0684,0.0039 1.5,1.5 0 0 1 -0.0664,0.002 1.5,1.5 0 0 1 -0.19727,-0.01367 1.5,1.5 0 0 1 -0.1914,-0.03906 1.5,1.5 0 0 1 -0.1875,-0.0625 1.5,1.5 0 0 1 -0.17579,-0.08789 1.5,1.5 0 0 1 -0.1621,-0.109375 1.5,1.5 0 0 1 -0.14844,-0.128906 1.5,1.5 0 0 1 -0.12891,-0.148437 1.5,1.5 0 0 1 -0.10937,-0.164063 1.5,1.5 0 0 1 -0.0859,-0.175781 1.5,1.5 0 0 1 -0.0625,-0.1875 1.5,1.5 0 0 1 -0.0371,-0.19336 1.5,1.5 0 0 1 -0.008,-0.130859 z"
         transform="scale(0.26458333)" />
      <path
         id="path17276"
         style="color:#000000;opacity:0.9;fill:#ffffff;stroke-width:3.77953;stroke-linecap:round;-inkscape-stroke:none"
         d="m 358.39844,70.001953 h -3.00391 v 3.292969 a 1.5,1.5 0 0 0 1.49805,1.505859 1.5,1.5 0 0 0 1.50586,-1.505859 z"
         transform="scale(0.26458333)" />
      <path
         id="path7606"
         style="color:#000000;opacity:0.9;fill:#ffffff;stroke-width:3.77953;stroke-linecap:round;-inkscape-stroke:none"
         d="m 356.89258,62.207031 a 1.5,1.5 0 0 0 -1.49805,1.498047 v 3.300781 h 3.00391 v -3.300781 a 1.5,1.5 0 0 0 -1.50586,-1.498047 z"
         transform="scale(0.26458333)" />
      <path
         id="path17628"
         style="color:#000000;opacity:0.2;fill:#000000;stroke-width:3.77953;stroke-linecap:round;-inkscape-stroke:none;filter:url(#filter18448)"
         d="M 350.6875,69.009766 A 1.5,1.5 0 0 0 350.5996,69.501953 1.5,1.5 0 0 0 352.09766,71 h 9.58984 a 1.5,1.5 0 0 0 1.50586,-1.498047 1.5,1.5 0 0 0 -0.0918,-0.503906 1.5,1.5 0 0 1 -0.0273,0.08008 1.5,1.5 0 0 1 -0.0859,0.173828 1.5,1.5 0 0 1 -0.10937,0.164063 1.5,1.5 0 0 1 -0.12891,0.146484 1.5,1.5 0 0 1 -0.14844,0.128906 1.5,1.5 0 0 1 -0.16211,0.109375 1.5,1.5 0 0 1 -0.17578,0.08789 1.5,1.5 0 0 1 -0.18555,0.0625 1.5,1.5 0 0 1 -0.1914,0.03906 1.5,1.5 0 0 1 -0.19531,0.01172 h -9.58985 a 1.5,1.5 0 0 1 -0.19726,-0.01172 1.5,1.5 0 0 1 -0.19141,-0.03711 1.5,1.5 0 0 1 -0.1875,-0.0625 1.5,1.5 0 0 1 -0.17578,-0.08594 1.5,1.5 0 0 1 -0.16406,-0.109376 1.5,1.5 0 0 1 -0.14844,-0.128906 1.5,1.5 0 0 1 -0.12891,-0.148437 1.5,1.5 0 0 1 -0.10937,-0.16211 1.5,1.5 0 0 1 -0.0879,-0.177734 1.5,1.5 0 0 1 -0.0234,-0.06836 z"
         transform="scale(0.26458333)" />
      <path
         style="color:#000000;opacity:0.9;fill:#ffffff;stroke-linecap:round;-inkscape-stroke:none"
         d="m 93.160156,17.728516 a 0.39687499,0.39687499 0 0 0 -0.398437,0.396484 0.39687499,0.39687499 0 0 0 0.398437,0.396484 h 2.53711 A 0.39687499,0.39687499 0 0 0 96.09375,18.125 0.39687499,0.39687499 0 0 0 95.697266,17.728516 Z"
         id="path17274" />
      <rect
         style="opacity:0.2;mix-blend-mode:overlay;fill:url(#linearGradient1206);fill-opacity:1;stroke:none;stroke-width:0.55007;stroke-linecap:square"
         id="rect1192"
         width="10.583333"
         height="10.583333"
         x="-102.02308"
         y="-25.719208"
         ry="2.2002783"
         rx="2.2002783"
         transform="scale(-1)" />
      <rect
         style="opacity:0.2;mix-blend-mode:overlay;fill:url(#linearGradient1208);fill-opacity:1;stroke:none;stroke-width:0.55007;stroke-linecap:square"
         id="rect1194"
         width="10.583333"
         height="10.583333"
         x="91.439743"
         y="15.135874"
         ry="2.2002783"
         rx="2.2002783" />
    </g>
  </g>
</svg>
