<?xml version="1.0" encoding="UTF-8" standalone="no"?>
<!-- Created with Inkscape (http://www.inkscape.org/) -->

<svg
   width="48"
   height="48"
   viewBox="0 0 12.7 12.7"
   version="1.1"
   id="svg39233"
   inkscape:version="1.1 (c68e22c387, 2021-05-23)"
   sodipodi:docname="spotify-linux-64.svg"
   xmlns:inkscape="http://www.inkscape.org/namespaces/inkscape"
   xmlns:sodipodi="http://sodipodi.sourceforge.net/DTD/sodipodi-0.dtd"
   xmlns:xlink="http://www.w3.org/1999/xlink"
   xmlns="http://www.w3.org/2000/svg"
   xmlns:svg="http://www.w3.org/2000/svg">
  <sodipodi:namedview
     id="namedview39235"
     pagecolor="#505050"
     bordercolor="#eeeeee"
     borderopacity="1"
     inkscape:pageshadow="0"
     inkscape:pageopacity="0"
     inkscape:pagecheckerboard="0"
     inkscape:document-units="mm"
     showgrid="false"
     units="px"
     inkscape:zoom="5.3664983"
     inkscape:cx="0.65219437"
     inkscape:cy="6.2424319"
     inkscape:window-width="1920"
     inkscape:window-height="1048"
     inkscape:window-x="0"
     inkscape:window-y="32"
     inkscape:window-maximized="1"
     inkscape:current-layer="layer1" />
  <defs
     id="defs39230">
    <filter
       style="color-interpolation-filters:sRGB"
       inkscape:label="Blur"
       id="filter33679"
       x="-0.0022677166"
       y="-0.070299215"
       width="1.0045354"
       height="1.1405984">
      <feGaussianBlur
         stdDeviation="0.01 0.31"
         result="blur"
         id="feGaussianBlur33677" />
    </filter>
    <filter
       style="color-interpolation-filters:sRGB"
       inkscape:label="Blur"
       id="filter16690"
       x="-0.0043870046"
       y="-0.092127095"
       width="1.008774"
       height="1.1842542">
      <feGaussianBlur
         stdDeviation="0.01 0.21"
         result="blur"
         id="feGaussianBlur16688" />
    </filter>
    <filter
       style="color-interpolation-filters:sRGB"
       inkscape:label="Blur"
       id="filter16844"
       x="-0.0061783424"
       y="-0.067961776"
       width="1.0123567"
       height="1.1359236">
      <feGaussianBlur
         stdDeviation="0.01 0.11"
         result="blur"
         id="feGaussianBlur16842" />
    </filter>
    <filter
       style="color-interpolation-filters:sRGB"
       inkscape:label="Blur"
       id="filter33679-3"
       x="-0.0022677166"
       y="-0.070299215"
       width="1.0045354"
       height="1.1405984">
      <feGaussianBlur
         stdDeviation="0.01 0.31"
         result="blur"
         id="feGaussianBlur33677-6" />
    </filter>
    <filter
       style="color-interpolation-filters:sRGB"
       inkscape:label="Blur"
       id="filter33679-6"
       x="-0.0022677166"
       y="-0.070299215"
       width="1.0045354"
       height="1.1405984">
      <feGaussianBlur
         stdDeviation="0.01 0.31"
         result="blur"
         id="feGaussianBlur33677-2" />
    </filter>
    <linearGradient
       inkscape:collect="always"
       xlink:href="#linearGradient2864"
       id="linearGradient17135"
       gradientUnits="userSpaceOnUse"
       gradientTransform="translate(-92.356668,-11.863886)"
       x1="6.4202108"
       y1="0.96924353"
       x2="6.4202108"
       y2="11.540484" />
    <linearGradient
       inkscape:collect="always"
       id="linearGradient2864">
      <stop
         style="stop-color:#000000;stop-opacity:1"
         offset="0"
         id="stop2860" />
      <stop
         style="stop-color:#fefefe;stop-opacity:0"
         offset="1"
         id="stop2862" />
    </linearGradient>
    <filter
       style="color-interpolation-filters:sRGB"
       inkscape:label="Blur"
       id="filter18570"
       x="-0.0032063599"
       y="-0.14666029"
       width="1.0064127"
       height="1.2933206">
      <feGaussianBlur
         stdDeviation="0.01 0.11"
         result="blur"
         id="feGaussianBlur18568" />
    </filter>
    <filter
       style="color-interpolation-filters:sRGB"
       inkscape:label="Blur"
       id="filter18871"
       x="-0.0044186149"
       y="-0.15384328"
       width="1.0088372"
       height="1.3076866">
      <feGaussianBlur
         stdDeviation="0.01 0.11"
         result="blur"
         id="feGaussianBlur18869" />
    </filter>
    <filter
       style="color-interpolation-filters:sRGB"
       inkscape:label="Blur"
       id="filter18831"
       x="-0.0038146806"
       y="-0.15719745"
       width="1.0076294"
       height="1.3143949">
      <feGaussianBlur
         stdDeviation="0.01 0.11"
         result="blur"
         id="feGaussianBlur18829" />
    </filter>
  </defs>
  <g
     inkscape:label="Calque 1"
     inkscape:groupmode="layer"
     id="layer1">
    <g
       id="g41185"
       transform="translate(-79.656685,-0.00738588)">
      <rect
         style="opacity:0.2;mix-blend-mode:overlay;fill:#000000;fill-opacity:1;stroke:none;stroke-width:0.55007;stroke-linecap:square;filter:url(#filter33679-6)"
         id="rect33479"
         width="10.583333"
         height="10.583333"
         x="-31.628342"
         y="-3.2242157"
         ry="2.2002783"
         rx="2.2002783"
         transform="rotate(180,29.835005,4.0552515)" />
      <rect
         style="fill:#00b894;fill-opacity:1;stroke:none;stroke-width:0.55007;stroke-linecap:square"
         id="rect17127"
         width="10.583333"
         height="10.583333"
         x="80.715019"
         y="0.22221899"
         ry="2.2002783"
         rx="2.2002783" />
      <rect
         style="opacity:0.2;mix-blend-mode:overlay;fill:url(#linearGradient17135);fill-opacity:1;stroke:none;stroke-width:0.55007;stroke-linecap:square"
         id="rect17129"
         width="10.583333"
         height="10.583333"
         x="-91.298355"
         y="-10.805552"
         ry="2.2002783"
         rx="2.2002783"
         transform="scale(-1)" />
      <path
         style="color:#000000;opacity:0.3;fill:#000000;stroke-linecap:round;-inkscape-stroke:none;filter:url(#filter18570)"
         d="m 86.105341,3.3601676 c -1.18117,-0.1197657 -2.383022,-0.023612 -3.548828,0.2929688 a 0.39687499,0.39687499 0 0 0 -0.279297,0.4863281 0.39687499,0.39687499 0 0 0 0.486328,0.2792968 c 2.143507,-0.5820808 4.416305,-0.3519155 6.41211,0.6503907 a 0.39687499,0.39687499 0 0 0 0.53125,-0.1777344 0.39687499,0.39687499 0 0 0 -0.175782,-0.53125 c -1.084154,-0.5444695 -2.244611,-0.8802343 -3.425781,-1 z"
         id="path18426" />
      <path
         style="opacity:1;fill:none;fill-opacity:1;stroke:#ffffff;stroke-width:0.79375;stroke-linecap:round;stroke-miterlimit:4;stroke-dasharray:none"
         id="path17500"
         sodipodi:type="arc"
         sodipodi:cx="85.120148"
         sodipodi:cy="13.535613"
         sodipodi:rx="9.720994"
         sodipodi:ry="10.093125"
         sodipodi:start="4.4565759"
         sodipodi:end="5.1629039"
         sodipodi:arc-type="arc"
         sodipodi:open="true"
         d="m 82.660424,3.7709394 a 9.720994,10.093125 0 0 1 6.692528,0.67861" />
      <path
         id="rect17131"
         style="color:#000000;opacity:0.2;mix-blend-mode:soft-light;fill:#ffffff;stroke-width:1;stroke-linecap:square;-inkscape-stroke:none"
         d="m 82.915392,0.22221935 c -0.03809,0 -0.07608,0.00121 -0.113689,0.0031 -0.0376,0.00189 -0.07506,0.00453 -0.112139,0.00827 -0.03707,0.00374 -0.07358,0.00841 -0.110069,0.013953 -0.0365,0.00555 -0.07265,0.011817 -0.108521,0.01912 -0.03587,0.0073 -0.07177,0.015789 -0.106969,0.024805 -0.03521,0.00902 -0.0699,0.018773 -0.104388,0.029456 -0.03449,0.010683 -0.06859,0.022319 -0.10232,0.034623 -0.03373,0.012304 -0.06732,0.025393 -0.100251,0.039274 -0.03293,0.013881 -0.06507,0.028513 -0.09715,0.043925 -0.03208,0.015411 -0.0639,0.031162 -0.09508,0.048059 -0.03118,0.016897 -0.06174,0.03489 -0.09198,0.053227 -0.03024,0.018337 -0.06015,0.037113 -0.0894,0.056844 -0.02926,0.019732 -0.05808,0.040414 -0.0863,0.061495 -0.02822,0.021081 -0.05554,0.042728 -0.08268,0.065112 -0.02715,0.022385 -0.05407,0.045603 -0.0801,0.069246 -0.02604,0.023643 -0.05162,0.047491 -0.07648,0.072347 -0.02484,0.024856 -0.0487,0.050457 -0.07235,0.076481 -0.02365,0.026024 -0.04686,0.052435 -0.06925,0.079582 -0.02238,0.027146 -0.04403,0.054976 -0.06511,0.083199 -0.02109,0.028223 -0.04176,0.057045 -0.0615,0.0863 -0.01974,0.029255 -0.03851,0.059159 -0.05684,0.0894 -0.01834,0.030241 -0.03581,0.060803 -0.05271,0.091984 -0.01691,0.031182 -0.03317,0.063008 -0.04858,0.095085 -0.0154,0.032077 -0.03004,0.064225 -0.04392,0.097152 -0.01389,0.032927 -0.02697,0.066521 -0.03927,0.1002522 -0.0123,0.033731 -0.02394,0.067829 -0.03462,0.1023194 -0.01069,0.03449 -0.02043,0.069182 -0.02946,0.1043864 -0.009,0.035204 -0.01749,0.071098 -0.02479,0.1069702 -0.0073,0.035873 -0.01357,0.072025 -0.01913,0.1085205 -0.0056,0.036496 -0.01021,0.072998 -0.01394,0.1100709 -0.0037,0.037073 -0.0064,0.074532 -0.0083,0.1121378 -0.0019,0.037606 -0.0031,0.075596 -0.0031,0.1136882 v 6.1825663 c 0,0.038092 0.0013,0.076083 0.0031,0.113688 0.0019,0.037606 0.0045,0.075065 0.0083,0.1121378 0.0038,0.037073 0.0084,0.073575 0.01394,0.1100709 0.0056,0.036496 0.01183,0.072648 0.01913,0.1085204 0.0073,0.035873 0.01579,0.071766 0.02479,0.10697 0.009,0.035204 0.01876,0.069896 0.02946,0.1043863 0.01069,0.034491 0.0223,0.068588 0.03462,0.1023195 0.0123,0.033732 0.0254,0.067325 0.03927,0.1002522 0.01389,0.032927 0.02851,0.065075 0.04392,0.097152 0.0154,0.032077 0.03168,0.063903 0.04858,0.095085 0.01691,0.031181 0.03437,0.061743 0.05271,0.091984 0.01833,0.030241 0.03711,0.060146 0.05684,0.0894 0.01974,0.029254 0.04041,0.058076 0.0615,0.086299 0.02109,0.028223 0.04273,0.056053 0.06511,0.083199 0.02238,0.02715 0.0456,0.05356 0.06925,0.07958 0.02365,0.02602 0.04749,0.05162 0.07235,0.07648 0.02487,0.02485 0.05046,0.0487 0.07648,0.07235 0.02603,0.02364 0.05295,0.04686 0.0801,0.06925 0.02715,0.02238 0.05446,0.04403 0.08268,0.06511 0.02822,0.02108 0.05705,0.04176 0.0863,0.06149 0.02925,0.01973 0.05916,0.03851 0.0894,0.05684 0.03024,0.01834 0.0608,0.03633 0.09198,0.05323 0.03118,0.0169 0.06301,0.03265 0.09508,0.04806 0.03208,0.01541 0.06422,0.03004 0.09715,0.04392 0.03293,0.01388 0.06652,0.02697 0.100251,0.03927 0.03373,0.01231 0.06783,0.02394 0.10232,0.03462 0.03449,0.01068 0.06918,0.02044 0.104388,0.02946 0.0352,0.009 0.0711,0.0175 0.106969,0.0248 0.03587,0.0073 0.07203,0.01358 0.108521,0.01912 0.03649,0.0055 0.073,0.01021 0.110069,0.01395 0.03707,0.0037 0.07453,0.0064 0.112139,0.0083 0.0376,0.0019 0.0756,0.0031 0.113689,0.0031 h 6.182569 c 0.03809,0 0.07608,-0.0012 0.113686,-0.0031 0.03761,-0.0019 0.07507,-0.0045 0.112138,-0.0083 0.03707,-0.0037 0.07358,-0.0084 0.110072,-0.01395 0.03649,-0.0055 0.07265,-0.01182 0.108519,-0.01912 0.03588,-0.0073 0.07177,-0.01579 0.106971,-0.0248 0.03521,-0.009 0.0699,-0.01877 0.104386,-0.02946 0.03449,-0.01068 0.06859,-0.02232 0.10232,-0.03462 0.03373,-0.01231 0.06733,-0.02539 0.100253,-0.03927 0.03293,-0.01388 0.06507,-0.02851 0.09715,-0.04392 0.03208,-0.01541 0.0639,-0.03116 0.09508,-0.04806 0.03118,-0.0169 0.06174,-0.03489 0.09198,-0.05323 0.03024,-0.01834 0.06015,-0.03711 0.0894,-0.05684 0.02926,-0.01973 0.05808,-0.04041 0.0863,-0.06149 0.02822,-0.02108 0.05605,-0.04273 0.0832,-0.06511 0.02715,-0.02238 0.05356,-0.0456 0.07958,-0.06925 0.02603,-0.02364 0.05163,-0.04749 0.07648,-0.07235 0.02484,-0.02486 0.04922,-0.05046 0.07286,-0.07648 0.02365,-0.02602 0.04635,-0.05243 0.06873,-0.07958 0.02238,-0.027146 0.04403,-0.054976 0.06511,-0.083199 0.02109,-0.028223 0.04176,-0.057045 0.0615,-0.086299 0.01974,-0.029255 0.03851,-0.059159 0.05684,-0.0894 0.01833,-0.030241 0.03633,-0.060803 0.05323,-0.091984 0.01691,-0.031182 0.03265,-0.063008 0.04806,-0.095085 0.01543,-0.032077 0.03056,-0.064225 0.04444,-0.097152 0.01389,-0.032927 0.02697,-0.066521 0.03928,-0.1002522 0.0123,-0.033731 0.02341,-0.067829 0.03411,-0.1023195 0.01069,-0.034491 0.02096,-0.069182 0.02997,-0.1043863 0.009,-0.035204 0.01699,-0.071098 0.02429,-0.10697 0.0073,-0.035873 0.01357,-0.072025 0.01913,-0.1085204 0.0056,-0.036496 0.01021,-0.072997 0.01394,-0.1100709 0.0038,-0.037073 0.0069,-0.074532 0.0088,-0.1121378 0.0019,-0.037605 0.0026,-0.075596 0.0026,-0.113688 V 2.4226018 c 0,-0.038092 -7.94e-4,-0.076083 -0.0026,-0.1136881 -0.0019,-0.037606 -0.0051,-0.075065 -0.0088,-0.1121379 -0.0037,-0.037073 -0.0084,-0.073575 -0.01394,-0.1100708 -0.0056,-0.036496 -0.01183,-0.072648 -0.01913,-0.1085205 -0.0073,-0.035873 -0.01527,-0.071766 -0.02429,-0.1069703 -0.009,-0.035204 -0.01929,-0.069896 -0.02997,-0.1043863 -0.01069,-0.034491 -0.0218,-0.068588 -0.03411,-0.1023194 -0.0123,-0.033731 -0.0254,-0.067325 -0.03928,-0.1002522 -0.01389,-0.032927 -0.02903,-0.065075 -0.04444,-0.097152 -0.0154,-0.032077 -0.03116,-0.063903 -0.04806,-0.095085 -0.01691,-0.031182 -0.03489,-0.061743 -0.05323,-0.091984 -0.01834,-0.030241 -0.03711,-0.060146 -0.05684,-0.0894 -0.01974,-0.029255 -0.04042,-0.058077 -0.0615,-0.0863 -0.02109,-0.028223 -0.04273,-0.056053 -0.06511,-0.083199 -0.02238,-0.0271459 -0.04509,-0.0535579 -0.06873,-0.079582 -0.02365,-0.026024 -0.04801,-0.051625 -0.07286,-0.076481 -0.02487,-0.024856 -0.05046,-0.048704 -0.07648,-0.072347 -0.02604,-0.023643 -0.05244,-0.046862 -0.07958,-0.069246 -0.02715,-0.022385 -0.05497,-0.044031 -0.0832,-0.065112 -0.02822,-0.021081 -0.05704,-0.041763 -0.0863,-0.061495 -0.02925,-0.019732 -0.05916,-0.038507 -0.0894,-0.056844 -0.03024,-0.018337 -0.0608,-0.03633 -0.09198,-0.053227 -0.03118,-0.016897 -0.06301,-0.032648 -0.09508,-0.048059 -0.03208,-0.015412 -0.06423,-0.030044 -0.09715,-0.043925 -0.03293,-0.013881 -0.06652,-0.02697 -0.100253,-0.039274 -0.03373,-0.012304 -0.06783,-0.02394 -0.10232,-0.034623 -0.03449,-0.010683 -0.06918,-0.02044 -0.104386,-0.029456 -0.0352,-0.00902 -0.0711,-0.017501 -0.106971,-0.024805 -0.03587,-0.0073 -0.07202,-0.013575 -0.108519,-0.01912 -0.0365,-0.00555 -0.073,-0.01021 -0.110072,-0.013953 -0.03707,-0.00374 -0.07453,-0.00637 -0.112138,-0.00827 -0.0376,-0.00189 -0.07559,-0.0031 -0.113686,-0.0031 z m 5.29e-4,0.2640666 h 6.181534 c 1.076952,0 1.9358,0.85884855 1.9358,1.93579915 v 6.1836018 c 0,1.0769502 -0.858848,1.9352821 -1.9358,1.9352821 h -6.181534 c -1.07695,0 -1.935282,-0.8583319 -1.935282,-1.9352821 V 2.4220851 c 0,-1.0769506 0.858332,-1.93579915 1.935282,-1.93579915 z" />
      <path
         style="color:#000000;opacity:0.3;fill:#000000;stroke-linecap:round;-inkscape-stroke:none;filter:url(#filter18871)"
         d="M 85.728388,6.5789176 C 84.880689,6.4651319 84.016372,6.552573 83.183466,6.8523551 a 0.39687499,0.39687499 0 0 0 -0.240234,0.5078125 0.39687499,0.39687499 0 0 0 0.507812,0.2402344 c 1.43474,-0.5163958 2.933074,-0.3186095 4.283203,0.5800781 A 0.39687499,0.39687499 0 0 0 88.285029,8.069152 0.39687499,0.39687499 0 0 0 88.1737,7.5183707 C 87.406228,7.0075174 86.576087,6.6927033 85.728388,6.5789176 Z"
         id="path18428" />
      <path
         style="opacity:1;fill:none;fill-opacity:1;stroke:#ffffff;stroke-width:0.79375;stroke-linecap:round;stroke-miterlimit:4;stroke-dasharray:none"
         id="path17994"
         sodipodi:type="arc"
         sodipodi:cx="85.021736"
         sodipodi:cy="15.928872"
         sodipodi:rx="6.735117"
         sodipodi:ry="9.2685356"
         sodipodi:start="4.4565759"
         sodipodi:end="5.1629039"
         sodipodi:arc-type="arc"
         sodipodi:open="true"
         d="m 83.317535,6.9619543 a 6.735117,9.2685356 0 0 1 4.636867,0.6231688" />
      <path
         style="color:#000000;opacity:0.3;fill:#000000;stroke-linecap:round;-inkscape-stroke:none;filter:url(#filter18831)"
         d="M 85.915888,5.1199332 C 84.933643,5.0132679 83.933491,5.0979203 82.964716,5.3796988 a 0.39687499,0.39687499 0 0 0 -0.269531,0.4921875 0.39687499,0.39687499 0 0 0 0.490234,0.2695313 c 1.73909,-0.5058327 3.579031,-0.3061583 5.201172,0.5664062 A 0.39687499,0.39687499 0 0 0 88.9237,6.5457145 0.39687499,0.39687499 0 0 0 88.761591,6.0086051 C 87.862099,5.52476 86.898133,5.2265985 85.915888,5.1199332 Z"
         id="path18430" />
      <path
         style="opacity:1;fill:none;fill-opacity:1;stroke:#ffffff;stroke-width:0.79375;stroke-linecap:round;stroke-miterlimit:4;stroke-dasharray:none"
         id="path18114"
         sodipodi:type="arc"
         sodipodi:cx="85.096268"
         sodipodi:cy="14.088654"
         sodipodi:rx="7.9865122"
         sodipodi:ry="8.881752"
         sodipodi:start="4.4565759"
         sodipodi:end="5.1629039"
         sodipodi:arc-type="arc"
         sodipodi:open="true"
         d="M 83.075424,5.4959326 A 7.9865122,8.881752 0 0 1 88.573828,6.093096" />
    </g>
  </g>
</svg>
