<?xml version="1.0" encoding="UTF-8" standalone="no"?>
<!-- Created with Inkscape (http://www.inkscape.org/) -->

<svg
   width="48"
   height="48"
   viewBox="0 0 12.7 12.7"
   version="1.1"
   id="svg39233"
   sodipodi:docname="vlc.svg"
   inkscape:export-filename="/home/bokehlicia/.local/share/icons/Testeo/48x48/apps/google-chrome.png"
   inkscape:export-xdpi="96"
   inkscape:export-ydpi="96"
   inkscape:version="1.1 (c68e22c387, 2021-05-23)"
   xmlns:inkscape="http://www.inkscape.org/namespaces/inkscape"
   xmlns:sodipodi="http://sodipodi.sourceforge.net/DTD/sodipodi-0.dtd"
   xmlns:xlink="http://www.w3.org/1999/xlink"
   xmlns="http://www.w3.org/2000/svg"
   xmlns:svg="http://www.w3.org/2000/svg">
  <sodipodi:namedview
     id="namedview39235"
     pagecolor="#505050"
     bordercolor="#eeeeee"
     borderopacity="1"
     inkscape:pageshadow="0"
     inkscape:pageopacity="0"
     inkscape:pagecheckerboard="0"
     inkscape:document-units="mm"
     showgrid="false"
     units="px"
     inkscape:zoom="5.3664983"
     inkscape:cx="-15.745836"
     inkscape:cy="49.846284"
     inkscape:window-width="1920"
     inkscape:window-height="1051"
     inkscape:window-x="0"
     inkscape:window-y="29"
     inkscape:window-maximized="1"
     inkscape:current-layer="layer1" />
  <defs
     id="defs39230">
    <filter
       style="color-interpolation-filters:sRGB"
       inkscape:label="Blur"
       id="filter33679"
       x="-0.0022677166"
       y="-0.070299215"
       width="1.0045354"
       height="1.1405984">
      <feGaussianBlur
         stdDeviation="0.01 0.31"
         result="blur"
         id="feGaussianBlur33677" />
    </filter>
    <filter
       style="color-interpolation-filters:sRGB"
       inkscape:label="Blur"
       id="filter11717"
       x="-0.0047992913"
       y="-0.075274248"
       width="1.0095986"
       height="1.1505485">
      <feGaussianBlur
         stdDeviation="0.01 0.21"
         result="blur"
         id="feGaussianBlur11715" />
    </filter>
    <filter
       style="color-interpolation-filters:sRGB"
       inkscape:label="Blur"
       id="filter11615"
       x="-0.0031274877"
       y="-0.17903248"
       width="1.006255"
       height="1.358065">
      <feGaussianBlur
         stdDeviation="0.01 0.21"
         result="blur"
         id="feGaussianBlur11613" />
    </filter>
    <filter
       style="color-interpolation-filters:sRGB"
       inkscape:label="Blur"
       id="filter11657"
       x="-0.0053028704"
       y="-0.071843978"
       width="1.0106057"
       height="1.143688">
      <feGaussianBlur
         stdDeviation="0.01 0.21"
         result="blur"
         id="feGaussianBlur11655" />
    </filter>
    <filter
       style="color-interpolation-filters:sRGB"
       inkscape:label="Blur"
       id="filter11777"
       x="-0.022677163"
       y="-0.47622042"
       width="1.0453543"
       height="1.9524408">
      <feGaussianBlur
         stdDeviation="0.01 0.21"
         result="blur"
         id="feGaussianBlur11775" />
    </filter>
    <filter
       style="color-interpolation-filters:sRGB"
       inkscape:label="Blur"
       id="filter33679-5"
       x="-0.0022677166"
       y="-0.070299215"
       width="1.0045354"
       height="1.1405984">
      <feGaussianBlur
         stdDeviation="0.01 0.31"
         result="blur"
         id="feGaussianBlur33677-4" />
    </filter>
    <linearGradient
       inkscape:collect="always"
       xlink:href="#linearGradient2864"
       id="linearGradient52960"
       gradientUnits="userSpaceOnUse"
       gradientTransform="translate(-73.935749,-56.744833)"
       x1="6.4202108"
       y1="0.96924353"
       x2="6.4202108"
       y2="11.540484" />
    <linearGradient
       inkscape:collect="always"
       id="linearGradient2864">
      <stop
         style="stop-color:#000000;stop-opacity:1"
         offset="0"
         id="stop2860" />
      <stop
         style="stop-color:#fefefe;stop-opacity:0"
         offset="1"
         id="stop2862" />
    </linearGradient>
    <filter
       style="color-interpolation-filters:sRGB"
       inkscape:label="Blur"
       id="filter14939"
       x="-0.0010909993"
       y="-0.034196662"
       width="1.002182"
       height="1.0683933">
      <feGaussianBlur
         stdDeviation="0.01 0.21"
         result="blur"
         id="feGaussianBlur14937" />
    </filter>
    <filter
       style="color-interpolation-filters:sRGB"
       inkscape:label="Blur"
       id="filter14440"
       x="-0.0035473466"
       y="-0.080387666"
       width="1.0070947"
       height="1.1607753">
      <feGaussianBlur
         stdDeviation="0.01 0.21"
         result="blur"
         id="feGaussianBlur14438" />
    </filter>
    <filter
       style="color-interpolation-filters:sRGB"
       inkscape:label="Blur"
       id="filter14776"
       x="-0.0015927413"
       y="-0.045728884"
       width="1.0031855"
       height="1.0914578">
      <feGaussianBlur
         stdDeviation="0.01 0.21"
         result="blur"
         id="feGaussianBlur14774" />
    </filter>
    <linearGradient
       inkscape:collect="always"
       xlink:href="#linearGradient2084"
       id="linearGradient50888"
       gradientUnits="userSpaceOnUse"
       gradientTransform="translate(61.235745,44.044819)"
       x1="6.4202108"
       y1="0.96924353"
       x2="6.4202108"
       y2="11.540484" />
    <linearGradient
       inkscape:collect="always"
       id="linearGradient2084">
      <stop
         style="stop-color:#ffffff;stop-opacity:1"
         offset="0"
         id="stop2080" />
      <stop
         style="stop-color:#000000;stop-opacity:0"
         offset="1"
         id="stop2082" />
    </linearGradient>
  </defs>
  <g
     inkscape:label="Calque 1"
     inkscape:groupmode="layer"
     id="layer1">
    <g
       id="path1657" />
    <g
       id="path1659" />
    <g
       id="g16834"
       transform="translate(-61.235745,-44.888321)">
      <rect
         style="opacity:0.2;mix-blend-mode:overlay;fill:#000000;fill-opacity:1;stroke:none;stroke-width:0.55007;stroke-linecap:square;filter:url(#filter33679-5)"
         id="rect52938"
         width="10.583333"
         height="10.583333"
         x="-31.628342"
         y="-3.2242157"
         ry="2.2002783"
         rx="2.2002783"
         transform="rotate(180,20.624535,26.495719)" />
      <rect
         style="fill:#636e72;fill-opacity:1;stroke:none;stroke-width:0.55007;stroke-linecap:square"
         id="rect52940"
         width="10.583333"
         height="10.583333"
         x="62.294079"
         y="45.103157"
         ry="2.2002783"
         rx="2.2002783" />
      <path
         id="path52942"
         style="color:#000000;opacity:0.2;mix-blend-mode:soft-light;fill:#ffffff;stroke-width:1;stroke-linecap:square;-inkscape-stroke:none"
         d="m 64.493956,45.103139 c -0.0381,0 -0.0761,0.0012 -0.11369,0.0031 -0.0376,0.0019 -0.0751,0.0045 -0.11213,0.0083 -0.0371,0.0037 -0.0736,0.0084 -0.11007,0.01395 -0.0365,0.0056 -0.0726,0.01182 -0.10852,0.01912 -0.0359,0.0073 -0.0718,0.01579 -0.10697,0.02481 -0.0352,0.009 -0.0699,0.01877 -0.10439,0.02946 -0.0345,0.01068 -0.0686,0.02232 -0.10232,0.03462 -0.0337,0.0123 -0.0673,0.02539 -0.10025,0.03927 -0.0329,0.01388 -0.0651,0.02851 -0.0971,0.04393 -0.0321,0.01541 -0.0639,0.03116 -0.0951,0.04806 -0.0312,0.0169 -0.0617,0.03489 -0.092,0.05323 -0.0302,0.01834 -0.0602,0.03711 -0.0894,0.05684 -0.0293,0.01973 -0.0581,0.04041 -0.0863,0.06149 -0.0282,0.02108 -0.0555,0.04273 -0.0827,0.06511 -0.0272,0.02238 -0.0541,0.0456 -0.0801,0.06925 -0.026,0.02364 -0.0516,0.04749 -0.0765,0.07235 -0.0248,0.02486 -0.0487,0.05046 -0.0724,0.07648 -0.0237,0.02602 -0.0469,0.05243 -0.0692,0.07958 -0.0224,0.02715 -0.044,0.05498 -0.0651,0.0832 -0.0211,0.02822 -0.0418,0.05705 -0.0615,0.0863 -0.0197,0.02925 -0.0385,0.05916 -0.0568,0.0894 -0.0183,0.03024 -0.0358,0.0608 -0.0527,0.09198 -0.0169,0.03118 -0.0332,0.06301 -0.0486,0.09508 -0.0154,0.03208 -0.03,0.06423 -0.0439,0.09715 -0.0139,0.03293 -0.027,0.06652 -0.0393,0.100252 -0.0123,0.03373 -0.0239,0.06783 -0.0346,0.10232 -0.0107,0.03449 -0.0204,0.06918 -0.0295,0.104386 -0.009,0.0352 -0.0175,0.0711 -0.0248,0.10697 -0.007,0.03587 -0.0136,0.07203 -0.0191,0.108521 -0.006,0.0365 -0.0102,0.073 -0.0139,0.110071 -0.004,0.03707 -0.006,0.07453 -0.008,0.112138 -0.002,0.03761 -0.003,0.0756 -0.003,0.113688 v 6.182567 c 0,0.03809 10e-4,0.07608 0.003,0.113688 0.002,0.03761 0.004,0.07507 0.008,0.112137 0.004,0.03707 0.008,0.07357 0.0139,0.110071 0.006,0.0365 0.0118,0.07265 0.0191,0.108521 0.007,0.03587 0.0158,0.07177 0.0248,0.10697 0.009,0.0352 0.0188,0.0699 0.0295,0.104386 0.0107,0.03449 0.0223,0.06859 0.0346,0.10232 0.0123,0.03373 0.0254,0.06733 0.0393,0.100252 0.0139,0.03293 0.0285,0.06508 0.0439,0.09715 0.0154,0.03208 0.0317,0.0639 0.0486,0.09509 0.0169,0.03118 0.0344,0.06174 0.0527,0.09198 0.0183,0.03024 0.0371,0.06015 0.0568,0.0894 0.0197,0.02925 0.0404,0.05808 0.0615,0.0863 0.0211,0.02822 0.0427,0.05605 0.0651,0.0832 0.0224,0.02715 0.0456,0.05356 0.0692,0.07958 0.0237,0.02602 0.0475,0.05162 0.0724,0.07648 0.0249,0.02485 0.0505,0.0487 0.0765,0.07235 0.026,0.02364 0.0529,0.04686 0.0801,0.06925 0.0271,0.02238 0.0545,0.04403 0.0827,0.06511 0.0282,0.02108 0.0571,0.04176 0.0863,0.06149 0.0293,0.01973 0.0592,0.03851 0.0894,0.05684 0.0302,0.01834 0.0608,0.03633 0.092,0.05323 0.0312,0.0169 0.063,0.03265 0.0951,0.04806 0.0321,0.01541 0.0642,0.03004 0.0971,0.04392 0.0329,0.01388 0.0665,0.02697 0.10025,0.03927 0.0337,0.01231 0.0678,0.02394 0.10232,0.03462 0.0345,0.01068 0.0692,0.02044 0.10439,0.02946 0.0352,0.009 0.0711,0.0175 0.10697,0.0248 0.0359,0.0073 0.072,0.01358 0.10852,0.01912 0.0365,0.0055 0.073,0.01021 0.11007,0.01395 0.0371,0.0037 0.0745,0.0064 0.11213,0.0083 0.0376,0.0019 0.0756,0.0031 0.11369,0.0031 h 6.18257 c 0.0381,0 0.0761,-0.0012 0.11369,-0.0031 0.0376,-0.0019 0.0751,-0.0045 0.11214,-0.0083 0.0371,-0.0037 0.0736,-0.0084 0.11007,-0.01395 0.0365,-0.0055 0.0727,-0.01182 0.10852,-0.01912 0.0359,-0.0073 0.0718,-0.01579 0.10697,-0.0248 0.0352,-0.009 0.0699,-0.01877 0.10439,-0.02946 0.0345,-0.01068 0.0686,-0.02232 0.10232,-0.03462 0.0337,-0.01231 0.0673,-0.02539 0.10025,-0.03927 0.0329,-0.01388 0.0651,-0.02851 0.0971,-0.04392 0.0321,-0.01541 0.0639,-0.03116 0.0951,-0.04806 0.0312,-0.0169 0.0617,-0.03489 0.092,-0.05323 0.0302,-0.01834 0.0601,-0.03711 0.0894,-0.05684 0.0293,-0.01973 0.0581,-0.04041 0.0863,-0.06149 0.0282,-0.02108 0.056,-0.04273 0.0832,-0.06511 0.0272,-0.02238 0.0536,-0.0456 0.0796,-0.06925 0.026,-0.02364 0.0516,-0.04749 0.0765,-0.07235 0.0248,-0.02486 0.0492,-0.05046 0.0729,-0.07648 0.0237,-0.02602 0.0464,-0.05243 0.0687,-0.07958 0.0224,-0.02715 0.044,-0.05498 0.0651,-0.0832 0.0211,-0.02822 0.0418,-0.05705 0.0615,-0.0863 0.0197,-0.02926 0.0385,-0.05916 0.0568,-0.0894 0.0183,-0.03024 0.0363,-0.0608 0.0532,-0.09198 0.0169,-0.03118 0.0327,-0.06301 0.0481,-0.09509 0.0154,-0.03208 0.0306,-0.06423 0.0444,-0.09715 0.0139,-0.03293 0.027,-0.06652 0.0393,-0.100252 0.0123,-0.03373 0.0234,-0.06783 0.0341,-0.10232 0.0107,-0.03449 0.021,-0.06918 0.03,-0.104386 0.009,-0.0352 0.017,-0.0711 0.0243,-0.10697 0.007,-0.03587 0.0136,-0.07203 0.0191,-0.108521 0.006,-0.0365 0.0102,-0.073 0.0139,-0.110071 0.004,-0.03707 0.007,-0.07453 0.009,-0.112137 0.002,-0.03761 0.003,-0.0756 0.003,-0.113688 v -6.182569 c 0,-0.03809 -7.9e-4,-0.07608 -0.003,-0.113688 -0.002,-0.03761 -0.005,-0.07507 -0.009,-0.112138 -0.004,-0.03707 -0.008,-0.07357 -0.0139,-0.110071 -0.006,-0.0365 -0.0118,-0.07265 -0.0191,-0.108521 -0.007,-0.03587 -0.0153,-0.07177 -0.0243,-0.10697 -0.009,-0.0352 -0.0193,-0.0699 -0.03,-0.104386 -0.0107,-0.03449 -0.0218,-0.06859 -0.0341,-0.10232 -0.0123,-0.03373 -0.0254,-0.06733 -0.0393,-0.100252 -0.0139,-0.03293 -0.029,-0.06508 -0.0444,-0.09715 -0.0154,-0.03208 -0.0312,-0.0639 -0.0481,-0.09509 -0.0169,-0.03118 -0.0349,-0.06174 -0.0532,-0.09198 -0.0183,-0.03024 -0.0371,-0.06015 -0.0568,-0.0894 -0.0197,-0.02926 -0.0404,-0.05808 -0.0615,-0.0863 -0.0211,-0.02822 -0.0427,-0.05605 -0.0651,-0.0832 -0.0224,-0.02715 -0.0451,-0.05356 -0.0687,-0.07958 -0.0237,-0.02602 -0.048,-0.05162 -0.0729,-0.07648 -0.0249,-0.02486 -0.0505,-0.0487 -0.0765,-0.07235 -0.026,-0.02364 -0.0524,-0.04686 -0.0796,-0.06925 -0.0272,-0.02238 -0.055,-0.04403 -0.0832,-0.06511 -0.0282,-0.02108 -0.057,-0.04176 -0.0863,-0.06149 -0.0293,-0.01973 -0.0592,-0.03851 -0.0894,-0.05684 -0.0302,-0.01834 -0.0608,-0.03633 -0.092,-0.05323 -0.0312,-0.0169 -0.063,-0.03265 -0.0951,-0.04806 -0.0321,-0.01541 -0.0642,-0.03004 -0.0971,-0.04392 -0.0329,-0.01388 -0.0665,-0.02697 -0.10025,-0.03927 -0.0337,-0.0123 -0.0678,-0.02394 -0.10232,-0.03462 -0.0345,-0.01068 -0.0692,-0.02044 -0.10439,-0.02946 -0.0352,-0.009 -0.0711,-0.0175 -0.10697,-0.02481 -0.0359,-0.0073 -0.072,-0.01357 -0.10852,-0.01912 -0.0365,-0.0056 -0.073,-0.01021 -0.11007,-0.01395 -0.0371,-0.0037 -0.0745,-0.0064 -0.11214,-0.0083 -0.0376,-0.0019 -0.0756,-0.0031 -0.11369,-0.0031 z m 5.3e-4,0.264067 h 6.18154 c 1.07695,0 1.9358,0.858848 1.9358,1.935799 v 6.183602 c 0,1.07695 -0.85885,1.935283 -1.9358,1.935283 h -6.18154 c -1.07695,0 -1.93528,-0.858333 -1.93528,-1.935283 v -6.183602 c 0,-1.076951 0.85833,-1.935799 1.93528,-1.935799 z" />
      <rect
         style="opacity:0.2;mix-blend-mode:overlay;fill:url(#linearGradient52960);fill-opacity:1;stroke:none;stroke-width:0.55007;stroke-linecap:square"
         id="rect52954"
         width="10.583333"
         height="10.583333"
         x="-72.877411"
         y="-55.686489"
         ry="2.2002783"
         rx="2.2002783"
         transform="scale(-1)" />
      <path
         id="path14917"
         style="opacity:0.2;fill:#000000;fill-opacity:1;stroke:none;stroke-width:2;stroke-linecap:round;stroke-linejoin:round;stroke-miterlimit:4;stroke-dasharray:none;filter:url(#filter14939)"
         d="m 244.44336,198.81836 v 1.64453 c -1.9e-4,0.0467 10e-4,0.0931 0.004,0.13867 0.003,0.0456 0.006,0.0922 0.0117,0.13672 0.006,0.0445 0.0129,0.0875 0.0215,0.13086 0.009,0.0433 0.02,0.0869 0.0312,0.12891 0.0113,0.042 0.0233,0.0823 0.0371,0.12304 0.0138,0.0407 0.0286,0.0818 0.0449,0.1211 0.0163,0.0393 0.0341,0.0774 0.0527,0.11523 0.0187,0.0379 0.0377,0.075 0.0586,0.11133 0.0209,0.0363 0.0433,0.0727 0.0664,0.10742 0.0231,0.0347 0.0472,0.0685 0.0723,0.10156 0.0251,0.0331 0.0511,0.0644 0.0781,0.0957 0.027,0.0313 0.0551,0.0623 0.084,0.0918 0.0288,0.0295 0.0593,0.0583 0.0898,0.0859 0.0305,0.0277 0.0616,0.0544 0.0937,0.0801 0.0321,0.0257 0.0641,0.0505 0.0977,0.0742 0.0336,0.0237 0.0686,0.0467 0.10351,0.0684 0.035,0.0216 0.0712,0.0411 0.10743,0.0605 0.0362,0.0195 0.072,0.0374 0.10937,0.0547 0.0374,0.0172 0.0749,0.0339 0.11328,0.0488 0.0384,0.015 0.0779,0.0284 0.11719,0.041 0.0393,0.0126 0.079,0.025 0.11914,0.0352 0.0401,0.0102 0.0803,0.0177 0.12109,0.0254 0.0408,0.008 0.0817,0.0144 0.12305,0.0195 0.0414,0.005 0.0831,0.009 0.125,0.0117 0.0419,0.002 0.0847,0.004 0.12695,0.004 0.0422,-2.1e-4 0.0845,-0.003 0.12696,-0.006 0.0425,-0.003 0.0863,-0.006 0.1289,-0.0117 0.0426,-0.006 0.0843,-0.0128 0.12696,-0.0215 0.0427,-0.009 0.0844,-0.0196 0.12695,-0.0312 0.0426,-0.0117 0.0865,-0.0243 0.12891,-0.0391 0.0424,-0.0147 0.0849,-0.031 0.12695,-0.0488 0.0421,-0.0178 0.0833,-0.0376 0.125,-0.0586 l 17.99805,-10.00195 c 0.0459,-0.0231 0.0898,-0.0486 0.13281,-0.0742 0.043,-0.0257 0.0849,-0.052 0.125,-0.0801 0.0401,-0.0281 0.078,-0.0576 0.11523,-0.0879 0.0373,-0.0303 0.073,-0.0614 0.10743,-0.0937 0.0344,-0.0324 0.0681,-0.0653 0.0996,-0.0996 0.0315,-0.0343 0.0612,-0.0695 0.0898,-0.10547 0.0287,-0.036 0.0562,-0.0738 0.082,-0.11132 0.0258,-0.0376 0.0493,-0.0763 0.0723,-0.11524 0.0229,-0.039 0.0444,-0.0789 0.0645,-0.11914 0.0201,-0.0402 0.0394,-0.0798 0.0566,-0.12109 0.0172,-0.0413 0.0326,-0.0828 0.0469,-0.125 0.0143,-0.0422 0.0276,-0.0859 0.0391,-0.12891 0.0115,-0.0429 0.0207,-0.0854 0.0293,-0.12891 0.009,-0.0435 0.0158,-0.0869 0.0215,-0.13085 0.006,-0.0439 0.0108,-0.0886 0.0137,-0.13282 0.003,-0.0442 0.004,-0.0885 0.004,-0.13281 0,-0.0443 -0.001,-0.0886 -0.004,-0.13281 -0.003,-0.0442 -0.008,-0.0889 -0.0137,-0.13282 -0.006,-0.0439 -0.0129,-0.0873 -0.0215,-0.13085 -0.009,-0.0435 -0.0178,-0.086 -0.0293,-0.12891 -0.0115,-0.043 -0.0247,-0.0867 -0.0391,-0.12891 -0.0143,-0.0422 -0.0297,-0.0837 -0.0469,-0.125 -0.0172,-0.0413 -0.0366,-0.0828 -0.0566,-0.12304 -0.0201,-0.0402 -0.0415,-0.0782 -0.0645,-0.11719 -0.0229,-0.039 -0.0465,-0.0777 -0.0723,-0.11524 -0.0258,-0.0376 -0.0534,-0.0753 -0.082,-0.11132 -0.0287,-0.036 -0.0583,-0.0712 -0.0898,-0.10547 -0.0315,-0.0343 -0.0652,-0.0673 -0.0996,-0.0996 -0.0344,-0.0324 -0.0702,-0.0635 -0.10743,-0.0937 -0.0372,-0.0303 -0.0751,-0.0598 -0.11523,-0.0879 -0.0401,-0.0281 -0.082,-0.0544 -0.125,-0.0801 -0.043,-0.0257 -0.087,-0.0511 -0.13281,-0.0742 l -1.70118,-0.94531 z"
         transform="matrix(0.26458333,0,0,0.26458333,0,0.26458333)" />
      <path
         id="path14816"
         style="opacity:0.9;fill:#fdcb6e;fill-opacity:1;stroke:none;stroke-width:2;stroke-linecap:round;stroke-linejoin:round;stroke-miterlimit:4;stroke-dasharray:none"
         d="m 244.44336,198.81836 v 1.64453 c -1.9e-4,0.0467 10e-4,0.0931 0.004,0.13867 0.003,0.0456 0.006,0.0922 0.0117,0.13672 0.006,0.0445 0.0129,0.0875 0.0215,0.13086 0.009,0.0433 0.02,0.0869 0.0312,0.12891 0.0113,0.042 0.0233,0.0823 0.0371,0.12304 0.0138,0.0407 0.0286,0.0818 0.0449,0.1211 0.0163,0.0393 0.0341,0.0774 0.0527,0.11523 0.0187,0.0379 0.0377,0.075 0.0586,0.11133 0.0209,0.0363 0.0433,0.0727 0.0664,0.10742 0.0231,0.0347 0.0472,0.0685 0.0723,0.10156 0.0251,0.0331 0.0511,0.0644 0.0781,0.0957 0.027,0.0313 0.0551,0.0623 0.084,0.0918 0.0288,0.0295 0.0593,0.0583 0.0898,0.0859 0.0305,0.0277 0.0616,0.0544 0.0937,0.0801 0.0321,0.0257 0.0641,0.0505 0.0977,0.0742 0.0336,0.0237 0.0686,0.0467 0.10351,0.0684 0.035,0.0216 0.0712,0.0411 0.10743,0.0605 0.0362,0.0195 0.072,0.0374 0.10937,0.0547 0.0374,0.0172 0.0749,0.0339 0.11328,0.0488 0.0384,0.015 0.0779,0.0284 0.11719,0.041 0.0393,0.0126 0.079,0.025 0.11914,0.0352 0.0401,0.0102 0.0803,0.0177 0.12109,0.0254 0.0408,0.008 0.0817,0.0144 0.12305,0.0195 0.0414,0.005 0.0831,0.009 0.125,0.0117 0.0419,0.002 0.0847,0.004 0.12695,0.004 0.0422,-2.1e-4 0.0845,-0.003 0.12696,-0.006 0.0425,-0.003 0.0863,-0.006 0.1289,-0.0117 0.0426,-0.006 0.0843,-0.0128 0.12696,-0.0215 0.0427,-0.009 0.0844,-0.0196 0.12695,-0.0312 0.0426,-0.0117 0.0865,-0.0243 0.12891,-0.0391 0.0424,-0.0147 0.0849,-0.031 0.12695,-0.0488 0.0421,-0.0178 0.0833,-0.0376 0.125,-0.0586 l 17.99805,-10.00195 c 0.0459,-0.0231 0.0898,-0.0486 0.13281,-0.0742 0.043,-0.0257 0.0849,-0.052 0.125,-0.0801 0.0401,-0.0281 0.078,-0.0576 0.11523,-0.0879 0.0373,-0.0303 0.073,-0.0614 0.10743,-0.0937 0.0344,-0.0324 0.0681,-0.0653 0.0996,-0.0996 0.0315,-0.0343 0.0612,-0.0695 0.0898,-0.10547 0.0287,-0.036 0.0562,-0.0738 0.082,-0.11132 0.0258,-0.0376 0.0493,-0.0763 0.0723,-0.11524 0.0229,-0.039 0.0444,-0.0789 0.0645,-0.11914 0.0201,-0.0402 0.0394,-0.0798 0.0566,-0.12109 0.0172,-0.0413 0.0326,-0.0828 0.0469,-0.125 0.0143,-0.0422 0.0276,-0.0859 0.0391,-0.12891 0.0115,-0.0429 0.0207,-0.0854 0.0293,-0.12891 0.009,-0.0435 0.0158,-0.0869 0.0215,-0.13085 0.006,-0.0439 0.0108,-0.0886 0.0137,-0.13282 0.003,-0.0442 0.004,-0.0885 0.004,-0.13281 0,-0.0443 -0.001,-0.0886 -0.004,-0.13281 -0.003,-0.0442 -0.008,-0.0889 -0.0137,-0.13282 -0.006,-0.0439 -0.0129,-0.0873 -0.0215,-0.13085 -0.009,-0.0435 -0.0178,-0.086 -0.0293,-0.12891 -0.0115,-0.043 -0.0247,-0.0867 -0.0391,-0.12891 -0.0143,-0.0422 -0.0297,-0.0837 -0.0469,-0.125 -0.0172,-0.0413 -0.0366,-0.0828 -0.0566,-0.12304 -0.0201,-0.0402 -0.0415,-0.0782 -0.0645,-0.11719 -0.0229,-0.039 -0.0465,-0.0777 -0.0723,-0.11524 -0.0258,-0.0376 -0.0534,-0.0753 -0.082,-0.11132 -0.0287,-0.036 -0.0583,-0.0712 -0.0898,-0.10547 -0.0315,-0.0343 -0.0652,-0.0673 -0.0996,-0.0996 -0.0344,-0.0324 -0.0702,-0.0635 -0.10743,-0.0937 -0.0372,-0.0303 -0.0751,-0.0598 -0.11523,-0.0879 -0.0401,-0.0281 -0.082,-0.0544 -0.125,-0.0801 -0.043,-0.0257 -0.087,-0.0511 -0.13281,-0.0742 l -1.70118,-0.94531 z"
         transform="scale(0.26458333)" />
      <path
         id="path14382"
         style="color:#000000;opacity:0.2;fill:#000000;stroke-width:3.77953;stroke-linecap:round;stroke-linejoin:round;-inkscape-stroke:none;filter:url(#filter14440)"
         d="m 251.20898,180.82812 -3.86523,-2.14843 c -1.33057,-0.67122 -2.90083,0.29681 -2.90039,1.78711 v 4.26562 z"
         transform="matrix(0.26458333,0,0,0.26458333,0,0.26458333)" />
      <path
         id="path14297"
         style="color:#000000;opacity:0.9;fill:#fdcb6e;fill-opacity:1;stroke-width:3.77953;stroke-linecap:round;stroke-linejoin:round;-inkscape-stroke:none"
         d="m 251.20898,180.82812 -3.86523,-2.14843 c -1.33057,-0.67122 -2.90083,0.29681 -2.90039,1.78711 v 4.26562 z"
         transform="scale(0.26458333)" />
      <path
         id="path14732"
         style="opacity:0.2;fill:#000000;fill-opacity:1;stroke:none;stroke-width:2;stroke-linecap:round;stroke-linejoin:round;stroke-miterlimit:4;stroke-dasharray:none;filter:url(#filter14776)"
         d="m 255.33203,183.11914 -10.88867,6.28711 v 4.73437 l 15.06836,-8.69921 z"
         transform="matrix(0.26458333,0,0,0.26458333,0,0.26458333)" />
      <path
         id="path14649"
         style="opacity:0.9;fill:#fdcb6e;fill-opacity:1;stroke:none;stroke-width:2;stroke-linecap:round;stroke-linejoin:round;stroke-miterlimit:4;stroke-dasharray:none"
         d="m 255.33203,183.11914 -10.88867,6.28711 v 4.73437 l 15.06836,-8.69921 z"
         transform="scale(0.26458333)" />
      <rect
         style="opacity:0.2;mix-blend-mode:overlay;fill:url(#linearGradient50888);fill-opacity:1;stroke:none;stroke-width:0.55007;stroke-linecap:square"
         id="rect50880"
         width="10.583333"
         height="10.583333"
         x="62.294079"
         y="45.103157"
         ry="2.2002783"
         rx="2.2002783" />
    </g>
  </g>
</svg>
