<?xml version="1.0" encoding="UTF-8" standalone="no"?>
<svg
   sodipodi:docname="night-light-symbolic.svg"
   inkscape:export-filename="/home/sam/source-symbolic.png"
   inkscape:export-xdpi="270"
   inkscape:export-ydpi="270"
   height="16"
   id="svg7384"
   style="enable-background:new"
   version="1.1"
   inkscape:version="1.1 (c68e22c387, 2021-05-23)"
   width="16"
   xmlns:inkscape="http://www.inkscape.org/namespaces/inkscape"
   xmlns:sodipodi="http://sodipodi.sourceforge.net/DTD/sodipodi-0.dtd"
   xmlns="http://www.w3.org/2000/svg"
   xmlns:svg="http://www.w3.org/2000/svg"
   xmlns:rdf="http://www.w3.org/1999/02/22-rdf-syntax-ns#"
   xmlns:cc="http://creativecommons.org/ns#"
   xmlns:dc="http://purl.org/dc/elements/1.1/">
  <sodipodi:namedview
     inkscape:bbox-nodes="true"
     inkscape:bbox-paths="false"
     bordercolor="#000000"
     borderlayer="false"
     borderopacity="0.50196078"
     inkscape:current-layer="layer1"
     inkscape:cx="8.9361992"
     inkscape:cy="23.162984"
     inkscape:document-rotation="0"
     gridtolerance="10"
     inkscape:guide-bbox="true"
     guidetolerance="10"
     id="namedview88"
     inkscape:measure-end="0,0"
     inkscape:measure-start="0,0"
     inkscape:object-nodes="true"
     inkscape:object-paths="true"
     objecttolerance="10"
     inkscape:pagecheckerboard="1"
     pagecolor="#e2e2e2"
     inkscape:pageopacity="0"
     inkscape:pageshadow="2"
     showborder="true"
     showgrid="false"
     showguides="false"
     inkscape:showpageshadow="false"
     inkscape:snap-bbox="true"
     inkscape:snap-bbox-edge-midpoints="false"
     inkscape:snap-bbox-midpoints="true"
     inkscape:snap-center="false"
     inkscape:snap-global="true"
     inkscape:snap-grids="true"
     inkscape:snap-intersection-paths="false"
     inkscape:snap-midpoints="true"
     inkscape:snap-nodes="true"
     inkscape:snap-object-midpoints="true"
     inkscape:snap-others="true"
     inkscape:snap-page="false"
     inkscape:snap-smooth-nodes="true"
     inkscape:snap-to-guides="true"
     inkscape:window-height="991"
     inkscape:window-maximized="0"
     inkscape:window-width="1508"
     inkscape:window-x="26"
     inkscape:window-y="32"
     inkscape:zoom="11.246392">
    <inkscape:grid
       color="#000000"
       dotted="false"
       empcolor="#0800ff"
       empopacity="0.4627451"
       empspacing="4"
       enabled="true"
       id="grid4866"
       opacity="0.16470588"
       originx="-171.99974"
       originy="-172"
       snapvisiblegridlinesonly="true"
       spacingx="1"
       spacingy="1"
       type="xygrid"
       visible="true" />
    <inkscape:grid
       dotted="true"
       empcolor="#3f3fff"
       empopacity="0"
       empspacing="4"
       id="grid3540"
       originx="-171.99974"
       originy="-172"
       spacingx="0.5"
       spacingy="0.5"
       type="xygrid" />
  </sodipodi:namedview>
  <metadata
     id="metadata90">
    <rdf:RDF>
      <cc:Work
         rdf:about="">
        <dc:format>image/svg+xml</dc:format>
        <dc:type
           rdf:resource="http://purl.org/dc/dcmitype/StillImage" />
        <dc:title>Gnome Symbolic Icons</dc:title>
        <cc:license
           rdf:resource="http://creativecommons.org/licenses/by-sa/4.0/" />
      </cc:Work>
      <cc:License
         rdf:about="http://creativecommons.org/licenses/by-sa/4.0/">
        <cc:permits
           rdf:resource="http://creativecommons.org/ns#Reproduction" />
        <cc:permits
           rdf:resource="http://creativecommons.org/ns#Distribution" />
        <cc:requires
           rdf:resource="http://creativecommons.org/ns#Notice" />
        <cc:requires
           rdf:resource="http://creativecommons.org/ns#Attribution" />
        <cc:permits
           rdf:resource="http://creativecommons.org/ns#DerivativeWorks" />
        <cc:requires
           rdf:resource="http://creativecommons.org/ns#ShareAlike" />
      </cc:License>
    </rdf:RDF>
  </metadata>
  <title
     id="title8473">Gnome Symbolic Icons</title>
  <defs
     id="defs7386" />
  <g
     inkscape:groupmode="layer"
     id="layer10"
     inkscape:label="ui"
     transform="translate(-171.99974,-172)" />
  <g
     inkscape:groupmode="layer"
     id="layer1"
     inkscape:label="status"
     transform="translate(-171.99974,-108)">
    <path
       style="color:#000000;fill:#000000;stroke-linecap:round;stroke-linejoin:round;-inkscape-stroke:none"
       d="m 178.31484,109.00495 a 1.0001,1.0001 0 0 0 -0.8125,0.54492 l 0.35742,-0.5 c -2.88262,0.9969 -4.82377,3.71745 -4.83007,6.76758 a 1.0001,1.0001 0 0 0 0,0.002 c 9e-5,3.95125 3.22453,7.17569 7.17578,7.17578 a 1.0001,1.0001 0 0 0 0.002,0 c 2.98173,-0.009 5.65383,-1.86767 6.69922,-4.66015 a 1.0001,1.0001 0 0 0 -1.17774,-1.32031 c -0.10483,0.0262 -0.21024,0.0483 -0.3164,0.0684 -0.25937,0.0367 -0.52124,0.0563 -0.78321,0.0566 -0.26794,-3e-4 -0.53559,-0.0202 -0.80078,-0.0586 a 1.0001,1.0001 0 0 0 -0.002,0 c -0.26551,-0.0381 -0.52777,-0.0944 -0.78516,-0.16992 -0.25651,-0.0751 -0.50868,-0.16862 -0.75195,-0.2793 l -0.002,-0.002 c -0.24307,-0.1114 -0.47832,-0.24 -0.70313,-0.38477 -0.22574,-0.14495 -0.44172,-0.30681 -0.64453,-0.48242 -0.20281,-0.17572 -0.39263,-0.36555 -0.56836,-0.56836 -0.1756,-0.20281 -0.33552,-0.41683 -0.48047,-0.64257 a 1.0001,1.0001 0 0 0 -0.002,-0.002 c -0.14493,-0.22506 -0.27327,-0.45976 -0.38477,-0.70312 v -0.002 c -0.11079,-0.24346 -0.20417,-0.49327 -0.27929,-0.75 a 1.0001,1.0001 0 0 0 0,-0.002 c -0.0755,-0.25738 -0.13374,-0.51964 -0.17188,-0.78516 -0.0383,-0.26454 -0.0563,-0.53153 -0.0566,-0.79882 v -0.002 c 2.7e-4,-0.26396 0.0194,-0.52775 0.0566,-0.78906 0.0273,-0.1572 0.061,-0.31442 0.10157,-0.46875 l -0.13672,-0.0176 a 1.0001,1.0001 0 0 0 0.16797,-0.23633 1.0001,1.0001 0 0 0 -0.8711,-0.99023 z m -1.29883,2.76758 c 0.01,0.27445 0.0193,0.54839 0.0586,0.82031 0.0517,0.35979 0.12811,0.71568 0.23047,1.06445 0.10193,0.34808 0.22856,0.68947 0.3789,1.01954 a 1.0001,1.0001 0 0 0 0.002,0 c 0.1513,0.33053 0.32662,0.65139 0.52343,0.95703 0.19604,0.30505 0.41303,0.59696 0.65039,0.87109 0.23812,0.27482 0.49667,0.53141 0.77149,0.76953 0.27482,0.23796 0.56519,0.45593 0.87109,0.65235 0.30564,0.19681 0.62454,0.37213 0.95508,0.52343 a 1.0001,1.0001 0 0 0 0.002,0 c 0.33062,0.1506 0.67085,0.27688 1.01953,0.37891 0.34817,0.10218 0.70336,0.18075 1.0625,0.23242 0.1202,0.0174 0.24247,0.0137 0.36329,0.0254 -0.95898,1.08921 -2.18785,1.90261 -3.69922,1.9082 -2.86974,-6e-5 -5.17464,-2.30435 -5.17578,-5.17382 v -0.002 c 0.004,-1.6167 0.76492,-3.08746 1.98632,-4.04687 z"
       id="path863-3" />
  </g>
  <g
     inkscape:groupmode="layer"
     id="layer11"
     inkscape:label="legacy"
     transform="translate(-171.99974,-172)" />
  <g
     inkscape:groupmode="layer"
     id="layer7"
     inkscape:label="places"
     transform="translate(-171.99974,-108)" />
  <g
     inkscape:groupmode="layer"
     id="layer6"
     inkscape:label="mimetypes"
     transform="translate(-171.99974,-108)" />
  <g
     inkscape:groupmode="layer"
     id="layer5"
     inkscape:label="emotes"
     transform="translate(-171.99974,-108)" />
  <g
     inkscape:groupmode="layer"
     id="layer9"
     inkscape:label="emblems"
     transform="translate(-171.99974,-108)" />
  <g
     inkscape:groupmode="layer"
     id="layer2"
     inkscape:label="devices"
     transform="translate(-171.99974,-108)" />
  <g
     inkscape:groupmode="layer"
     id="layer8"
     inkscape:label="categories"
     transform="translate(-171.99974,-108)" />
  <g
     inkscape:groupmode="layer"
     id="layer3"
     inkscape:label="apps"
     transform="translate(-171.99974,-108)" />
  <g
     inkscape:groupmode="layer"
     id="layer4"
     inkscape:label="actions"
     transform="translate(-171.99974,-108)" />
</svg>
