<?xml version="1.0" encoding="UTF-8" standalone="no"?>
<svg
   width="16"
   height="16"
   version="1.1"
   id="svg12"
   sodipodi:docname="audio-volume-high-symbolic.svg"
   inkscape:version="1.1 (c68e22c387, 2021-05-23)"
   xmlns:inkscape="http://www.inkscape.org/namespaces/inkscape"
   xmlns:sodipodi="http://sodipodi.sourceforge.net/DTD/sodipodi-0.dtd"
   xmlns="http://www.w3.org/2000/svg"
   xmlns:svg="http://www.w3.org/2000/svg">
  <defs
     id="defs16" />
  <sodipodi:namedview
     id="namedview14"
     pagecolor="#505050"
     bordercolor="#eeeeee"
     borderopacity="1"
     inkscape:pageshadow="0"
     inkscape:pageopacity="0"
     inkscape:pagecheckerboard="0"
     showgrid="false"
     inkscape:zoom="24.105712"
     inkscape:cx="15.909092"
     inkscape:cy="10.370986"
     inkscape:window-width="1920"
     inkscape:window-height="1048"
     inkscape:window-x="0"
     inkscape:window-y="32"
     inkscape:window-maximized="1"
     inkscape:current-layer="svg12" />
  <path
     id="rect1641"
     style="fill:#000000;stroke:none;stroke-width:2.28631;stroke-linecap:round;stroke-linejoin:round;stroke-miterlimit:4;stroke-dasharray:none"
     d="m 6.30045,1.0000002 -4.20095,4.5 H 1.14252 C 0.50923,5.5000002 0,6.0112002 0,6.6445298 v 2.71289 C 0,9.9907398 0.50923,10.5 1.14252,10.5 H 2.0995 L 6.30045,15 H 7.30039 V 1.0000002 Z" />
  <path
     id="path4926"
     style="color:#000000;fill:#000000;stroke-width:0.999969;stroke-linecap:round;stroke-linejoin:round;-inkscape-stroke:none"
     d="M 9.30114,14.993672 C 13.01583,14.834214 16,11.752325 16,7.9995308 16,4.2467386 13.01583,1.1668034 9.30114,1.0073434 v 2.0039063 c 2.6312,0.154642 4.69896,2.3162855 4.69896,4.9882811 0,2.6720022 -2.06775,4.8356022 -4.69896,4.9902342 z" />
  <path
     id="path4528"
     style="fill:#000000;stroke:none;stroke-width:2.37643;stroke-linecap:round;stroke-linejoin:round;stroke-miterlimit:4;stroke-dasharray:none"
     d="M 9.30114,10.970234 A 2.9998388,3 0 0 0 12.03342,8.0014838 2.9998388,3 0 0 0 9.30114,5.0132028 Z" />
</svg>
