<?xml version="1.0" encoding="UTF-8" standalone="no"?>
<svg
   sodipodi:docname="night-light-symbolic.svg"
   inkscape:export-filename="/home/sam/source-symbolic.png"
   inkscape:export-xdpi="270"
   inkscape:export-ydpi="270"
   height="16"
   id="svg7384"
   style="enable-background:new"
   version="1.1"
   inkscape:version="1.1 (c68e22c387, 2021-05-23)"
   width="16"
   xmlns:inkscape="http://www.inkscape.org/namespaces/inkscape"
   xmlns:sodipodi="http://sodipodi.sourceforge.net/DTD/sodipodi-0.dtd"
   xmlns="http://www.w3.org/2000/svg"
   xmlns:svg="http://www.w3.org/2000/svg"
   xmlns:rdf="http://www.w3.org/1999/02/22-rdf-syntax-ns#"
   xmlns:cc="http://creativecommons.org/ns#"
   xmlns:dc="http://purl.org/dc/elements/1.1/">
  <sodipodi:namedview
     inkscape:bbox-nodes="true"
     inkscape:bbox-paths="false"
     bordercolor="#000000"
     borderlayer="false"
     borderopacity="0.50196078"
     inkscape:current-layer="layer1"
     inkscape:cx="-26.074563"
     inkscape:cy="44.724504"
     inkscape:document-rotation="0"
     gridtolerance="10"
     inkscape:guide-bbox="true"
     guidetolerance="10"
     id="namedview88"
     inkscape:measure-end="0,0"
     inkscape:measure-start="0,0"
     inkscape:object-nodes="true"
     inkscape:object-paths="true"
     objecttolerance="10"
     inkscape:pagecheckerboard="1"
     pagecolor="#e2e2e2"
     inkscape:pageopacity="0"
     inkscape:pageshadow="2"
     showborder="true"
     showgrid="false"
     showguides="false"
     inkscape:showpageshadow="false"
     inkscape:snap-bbox="true"
     inkscape:snap-bbox-edge-midpoints="false"
     inkscape:snap-bbox-midpoints="true"
     inkscape:snap-center="false"
     inkscape:snap-global="true"
     inkscape:snap-grids="true"
     inkscape:snap-intersection-paths="false"
     inkscape:snap-midpoints="true"
     inkscape:snap-nodes="true"
     inkscape:snap-object-midpoints="true"
     inkscape:snap-others="true"
     inkscape:snap-page="false"
     inkscape:snap-smooth-nodes="true"
     inkscape:snap-to-guides="true"
     inkscape:window-height="991"
     inkscape:window-maximized="0"
     inkscape:window-width="1508"
     inkscape:window-x="26"
     inkscape:window-y="23"
     inkscape:zoom="5.6568543">
    <inkscape:grid
       color="#000000"
       dotted="false"
       empcolor="#0800ff"
       empopacity="0.4627451"
       empspacing="4"
       enabled="true"
       id="grid4866"
       opacity="0.16470588"
       originx="-171.99974"
       originy="-172"
       snapvisiblegridlinesonly="true"
       spacingx="1"
       spacingy="1"
       type="xygrid"
       visible="true" />
    <inkscape:grid
       dotted="true"
       empcolor="#3f3fff"
       empopacity="0"
       empspacing="4"
       id="grid3540"
       originx="-171.99974"
       originy="-172"
       spacingx="0.5"
       spacingy="0.5"
       type="xygrid" />
  </sodipodi:namedview>
  <metadata
     id="metadata90">
    <rdf:RDF>
      <cc:Work
         rdf:about="">
        <dc:format>image/svg+xml</dc:format>
        <dc:type
           rdf:resource="http://purl.org/dc/dcmitype/StillImage" />
        <dc:title>Gnome Symbolic Icons</dc:title>
        <cc:license
           rdf:resource="http://creativecommons.org/licenses/by-sa/4.0/" />
      </cc:Work>
      <cc:License
         rdf:about="http://creativecommons.org/licenses/by-sa/4.0/">
        <cc:permits
           rdf:resource="http://creativecommons.org/ns#Reproduction" />
        <cc:permits
           rdf:resource="http://creativecommons.org/ns#Distribution" />
        <cc:requires
           rdf:resource="http://creativecommons.org/ns#Notice" />
        <cc:requires
           rdf:resource="http://creativecommons.org/ns#Attribution" />
        <cc:permits
           rdf:resource="http://creativecommons.org/ns#DerivativeWorks" />
        <cc:requires
           rdf:resource="http://creativecommons.org/ns#ShareAlike" />
      </cc:License>
    </rdf:RDF>
  </metadata>
  <title
     id="title8473">Gnome Symbolic Icons</title>
  <defs
     id="defs7386" />
  <g
     inkscape:groupmode="layer"
     id="layer10"
     inkscape:label="ui"
     transform="translate(-171.99974,-172)" />
  <g
     inkscape:groupmode="layer"
     id="layer1"
     inkscape:label="status"
     transform="translate(-171.99974,-108)">
    <g
       id="g1116"
       transform="translate(34.672703,0.00629108)"
       style="fill:#000000">
      <path
         style="color:#000000;fill:#000000;stroke-linecap:square;-inkscape-stroke:none"
         d="m 166.65625,104.65039 c -1.95237,0 -3.65368,1.39522 -5.05078,2.65039 -1.3971,1.25518 -2.42578,2.50391 -2.42578,2.50391 l -0.52344,0.63281 0.52344,0.63281 c 0,0 1.02868,1.24873 2.42578,2.50391 1.3971,1.25517 3.09841,2.65039 5.05078,2.65039 1.95237,0 3.65369,-1.39522 5.05078,-2.65039 1.3971,-1.25518 2.42578,-2.50391 2.42578,-2.50391 l 0.52344,-0.63281 -0.52344,-0.63281 c 0,0 -1.02868,-1.24873 -2.42578,-2.50391 -1.39709,-1.25517 -3.09841,-2.65039 -5.05078,-2.65039 z m 0,1.98828 c 0.79655,0 2.44988,0.9989 3.7207,2.14063 0.91998,0.82652 1.26392,1.26275 1.60938,1.6582 -0.34546,0.39545 -0.6894,0.83168 -1.60938,1.6582 -1.27082,1.14173 -2.92415,2.14063 -3.7207,2.14063 -0.79654,0 -2.45183,-0.9989 -3.72266,-2.14063 -0.91983,-0.82639 -1.26188,-1.26267 -1.60742,-1.6582 0.34554,-0.39553 0.68759,-0.83181 1.60742,-1.6582 1.27083,-1.14173 2.92612,-2.14063 3.72266,-2.14063 z"
         id="path885" />
      <path
         style="color:#000000;fill:#000000;-inkscape-stroke:none"
         d="m 165.65625,106.4375 v 6 h 2 v -6 z"
         id="path1940"
         sodipodi:nodetypes="ccccc" />
    </g>
    <g
       id="g968"
       transform="translate(8.486135,3.9123)">
      <path
         id="path1562"
         style="color:#000000;fill:#000000;-inkscape-stroke:none"
         d="m 168.9306,108.16707 c -1.14883,0 -2.18675,0.50276 -2.90625,1.29883 0.0248,-0.0129 0.049,-0.0269 0.0742,-0.0391 0.043,-0.0208 0.0867,-0.0398 0.13086,-0.0586 0.0441,-0.0188 0.0876,-0.0361 0.13282,-0.0527 0.0452,-0.0167 0.0925,-0.0324 0.13867,-0.0469 0.0461,-0.0145 0.0916,-0.0288 0.13867,-0.041 0.0471,-0.0122 0.0947,-0.0233 0.14258,-0.0332 0.0479,-0.01 0.0958,-0.0179 0.14453,-0.0254 0.0487,-0.007 0.099,-0.0145 0.14844,-0.0195 0.0494,-0.005 0.0983,-0.009 0.14843,-0.0117 0.0501,-0.003 0.10164,-0.004 0.15235,-0.004 0.0507,0 0.10028,0.001 0.15039,0.004 0.0501,0.003 0.10095,0.007 0.15039,0.0117 0.0494,0.005 0.0978,0.012 0.14648,0.0195 0.0487,0.008 0.0966,0.0155 0.14454,0.0254 0.0479,0.01 0.0955,0.021 0.14257,0.0332 0.0471,0.0122 0.0945,0.0266 0.14063,0.041 0.0461,0.0145 0.0915,0.0302 0.13672,0.0469 0.0452,0.0166 0.0887,0.034 0.13281,0.0527 0.0441,0.0188 0.0878,0.0378 0.13086,0.0586 0.043,0.0208 0.0871,0.0436 0.12891,0.0664 0.0418,0.0228 0.0824,0.0455 0.12304,0.0703 0.0406,0.0248 0.0798,0.0515 0.11914,0.0781 0.0393,0.0266 0.0792,0.0536 0.11719,0.082 0.0379,0.0284 0.0748,0.0577 0.11133,0.0879 0.0365,0.0302 0.0724,0.0619 0.10742,0.0937 0.035,0.0319 0.0681,0.0642 0.10156,0.0977 0.0335,0.0335 0.0677,0.0685 0.0996,0.10352 0.0319,0.035 0.0616,0.0709 0.0918,0.10742 0.0302,0.0365 0.0594,0.0734 0.0879,0.11133 0.0284,0.038 0.0573,0.0759 0.084,0.11523 0.0266,0.0393 0.0514,0.0805 0.0762,0.1211 0.0248,0.0406 0.0494,0.0812 0.0723,0.12304 0.0228,0.0419 0.0436,0.0839 0.0644,0.12696 0.0208,0.043 0.0418,0.0867 0.0606,0.13086 0.0188,0.0441 0.0361,0.0896 0.0527,0.13476 0.0166,0.0452 0.0324,0.0906 0.0469,0.13672 0.0145,0.0461 0.0269,0.0916 0.0391,0.13867 0.0122,0.0471 0.0233,0.0947 0.0332,0.14258 0.01,0.0479 0.0198,0.0978 0.0273,0.14648 0.008,0.0487 0.0125,0.097 0.0176,0.14649 0.005,0.0494 0.009,0.0983 0.0117,0.14843 0.003,0.0501 0.004,0.10164 0.004,0.15235 0,0.0507 -0.001,0.10029 -0.004,0.15039 -0.003,0.0501 -0.007,0.10095 -0.0117,0.15039 -0.005,0.0494 -0.0101,0.0978 -0.0176,0.14649 -0.008,0.0487 -0.0174,0.0966 -0.0273,0.14453 -0.01,0.0479 -0.021,0.0955 -0.0332,0.14257 -0.0122,0.0471 -0.0246,0.0945 -0.0391,0.14063 -0.0145,0.0461 -0.0302,0.0915 -0.0469,0.13672 -0.0166,0.0452 -0.034,0.0906 -0.0527,0.13476 -0.0188,0.0441 -0.0397,0.0878 -0.0606,0.13086 -0.0208,0.043 -0.0416,0.0851 -0.0644,0.12696 -0.0228,0.0418 -0.0475,0.0824 -0.0723,0.12304 -0.0248,0.0406 -0.0495,0.0798 -0.0762,0.11914 -0.0266,0.0393 -0.0555,0.0792 -0.084,0.11719 -0.0284,0.0379 -0.0577,0.0748 -0.0879,0.11133 -0.0302,0.0365 -0.0599,0.0724 -0.0918,0.10742 -0.0319,0.035 -0.0661,0.07 -0.0996,0.10352 -0.0335,0.0335 -0.0665,0.0658 -0.10156,0.0977 -0.035,0.0319 -0.0709,0.0616 -0.10742,0.0918 -0.0365,0.0302 -0.0734,0.0614 -0.11133,0.0898 -0.0379,0.0284 -0.0779,0.0554 -0.11719,0.082 -0.0393,0.0266 -0.0785,0.0514 -0.11914,0.0762 -0.0406,0.0248 -0.0812,0.0494 -0.12304,0.0723 -0.0418,0.0228 -0.0859,0.0436 -0.12891,0.0645 -0.043,0.0208 -0.0867,0.0418 -0.13086,0.0605 -0.0441,0.0188 -0.0876,0.0361 -0.13281,0.0527 -0.0452,0.0167 -0.0906,0.0324 -0.13672,0.0469 -0.0462,0.0145 -0.0936,0.0269 -0.14063,0.0391 -0.0471,0.0122 -0.0947,0.0233 -0.14257,0.0332 -0.0479,0.01 -0.0958,0.0198 -0.14454,0.0273 -0.0487,0.007 -0.097,0.0145 -0.14648,0.0195 -0.0494,0.005 -0.10029,0.007 -0.15039,0.01 -0.0501,0.003 -0.0997,0.004 -0.15039,0.004 -0.0507,0 -0.10224,-0.001 -0.15235,-0.004 -0.0501,-0.003 -0.099,-0.005 -0.14843,-0.01 -0.0495,-0.005 -0.0997,-0.012 -0.14844,-0.0195 -0.0487,-0.008 -0.0966,-0.0175 -0.14453,-0.0273 -0.0479,-0.01 -0.0955,-0.021 -0.14258,-0.0332 -0.0471,-0.0122 -0.0925,-0.0246 -0.13867,-0.0391 -0.0462,-0.0145 -0.0935,-0.0302 -0.13867,-0.0469 -0.0452,-0.0166 -0.0887,-0.034 -0.13282,-0.0527 -0.0441,-0.0188 -0.0878,-0.0397 -0.13086,-0.0605 -0.0259,-0.0125 -0.0507,-0.0258 -0.0762,-0.0391 0.71958,0.79726 1.7584,1.30078 2.90821,1.30078 2.15407,0 3.92187,-1.7678 3.92187,-3.92188 0,-2.15408 -1.7678,-3.92187 -3.92187,-3.92187 z" />
      <path
         style="color:#000000;fill:#000000;fill-rule:evenodd;-inkscape-stroke:none"
         d="m 171.51263,104.99715 c -3.852,0 -7.00381,3.10301 -7.08789,6.93555 0.003,-0.0488 0.007,-0.0964 0.0117,-0.14453 0.005,-0.0494 0.012,-0.0978 0.0195,-0.14649 0.008,-0.0487 0.0155,-0.0986 0.0254,-0.14648 0.01,-0.0479 0.021,-0.0955 0.0332,-0.14258 0.0122,-0.0471 0.0265,-0.0925 0.041,-0.13867 0.0145,-0.0461 0.0283,-0.0915 0.0449,-0.13672 0.0166,-0.0452 0.0359,-0.0906 0.0547,-0.13476 0.0188,-0.0441 0.0378,-0.0878 0.0586,-0.13086 0.0208,-0.043 0.0436,-0.0851 0.0664,-0.12696 0.0228,-0.0419 0.0455,-0.0824 0.0703,-0.12304 0.0248,-0.0406 0.0515,-0.0818 0.0781,-0.1211 0.0266,-0.0393 0.0536,-0.0773 0.082,-0.11523 0.0284,-0.038 0.0577,-0.0748 0.0879,-0.11133 0.0302,-0.0365 0.0619,-0.0724 0.0937,-0.10742 0.0319,-0.035 0.0642,-0.07 0.0977,-0.10352 0.0335,-0.0335 0.0685,-0.0658 0.10352,-0.0977 0.035,-0.0319 0.0689,-0.0636 0.10546,-0.0937 0.0365,-0.0302 0.0753,-0.0594 0.11329,-0.0879 0.038,-0.0284 0.0759,-0.0554 0.11523,-0.082 0.0393,-0.0266 0.0785,-0.0534 0.11914,-0.0781 0.0406,-0.0248 0.0831,-0.0475 0.125,-0.0703 0.0419,-0.0228 0.0839,-0.0456 0.12695,-0.0664 0.043,-0.0208 0.0867,-0.0398 0.13086,-0.0586 0.0441,-0.0188 0.0876,-0.0361 0.13282,-0.0527 0.0452,-0.0166 0.0925,-0.0324 0.13867,-0.0469 0.0461,-0.0145 0.0916,-0.0288 0.13867,-0.041 0.0471,-0.0122 0.0947,-0.0233 0.14258,-0.0332 0.0479,-0.01 0.0958,-0.0179 0.14453,-0.0254 0.0487,-0.008 0.099,-0.0145 0.14844,-0.0195 0.0494,-0.005 0.0983,-0.009 0.14843,-0.0117 0.045,-0.002 0.0913,-0.004 0.13672,-0.004 0.92081,-1.29495 2.43328,-2.13672 4.15235,-2.13672 2.82359,0 5.08984,2.26821 5.08984,5.0918 0,2.82359 -2.26625,5.08984 -5.08984,5.08984 -1.71965,0 -3.23162,-0.84159 -4.15235,-2.13671 -0.0454,-2.4e-4 -0.0917,-0.002 -0.13672,-0.004 -0.0501,-0.003 -0.099,-0.005 -0.14843,-0.01 -0.0495,-0.005 -0.0997,-0.012 -0.14844,-0.0195 -0.0487,-0.007 -0.0966,-0.0174 -0.14453,-0.0273 -0.0479,-0.01 -0.0955,-0.021 -0.14258,-0.0332 -0.0471,-0.0122 -0.0925,-0.0246 -0.13867,-0.0391 -0.0462,-0.0145 -0.0935,-0.0302 -0.13867,-0.0469 -0.0452,-0.0166 -0.0887,-0.034 -0.13282,-0.0527 -0.0441,-0.0188 -0.0878,-0.0397 -0.13086,-0.0606 -0.043,-0.0208 -0.0851,-0.0416 -0.12695,-0.0644 -0.0419,-0.0228 -0.0844,-0.0475 -0.125,-0.0723 -0.0406,-0.0248 -0.0798,-0.0495 -0.11914,-0.0762 -0.0393,-0.0266 -0.0773,-0.0536 -0.11523,-0.082 -0.0379,-0.0284 -0.0768,-0.0597 -0.11329,-0.0898 -0.0365,-0.0302 -0.0704,-0.0599 -0.10546,-0.0918 -0.035,-0.0319 -0.07,-0.0642 -0.10352,-0.0977 -0.0335,-0.0335 -0.0658,-0.0685 -0.0977,-0.10352 -0.0319,-0.035 -0.0636,-0.0709 -0.0937,-0.10742 -0.0302,-0.0365 -0.0594,-0.0734 -0.0879,-0.11133 -0.0284,-0.0379 -0.0554,-0.0779 -0.082,-0.11719 -0.0266,-0.0393 -0.0534,-0.0785 -0.0781,-0.11914 -0.0248,-0.0406 -0.0475,-0.0812 -0.0703,-0.12304 -0.0228,-0.0418 -0.0456,-0.0839 -0.0664,-0.12696 -0.0208,-0.043 -0.0398,-0.0867 -0.0586,-0.13086 -0.0188,-0.0441 -0.038,-0.0896 -0.0547,-0.13476 -0.0166,-0.0452 -0.0305,-0.0906 -0.0449,-0.13672 -0.0145,-0.0461 -0.0288,-0.0936 -0.041,-0.14063 -0.0122,-0.0471 -0.0233,-0.0947 -0.0332,-0.14257 -0.01,-0.0479 -0.0179,-0.0958 -0.0254,-0.14454 -0.008,-0.0487 -0.0145,-0.097 -0.0195,-0.14648 -0.005,-0.0488 -0.009,-0.099 -0.0117,-0.14844 0.082,3.83429 3.23458,6.9375 7.08789,6.9375 3.90447,0 7.08984,-3.18537 7.08984,-7.08984 0,-3.90447 -3.18537,-7.0918 -7.08984,-7.0918 z"
         id="path1565" />
    </g>
  </g>
  <g
     inkscape:groupmode="layer"
     id="layer11"
     inkscape:label="legacy"
     transform="translate(-171.99974,-172)" />
  <g
     inkscape:groupmode="layer"
     id="layer7"
     inkscape:label="places"
     transform="translate(-171.99974,-108)" />
  <g
     inkscape:groupmode="layer"
     id="layer6"
     inkscape:label="mimetypes"
     transform="translate(-171.99974,-108)" />
  <g
     inkscape:groupmode="layer"
     id="layer5"
     inkscape:label="emotes"
     transform="translate(-171.99974,-108)" />
  <g
     inkscape:groupmode="layer"
     id="layer9"
     inkscape:label="emblems"
     transform="translate(-171.99974,-108)" />
  <g
     inkscape:groupmode="layer"
     id="layer2"
     inkscape:label="devices"
     transform="translate(-171.99974,-108)" />
  <g
     inkscape:groupmode="layer"
     id="layer8"
     inkscape:label="categories"
     transform="translate(-171.99974,-108)" />
  <g
     inkscape:groupmode="layer"
     id="layer3"
     inkscape:label="apps"
     transform="translate(-171.99974,-108)" />
  <g
     inkscape:groupmode="layer"
     id="layer4"
     inkscape:label="actions"
     transform="translate(-171.99974,-108)" />
</svg>
