<?xml version="1.0" encoding="UTF-8" standalone="no"?>
<!-- Created with Inkscape (http://www.inkscape.org/) -->

<svg
   width="16"
   height="16"
   id="svg3250"
   version="1.1"
   inkscape:version="1.1 (c68e22c387, 2021-05-23)"
   sodipodi:docname="my-espresso-off-symbolic.svg"
   viewBox="0 0 16 16"
   xmlns:inkscape="http://www.inkscape.org/namespaces/inkscape"
   xmlns:sodipodi="http://sodipodi.sourceforge.net/DTD/sodipodi-0.dtd"
   xmlns:xlink="http://www.w3.org/1999/xlink"
   xmlns="http://www.w3.org/2000/svg"
   xmlns:svg="http://www.w3.org/2000/svg"
   xmlns:rdf="http://www.w3.org/1999/02/22-rdf-syntax-ns#"
   xmlns:cc="http://creativecommons.org/ns#"
   xmlns:dc="http://purl.org/dc/elements/1.1/">
  <defs
     id="defs3252">
    <linearGradient
       id="linearGradient3678">
      <stop
         style="stop-color:#ffffff;stop-opacity:1;"
         offset="0"
         id="stop3680" />
      <stop
         style="stop-color:#e6e6e6;stop-opacity:1;"
         offset="1"
         id="stop3682" />
    </linearGradient>
    <linearGradient
       inkscape:collect="always"
       xlink:href="#linearGradient3678"
       id="linearGradient3784"
       x1="341.31662"
       y1="267.60748"
       x2="341.31662"
       y2="281.36218"
       gradientUnits="userSpaceOnUse" />
    <linearGradient
       inkscape:collect="always"
       xlink:href="#linearGradient3678"
       id="linearGradient3084"
       gradientUnits="userSpaceOnUse"
       x1="341.31662"
       y1="267.60748"
       x2="341.31662"
       y2="281.36218"
       gradientTransform="matrix(1.1034483,0,0,1.1034483,-34.724597,-28.209891)" />
    <linearGradient
       inkscape:collect="always"
       xlink:href="#linearGradient3678"
       id="linearGradient3087"
       gradientUnits="userSpaceOnUse"
       x1="341.31662"
       y1="267.60748"
       x2="341.31662"
       y2="281.36218"
       gradientTransform="matrix(1.1034483,0,0,1.1034483,-34.310807,-28.209891)" />
    <linearGradient
       inkscape:collect="always"
       xlink:href="#linearGradient3678"
       id="linearGradient3090"
       gradientUnits="userSpaceOnUse"
       x1="341.31662"
       y1="267.60748"
       x2="341.31662"
       y2="281.36218"
       gradientTransform="matrix(1.1034483,0,0,1.1034483,-33.897017,-28.209891)" />
  </defs>
  <sodipodi:namedview
     id="base"
     pagecolor="#767676"
     bordercolor="#666666"
     borderopacity="1"
     inkscape:pageopacity="1"
     inkscape:pageshadow="2"
     inkscape:zoom="11.079848"
     inkscape:cx="-6.2726495"
     inkscape:cy="16.877489"
     inkscape:document-units="px"
     inkscape:current-layer="layer1"
     showgrid="false"
     fit-margin-top="0"
     fit-margin-left="0"
     fit-margin-right="0"
     fit-margin-bottom="0"
     gridtolerance="1"
     inkscape:window-width="1920"
     inkscape:window-height="1048"
     inkscape:window-x="0"
     inkscape:window-y="32"
     inkscape:window-maximized="1"
     showguides="true"
     inkscape:guide-bbox="true"
     inkscape:pagecheckerboard="0">
    <inkscape:grid
       type="xygrid"
       id="grid4212"
       empspacing="5"
       visible="true"
       enabled="true"
       snapvisiblegridlinesonly="true" />
  </sodipodi:namedview>
  <metadata
     id="metadata3255">
    <rdf:RDF>
      <cc:Work
         rdf:about="">
        <dc:format>image/svg+xml</dc:format>
        <dc:type
           rdf:resource="http://purl.org/dc/dcmitype/StillImage" />
      </cc:Work>
    </rdf:RDF>
  </metadata>
  <g
     inkscape:label="Capa 1"
     inkscape:groupmode="layer"
     id="layer1"
     transform="translate(-331.85715,-259.36218)">
    <g
       id="g124"
       transform="matrix(0.88888391,0,0,0.88888391,-0.20408584,37.882999)"
       style="fill:#000000">
      <path
         style="fill:#000000;fill-opacity:1;stroke:none;stroke-width:0.585634"
         d="m 342.26299,263.36218 c -3.47812,0 -7.40589,2.05749 -7.40589,5.72571 0,4.41821 0.7125,10.27429 7.40589,10.27429 6.69339,0 7.407,-5.85608 7.407,-10.27429 0,-3.66822 -3.92888,-5.72571 -7.407,-5.72571 z m 0,2.03109 a 5.4826425,3.8444383 0 0 1 5.48251,3.84453 5.4826425,3.8444383 0 0 1 -5.48251,3.84453 5.4826425,3.8444383 0 0 1 -5.48251,-3.84453 5.4826425,3.8444383 0 0 1 5.48251,-3.84453 z"
         id="path4158-9"
         inkscape:connector-curvature="0" />
      <path
         style="color:#000000;font-style:normal;font-variant:normal;font-weight:normal;font-stretch:normal;font-size:medium;line-height:normal;font-family:sans-serif;text-indent:0;text-align:start;text-decoration:none;text-decoration-line:none;text-decoration-style:solid;text-decoration-color:#000000;letter-spacing:normal;word-spacing:normal;text-transform:none;writing-mode:lr-tb;direction:ltr;baseline-shift:baseline;text-anchor:start;white-space:normal;shape-padding:0;clip-rule:nonzero;display:inline;overflow:visible;visibility:visible;isolation:auto;mix-blend-mode:normal;color-interpolation:sRGB;color-interpolation-filters:linearRGB;solid-color:#000000;solid-opacity:1;fill:#000000;fill-opacity:1;fill-rule:evenodd;stroke:none;stroke-width:2;stroke-linecap:butt;stroke-linejoin:miter;stroke-miterlimit:4;stroke-dasharray:none;stroke-dashoffset:0;stroke-opacity:1;color-rendering:auto;image-rendering:auto;shape-rendering:auto;text-rendering:auto;enable-background:accumulate"
         d="m 348.83784,268.98254 v 2 c 1.25991,0 1.77413,0.32598 1.92188,0.51367 0.14775,0.18769 0.18245,0.43931 -0.041,0.9375 -0.44694,0.99638 -2.05966,2.26758 -3.63086,2.26758 v 2 c 2.5062,0 4.62142,-1.58635 5.45703,-3.44922 0.41781,-0.93143 0.48146,-2.10961 -0.21484,-2.99414 -0.69631,-0.88453 -1.89831,-1.27539 -3.49219,-1.27539 z"
         id="path4171"
         inkscape:connector-curvature="0" />
    </g>
    <path
       id="path1500"
       style="color:#000000;opacity:0.35;fill:#000000;stroke-linecap:round;stroke-linejoin:round;-inkscape-stroke:none"
       d="m 316.36507,257.13444 c -2.33536,0 -4.25,1.91463 -4.25,4.25 0,2.33536 1.91464,4.25 4.25,4.25 1.61794,0 3.0327,-0.9186 3.75,-2.25977 0.71731,1.34117 2.13207,2.25977 3.75,2.25977 2.33537,0 4.25,-1.91464 4.25,-4.25 0,-2.33537 -1.91463,-4.25 -4.25,-4.25 -1.61793,0 -3.03269,0.91859 -3.75,2.25976 -0.7173,-1.34117 -2.13206,-2.25976 -3.75,-2.25976 z m 0,2 c 1.25449,0 2.25,0.99551 2.25,2.25 0,1.25448 -0.99551,2.25 -2.25,2.25 -1.25448,0 -2.25,-0.99552 -2.25,-2.25 0,-1.25449 0.99552,-2.25 2.25,-2.25 z m 7.5,0 c 1.25449,0 2.25,0.99551 2.25,2.25 0,1.25448 -0.99551,2.25 -2.25,2.25 -1.25448,0 -2.25,-0.99552 -2.25,-2.25 0,-1.25449 0.99552,-2.25 2.25,-2.25 z" />
    <g
       id="g895"
       transform="translate(4.22342,-14.595491)">
      <path
         style="color:#000000;opacity:0.35;fill:#000000;stroke-linecap:round;stroke-linejoin:round;-inkscape-stroke:none"
         d="m 335.63373,274.19496 c -3.85415,0 -7,3.14586 -7,7 a 1.0001,1.0001 0 0 0 0.002,0.0566 c 0.002,0.0329 0.004,0.0638 0.006,0.0957 a 1.0001,1.0001 0 0 0 -0.008,0.008 v 7.36523 a 1.0001,1.0001 0 0 0 1.55469,0.83203 l 2.44531,-1.63086 2.44531,1.63086 a 1.0001,1.0001 0 0 0 1.10938,0 l 2.44531,-1.63086 2.44531,1.63086 a 1.0001,1.0001 0 0 0 1.55469,-0.83203 v -7.36523 a 1.0001,1.0001 0 0 0 -0.008,-0.008 c 0.002,-0.0338 0.004,-0.0668 0.006,-0.10156 a 1.0001,1.0001 0 0 0 0.002,-0.0508 c 0,-3.85414 -3.14585,-7 -7,-7 z m 0,2 c 2.77046,0 4.99355,2.22284 4.99805,4.99219 -0.002,0.0244 -0.003,0.0484 -0.006,0.0742 a 1.0001,1.0001 0 0 0 0.043,0.1289 l -0.0352,-0.0351 v 5.49609 l -1.44531,-0.96289 a 1.0001,1.0001 0 0 0 -1.10938,0 l -2.44531,1.63086 -2.44531,-1.63086 a 1.0001,1.0001 0 0 0 -1.10938,0 l -1.44531,0.96289 v -5.49609 l -0.0117,0.0117 a 1.0001,1.0001 0 0 0 0.0195,-0.0996 c -0.002,-0.0277 -0.004,-0.0537 -0.006,-0.0801 0.005,-2.76935 2.22759,-4.99219 4.99805,-4.99219 z"
         id="path871" />
      <path
         id="rect1698"
         style="color:#000000;opacity:0.35;fill:#000000;stroke-width:2;stroke-linecap:round;stroke-linejoin:round;-inkscape-stroke:none"
         d="m 0.77539062,20.808594 v 1 1 1 H 2.7753906 v -1 -1 -1 z"
         transform="translate(331.85715,259.36218)" />
      <path
         id="rect1896"
         style="color:#000000;opacity:0.35;fill:#000000;stroke-width:2;stroke-linecap:round;stroke-linejoin:round;-inkscape-stroke:none"
         d="m 4.7753906,20.808594 v 1 1 1 h 2 v -1 -1 -1 z"
         transform="translate(331.85715,259.36218)" />
    </g>
  </g>
</svg>
